<?xml version='1.0' encoding='utf-8'?>
<svg xmlns="http://www.w3.org/2000/svg" version="1.1" id="图层_1" x="0px" y="0px" viewBox="0 0 3300 2200" style="enable-background:new 0 0 3300 2200;" xml:space="preserve">
<style type="text/css">
	.st0{fill:#FFFFFF;}
	.st1{fill:none;stroke:#000000;stroke-width:0.5;}
	.st2{font-family:'Helvetica-Bold';}
	.st3{font-size:13px;}
	.st4{font-family:'Helvetica';}
	.st5{fill:none;stroke:#00AEEF;stroke-width:0.5;}
	.st6{fill:#27AAE1;}
	.st7{fill:none;stroke:#27AAE1;stroke-width:0.5;}
</style>
<g id="Notes">
	<rect id="artboard" x="-0.5" y="-63.1" class="st0" width="3300" height="2200" />
	<line class="st1" x1="262.5" y1="228.9" x2="3035.5" y2="228.9" />
	<text transform="matrix(1 0 0 1 262.5 258.9335)" class="st2 st3">Weight/Scale Variations</text>
	<text transform="matrix(1 0 0 1 533.5633 258.9335)" class="st4 st3">Ultralight</text>
	<text transform="matrix(1 0 0 1 843.2775 258.9335)" class="st4 st3">Thin</text>
	<text transform="matrix(1 0 0 1 1138.535 258.9335)" class="st4 st3">Light</text>
	<text transform="matrix(1 0 0 1 1426.5773 258.9335)" class="st4 st3">Regular</text>
	<text transform="matrix(1 0 0 1 1722.9419 258.9335)" class="st4 st3">Medium</text>
	<text transform="matrix(1 0 0 1 2015.6719 258.9335)" class="st4 st3">Semibold</text>
	<text transform="matrix(1 0 0 1 2326.4705 258.9335)" class="st4 st3">Bold</text>
	<text transform="matrix(1 0 0 1 2617.7659 258.9335)" class="st4 st3">Heavy</text>
	<text transform="matrix(1 0 0 1 2917.0054 258.9335)" class="st4 st3">Black</text>
	<line class="st1" x1="262.5" y1="1839.9" x2="3035.5" y2="1839.9" />
	<g transform="matrix(1 0 0 1 263 1933)">
		<path d="M8.7-62.3c1.1,0,2.1-0.2,3-0.6c1-0.4,1.8-1,2.5-1.7c0.7-0.7,1.3-1.6,1.7-2.5c0.4-1,0.6-2,0.6-3s-0.2-2.1-0.6-3    c-0.4-1-1-1.8-1.7-2.5c-0.7-0.7-1.6-1.3-2.5-1.7c-1-0.4-2-0.6-3-0.6c-1.1,0-2.1,0.2-3,0.6s-1.8,1-2.5,1.7    c-0.7,0.6-1.3,1.5-1.7,2.4c-0.4,1-0.6,2-0.6,3s0.2,2.1,0.6,3.1s1,1.8,1.7,2.5c0.7,0.7,1.6,1.3,2.5,1.7C6.7-62.5,7.7-62.3,8.7-62.3    z M8.7-63.8c-0.9,0-1.7-0.2-2.5-0.5c-0.7-0.3-1.4-0.7-2-1.3s-1-1.3-1.4-2c-0.3-0.8-0.4-1.7-0.4-2.6s0.2-1.7,0.5-2.5s0.8-1.5,1.4-2    c0.6-0.6,1.3-1,2-1.4c0.8-0.3,1.6-0.5,2.5-0.5s1.7,0.2,2.5,0.5c0.8,0.3,1.5,0.8,2,1.4c0.6,0.6,1,1.3,1.4,2    c0.3,0.8,0.5,1.6,0.5,2.5s-0.2,1.7-0.5,2.5s-0.8,1.5-1.4,2c-0.6,0.6-1.3,1-2,1.4C10.5-63.9,9.6-63.8,8.7-63.8z M5.2-70.2    c0,0.2,0.1,0.4,0.2,0.5c0.1,0.2,0.3,0.3,0.5,0.3H8v2.1c0,0.2,0.1,0.4,0.2,0.5c0.1,0.2,0.3,0.2,0.5,0.2s0.4-0.1,0.5-0.2    c0.2-0.1,0.3-0.3,0.3-0.5v-2.1h2.1c0.2,0,0.4-0.1,0.5-0.2c0.1-0.1,0.2-0.3,0.2-0.5c0-0.2-0.1-0.4-0.2-0.5    c-0.1-0.1-0.3-0.2-0.5-0.2H9.5v-2.1c0-0.2-0.1-0.4-0.2-0.5c-0.1-0.1-0.3-0.2-0.5-0.2s-0.4,0.1-0.5,0.2s-0.2,0.3-0.2,0.5v2.1H5.9    c-0.2-0.1-0.4,0-0.5,0.1C5.2-70.6,5.2-70.4,5.2-70.2z" />
	</g>
	<g transform="matrix(1 0 0 1 281.867 1933)">
		<path d="M11.2-60.2c1.4,0,2.6-0.3,3.8-0.8s2.3-1.2,3.2-2.2c0.9-0.9,1.6-2,2.2-3.2c0.5-1.2,0.8-2.5,0.8-3.8c0-1.4-0.3-2.6-0.8-3.8    c-0.5-1.2-1.2-2.3-2.2-3.2c-0.9-0.9-2-1.6-3.2-2.2c-1.2-0.5-2.5-0.8-3.8-0.8s-2.6,0.3-3.8,0.8s-2.3,1.2-3.2,2.2    c-0.9,0.9-1.6,2-2.2,3.2c-0.5,1.2-0.8,2.5-0.8,3.8c0,1.4,0.3,2.6,0.8,3.8c0.5,1.2,1.3,2.4,2.2,3.3c0.9,0.9,2,1.6,3.2,2.2    C8.6-60.3,9.8-60.2,11.2-60.2z M11.2-61.9C10-61.9,9-62.1,8-62.5s-1.9-1-2.6-1.8C4.6-65,4-65.9,3.6-66.9S2.9-69,2.9-70.2    s0.2-2.2,0.6-3.2s1-1.9,1.8-2.6c0.8-0.8,1.6-1.4,2.6-1.8s2.1-0.6,3.2-0.6s2.2,0.2,3.2,0.6s1.9,1,2.6,1.8c0.8,0.8,1.4,1.6,1.8,2.6    s0.6,2.1,0.6,3.2c0,1.2-0.2,2.2-0.6,3.2s-1,1.9-1.8,2.6c-0.8,0.8-1.6,1.4-2.6,1.8C13.3-62.2,12.4-61.9,11.2-61.9z M6.7-70.2    c0,0.2,0.1,0.4,0.2,0.6c0.2,0.2,0.4,0.3,0.6,0.3h2.9v2.9c0,0.2,0.1,0.4,0.2,0.6c0.1,0.2,0.3,0.2,0.6,0.2c0.2,0,0.4-0.1,0.6-0.2    C12-66,12-66.2,12-66.4v-2.9h2.9c0.2,0,0.4-0.1,0.6-0.2c0.2-0.1,0.2-0.3,0.2-0.6c0-0.2-0.1-0.4-0.2-0.6c-0.2-0.2-0.4-0.2-0.6-0.2    H12v-2.9c0-0.3-0.1-0.5-0.2-0.6s-0.4-0.2-0.6-0.2c-0.2,0-0.4,0.1-0.6,0.2c-0.1,0.2-0.2,0.4-0.2,0.6v2.9H7.5    c-0.3,0-0.5,0.1-0.6,0.2S6.7-70.4,6.7-70.2z" />
	</g>
	<g transform="matrix(1 0 0 1 305.646 1933)">
		<path d="M14.5-57.4c1.4,0,2.7-0.2,4-0.6s2.4-1,3.5-1.8s2-1.7,2.8-2.8c0.7-1.1,1.3-2.3,1.7-3.6c0.4-1.3,0.6-2.6,0.6-4    s-0.2-2.7-0.6-4s-1-2.4-1.8-3.5s-1.7-2-2.8-2.8c-1.1-0.8-2.2-1.4-3.5-1.8s-2.6-0.6-4-0.6s-2.7,0.2-4,0.6s-2.4,1-3.5,1.8    c-1.1,0.8-2,1.7-2.8,2.8s-1.4,2.2-1.8,3.5c-0.4,1.3-0.6,2.6-0.6,4s0.2,2.7,0.6,4c0.4,1.3,1,2.4,1.8,3.5c0.8,1.1,1.7,2,2.8,2.8    c1.2,0.8,2.3,1.4,3.6,1.8C11.7-57.7,13.1-57.4,14.5-57.4z M14.5-59.3c-1.2,0-2.4-0.2-3.4-0.6c-1.1-0.4-2.1-0.9-3-1.5    c-1-0.6-1.8-1.4-2.4-2.3c-0.7-0.9-1.2-1.9-1.6-3c-0.3-1.1-0.5-2.2-0.5-3.5c0-1.2,0.2-2.4,0.5-3.5c0.4-1.1,0.9-2.1,1.5-3    C6.3-77.6,7-78.4,8-79.1c0.9-0.7,1.9-1.2,3-1.5c1.1-0.4,2.2-0.5,3.4-0.5s2.4,0.2,3.5,0.5c1.1,0.4,2.1,0.9,3,1.5    c0.9,0.7,1.7,1.5,2.4,2.4c0.7,0.9,1.2,1.9,1.5,3c0.4,1.1,0.6,2.2,0.6,3.5c0,1.2-0.2,2.4-0.5,3.4c-0.4,1.1-0.9,2.1-1.5,3    c-0.7,0.9-1.5,1.7-2.4,2.4c-0.9,0.7-1.9,1.2-3,1.5C16.8-59.4,15.7-59.3,14.5-59.3z M8.7-70.2c0,0.3,0.1,0.5,0.3,0.6    c0.2,0.2,0.4,0.2,0.7,0.2h3.9v4c0,0.3,0.1,0.5,0.2,0.7c0.2,0.2,0.4,0.3,0.6,0.3c0.3,0,0.5-0.1,0.7-0.3s0.3-0.4,0.3-0.7v-4h4    c0.3,0,0.5-0.1,0.7-0.2c0.2-0.2,0.3-0.4,0.3-0.6c0-0.3-0.1-0.5-0.3-0.7c-0.3-0.1-0.5-0.2-0.8-0.2h-4V-75c0-0.3-0.1-0.5-0.3-0.7    c-0.2-0.2-0.4-0.3-0.7-0.3s-0.5,0.1-0.6,0.3c-0.2,0.2-0.2,0.4-0.2,0.7v3.9H9.6c-0.3,0-0.5,0.1-0.6,0.3C8.8-70.6,8.7-70.4,8.7-70.2    z" />
	</g>
	<text transform="matrix(1 0 0 1 262.5 1889.9336)" class="st2 st3">Design Variations</text>
	<text transform="matrix(1 0 0 1 262.5 1907.9336)" class="st4 st3">Symbols are supported in up to nine weights and three scales.</text>
	<text transform="matrix(1 0 0 1 262.5 1925.9336)" class="st4 st3">For optimal layout with text and other symbols, vertically align</text>
	<text transform="matrix(1 0 0 1 262.5 1943.9336)" class="st4 st3">symbols with the adjacent text.</text>
	<line class="st5" x1="775.5" y1="1855.9" x2="775.5" y2="1869.9" />
	<g transform="matrix(1 0 0 1 776 1933)">
		<path d="M2.8-62.9c0.3,0,0.5-0.1,0.6-0.2c0.1-0.1,0.3-0.3,0.4-0.6L5-67.1h5.8l1.3,3.4c0.1,0.3,0.2,0.5,0.4,0.6    c0.1,0.1,0.3,0.2,0.6,0.2s0.5-0.1,0.6-0.2c0.2-0.1,0.2-0.3,0.2-0.6c0-0.1,0-0.3-0.1-0.5L9.2-76.5c-0.1-0.3-0.3-0.5-0.5-0.7    c-0.2-0.1-0.5-0.2-0.8-0.2c-0.6,0-1,0.3-1.2,0.9L2.1-64.3C2-64.1,2-63.9,2-63.7s0.1,0.4,0.2,0.6C2.3-62.9,2.6-62.9,2.8-62.9z     M5.5-68.6l2.4-6.6l0,0l2.4,6.6C10.3-68.6,5.5-68.6,5.5-68.6z" />
	</g>
	<line class="st5" x1="792.7" y1="1855.9" x2="792.7" y2="1869.9" />
	<text transform="matrix(1 0 0 1 775.5 1889.9336)" class="st2 st3">Margins</text>
	<text transform="matrix(1 0 0 1 775.5 1907.9336)" class="st4 st3">Leading and trailing margins on the left and right side of each symbol</text>
	<text transform="matrix(1 0 0 1 775.5 1925.9336)" class="st4 st3">can be adjusted by modifying the x-location of the margin guidelines.</text>
	<text transform="matrix(1 0 0 1 775.5 1943.9336)" class="st4 st3">Modifications are automatically applied proportionally to all</text>
	<text transform="matrix(1 0 0 1 775.5 1961.9336)" class="st4 st3">scales and weights.</text>
	<g transform="matrix(1 0 0 1 1289 1933)">
		<path d="M2.3-61.2L4-59.5c0.5,0.4,0.9,0.6,1.4,0.6s0.9-0.3,1.4-0.8l10.7-11.8l-1-1L5.9-60.8c-0.2,0.2-0.3,0.3-0.5,0.3    S5-60.6,4.8-60.8L3.6-62c-0.2-0.2-0.3-0.4-0.3-0.6c0-0.2,0.1-0.4,0.3-0.5l11.5-10.8l-1-1L2.5-64c-0.4,0.5-0.7,0.9-0.7,1.4    C1.7-62.1,1.9-61.7,2.3-61.2z M8.8-79.4c-0.2,0.2-0.3,0.4-0.4,0.7c0,0.3,0,0.5,0.1,0.7c0.1,0.2,0.3,0.3,0.5,0.4    c0.2,0.1,0.5,0.1,0.8,0c0.7-0.2,1.5-0.2,2.2-0.2s1.5,0.3,2.2,0.7l-0.6,1.5c-0.2,0.4-0.2,0.8-0.1,1.1c0.1,0.3,0.2,0.6,0.5,0.9    l2.3,2.3c0.2,0.2,0.5,0.4,0.7,0.4s0.5,0,0.8,0l1.1-0.2l0.7,0.7v0.6c0,0.2,0,0.5,0.1,0.7c0.1,0.2,0.2,0.4,0.5,0.7l0.8,0.7    c0.2,0.2,0.5,0.4,0.8,0.4s0.5-0.1,0.8-0.3l2.9-2.9c0.2-0.2,0.3-0.5,0.3-0.8c0-0.3-0.1-0.5-0.4-0.8L24.5-73    c-0.2-0.2-0.5-0.4-0.7-0.5c-0.2-0.1-0.4-0.1-0.7-0.1h-0.6l-0.6-0.6l0.2-1.1c0.1-0.3,0.1-0.5,0-0.8c-0.1-0.3-0.3-0.5-0.6-0.8    l-2.1-2.2c-0.8-0.8-1.7-1.4-2.7-1.9c-0.9-0.4-1.9-0.6-2.8-0.6c-1,0-1.9,0.2-2.8,0.5C10.3-80.7,9.5-80.2,8.8-79.4z M10.3-79.1    c0.6-0.4,1.3-0.8,1.9-0.9c0.7-0.2,1.4-0.2,2.1-0.2c0.7,0.1,1.4,0.3,2.1,0.6c0.7,0.3,1.3,0.7,1.8,1.3l2.4,2.4    c0.1,0.1,0.2,0.2,0.2,0.3c0,0.1,0,0.3,0,0.4l-0.3,1.6l1.5,1.5l1-0.1c0.1,0,0.2,0,0.3,0c0.1,0,0.1,0.1,0.2,0.2l0.6,0.6L21.7-69    l-0.6-0.6c-0.1-0.1-0.2-0.2-0.2-0.2c0-0.1,0-0.2,0-0.3l0.1-1l-1.5-1.5L18-72.3c-0.2,0-0.3,0-0.4,0s-0.2-0.1-0.3-0.2l-2-2    c-0.1-0.1-0.2-0.2-0.2-0.3s0-0.3,0.1-0.4l0.9-2.1c-0.8-0.7-1.7-1.2-2.6-1.5c-1-0.3-2-0.3-3,0c-0.1,0-0.1,0-0.2,0    C10.2-79,10.2-79,10.3-79.1z" />
	</g>
	<text transform="matrix(1 0 0 1 1288.5 1889.9336)" class="st2 st3">Exporting</text>
	<text transform="matrix(1 0 0 1 1288.5 1907.9336)" class="st4 st3">Symbols should be outlined when exporting to ensure the</text>
	<text transform="matrix(1 0 0 1 1288.5 1925.9336)" class="st4 st3">design is preserved when submitting to Xcode.</text>
	<text id="template-version" transform="matrix(1 0 0 1 2951.9141 1869.9336)" class="st4 st3">Template v.3.0</text>
	<text transform="matrix(1 0 0 1 2864.9575 1887.9336)" class="st4 st3">Requires Xcode 13 or greater</text>
	<text id="descriptive-name" transform="matrix(1 0 0 1 2850.5293 1905.9336)" class="st4 st3">Generated from hourglass.circle</text>
	<text transform="matrix(1 0 0 1 2911.9111 1923.9336)" class="st4 st3">Typeset at 100 points</text>
	<text transform="matrix(1 0 0 1 262.5 662.9335)" class="st4 st3">Small</text>
	<text transform="matrix(1 0 0 1 262.5 1092.9336)" class="st4 st3">Medium</text>
	<text transform="matrix(1 0 0 1 262.5 1522.9336)" class="st4 st3">Large</text>
</g>
<g id="Guides">
	<g id="H-reference" transform="matrix(1 0 0 1 339 696)">
		<path class="st6" d="M1,0h2.6l25.7-67.1H30v-3.3h-1.9L1,0z M11.7-24.5H47l-0.8-2.2H12.4L11.7-24.5z M55.1,0h2.6L30.6-70.5h-1.2    v3.3L55.1,0z" />
	</g>
	<line id="Baseline-S" class="st7" x1="263" y1="696" x2="3036" y2="696" />
	<line id="Capline-S" class="st7" x1="263" y1="625.5" x2="3036" y2="625.5" />
	<g id="H-reference_00000174582976744177833630000007730325773184391314_" transform="matrix(1 0 0 1 339 1126)">
		<path class="st6" d="M1,0h2.6l25.7-67.1H30v-3.3h-1.9L1,0z M11.7-24.5H47l-0.8-2.2H12.4L11.7-24.5z M55.1,0h2.6L30.6-70.5h-1.2    v3.3L55.1,0z" />
	</g>
	<line id="Baseline-M" class="st7" x1="263" y1="1126" x2="3036" y2="1126" />
	<line id="Capline-M" class="st7" x1="263" y1="1055.5" x2="3036" y2="1055.5" />
	<g id="H-reference_00000113329496982249443560000009416180920334905247_" transform="matrix(1 0 0 1 339 1556)">
		<path class="st6" d="M1,0h2.6l25.7-67.1H30v-3.3h-1.9L1,0z M11.7-24.5H47l-0.8-2.2H12.4L11.7-24.5z M55.1,0h2.6L30.6-70.5h-1.2    v3.3L55.1,0z" />
	</g>
	<line id="Baseline-L" class="st7" x1="263" y1="1556" x2="3036" y2="1556" />
	<line id="Capline-L" class="st7" x1="263" y1="1485.5" x2="3036" y2="1485.5" />
	<line id="left-margin-Regular-M" class="st5" x1="1391.3" y1="1030.8" x2="1391.3" y2="1150.1" />
	<line id="right-margin-Regular-M" class="st5" x1="1508.4" y1="1030.8" x2="1508.4" y2="1150.1" />
</g>
<g id="Symbols">
	<g id="Regular-M" transform="matrix(1 0 0 1 1391.32 1126)">
		<g>
    <g>
      <path d="M57.7425 -77.6078C55.43 -77.066 54.155 -76.1966 53.28 -74.5838C53.155 -74.357 53.055 -74.0672 53.055 -73.9412C53.055 -73.8152 52.980000000000004 -73.6136 52.892500000000005 -73.475C52.792500000000004 -73.3364 52.655 -73.0592 52.580000000000005 -72.845C52.43 -72.4166 52.13 -71.6354 51.555 -70.199C51.3425 -69.6446 51.080000000000005 -68.9642 50.9675 -68.687C50.805 -68.246 50.53 -67.5656 50.167500000000004 -66.671C49.905 -66.0158 49.2425 -64.34 49.03 -63.772999999999996C48.905 -63.4328 48.755 -63.0296 48.6925 -62.891000000000005C48.292500000000004 -61.933400000000006 47.9925 -61.1648 47.3925 -59.614999999999995C47.005 -58.644800000000004 46.2425 -56.6918 45.667500000000004 -55.268C45.105000000000004 -53.8442 44.5675 -52.4582 44.4675 -52.181C44.38 -51.903800000000004 44.2175 -51.5132 44.1175 -51.299C44.0175 -51.0974 43.730000000000004 -50.3792 43.4925 -49.724000000000004C43.2425 -49.0688 42.88 -48.1364 42.68 -47.645C41.2175 -44.0792 40.88 -43.046 41.167500000000004 -43.046C41.230000000000004 -43.046 41.5675 -43.3106 41.905 -43.650800000000004C42.4675 -44.18 42.6175 -44.4446 43.255 -46.07C43.6425 -47.078 44.0675 -48.1364 44.1925 -48.4262C44.33 -48.716 44.43 -49.031 44.43 -49.1192C44.43 -49.2074 44.5175 -49.3964 44.6175 -49.5224C44.7175 -49.661 44.805 -49.8752 44.805 -50.0012C44.805 -50.1146 44.917500000000004 -50.4296 45.042500000000004 -50.6942C45.167500000000004 -50.958800000000004 45.5925 -51.992 45.980000000000004 -53.0C46.3675 -54.007999999999996 46.7675 -54.99080000000001 46.8675 -55.1798C46.9675 -55.3814 47.055 -55.595600000000005 47.055 -55.65860000000001C47.055 -55.7342 47.155 -56.024 47.292500000000004 -56.3138C47.53 -56.855599999999995 48.1425 -58.4306 49.8675 -62.828C50.3925 -64.1762 50.88 -65.42360000000001 50.955 -65.6C51.03 -65.7764 51.1925 -66.167 51.305 -66.482C51.917500000000004 -68.12 52.855000000000004 -70.3502 53.03 -70.5518C53.305 -70.8542 53.4925 -70.8164 53.855000000000004 -70.3754C54.38 -69.758 54.305 -69.3674 52.980000000000004 -66.041C51.417500000000004 -62.1224 51.417500000000004 -62.1224 50.8175 -60.497C50.53 -59.741 50.167500000000004 -58.770799999999994 50.005 -58.355000000000004C49.6925 -57.573800000000006 49.53 -57.145399999999995 48.455 -54.32300000000001C47.155 -50.9462 46.6425 -49.6232 46.042500000000004 -48.111200000000004C45.705 -47.254400000000004 45.43 -46.498400000000004 45.43 -46.4354C45.43 -46.196 45.8675 -46.3472 47.4675 -47.1284C49.2425 -47.9978 49.9675 -48.300200000000004 50.7175 -48.464C50.980000000000004 -48.5144 51.267500000000005 -48.6278 51.3425 -48.7034C51.417500000000004 -48.779 51.5675 -48.842 51.6925 -48.842C52.0675 -48.842 52.542500000000004 -49.346000000000004 52.730000000000004 -49.9508C52.830000000000005 -50.2784 53.080000000000005 -51.0218 53.305 -51.614C53.517500000000005 -52.2062 53.855000000000004 -53.1638 54.055 -53.756C54.53 -55.167199999999994 55.055 -56.590999999999994 55.88 -58.682599999999994C56.255 -59.6276 56.555 -60.4718 56.555 -60.56C56.555 -60.8498 57.305 -62.046800000000005 57.63 -62.260999999999996C58.0675 -62.5382 60.105000000000004 -62.5634 60.63 -62.286199999999994C61.38 -61.8956 61.805 -61.19 62.3675 -59.426C62.555 -58.8338 62.78 -58.166 62.88 -57.9392C62.980000000000004 -57.7124 63.055 -57.46040000000001 63.055 -57.37220000000001C63.0675 -57.284000000000006 63.167500000000004 -56.994200000000006 63.305 -56.717C63.4425 -56.439800000000005 63.542500000000004 -56.1374 63.555 -56.0492C63.555 -55.94840000000001 63.855000000000004 -55.129400000000004 64.23 -54.2222C64.605 -53.3024 65.01750000000001 -52.244 65.155 -51.866C66.20500000000001 -49.0688 66.2175 -49.0436 66.855 -48.8546C67.5425 -48.653 69.48 -47.96 69.93 -47.7458C70.6925 -47.4056 72.48 -46.498400000000004 72.76750000000001 -46.322C72.98 -46.1834 73.08000000000001 -46.1708 73.1925 -46.2842C73.3175 -46.4102 73.1925 -46.826 72.68 -48.111200000000004C72.3175 -49.031 71.9175 -50.039 71.805 -50.354C71.68 -50.669 71.2425 -51.7778 70.83000000000001 -52.811C69.9925 -54.89 68.18 -59.5646 67.7425 -60.748999999999995C67.45500000000001 -61.504999999999995 65.7175 -65.9024 65.055 -67.553C64.855 -68.0444 64.605 -68.7248 64.4925 -69.065C64.38 -69.4178 64.155 -69.9344 63.9925 -70.2368C63.830000000000005 -70.5392 63.43 -71.3582 63.105000000000004 -72.0638C62.792500000000004 -72.7694 62.355000000000004 -73.5632 62.155 -73.8152C61.63 -74.4956 61.205000000000005 -74.5964 59.13 -74.483C57.580000000000005 -74.4074 57.305 -74.357 56.830000000000005 -74.0924C56.392500000000005 -73.8278 56.205000000000005 -73.79 55.730000000000004 -73.8656C54.505 -74.042 54.4925 -74.861 55.7175 -75.6422C56.655 -76.247 57.392500000000005 -76.4486 58.9925 -76.52420000000001C60.305 -76.5872 60.6175 -76.562 61.4925 -76.31C62.0925 -76.14620000000001 62.68 -75.8816 62.9675 -75.6548C63.555 -75.176 64.26750000000001 -73.96640000000001 64.93 -72.278C65.755 -70.1738 65.8425 -69.9722 66.08000000000001 -69.4178C66.20500000000001 -69.128 66.305 -68.8256 66.305 -68.75C66.305 -68.6618 66.39250000000001 -68.4476 66.4925 -68.27120000000001C66.5925 -68.0822 66.8175 -67.5404 66.9925 -67.049C67.39250000000001 -65.978 67.655 -65.285 67.8675 -64.781C67.95500000000001 -64.5794 68.155 -64.0628 68.3175 -63.647000000000006C68.605 -62.86580000000001 68.905 -62.135000000000005 69.3175 -61.215199999999996C69.4425 -60.925399999999996 69.555 -60.572599999999994 69.555 -60.459199999999996C69.555 -60.333200000000005 69.605 -60.182 69.6675 -60.119C69.73 -60.043400000000005 69.93 -59.6024 70.1175 -59.111000000000004C70.2925 -58.6322 70.555 -57.977000000000004 70.68 -57.662000000000006C70.805 -57.346999999999994 71.1175 -56.553200000000004 71.3675 -55.897999999999996C71.6175 -55.2428 71.89250000000001 -54.5372 71.9925 -54.348200000000006C72.0925 -54.14660000000001 72.18 -53.9324 72.18 -53.8694C72.18 -53.7938 72.28 -53.504 72.4175 -53.2142C72.655 -52.6724 73.48 -50.5682 74.73 -47.33C75.8175 -44.5454 75.9175 -44.3564 76.655 -43.6634C77.33000000000001 -43.0586 77.68 -42.894800000000004 77.68 -43.2098C77.68 -43.3484 76.88 -45.4148 76.48 -46.2842C76.39250000000001 -46.498400000000004 76.305 -46.7252 76.305 -46.8008C76.305 -46.8638 76.155 -47.254400000000004 75.98 -47.6576C75.7925 -48.0734 75.5425 -48.6908 75.43 -49.031C75.305 -49.3838 75.0925 -49.9508 74.95500000000001 -50.291000000000004C74.8175 -50.6438 74.355 -51.803 73.9425 -52.874C73.51750000000001 -53.945 73.0675 -55.07899999999999 72.9425 -55.394000000000005C72.805 -55.709 72.4925 -56.50279999999999 72.2425 -57.158C71.9925 -57.813199999999995 71.7175 -58.531400000000005 71.6175 -58.733000000000004C71.53 -58.947199999999995 71.2175 -59.741 70.93 -60.497C70.64250000000001 -61.265600000000006 70.2175 -62.336600000000004 69.9925 -62.891000000000005C69.2925 -64.5794 68.305 -67.0868 67.6175 -68.876C66.01750000000001 -73.0466 65.9175 -73.286 65.255 -74.483C64.5675 -75.7052 64.2425 -76.121 63.542500000000004 -76.625C62.68 -77.2802 60.9425 -77.696 59.255 -77.6834C58.5675 -77.6708 57.88 -77.6456 57.7425 -77.6078ZM54.63 -73.4372C54.905 -73.2482 55.18 -72.7064 55.18 -72.3662C55.18 -71.8496 54.642500000000005 -71.3456 54.205000000000005 -71.459C53.68 -71.585 53.38 -71.963 53.392500000000005 -72.4796C53.417500000000004 -73.2104 54.142500000000005 -73.7774 54.63 -73.4372Z" />
      <path d="M45.805 -69.7706C42.667500000000004 -68.6744 40.455 -67.6286 37.805 -66.0032C31.6925 -62.260999999999996 26.6425 -56.906000000000006 23.2175 -50.543C22.5175 -49.2452 21.555 -47.254400000000004 21.555 -47.1158C21.555 -47.078 21.48 -46.876400000000004 21.380000000000003 -46.6622C21.23 -46.2842 21.0425 -45.8054 20.455 -44.1422C20.2175 -43.5122 19.9175 -42.4412 19.505 -40.841C19.23 -39.7826 19.055 -38.825 18.6675 -36.1664C18.4425 -34.5914 18.33 -31.328000000000003 18.43 -29.249000000000002C18.5925 -25.922600000000003 19.03 -23.251399999999997 20.0925 -19.3202C20.2425 -18.7154 20.53 -18.5768 20.7925 -18.9926C20.905 -19.1564 21.3925 -19.7486 21.880000000000003 -20.303C23.005000000000003 -21.5756 23.08 -21.7268 22.9175 -22.2686C22.6175 -23.3018 22.442500000000003 -27.0944 22.567500000000003 -30.0176C22.705 -33.4196 22.955 -35.0828 23.880000000000003 -38.4596C24.58 -41.03 25.08 -42.227000000000004 27.28 -46.511C27.6175 -47.1662 29.43 -49.8626 30.2925 -50.984C30.7425 -51.5762 31.9925 -52.937 33.055 -54.0206C36.08 -57.08240000000001 38.980000000000004 -59.199200000000005 42.7425 -61.0514C43.9425 -61.643600000000006 44.4675 -62.0594 44.755 -62.601200000000006C45.1425 -63.3446 44.8175 -63.709999999999994 44.1425 -63.2816C43.9925 -63.1934 43.505 -62.95399999999999 43.055 -62.752399999999994C40.3425 -61.568 36.2675 -58.8716 34.03 -56.79260000000001C33.58 -56.3768 33.1175 -56.024 33.0175 -56.024C32.905 -56.024 32.705 -56.2256 32.555 -56.465C32.305 -56.880799999999994 32.292500000000004 -56.931200000000004 32.4675 -57.2084C32.58 -57.37220000000001 33.0175 -57.813199999999995 33.455 -58.191199999999995C36.505 -60.862399999999994 40.4425 -63.269000000000005 44.305 -64.8314C45.38 -65.2724 45.955 -65.5748 46.155 -65.8142C46.53 -66.2678 48.33 -70.1234 48.230000000000004 -70.2746C48.105000000000004 -70.4888 47.480000000000004 -70.36280000000001 45.805 -69.7706ZM30.605 -54.373400000000004C30.78 -54.1592 30.93 -53.945 30.93 -53.8946C30.93 -53.756 30.267500000000002 -52.8488 29.955000000000002 -52.5842C29.8175 -52.4582 29.605 -52.37 29.48 -52.3952C29.1675 -52.4582 28.767500000000002 -53.0504 28.855 -53.327600000000004C28.9425 -53.63 29.9675 -54.763999999999996 30.155 -54.763999999999996C30.2175 -54.763999999999996 30.43 -54.587599999999995 30.605 -54.373400000000004Z" />
      <path d="M70.78 -69.947C70.7175 -69.8714 70.9675 -69.0776 71.405 -67.931C71.5425 -67.5908 71.78 -66.9608 71.9425 -66.545C72.355 -65.4362 72.58000000000001 -65.1842 73.39250000000001 -64.8566C75.6925 -63.899 78.8175 -62.2358 80.7425 -60.925399999999996C82.755 -59.5646 85.43 -57.258799999999994 85.43 -56.906000000000006C85.43 -56.767399999999995 85.28 -56.528000000000006 85.0925 -56.351600000000005C84.68 -55.961 84.58000000000001 -56.011399999999995 83.3675 -57.095C81.3175 -58.922 78.41749999999999 -60.862399999999994 75.4675 -62.3618C73.3175 -63.458 73.0675 -63.458 73.555 -62.3618C73.905 -61.568 74.23 -61.240399999999994 75.055 -60.837199999999996C76.63 -60.0686 79.08000000000001 -58.50620000000001 80.805 -57.17060000000001C86.6175 -52.6724 91.0925 -46.1708 93.3425 -38.951C93.555 -38.2706 94.0675 -36.1412 94.3175 -34.919C94.85500000000002 -32.21 95.005 -28.3544 94.73000000000002 -24.486200000000004L94.64250000000001 -23.251399999999997L96.10500000000002 -21.7898C97.68 -20.2274 97.66750000000002 -20.2274 97.93 -21.122C98.155 -21.8906 98.78 -25.2926 98.95500000000001 -26.665999999999997C99.16750000000002 -28.4048 99.16750000000002 -33.8606 98.95500000000001 -35.675C98.2175 -41.8364 96.3175 -47.4182 93.255 -52.433C90.39250000000001 -57.1202 86.3425 -61.467200000000005 81.97999999999999 -64.5416C81.305 -65.0204 80.655 -65.474 80.53 -65.537C80.405 -65.6126 79.68 -66.041 78.905 -66.4946C77.39250000000001 -67.3766 75.0925 -68.5232 73.8675 -68.9894C73.45500000000001 -69.1532 72.9425 -69.3548 72.7425 -69.443C72.53 -69.5312 72.18 -69.6446 71.9675 -69.6824C71.7425 -69.7328 71.53 -69.8336 71.4925 -69.8966C71.405 -70.0226 70.89250000000001 -70.0604 70.78 -69.947ZM88.66749999999999 -53.693C89.2425 -53.063 89.255 -53.0126 89.005 -52.5086C88.6175 -51.7778 88.4925 -51.7778 87.805 -52.5086C87.10499999999999 -53.2772 86.9925 -53.7434 87.45500000000001 -54.058400000000006C87.89250000000001 -54.373400000000004 88.10499999999999 -54.297799999999995 88.66749999999999 -53.693Z" />
      <path d="M60.18 -53.5796C60.18 -49.8752 60.167500000000004 -49.7492 59.917500000000004 -49.4216C59.580000000000005 -48.9932 59.1175 -49.0184 58.755 -49.5098C58.505 -49.85 58.4925 -50.039 58.455000000000005 -53.516600000000004L58.417500000000004 -57.158H58.1175C57.7425 -57.158 57.455000000000005 -56.7422 57.230000000000004 -55.923199999999994C57.142500000000005 -55.595600000000005 56.805 -54.6002 56.4925 -53.693C56.167500000000004 -52.7984 55.755 -51.5762 55.555 -50.984C55.355000000000004 -50.3918 54.8425 -48.9176 54.43 -47.708C54.017500000000005 -46.498400000000004 53.505 -45.0242 53.305 -44.432C53.105000000000004 -43.839800000000004 52.730000000000004 -42.7688 52.480000000000004 -42.038000000000004C51.13 -38.132 50.03 -34.8812 49.9675 -34.6418C49.93 -34.478 50.0675 -34.1 50.355000000000004 -33.596000000000004C50.605000000000004 -33.1802 50.805 -32.8022 50.805 -32.777C50.805 -32.7518 51.105000000000004 -32.21 51.480000000000004 -31.592599999999997C51.855000000000004 -30.9752 52.205000000000005 -30.269599999999997 52.2425 -30.0428C52.292500000000004 -29.816000000000003 52.6175 -29.0852 52.9675 -28.43C53.8675 -26.792 53.93 -26.792 54.855000000000004 -28.5434C55.255 -29.311999999999998 55.667500000000004 -30.005000000000003 55.78 -30.093200000000003C55.88 -30.181400000000004 56.2175 -30.282200000000003 56.542500000000004 -30.32L57.1175 -30.383000000000003L57.1925 -31.895000000000003C57.230000000000004 -32.7266 57.2175 -33.5078 57.155 -33.6338C57.0675 -33.7976 56.88 -33.848 56.230000000000004 -33.848C55.792500000000004 -33.848 55.230000000000004 -33.9362 54.9925 -34.0244C54.4675 -34.2512 54.43 -34.5788 54.8175 -35.6876C54.955000000000005 -36.0908 55.142500000000005 -36.6956 55.230000000000004 -37.0232C55.330000000000005 -37.3382 55.4425 -37.6784 55.4925 -37.754C55.542500000000004 -37.8296 55.655 -38.1698 55.755 -38.4848C55.8425 -38.812400000000004 56.205000000000005 -39.896 56.555 -40.904C56.905 -41.912 57.267500000000005 -42.983 57.3675 -43.298C57.892500000000005 -44.9864 58.517500000000005 -46.6748 58.705000000000005 -46.9268C58.892500000000005 -47.1536 59.355000000000004 -47.1158 59.5925 -46.8512C59.8175 -46.5992 60.405 -45.251 60.792500000000004 -44.1044C60.93 -43.676 61.305 -42.6554 61.63 -41.8364C61.9425 -41.0048 62.3425 -39.9716 62.4925 -39.518C62.655 -39.0644 63.017500000000005 -38.1068 63.305 -37.376C64.0675 -35.423 64.28 -34.6922 64.1675 -34.3898C64.0675 -34.1 63.4675 -33.848 62.88 -33.848C62.2425 -33.848 62.18 -33.6968 62.18 -32.0084C62.18 -30.3326 62.1175 -30.458599999999997 62.955000000000005 -30.269599999999997C63.3425 -30.181400000000004 63.6175 -29.816000000000003 64.2425 -28.581200000000003C64.4925 -28.077199999999998 64.76750000000001 -27.674 64.8675 -27.674C65.0925 -27.674 65.38 -28.0646 66.055 -29.2742C66.38 -29.8538 66.76750000000001 -30.383000000000003 66.95500000000001 -30.509C67.20500000000001 -30.647599999999997 67.5425 -31.227200000000003 68.18 -32.5628L69.0675 -34.415L68.64250000000001 -35.738C68.405 -36.4688 68.0925 -37.4894 67.93 -38.006C67.78 -38.5226 67.58000000000001 -39.14 67.48 -39.3668C67.38 -39.5936 67.305 -39.8456 67.305 -39.9212C67.305 -40.2236 63.792500000000004 -50.984 62.7425 -53.8946C61.7425 -56.679199999999994 61.28 -57.41 60.542500000000004 -57.41H60.18V-53.5796Z" />
      <path d="M48.68 -43.5374C46.18 -42.2144 44.78 -41.1686 42.7675 -39.1652C40.905 -37.313 39.255 -35.0072 38.08 -32.6258C37.58 -31.617800000000003 36.705 -29.223799999999997 36.43 -28.115000000000002C35.7675 -25.456400000000002 35.480000000000004 -20.6432 35.9925 -20.7692C36.167500000000004 -20.807 37.1925 -21.903200000000002 39.555 -24.587000000000003C42.667500000000004 -28.115000000000002 42.542500000000004 -28.052 45.855000000000004 -27.812600000000003C47.3175 -27.711800000000004 48.1175 -27.699199999999998 48.2675 -27.787399999999998C48.542500000000004 -27.926000000000002 49.18 -29.135600000000004 49.18 -29.500999999999998C49.18 -29.803400000000003 48.18 -31.529600000000002 47.3925 -32.588C46.792500000000004 -33.3944 46.5925 -33.9866 46.730000000000004 -34.5662C46.78 -34.7678 47.0175 -35.4608 47.255 -36.116C47.6425 -37.1492 47.93 -37.88 48.855000000000004 -40.085C48.9425 -40.2992 49.18 -40.8662 49.3675 -41.345C49.5675 -41.8364 49.7675 -42.29 49.8175 -42.353C49.8675 -42.4286 50.055 -42.8444 50.2425 -43.2854C50.505 -43.928 50.542500000000004 -44.117 50.405 -44.1926C50.18 -44.3438 50.255 -44.3816 48.68 -43.5374Z" />
      <path d="M68.18 -44.1422C68.18 -44.054 68.405 -43.5374 68.68 -42.983C68.95500000000001 -42.4286 69.18 -41.8994 69.18 -41.8112C69.18 -41.723 69.23 -41.5592 69.305 -41.4332C69.43 -41.219 69.605 -40.6898 70.305 -38.384C70.53 -37.6532 70.8675 -36.5822 71.0675 -35.99C71.7425 -34.0118 71.53 -32.5376 70.3175 -30.9122C69.51750000000001 -29.8286 69.51750000000001 -29.8538 69.98 -28.871000000000002C70.20500000000001 -28.379600000000003 70.505 -27.900800000000004 70.63 -27.787399999999998C70.98 -27.4724 73.2925 -27.346400000000003 74.0925 -27.598399999999998C75.5425 -28.0394 76.7425 -27.333800000000004 78.655 -24.9146C79.16749999999999 -24.2594 80.33000000000001 -22.898600000000002 81.22999999999999 -21.903200000000002C83.28 -19.61 83.22999999999999 -19.5848 83.14250000000001 -22.823C82.97999999999999 -28.266199999999998 81.51750000000001 -32.4242 78.22999999999999 -36.8342C76.13 -39.6314 73.355 -41.9246 69.95500000000001 -43.6886C68.78 -44.306 68.18 -44.4572 68.18 -44.1422Z" />
      <path d="M59.205000000000005 -33.6842C59.017500000000005 -33.47 58.980000000000004 -30.5972 59.155 -30.4208C59.330000000000005 -30.2444 59.88 -30.256999999999998 60.1175 -30.445999999999998C60.355000000000004 -30.647599999999997 60.392500000000005 -33.4574 60.155 -33.6968C59.955000000000005 -33.8984 59.3675 -33.8858 59.205000000000005 -33.6842Z" />
      <path d="M56.292500000000004 -29.0852C56.155 -28.997 56.055 -28.871000000000002 56.055 -28.808C56.055 -28.744999999999997 55.892500000000005 -28.4048 55.68 -28.052C55.13 -27.1196 55.167500000000004 -26.918 55.8675 -26.918C56.330000000000005 -26.918 56.480000000000004 -26.981 56.767500000000005 -27.296L57.0925 -27.674H59.455000000000005H61.805L62.142500000000005 -27.296C62.43 -26.968400000000003 62.555 -26.918 63.142500000000005 -26.918C63.667500000000004 -26.918 63.805 -26.955800000000004 63.805 -27.1196C63.805 -27.3716 63.105000000000004 -28.7954 62.8675 -29.047400000000003C62.6175 -29.2994 56.642500000000005 -29.337200000000003 56.292500000000004 -29.0852Z" />
      <path d="M32.230000000000004 -28.644199999999998C32.03 -28.467799999999997 31.53 -27.900800000000004 31.1175 -27.359C29.955000000000002 -25.8596 29.18 -24.876800000000003 28.755 -24.385399999999997C28.4175 -23.994799999999998 27.705 -23.087600000000002 26.205 -21.1976C25.605 -20.429 24.455 -19.0052 23.6175 -17.972C23.205 -17.468 22.53 -16.6112 22.1175 -16.0694C21.43 -15.174800000000001 19.8675 -13.2344 17.9925 -10.9286C17.58 -10.424600000000002 17.13 -9.857600000000001 16.9925 -9.668600000000001C16.855 -9.4922 16.33 -8.837 15.805 -8.207C15.28 -7.589600000000001 14.68 -6.7958 14.4675 -6.443000000000001C14.067499999999999 -5.787800000000001 13.555 -4.0489999999999995 13.555 -3.318200000000001C13.555 -2.3857999999999997 14.4925 0.4366000000000003 15.0175 1.0665999999999993C15.105 1.1674000000000007 15.18 1.331199999999999 15.18 1.4193999999999996C15.18 1.6966 16.0675 2.8684000000000003 16.6175 3.3094C17.8925 4.3426 18.605 4.4938 21.68 4.4182C23.0175 4.3804 25.08 4.267 26.2425 4.1662C27.4175 4.0527999999999995 29.0425 3.9016 29.8675 3.8259999999999996C30.6925 3.7504 31.705000000000002 3.6622000000000003 32.1175 3.6369999999999996C32.53 3.5991999999999997 33.4925 3.5236 34.2425 3.4480000000000004C35.005 3.385 36.63 3.2337999999999996 37.8675 3.133C39.105000000000004 3.0321999999999996 41.08 2.8558000000000003 42.2425 2.755C43.417500000000004 2.6542000000000003 44.6925 2.566 45.08 2.566C46.43 2.566 46.7675 2.1879999999999997 45.805 1.7469999999999999C45.355000000000004 1.5454000000000008 45.1425 1.5328 43.405 1.6714000000000002C40.542500000000004 1.8856000000000002 36.88 2.1754 34.4925 2.377C33.33 2.4778000000000002 31.605 2.6163999999999996 30.68 2.692C29.755 2.755 28.2675 2.8684000000000003 27.3675 2.944C20.7925 3.4732000000000003 19.2175 3.4858000000000002 18.355 3.0321999999999996C17.48 2.5786 16.0675 0.5877999999999997 15.48 -1.0250000000000004C14.73 -3.0914 14.6675 -3.5828000000000007 15.055 -4.9184C15.305 -5.813000000000001 15.3925 -5.951600000000001 17.38 -8.396C17.98 -9.1268 19.0925 -10.512799999999999 19.8675 -11.483C20.6425 -12.453199999999999 21.9175 -14.0408 22.692500000000003 -15.023600000000002C23.48 -15.9938 24.705 -17.5184 25.4175 -18.4256C26.1425 -19.3202 27.305 -20.7692 28.005000000000003 -21.6386C30.9425 -25.2926 31.892500000000002 -26.502200000000002 32.13 -26.918C32.3925 -27.346400000000003 32.755 -28.770200000000003 32.6425 -28.8836C32.6175 -28.9214 32.43 -28.808 32.230000000000004 -28.644199999999998Z" />
      <path d="M85.9925 -28.808C85.89250000000001 -28.656799999999997 86.39250000000001 -26.968400000000003 86.655 -26.552599999999998C86.78 -26.376199999999997 87.3175 -25.658 87.8675 -24.965000000000003C89.4675 -22.961599999999997 91.26750000000001 -20.7062 92.8675 -18.665C93.6925 -17.631800000000002 94.39250000000001 -16.7498 94.43 -16.712C94.4675 -16.6742 94.805 -16.2584 95.18 -15.767C95.555 -15.2882 96.0675 -14.633 96.33000000000001 -14.318000000000001C96.58000000000001 -14.003 97.48000000000002 -12.869 98.305 -11.798000000000002C99.14250000000001 -10.727 100.18 -9.4544 100.60500000000002 -8.9756C101.01750000000001 -8.4968 101.4675 -7.9298 101.5925 -7.728200000000001C101.7175 -7.526599999999998 101.98000000000002 -7.186399999999999 102.1925 -6.959600000000002C102.755 -6.3674 102.79250000000002 -6.0146000000000015 102.35500000000002 -5.6617999999999995C102.155 -5.5106 101.8425 -5.372 101.655 -5.372C101.3175 -5.372 100.9925 -5.712199999999999 99.16750000000002 -7.967600000000001C98.78 -8.4464 98.01750000000001 -9.378800000000002 97.48000000000002 -10.033999999999999C96.93 -10.701799999999999 95.95500000000001 -11.9114 95.305 -12.7178C93.58000000000001 -14.8598 87.72999999999999 -22.003999999999998 87.3425 -22.419800000000002C87.1175 -22.671799999999998 86.97999999999999 -22.7348 86.89250000000001 -22.6466C86.8175 -22.570999999999998 86.7175 -21.752 86.655 -20.8322C86.60499999999999 -19.925 86.505 -18.8288 86.4425 -18.413C86.2425 -17.2916 86.28 -16.5734 86.54249999999999 -16.1324C87.005 -15.3764 90.8425 -10.903400000000001 92.3675 -9.341000000000001C93.48000000000002 -8.2196 95.0675 -6.4178 95.26750000000001 -6.0776C95.4925 -5.686999999999999 95.45500000000001 -5.094799999999999 95.155 -4.301C94.85500000000002 -3.4946 94.39250000000001 -3.0410000000000004 93.64250000000001 -2.8393999999999995C93.03 -2.6755999999999993 90.33000000000001 -2.7512000000000008 87.055 -3.0410000000000004C86.68 -3.0787999999999993 85.26750000000001 -3.129200000000001 83.93 -3.167C82.5925 -3.2173999999999996 81.13 -3.2929999999999993 80.68 -3.356C80.22999999999999 -3.4190000000000005 79.76750000000001 -3.4819999999999993 79.655 -3.4819999999999993C79.54249999999999 -3.4819999999999993 78.9425 -3.0031999999999996 78.33000000000001 -2.4361999999999995C77.7175 -1.8566000000000003 76.8675 -1.1132000000000009 76.45500000000001 -0.7856000000000005C76.0425 -0.4580000000000002 75.6675 -0.10519999999999996 75.63 -0.01699999999999946C75.605 0.07119999999999926 75.78 0.27280000000000015 76.03 0.4366000000000003C76.38 0.6633999999999993 76.505 0.8398000000000003 76.53 1.1422000000000008C76.5925 1.7469999999999999 76.23 1.8856000000000002 75.0425 1.6714000000000002C73.855 1.4697999999999993 73.3175 1.4824000000000002 72.8175 1.7344000000000008C72.4175 1.9486000000000008 72.20500000000001 2.2510000000000003 72.355 2.4021999999999997C72.405 2.4526000000000003 72.70500000000001 2.503 73.03 2.503C73.355 2.5156 74.6175 2.6037999999999997 75.8425 2.692C77.0675 2.7802 78.0925 2.8179999999999996 78.14250000000001 2.7676C78.18 2.7298 78.0675 2.4778000000000002 77.88 2.2131999999999996C77.505 1.6587999999999994 77.4925 1.5454000000000008 77.7425 1.0665999999999993C78.10499999999999 0.3483999999999998 78.905 0.29800000000000004 79.35499999999999 0.9532000000000007C79.68 1.4193999999999996 79.5925 1.8100000000000005 79.055 2.3266C78.76750000000001 2.6037999999999997 78.6175 2.8431999999999995 78.6925 2.8810000000000002C78.76750000000001 2.9314 79.72999999999999 3.0448000000000004 80.8425 3.1456C81.95500000000001 3.2463999999999995 83.51750000000001 3.3724 84.305 3.4480000000000004C88.97999999999999 3.8638000000000003 90.155 3.9646 91.68 4.078C92.60500000000002 4.1536 93.78 4.267 94.28 4.33C95.83000000000001 4.5442 99.2425 4.4812 100.18 4.2292C101.91750000000002 3.763 102.5925 3.1078 103.805 0.7390000000000008C104.5675 -0.7225999999999999 105.10500000000002 -2.4361999999999995 105.0925 -3.356C105.08000000000001 -4.8176000000000005 104.4675 -6.1784 103.01750000000001 -7.9802C102.43 -8.6984 101.3675 -10.033999999999999 99.7175 -12.1004C99.10500000000002 -12.843800000000002 98.255 -13.9022 97.805 -14.443999999999999C97.35500000000002 -14.973199999999999 96.76750000000001 -15.7166 96.4925 -16.082C95.98000000000002 -16.7624 95.555 -17.3042 94.53 -18.5642C94.20500000000001 -18.9674 93.53 -19.8116 93.03 -20.4416C92.53 -21.0842 90.88 -23.137999999999998 89.3675 -25.028C87.85499999999999 -26.918 86.54249999999999 -28.568600000000004 86.4425 -28.6946C86.255 -28.959200000000003 86.10499999999999 -28.997 85.9925 -28.808ZM103.48000000000002 -4.8428C103.7425 -4.477399999999999 103.7425 -3.1796000000000006 103.48000000000002 -2.2471999999999994C103.38 -1.8439999999999994 103.005 -0.9494000000000007 102.655 -0.24380000000000024C102.14250000000001 0.8271999999999995 101.8675 1.2178000000000004 101.08000000000001 2.0115999999999996C100.555 2.5408 99.9425 3.0574000000000003 99.7175 3.1456C99.10500000000002 3.4101999999999997 97.805 3.3724 89.8675 2.8179999999999996C87.9425 2.6794000000000002 85.255 2.503 83.89250000000001 2.4273999999999996C81.78 2.3014 81.3675 2.2384000000000004 81.10499999999999 2.0367999999999995C80.70500000000001 1.7091999999999992 80.7175 1.2430000000000003 81.13 0.9657999999999998C81.4925 0.7263999999999999 82.83000000000001 0.7137999999999991 84.6175 0.9280000000000008C85.63 1.0540000000000003 88.60499999999999 1.2051999999999996 94.98000000000002 1.4697999999999993C97.33000000000001 1.5706000000000007 98.58000000000001 1.5831999999999997 98.8175 1.4949999999999992C99.28 1.331199999999999 100.755 -0.10519999999999996 101.26750000000001 -0.8864000000000001C101.6925 -1.529 101.9925 -2.3984000000000005 102.1175 -3.356C102.255 -4.313600000000001 102.29250000000002 -4.4396 102.60500000000002 -4.7798C102.98000000000002 -5.195600000000001 103.23000000000002 -5.2082 103.48000000000002 -4.8428Z" />
      <path d="M51.042500000000004 -28.089799999999997C50.78 -27.7622 50.542500000000004 -27.17 50.6175 -27.031399999999998C50.667500000000004 -26.968400000000003 50.980000000000004 -26.918 51.3175 -26.918C52.0675 -26.918 52.205000000000005 -27.132199999999997 51.855000000000004 -27.787399999999998C51.580000000000005 -28.304000000000002 51.305 -28.4048 51.042500000000004 -28.089799999999997Z" />
      <path d="M67.0675 -27.799999999999997C66.6675 -27.0818 66.76750000000001 -26.918 67.63 -26.918H68.33000000000001L68.255 -27.2708C68.14250000000001 -27.699199999999998 67.76750000000001 -28.2284 67.53 -28.278799999999997C67.43 -28.291400000000003 67.23 -28.089799999999997 67.0675 -27.799999999999997Z" />
      <path d="M43.8175 -24.561799999999998C43.38 -24.095599999999997 41.9675 -22.634 40.6925 -21.311C37.7425 -18.2744 31.767500000000002 -12.138200000000001 29.5925 -9.8828C28.03 -8.295200000000001 27.9175 -8.1314 27.955 -7.7408C27.98 -7.4384000000000015 28.055 -7.3124 28.2425 -7.287199999999999C28.3925 -7.2620000000000005 29.8175 -7.9045999999999985 31.4175 -8.6984C34.505 -10.222999999999999 35.2175 -10.4498 35.755 -10.097000000000001C36.1425 -9.844999999999999 36.1425 -9.4922 35.7425 -9.1268C35.3675 -8.774000000000001 35.38 -8.774000000000001 31.78 -7.022600000000001C30.1925 -6.254000000000001 28.93 -5.561 28.93 -5.472799999999999C28.9425 -4.994 29.455000000000002 -4.742000000000001 30.455000000000002 -4.742000000000001C31.305 -4.742000000000001 34.730000000000004 -5.170400000000001 38.1175 -5.686999999999999C39.292500000000004 -5.8759999999999994 40.68 -6.065000000000001 41.2175 -6.128C41.755 -6.190999999999999 42.480000000000004 -6.2917999999999985 42.8425 -6.3674C43.205 -6.430399999999999 44.28 -6.619399999999999 45.2425 -6.757999999999999C46.205 -6.9091999999999985 47.58 -7.135999999999999 48.305 -7.2620000000000005C49.03 -7.388000000000002 50.405 -7.614799999999999 51.355000000000004 -7.778600000000001C52.455000000000005 -7.955000000000002 53.18 -8.143999999999998 53.292500000000004 -8.27C53.917500000000004 -8.8874 55.705000000000005 -11.3444 55.88 -11.8106C55.9925 -12.113 56.155 -12.453199999999999 56.2425 -12.553999999999998C56.655 -13.0958 57.5675 -14.872399999999999 57.505 -15.023600000000002C57.455000000000005 -15.1496 57.2175 -15.2 56.705000000000005 -15.2C55.9425 -15.2 55.667500000000004 -15.363800000000001 55.3175 -16.0568C55.2425 -16.208 55.080000000000005 -16.334 54.980000000000004 -16.334C54.6175 -16.334 50.9425 -14.192 50.8675 -13.927399999999999C50.8175 -13.7762 50.8675 -13.5368 50.9925 -13.360399999999998C51.305 -12.881599999999999 51.1925 -12.415400000000002 50.6925 -12.125599999999999C50.355000000000004 -11.936599999999999 49.730000000000004 -11.8232 47.88 -11.646799999999999C46.5675 -11.508199999999999 45.292500000000004 -11.382200000000001 45.055 -11.357C44.417500000000004 -11.294 39.505 -10.79 38.605000000000004 -10.701799999999999C37.8675 -10.6388 37.8175 -10.651399999999999 37.6175 -10.9664C37.4925 -11.1554 37.43 -11.407399999999999 37.480000000000004 -11.571200000000001C37.5675 -11.949200000000001 45.730000000000004 -20.2526 46.28 -20.5424C46.980000000000004 -20.9078 47.292500000000004 -20.7818 47.78 -19.9502C48.005 -19.547 48.28 -19.1816 48.38 -19.1438C48.6175 -19.055600000000002 49.105000000000004 -19.2698 50.905 -20.240000000000002C51.7425 -20.681 52.455000000000005 -21.1346 52.4925 -21.248C52.542500000000004 -21.3488 52.417500000000004 -21.7268 52.2175 -22.0922L51.8675 -22.7474L52.43 -23.818399999999997C53.18 -25.267400000000002 53.142500000000005 -25.330399999999997 51.43 -25.3808C50.4925 -25.406 50.005 -25.3682 49.667500000000004 -25.229599999999998C49.305 -25.078400000000002 49.042500000000004 -25.065800000000003 48.58 -25.154000000000003C48.255 -25.217 47.230000000000004 -25.2926 46.305 -25.343000000000004L44.6175 -25.418599999999998L43.8175 -24.561799999999998Z" />
      <path d="M66.26750000000001 -25.3178C66.08000000000001 -25.141399999999997 66.20500000000001 -24.700400000000002 66.70500000000001 -23.742800000000003C67.23 -22.772599999999997 67.23 -22.7474 67.01750000000001 -22.394599999999997C66.63 -21.7268 66.7175 -21.563 67.83000000000001 -20.8448C68.405 -20.479400000000002 69.23 -19.9376 69.6675 -19.6478C70.105 -19.3454 70.5675 -19.106 70.6925 -19.106C70.8425 -19.106 71.03 -19.3202 71.2425 -19.736C71.605 -20.4416 71.98 -20.6936 72.51750000000001 -20.5676C72.755 -20.5046 74.305 -19.0304 77.28 -16.0442C79.70500000000001 -13.599800000000002 81.755 -11.508199999999999 81.8175 -11.382200000000001C81.91749999999999 -11.218399999999999 81.89250000000001 -11.0672 81.7425 -10.8278C81.555 -10.538 81.47999999999999 -10.525400000000001 80.83000000000001 -10.5884C80.4425 -10.6262 79.055 -10.7774 77.7425 -10.916C74.905 -11.218399999999999 70.23 -11.6846 69.405 -11.747599999999998C68.6925 -11.798000000000002 67.95500000000001 -12.087800000000001 67.855 -12.3524C67.8175 -12.453199999999999 67.905 -12.8186 68.055 -13.1588C68.4925 -14.179400000000001 68.4675 -14.217200000000002 66.43 -15.401600000000002C65.43 -15.981200000000001 64.4925 -16.447400000000002 64.3425 -16.46C64.1675 -16.46 63.980000000000004 -16.3088 63.792500000000004 -15.9938C63.38 -15.2756 63.2175 -15.2 62.28 -15.2C61.667500000000004 -15.2 61.405 -15.1496 61.355000000000004 -15.023600000000002C61.292500000000004 -14.8598 62.28 -12.931999999999999 62.8425 -12.113C63.13 -11.709800000000001 64.38 -10.1222 65.255 -9.088999999999999C65.88 -8.345600000000001 65.555 -8.421199999999999 71.6175 -7.513999999999999C72.03 -7.4510000000000005 73.26750000000001 -7.249400000000001 74.3675 -7.073C75.4675 -6.884 77.005 -6.6572 77.78 -6.568999999999999C78.555 -6.4681999999999995 79.22999999999999 -6.354800000000001 79.29249999999999 -6.329599999999999C79.3425 -6.2917999999999985 79.9675 -6.203600000000002 80.6925 -6.140599999999999C81.405 -6.065000000000001 82.28 -5.951600000000001 82.6175 -5.8759999999999994C83.8425 -5.6366 87.41749999999999 -5.246 88.41749999999999 -5.246C89.26750000000001 -5.246 89.4675 -5.283799999999999 89.6925 -5.5106C89.83000000000001 -5.6492 89.93 -5.8256 89.905 -5.901199999999999C89.88 -5.9642 89.255 -6.2791999999999994 88.505 -6.581600000000002C85.7425 -7.702999999999999 84.26750000000001 -8.4464 83.8175 -8.963000000000001C83.60499999999999 -9.215 83.43 -9.466999999999999 83.43 -9.530000000000001C83.43 -9.769400000000001 83.93 -10.16 84.2425 -10.16C84.53 -10.16 86.0925 -9.605599999999999 86.3675 -9.404C86.70500000000001 -9.152000000000001 90.70500000000001 -7.513999999999999 90.805 -7.577000000000002C90.88 -7.614799999999999 90.93 -7.8794 90.93 -8.143999999999998C90.93 -8.6354 90.79250000000002 -8.774000000000001 82.5925 -17.0396L74.2425 -25.418599999999998L72.555 -25.343000000000004C71.63 -25.3052 70.605 -25.217 70.28 -25.154000000000003C69.8425 -25.065800000000003 69.58000000000001 -25.078400000000002 69.255 -25.217C68.805 -25.406 66.43 -25.4942 66.26750000000001 -25.3178Z" />
      <path d="M56.9675 -24.8264C56.8675 -24.574399999999997 59.43 -19.358 59.642500000000005 -19.358C59.855000000000004 -19.358 59.980000000000004 -19.5722 61.3425 -22.319000000000003C62.2175 -24.0704 62.505 -24.750799999999998 62.405 -24.864199999999997C62.305 -24.9902 61.605000000000004 -25.028 59.655 -25.028C57.3675 -25.028 57.042500000000004 -25.0028 56.9675 -24.8264Z" />
      <path d="M65.01750000000001 -24.1334C64.655 -23.919200000000004 64.4175 -23.3144 64.505 -22.797800000000002C64.5675 -22.3694 64.43 -22.041800000000002 63.305 -19.799C62.5925 -18.4004 61.892500000000005 -17.1656 61.7175 -17.027C61.255 -16.636400000000002 61.3675 -16.2836 61.9675 -16.2332C62.78 -16.1576 63.0925 -16.5104 63.43 -17.8082C63.505 -18.1106 63.78 -18.602 64.0425 -18.9044C64.4925 -19.4336 64.8175 -20.114 64.98 -20.87C65.01750000000001 -21.0464 65.2425 -21.4244 65.48 -21.7016C66.08000000000001 -22.407200000000003 66.14250000000001 -22.7474 65.8175 -23.440399999999997C65.4675 -24.146 65.305 -24.284599999999998 65.01750000000001 -24.1334Z" />
      <path d="M53.667500000000004 -23.8688C53.167500000000004 -23.453000000000003 52.892500000000005 -22.608800000000002 53.167500000000004 -22.319000000000003C53.230000000000004 -22.2434 53.905 -20.9456 54.667500000000004 -19.421C55.4425 -17.8964 56.1925 -16.5482 56.330000000000005 -16.4222C56.53 -16.2584 56.767500000000005 -16.208 57.230000000000004 -16.2332C57.8175 -16.271 57.8675 -16.2962 57.8675 -16.586C57.8675 -16.825400000000002 57.755 -16.9514 57.405 -17.1152C57.055 -17.2916 56.855000000000004 -17.5184 56.517500000000005 -18.1862C56.28 -18.6524 55.9425 -19.295 55.767500000000005 -19.61C54.642500000000005 -21.6512 54.405 -22.205599999999997 54.3675 -22.8356C54.330000000000005 -23.4782 54.142500000000005 -24.020000000000003 53.955000000000005 -24.020000000000003C53.892500000000005 -24.020000000000003 53.767500000000005 -23.9444 53.667500000000004 -23.8688Z" />
      <path d="M31.355 -22.797800000000002C31.1925 -22.596200000000003 30.080000000000002 -21.2228 28.892500000000002 -19.736C26.305 -16.4726 25.83 -15.880400000000002 17.98 -6.115400000000001C16.855 -4.716799999999999 16.8175 -4.49 17.1675 -2.297599999999999C17.3675 -1.0627999999999993 18.2425 0.7263999999999999 18.9925 1.4193999999999996L19.58 1.9738000000000007L20.9175 1.8856000000000002C21.6425 1.8352000000000004 23.205 1.7091999999999992 24.3675 1.6083999999999996C25.5425 1.5076 27.567500000000003 1.3437999999999999 28.8675 1.2430000000000003C30.18 1.1296 32.1175 0.9657999999999998 33.18 0.8650000000000002C34.2425 0.7642000000000007 35.855000000000004 0.6256000000000004 36.7425 0.5500000000000007C39.730000000000004 0.3105999999999991 42.417500000000004 0.00820000000000043 42.58 -0.10519999999999996C42.705 -0.18079999999999963 42.542500000000004 -0.3824000000000005 41.9925 -0.8737999999999992C41.58 -1.2392000000000003 40.755 -1.9952000000000005 40.167500000000004 -2.5747999999999998L39.105000000000004 -3.6080000000000005H38.417500000000004C37.730000000000004 -3.5953999999999997 36.855000000000004 -3.5198 33.555 -3.167C28.6675 -2.6503999999999994 24.380000000000003 -2.322800000000001 24.03 -2.4613999999999994C23.455 -2.6755999999999993 22.7675 -3.6709999999999994 22.6175 -4.527800000000001C22.43 -5.4854 22.567500000000003 -5.712199999999999 24.405 -7.589600000000001C25.8675 -9.0764 28.08 -11.571200000000001 29.4925 -13.2974C29.6925 -13.549399999999999 30.4175 -14.368400000000001 31.0925 -15.124400000000001C31.767500000000002 -15.880400000000002 32.3425 -16.649 32.3925 -16.8128C32.43 -16.9892 32.3675 -17.631800000000002 32.255 -18.249200000000002C32.13 -18.8792 32.005 -20.2274 31.9675 -21.2606C31.9175 -22.3316 31.8425 -23.137999999999998 31.767500000000002 -23.137999999999998C31.705000000000002 -23.137999999999998 31.517500000000002 -22.986800000000002 31.355 -22.797800000000002Z" />
      <path d="M65.405 -19.1564C65.305 -18.9422 65.2925 -18.7658 65.38 -18.6524C65.4675 -18.4886 67.0675 -17.5814 68.89250000000001 -16.6238C69.3425 -16.3844 69.68 -16.4726 69.68 -16.825400000000002C69.68 -17.09 69.26750000000001 -17.442800000000002 68.305 -18.0224C67.9925 -18.2114 67.355 -18.6146 66.8675 -18.917C65.855 -19.5596 65.605 -19.61 65.405 -19.1564Z" />
      <path d="M51.3675 -18.060200000000002C49.7175 -17.153 49.4925 -16.9892 49.4925 -16.712C49.4925 -16.1324 50.005 -16.2458 52.042500000000004 -17.2664C53.9675 -18.249200000000002 54.0675 -18.3374 53.855000000000004 -18.9044C53.7175 -19.2572 53.28 -19.106 51.3675 -18.060200000000002Z" />
      <path d="M58.580000000000005 -12.806000000000001C58.28 -12.327200000000001 58.080000000000005 -11.8736 58.1175 -11.798000000000002C58.230000000000004 -11.6216 60.2175 -11.6342 60.392500000000005 -11.8106C60.505 -11.924 60.4425 -12.138200000000001 60.155 -12.6674C59.43 -13.990400000000001 59.305 -14.003 58.580000000000005 -12.806000000000001Z" />
      <path d="M58.855000000000004 -9.416599999999999C57.9675 -9.3662 57.392500000000005 -9.277999999999999 57.267500000000005 -9.1646C57.155 -9.0764 56.655 -8.421199999999999 56.167500000000004 -7.7155999999999985C55.667500000000004 -7.022600000000001 55.155 -6.304400000000001 55.005 -6.153200000000002C54.355000000000004 -5.409800000000001 53.292500000000004 -5.195600000000001 47.3675 -4.553000000000001C44.905 -4.288399999999999 44.3925 -4.200200000000001 44.3425 -4.0238C44.2675 -3.7970000000000006 44.917500000000004 -3.2173999999999996 46.305 -2.297599999999999C47.4675 -1.5164000000000009 50.1425 -0.08000000000000007 50.43 -0.08000000000000007C50.5175 -0.08000000000000007 50.730000000000004 -0.004400000000000404 50.905 0.09639999999999915C51.305 0.3105999999999991 52.205000000000005 0.6004000000000005 53.7425 0.9909999999999997C58.392500000000005 2.2005999999999997 63.830000000000005 1.8225999999999996 68.3675 -0.01699999999999946C69.38 -0.42019999999999946 71.64250000000001 -1.6424000000000003 72.6175 -2.3102C74.7425 -3.7592 75.005 -3.9860000000000007 74.89250000000001 -4.288399999999999C74.8175 -4.4648 74.405 -4.49 71.4675 -4.49C68.905 -4.49 67.95500000000001 -4.5404 67.43 -4.679C67.055 -4.7798 66.58000000000001 -4.868 66.3675 -4.868C65.8425 -4.868 64.555 -5.5106 63.9425 -6.065000000000001C63.655 -6.329599999999999 63.1175 -7.060400000000001 62.7425 -7.702999999999999C61.892500000000005 -9.152000000000001 61.480000000000004 -9.5426 60.767500000000005 -9.5048C60.480000000000004 -9.4922 59.6175 -9.4544 58.855000000000004 -9.416599999999999Z" />
      <path d="M71.1175 6.1066C70.64250000000001 6.2578 70.0425 6.4468 69.805 6.535C69.5675 6.6358 69.1675 6.7492 68.93 6.7996C68.6925 6.837400000000001 68.4425 6.9256 68.3675 6.976C68.305 7.0264 67.9925 7.114599999999999 67.68 7.165C67.3675 7.2028 66.8675 7.3162 66.555 7.417C66.2425 7.5052 65.20500000000001 7.7194 64.2425 7.8832C62.667500000000004 8.1478 62.1175 8.173 58.555 8.173C54.8175 8.1604 54.517500000000005 8.1478 52.805 7.8202C51.805 7.6312 50.7425 7.417 50.43 7.3414C49.5925 7.1398 48.167500000000004 6.7366 47.7425 6.5854C46.58 6.157 44.43 6.093999999999999 44.43 6.4719999999999995C44.43 6.6484000000000005 45.667500000000004 7.1776 47.305 7.6690000000000005C47.6175 7.7698 48.0925 7.9336 48.3675 8.0344C48.6425 8.1352 49.042500000000004 8.2234 49.2425 8.236C49.455 8.236 49.755 8.3242 49.93 8.425C50.105000000000004 8.5258 50.43 8.6014 50.667500000000004 8.614C50.8925 8.614 51.542500000000004 8.7274 52.105000000000004 8.8534C54.917500000000004 9.5212 63.5675 9.4834 65.73 8.803C66.0675 8.7022 66.555 8.614 66.8175 8.614C67.08000000000001 8.614 67.48 8.5384 67.70500000000001 8.4376C67.93 8.3368 68.405 8.1982 68.7425 8.1352C69.76750000000001 7.920999999999999 71.63 7.3162 72.51750000000001 6.900399999999999C72.73 6.8122 72.9675 6.724 73.055 6.724C73.2925 6.724 74.18 6.157 74.14250000000001 6.031000000000001C74.055 5.779 72.0425 5.842 71.1175 6.1066Z" />
    </g>
		</g>
	</g>
</g>
</svg>