<?xml version='1.0' encoding='utf-8'?>
<svg xmlns="http://www.w3.org/2000/svg" version="1.1" id="图层_1" x="0px" y="0px" viewBox="0 0 3300 2200">
  <g id="Guides">
    <g id="H-reference" transform="matrix(1 0 0 1 339 696)">
      <path class="st6" d="M1,0h2.6l25.7-67.1H30v-3.3h-1.9L1,0z M11.7-24.5H47l-0.8-2.2H12.4L11.7-24.5z M55.1,0h2.6L30.6-70.5h-1.2    v3.3L55.1,0z" />
    </g>
    <line id="Baseline-S" class="st7" x1="263" y1="696" x2="3036" y2="696" />
    <line id="Capline-S" class="st7" x1="263" y1="625.5" x2="3036" y2="625.5" />
    <g id="H-reference_00000174582976744177833630000007730325773184391314_" transform="matrix(1 0 0 1 339 1126)">
      <path class="st6" d="M1,0h2.6l25.7-67.1H30v-3.3h-1.9L1,0z M11.7-24.5H47l-0.8-2.2H12.4L11.7-24.5z M55.1,0h2.6L30.6-70.5h-1.2    v3.3L55.1,0z" />
    </g>
    <line id="Baseline-M" class="st7" x1="263" y1="1126" x2="3036" y2="1126" />
    <line id="Capline-M" class="st7" x1="263" y1="1055.5" x2="3036" y2="1055.5" />
    <g id="H-reference_00000113329496982249443560000009416180920334905247_" transform="matrix(1 0 0 1 339 1556)">
      <path class="st6" d="M1,0h2.6l25.7-67.1H30v-3.3h-1.9L1,0z M11.7-24.5H47l-0.8-2.2H12.4L11.7-24.5z M55.1,0h2.6L30.6-70.5h-1.2    v3.3L55.1,0z" />
    </g>
    <line id="Baseline-L" class="st7" x1="263" y1="1556" x2="3036" y2="1556" />
    <line id="Capline-L" class="st7" x1="263" y1="1485.5" x2="3036" y2="1485.5" />
    <line id="left-margin-Regular-M" class="st5" x1="1391.3" y1="1030.8" x2="1391.3" y2="1150.1" />
    <line id="right-margin-Regular-M" class="st5" x1="1508.4" y1="1030.8" x2="1508.4" y2="1150.1" />
  </g>
  <g id="Symbols">
    <g id="Regular-M" transform="matrix(1 0 0 1 1391.32 1126)">
      <g>
        <g fill="#000000" stroke="none" transform="translate(6, 23)scale(0.1, -0.1)">
          <path transform="translate(-110, -60)" d="M564,1150C503,1141,440,1121,440,1111C440,1107,456,1089,475,1070L510,1036L635,1035L761,1035L797,1072C816,1092,830,1113,826,1118C811,1142,645,1162,564,1150z" />
          <path transform="translate(-110, -60)" d="M376,1054C373,1028,370,995,370,979C370,935,349,923,259,915L178,908L291,794L405,680L507,680L610,680L610,783L610,885L502,993C443,1052,392,1100,389,1100C385,1100,380,1079,376,1054z" />
          <path transform="translate(-110, -60)" d="M767,992L660,885L660,782L660,680L763,680L865,680L979,794L1092,908L1013,915C969,919,928,925,921,930C914,934,904,974,898,1019C892,1063,885,1100,881,1100C878,1100,826,1052,767,992z" />
          <path transform="translate(-110, -60)" d="M1062,817L1019,773L1031,726C1038,696,1040,648,1036,596L1030,514L1070,475C1092,454,1112,438,1114,441C1116,443,1125,469,1134,499C1157,577,1155,712,1130,794C1118,830,1108,860,1107,860C1105,860,1085,840,1062,817z" />
          <path transform="translate(-110, -60)" d="M154,815C136,772,121,658,127,610C135,540,153,459,162,454C168,450,189,464,210,485L247,522L242,608C240,657,242,712,249,735C259,773,258,776,223,812C203,833,182,850,177,850C173,850,162,834,154,815z" />
          <path transform="translate(-110, -60)" d="M295,520C235,460,188,409,191,406C193,404,231,397,274,391C318,385,356,378,358,375C360,373,367,332,373,285L383,199L497,312L610,425L610,527L610,630L507,630L405,630L295,520zM570,527L570,464L495,390C427,322,420,318,420,342C420,356,417,381,414,398C408,427,404,429,353,436L298,443L371,516L444,590L507,590L570,590L570,527z" />
          <path transform="translate(-110, -60)" d="M660,527L660,425L774,311L888,198L894,261C898,296,903,337,906,351C912,380,918,382,1034,396L1092,403L979,516L865,630L763,630L660,630L660,527z" />
          <path transform="translate(-110, -60)" d="M461,216L417,172L485,151C530,137,579,130,634,130C714,130,825,152,845,171C851,177,840,195,814,221L774,261L726,249C681,238,570,241,525,255C510,259,494,250,461,216z" />
        </g>
      </g>
    </g>
  </g>
</svg>