<?xml version="1.0" encoding="UTF-8" standalone="no"?>
<!-- Created with Inkscape (http://www.inkscape.org/) -->

<svg
   width="154.4882mm"
   height="136.00954mm"
   viewBox="0 0 154.4882 136.00954"
   version="1.1"
   id="svg1"
   xml:space="preserve"
   xmlns:inkscape="http://www.inkscape.org/namespaces/inkscape"
   xmlns:sodipodi="http://sodipodi.sourceforge.net/DTD/sodipodi-0.dtd"
   xmlns="http://www.w3.org/2000/svg"
   xmlns:svg="http://www.w3.org/2000/svg"><sodipodi:namedview
     id="namedview1"
     pagecolor="#505050"
     bordercolor="#ffffff"
     borderopacity="1"
     inkscape:showpageshadow="0"
     inkscape:pageopacity="0"
     inkscape:pagecheckerboard="1"
     inkscape:deskcolor="#d1d1d1"
     inkscape:document-units="mm" /><defs
     id="defs1" /><g
     inkscape:label="Layer 1"
     inkscape:groupmode="layer"
     id="layer1"
     transform="translate(-221.0349,-26.972274)"><path
       style="display:inline;fill:#000000;fill-opacity:1;stroke:none;stroke-width:0.0661458;stroke-linecap:butt;stroke-linejoin:miter;stroke-dasharray:none;stroke-opacity:1"
       d="m 272.25197,162.84012 c -9.62,1.07883 -16.40428,-4.17199 -23.15131,-10.02866 -9.64393,-8.37129 -15.58694,-20.84267 -7.54544,-30.61195 7.78927,-9.46285 23.28565,-11.77913 23.28565,-11.77913 0,0 -18.89623,2.48323 -30.65991,-7.98418 -5.99916,-5.338105 -9.36413,-12.318548 -10.19831,-20.394328 -1.07304,-10.388161 -2.82303,-31.643022 -2.94375,-39.490085 -0.13647,-8.871245 3.22639,-14.801606 9.08635,-15.454261 14.02204,-1.561709 30.4939,11.631424 46.50076,31.140877 15.55777,18.962099 21.65301,32.375541 21.65301,32.375541 0,0 6.09521,-13.413442 21.653,-32.375541 16.00684,-19.509453 32.4787,-32.702586 46.50074,-31.140877 5.85997,0.652655 9.22282,6.583016 9.08636,15.454261 -0.12066,7.847063 -1.87072,29.101924 -2.94376,39.490085 -0.83418,8.07578 -4.19914,15.056223 -10.19831,20.394328 -11.76368,10.46741 -30.65991,7.98418 -30.65991,7.98418 0,0 15.49638,2.31628 23.28567,11.77913 8.04149,9.76928 2.09847,22.24066 -7.54546,30.61195 -6.74702,5.85667 -13.53131,11.10749 -23.1513,10.02866 -17.49817,-1.9623 -26.02703,-34.57088 -26.02703,-34.57088 0,0 -8.52888,32.60858 -26.02705,34.57088 z"
       id="path1-2"
       sodipodi:nodetypes="ssscssssscssssscssscs" /></g></svg>
