<?xml version="1.0" encoding="UTF-8"?>
<!--Generator: Apple Native CoreSVG 341-->
<!DOCTYPE svg
PUBLIC "-//W3C//DTD SVG 1.1//EN"
       "http://www.w3.org/Graphics/SVG/1.1/DTD/svg11.dtd">
<svg version="1.1" xmlns="http://www.w3.org/2000/svg" xmlns:xlink="http://www.w3.org/1999/xlink" viewBox="0 0 3300 2200">
 <!--glyph: "", point size: 100.0, font version: "20.0d10e1", template writer version: "138.0.0"-->
 <style>.SFSymbolsPreviewWireframe {fill:none;opacity:1.0;stroke:black;stroke-width:0.5}
</style>
 <g id="Notes">
  <rect height="2200" id="artboard" style="fill:white;opacity:1" width="3300" x="0" y="0"/>
  <line style="fill:none;stroke:black;opacity:1;stroke-width:0.5;" x1="263" x2="3036" y1="292" y2="292"/>
  <text style="stroke:none;fill:black;font-family:sans-serif;font-size:13;font-weight:bold;" transform="matrix(1 0 0 1 263 322)">Weight/Scale Variations</text>
  <text style="stroke:none;fill:black;font-family:sans-serif;font-size:13;text-anchor:middle;" transform="matrix(1 0 0 1 559.711 322)">Ultralight</text>
  <text style="stroke:none;fill:black;font-family:sans-serif;font-size:13;text-anchor:middle;" transform="matrix(1 0 0 1 856.422 322)">Thin</text>
  <text style="stroke:none;fill:black;font-family:sans-serif;font-size:13;text-anchor:middle;" transform="matrix(1 0 0 1 1153.13 322)">Light</text>
  <text style="stroke:none;fill:black;font-family:sans-serif;font-size:13;text-anchor:middle;" transform="matrix(1 0 0 1 1449.84 322)">Regular</text>
  <text style="stroke:none;fill:black;font-family:sans-serif;font-size:13;text-anchor:middle;" transform="matrix(1 0 0 1 1746.56 322)">Medium</text>
  <text style="stroke:none;fill:black;font-family:sans-serif;font-size:13;text-anchor:middle;" transform="matrix(1 0 0 1 2043.27 322)">Semibold</text>
  <text style="stroke:none;fill:black;font-family:sans-serif;font-size:13;text-anchor:middle;" transform="matrix(1 0 0 1 2339.98 322)">Bold</text>
  <text style="stroke:none;fill:black;font-family:sans-serif;font-size:13;text-anchor:middle;" transform="matrix(1 0 0 1 2636.69 322)">Heavy</text>
  <text style="stroke:none;fill:black;font-family:sans-serif;font-size:13;text-anchor:middle;" transform="matrix(1 0 0 1 2933.4 322)">Black</text>
  <line style="fill:none;stroke:black;opacity:1;stroke-width:0.5;" x1="263" x2="3036" y1="1903" y2="1903"/>
  <g transform="matrix(0.2 0 0 0.2 263 1933)">
   <path d="m46.2402 4.15039c21.7773 0 39.4531-17.627 39.4531-39.4043s-17.6758-39.4043-39.4531-39.4043c-21.7285 0-39.4043 17.627-39.4043 39.4043s17.6758 39.4043 39.4043 39.4043Zm0-7.42188c-17.6758 0-31.9336-14.3066-31.9336-31.9824s14.2578-31.9824 31.9336-31.9824 31.9824 14.3066 31.9824 31.9824-14.3066 31.9824-31.9824 31.9824Zm-17.9688-31.9824c0 2.14844 1.51367 3.61328 3.75977 3.61328h10.498v10.5957c0 2.19727 1.46484 3.71094 3.61328 3.71094 2.24609 0 3.71094-1.51367 3.71094-3.71094v-10.5957h10.5957c2.19727 0 3.71094-1.46484 3.71094-3.61328 0-2.19727-1.51367-3.71094-3.71094-3.71094h-10.5957v-10.5469c0-2.24609-1.46484-3.75977-3.71094-3.75977-2.14844 0-3.61328 1.51367-3.61328 3.75977v10.5469h-10.498c-2.24609 0-3.75977 1.51367-3.75977 3.71094Z"/>
  </g>
  <g transform="matrix(0.2 0 0 0.2 281.506 1933)">
   <path d="m58.5449 14.5508c27.4902 0 49.8047-22.3145 49.8047-49.8047s-22.3145-49.8047-49.8047-49.8047-49.8047 22.3145-49.8047 49.8047 22.3145 49.8047 49.8047 49.8047Zm0-8.30078c-22.9492 0-41.5039-18.5547-41.5039-41.5039s18.5547-41.5039 41.5039-41.5039 41.5039 18.5547 41.5039 41.5039-18.5547 41.5039-41.5039 41.5039Zm-22.6562-41.5039c0 2.39258 1.66016 4.00391 4.15039 4.00391h14.3555v14.4043c0 2.44141 1.66016 4.15039 4.05273 4.15039 2.44141 0 4.15039-1.66016 4.15039-4.15039v-14.4043h14.4043c2.44141 0 4.15039-1.61133 4.15039-4.00391 0-2.44141-1.70898-4.15039-4.15039-4.15039h-14.4043v-14.3555c0-2.49023-1.70898-4.19922-4.15039-4.19922-2.39258 0-4.05273 1.70898-4.05273 4.19922v14.3555h-14.3555c-2.49023 0-4.15039 1.70898-4.15039 4.15039Z"/>
  </g>
  <g transform="matrix(0.2 0 0 0.2 304.924 1933)">
   <path d="m74.8535 28.3203c35.1074 0 63.623-28.4668 63.623-63.5742s-28.5156-63.623-63.623-63.623-63.5742 28.5156-63.5742 63.623 28.4668 63.5742 63.5742 63.5742Zm0-9.08203c-30.127 0-54.4922-24.3652-54.4922-54.4922s24.3652-54.4922 54.4922-54.4922 54.4922 24.3652 54.4922 54.4922-24.3652 54.4922-54.4922 54.4922Zm-28.8574-54.4922c0 2.58789 1.85547 4.39453 4.58984 4.39453h19.7266v19.7754c0 2.68555 1.85547 4.58984 4.44336 4.58984 2.68555 0 4.54102-1.85547 4.54102-4.58984v-19.7754h19.7754c2.68555 0 4.58984-1.80664 4.58984-4.39453 0-2.73438-1.85547-4.58984-4.58984-4.58984h-19.7754v-19.7266c0-2.73438-1.85547-4.63867-4.54102-4.63867-2.58789 0-4.44336 1.9043-4.44336 4.63867v19.7266h-19.7266c-2.73438 0-4.58984 1.85547-4.58984 4.58984Z"/>
  </g>
  <text style="stroke:none;fill:black;font-family:sans-serif;font-size:13;font-weight:bold;" transform="matrix(1 0 0 1 263 1953)">Design Variations</text>
  <text style="stroke:none;fill:black;font-family:sans-serif;font-size:13;" transform="matrix(1 0 0 1 263 1971)">Symbols are supported in up to nine weights and three scales.</text>
  <text style="stroke:none;fill:black;font-family:sans-serif;font-size:13;" transform="matrix(1 0 0 1 263 1989)">For optimal layout with text and other symbols, vertically align</text>
  <text style="stroke:none;fill:black;font-family:sans-serif;font-size:13;" transform="matrix(1 0 0 1 263 2007)">symbols with the adjacent text.</text>
  <line style="fill:none;stroke:#00AEEF;stroke-width:0.5;opacity:1.0;" x1="776" x2="776" y1="1919" y2="1933"/>
  <g transform="matrix(0.2 0 0 0.2 776 1933)">
   <path d="m16.5527 0.78125c2.58789 0 3.85742-0.976562 4.78516-3.71094l6.29883-17.2363h28.8086l6.29883 17.2363c0.927734 2.73438 2.19727 3.71094 4.73633 3.71094 2.58789 0 4.24805-1.5625 4.24805-4.00391 0-0.830078-0.146484-1.61133-0.537109-2.63672l-22.9004-60.9863c-1.12305-2.97852-3.125-4.49219-6.25-4.49219-3.02734 0-5.07812 1.46484-6.15234 4.44336l-22.9004 61.084c-0.390625 1.02539-0.537109 1.80664-0.537109 2.63672 0 2.44141 1.5625 3.95508 4.10156 3.95508Zm13.4766-28.3691 11.8652-32.8613h0.244141l11.8652 32.8613Z"/>
  </g>
  <line style="fill:none;stroke:#00AEEF;stroke-width:0.5;opacity:1.0;" x1="792.836" x2="792.836" y1="1919" y2="1933"/>
  <text style="stroke:none;fill:black;font-family:sans-serif;font-size:13;font-weight:bold;" transform="matrix(1 0 0 1 776 1953)">Margins</text>
  <text style="stroke:none;fill:black;font-family:sans-serif;font-size:13;" transform="matrix(1 0 0 1 776 1971)">Leading and trailing margins on the left and right side of each symbol</text>
  <text style="stroke:none;fill:black;font-family:sans-serif;font-size:13;" transform="matrix(1 0 0 1 776 1989)">can be adjusted by modifying the x-location of the margin guidelines.</text>
  <text style="stroke:none;fill:black;font-family:sans-serif;font-size:13;" transform="matrix(1 0 0 1 776 2007)">Modifications are automatically applied proportionally to all</text>
  <text style="stroke:none;fill:black;font-family:sans-serif;font-size:13;" transform="matrix(1 0 0 1 776 2025)">scales and weights.</text>
  <g transform="matrix(0.2 0 0 0.2 1289 1933)">
   <path d="m14.209 9.32617 8.49609 8.54492c4.29688 4.3457 9.22852 4.05273 13.8672-1.07422l53.4668-58.9355-4.83398-4.88281-53.0762 58.3984c-1.75781 2.00195-3.41797 2.49023-5.76172 0.146484l-5.85938-5.81055c-2.34375-2.29492-1.80664-4.00391 0.195312-5.81055l57.373-54.0039-4.88281-4.83398-57.959 54.4434c-4.93164 4.58984-5.32227 9.47266-1.02539 13.8184Zm32.0801-90.9668c-2.09961 2.05078-2.24609 4.93164-1.07422 6.88477 1.17188 1.80664 3.4668 2.97852 6.68945 2.14844 7.32422-1.70898 14.9414-2.00195 22.0703 2.68555l-2.92969 7.27539c-1.70898 4.15039-0.830078 7.08008 1.85547 9.81445l11.4746 11.5723c2.44141 2.44141 4.49219 2.53906 7.32422 2.05078l5.32227-0.976562 3.32031 3.36914-0.195312 2.7832c-0.195312 2.49023 0.439453 4.39453 2.88086 6.78711l3.80859 3.71094c2.39258 2.39258 5.46875 2.53906 7.8125 0.195312l14.5508-14.5996c2.34375-2.34375 2.24609-5.32227-0.146484-7.71484l-3.85742-3.80859c-2.39258-2.39258-4.24805-3.17383-6.64062-2.97852l-2.88086 0.244141-3.22266-3.17383 1.2207-5.61523c0.634766-2.83203-0.146484-5.0293-3.07617-7.95898l-10.9863-10.9375c-16.6992-16.6016-38.8672-16.2109-53.3203-1.75781Zm7.4707 1.85547c12.1582-8.88672 28.6133-7.37305 39.7461 3.75977l12.1582 12.0605c1.17188 1.17188 1.36719 2.09961 1.02539 3.80859l-1.61133 7.42188 7.51953 7.42188 4.93164-0.292969c1.26953-0.0488281 1.66016 0.0488281 2.63672 1.02539l2.88086 2.88086-12.207 12.207-2.88086-2.88086c-0.976562-0.976562-1.12305-1.36719-1.07422-2.68555l0.341797-4.88281-7.4707-7.42188-7.61719 1.26953c-1.61133 0.341797-2.34375 0.195312-3.56445-0.976562l-10.0098-10.0098c-1.26953-1.17188-1.41602-2.00195-0.634766-3.85742l4.39453-10.4492c-7.8125-7.27539-17.9688-10.4004-28.125-7.42188-0.78125 0.195312-1.07422-0.439453-0.439453-0.976562Z"/>
  </g>
  <text style="stroke:none;fill:black;font-family:sans-serif;font-size:13;font-weight:bold;" transform="matrix(1 0 0 1 1289 1953)">Exporting</text>
  <text style="stroke:none;fill:black;font-family:sans-serif;font-size:13;" transform="matrix(1 0 0 1 1289 1971)">Symbols should be outlined when exporting to ensure the</text>
  <text style="stroke:none;fill:black;font-family:sans-serif;font-size:13;" transform="matrix(1 0 0 1 1289 1989)">design is preserved when submitting to Xcode.</text>
  <text id="template-version" style="stroke:none;fill:black;font-family:sans-serif;font-size:13;text-anchor:end;" transform="matrix(1 0 0 1 3036 1933)">Template v.6.0</text>
  <text style="stroke:none;fill:black;font-family:sans-serif;font-size:13;text-anchor:end;" transform="matrix(1 0 0 1 3036 1951)">Requires Xcode 16 or greater</text>
  <text id="descriptive-name" style="stroke:none;fill:black;font-family:sans-serif;font-size:13;text-anchor:end;" transform="matrix(1 0 0 1 3036 1969)">Generated from custom.dot.scope</text>
  <text style="stroke:none;fill:black;font-family:sans-serif;font-size:13;text-anchor:end;" transform="matrix(1 0 0 1 3036 1987)">Typeset at 100.0 points</text>
  <text style="stroke:none;fill:black;font-family:sans-serif;font-size:13;" transform="matrix(1 0 0 1 263 726)">Small</text>
  <text style="stroke:none;fill:black;font-family:sans-serif;font-size:13;" transform="matrix(1 0 0 1 263 1156)">Medium</text>
  <text style="stroke:none;fill:black;font-family:sans-serif;font-size:13;" transform="matrix(1 0 0 1 263 1586)">Large</text>
 </g>
 <g id="Guides">
  <g id="H-reference" style="fill:#27AAE1;stroke:none;" transform="matrix(1 0 0 1 339 696)">
   <path d="M0.993654 0L3.63775 0L29.3281-67.1323L30.0303-67.1323L30.0303-70.459L28.1226-70.459ZM11.6885-24.4799L46.9815-24.4799L46.2315-26.7285L12.4385-26.7285ZM55.1196 0L57.7637 0L30.6382-70.459L29.4326-70.459L29.4326-67.1323Z"/>
  </g>
  <line id="Baseline-S" style="fill:none;stroke:#27AAE1;opacity:1;stroke-width:0.5;" x1="263" x2="3036" y1="696" y2="696"/>
  <line id="Capline-S" style="fill:none;stroke:#27AAE1;opacity:1;stroke-width:0.5;" x1="263" x2="3036" y1="625.541" y2="625.541"/>
  <g id="H-reference" style="fill:#27AAE1;stroke:none;" transform="matrix(1 0 0 1 339 1126)">
   <path d="M0.993654 0L3.63775 0L29.3281-67.1323L30.0303-67.1323L30.0303-70.459L28.1226-70.459ZM11.6885-24.4799L46.9815-24.4799L46.2315-26.7285L12.4385-26.7285ZM55.1196 0L57.7637 0L30.6382-70.459L29.4326-70.459L29.4326-67.1323Z"/>
  </g>
  <line id="Baseline-M" style="fill:none;stroke:#27AAE1;opacity:1;stroke-width:0.5;" x1="263" x2="3036" y1="1126" y2="1126"/>
  <line id="Capline-M" style="fill:none;stroke:#27AAE1;opacity:1;stroke-width:0.5;" x1="263" x2="3036" y1="1055.54" y2="1055.54"/>
  <g id="H-reference" style="fill:#27AAE1;stroke:none;" transform="matrix(1 0 0 1 339 1556)">
   <path d="M0.993654 0L3.63775 0L29.3281-67.1323L30.0303-67.1323L30.0303-70.459L28.1226-70.459ZM11.6885-24.4799L46.9815-24.4799L46.2315-26.7285L12.4385-26.7285ZM55.1196 0L57.7637 0L30.6382-70.459L29.4326-70.459L29.4326-67.1323Z"/>
  </g>
  <line id="Baseline-L" style="fill:none;stroke:#27AAE1;opacity:1;stroke-width:0.5;" x1="263" x2="3036" y1="1556" y2="1556"/>
  <line id="Capline-L" style="fill:none;stroke:#27AAE1;opacity:1;stroke-width:0.5;" x1="263" x2="3036" y1="1485.54" y2="1485.54"/>
  <line id="right-margin-Black-S" style="fill:none;stroke:#00AEEF;stroke-width:0.5;opacity:1.0;" x1="2988.23" x2="2988.23" y1="600.785" y2="720.121"/>
  <line id="left-margin-Black-S" style="fill:none;stroke:#00AEEF;stroke-width:0.5;opacity:1.0;" x1="2878.57" x2="2878.57" y1="600.785" y2="720.121"/>
  <line id="right-margin-Regular-S" style="fill:none;stroke:#00AEEF;stroke-width:0.5;opacity:1.0;" x1="1503.73" x2="1503.73" y1="600.785" y2="720.121"/>
  <line id="left-margin-Regular-S" style="fill:none;stroke:#00AEEF;stroke-width:0.5;opacity:1.0;" x1="1395.96" x2="1395.96" y1="600.785" y2="720.121"/>
  <line id="right-margin-Ultralight-S" style="fill:none;stroke:#00AEEF;stroke-width:0.5;opacity:1.0;" x1="610.687" x2="610.687" y1="600.785" y2="720.121"/>
  <line id="left-margin-Ultralight-S" style="fill:none;stroke:#00AEEF;stroke-width:0.5;opacity:1.0;" x1="508.736" x2="508.736" y1="600.785" y2="720.121"/>
 </g>
  <g id="Symbols">
    <g id="Black-S" transform="translate(2878.57, 696)">
      <path class="SFSymbolsPreviewWireframe" fill="none" stroke="#000000" stroke-width="0.5" d="M54.834,-29.8552C57.7746,-29.8552,60.1838,-32.2644,60.1838,-35.2051C60.1838,-38.1457,57.7746,-40.5549,54.834,-40.5549C51.8933,-40.5549,49.4842,-38.1457,49.4842,-35.2051C49.4842,-32.2644,51.8933,-29.8552,54.834,-29.8552zM54.8694,-6.5429C70.6708,-6.5429,83.4961,-19.3682,83.4961,-35.1696C83.4961,-50.971,70.6708,-63.7964,54.8694,-63.7964C39.068,-63.7964,26.2427,-50.971,26.2427,-35.1696C26.2427,-19.3682,39.068,-6.5429,54.8694,-6.5429zM54.8694,-15.9671C44.2761,-15.9671,35.6668,-24.5763,35.6668,-35.1696C35.6668,-45.763,44.2761,-54.3722,54.8694,-54.3722C65.4627,-54.3722,74.072,-45.763,74.072,-35.1696C74.072,-24.5763,65.4627,-15.9671,54.8694,-15.9671zM54.8694,-45.2315C56.7826,-45.2315,58.2706,-46.7549,58.2706,-48.6682L58.2706,-66.5953C58.2706,-68.5084,56.7826,-70.0319,54.8694,-70.0319C52.9562,-70.0319,51.4682,-68.5084,51.4682,-66.5953L51.4682,-48.6682C51.4682,-46.7549,52.9562,-45.2315,54.8694,-45.2315zM23.4438,-31.8039L41.3709,-31.8039C43.2841,-31.8039,44.8075,-33.2919,44.8075,-35.2051C44.8075,-37.1182,43.2841,-38.6063,41.3709,-38.6063L23.4438,-38.6063C21.5306,-38.6063,20.0071,-37.1182,20.0071,-35.2051C20.0071,-33.2919,21.5306,-31.8039,23.4438,-31.8039zM54.8694,-0.3782C56.7826,-0.3782,58.2706,-1.9017,58.2706,-3.8149L58.2706,-21.742C58.2706,-23.6552,56.7826,-25.1786,54.8694,-25.1786C52.9562,-25.1786,51.4682,-23.6552,51.4682,-21.742L51.4682,-3.8149C51.4682,-1.9017,52.9562,-0.3782,54.8694,-0.3782zM68.2971,-31.8039L86.2242,-31.8039C88.1371,-31.8039,89.6608,-33.2919,89.6608,-35.2051C89.6608,-37.1182,88.1371,-38.6063,86.2242,-38.6063L68.2971,-38.6063C66.3839,-38.6063,64.8604,-37.1182,64.8604,-35.2051C64.8604,-33.2919,66.3839,-31.8039,68.2971,-31.8039z"/>
    </g>
    <g id="Regular-S" transform="translate(1395.96, 696)">
      <path class="SFSymbolsPreviewWireframe" fill="none" stroke="#000000" stroke-width="0.5" d="M53.8996,-30.3755C56.5631,-30.3755,58.7293,-32.5417,58.7293,-35.2051C58.7293,-37.8685,56.5631,-40.0347,53.8996,-40.0347C51.2007,-40.0347,49.0345,-37.8685,49.0345,-35.2051C49.0345,-32.5417,51.2007,-30.3755,53.8996,-30.3755zM53.8996,-8.8552C68.4596,-8.8552,80.285,-20.7162,80.285,-35.2761C80.285,-49.836,68.4596,-61.6971,53.8996,-61.6971C39.3042,-61.6971,27.4787,-49.836,27.4787,-35.2761C27.4787,-20.7162,39.3042,-8.8552,53.8996,-8.8552zM53.8996,-14.0044C42.1451,-14.0044,32.6279,-23.5216,32.6279,-35.2761C32.6279,-46.9951,42.1451,-56.5478,53.8996,-56.5478C65.6186,-56.5478,75.1358,-46.9951,75.1358,-35.2761C75.1358,-23.5216,65.6186,-14.0044,53.8996,-14.0044zM53.8996,-45.9297C55.1425,-45.9297,56.1369,-46.9241,56.1369,-48.1669L56.1369,-67.1659C56.1369,-68.4443,55.1425,-69.4386,53.8996,-69.4386C52.6212,-69.4386,51.6268,-68.4443,51.6268,-67.1659L51.6268,-48.1669C51.6268,-46.9241,52.6212,-45.9297,53.8996,-45.9297zM21.9388,-32.9323L40.9023,-32.9323C42.1807,-32.9323,43.175,-33.9267,43.175,-35.2051C43.175,-36.4835,42.1807,-37.4779,40.9023,-37.4779L21.9388,-37.4779C20.6604,-37.4779,19.6661,-36.4835,19.6661,-35.2051C19.6661,-33.9267,20.6604,-32.9323,21.9388,-32.9323zM53.8996,-0.9716C55.1425,-0.9716,56.1369,-1.9659,56.1369,-3.2443L56.1369,-22.2432C56.1369,-23.4861,55.1425,-24.4805,53.8996,-24.4805C52.6212,-24.4805,51.6268,-23.4861,51.6268,-22.2432L51.6268,-3.2443C51.6268,-1.9659,52.6212,-0.9716,53.8996,-0.9716zM66.8615,-32.9323L85.8249,-32.9323C87.1033,-32.9323,88.0979,-33.9267,88.0979,-35.2051C88.0979,-36.4835,87.1033,-37.4779,85.8249,-37.4779L66.8615,-37.4779C65.5831,-37.4779,64.5887,-36.4835,64.5887,-35.2051C64.5887,-33.9267,65.5831,-32.9323,66.8615,-32.9323z"/>
    </g>
    <g id="Ultralight-S" transform="translate(508.736, 696)">
      <path class="SFSymbolsPreviewWireframe" fill="none" stroke="#000000" stroke-width="0.5" d="M50.9946,-30.6261C53.4977,-30.6261,55.5382,-32.6667,55.5382,-35.2051C55.5382,-37.7435,53.4977,-39.784,50.9946,-39.784C48.4535,-39.784,46.413,-37.7435,46.413,-35.2051C46.413,-32.6667,48.4535,-30.6261,50.9946,-30.6261zM51.0301,-7.6451C66.1896,-7.6451,78.5573,-20.0155,78.5573,-35.2104C78.5573,-50.4053,66.1896,-62.7403,51.0301,-62.7403C35.8325,-62.7403,23.4648,-50.4053,23.4648,-35.2104C23.4648,-20.0155,35.8325,-7.6451,51.0301,-7.6451zM51.0301,-9.3782C36.7545,-9.3782,25.1979,-20.9348,25.1979,-35.2104C25.1979,-49.4834,36.7545,-61.0426,51.0301,-61.0426C65.3031,-61.0426,76.8242,-49.4834,76.8242,-35.2104C76.8242,-20.9348,65.3031,-9.3782,51.0301,-9.3782zM50.9946,-48.4113C51.5132,-48.4113,51.8713,-48.8403,51.8713,-49.2879L51.8713,-68.7845C51.8713,-69.2349,51.5132,-69.6639,50.9946,-69.6639C50.5089,-69.6639,50.1862,-69.2349,50.1862,-68.7845L50.1862,-49.2879C50.1862,-48.8403,50.5089,-48.4113,50.9946,-48.4113zM17.4152,-34.3612L36.9091,-34.3612C37.3594,-34.3612,37.7885,-34.7193,37.7885,-35.1697C37.7885,-35.6908,37.3594,-36.0489,36.9091,-36.0489L17.4152,-36.0489C16.9649,-36.0489,16.5359,-35.6908,16.5359,-35.1697C16.5359,-34.7193,16.9649,-34.3612,17.4152,-34.3612zM50.9946,-0.7463C51.5132,-0.7463,51.8713,-1.1753,51.8713,-1.6256L51.8713,-21.1222C51.8713,-21.5699,51.5132,-21.9989,50.9946,-21.9989C50.5089,-21.9989,50.1862,-21.5699,50.1862,-21.1222L50.1862,-1.6256C50.1862,-1.1753,50.5089,-0.7463,50.9946,-0.7463zM65.0775,-34.3612L84.536,-34.3612C85.0218,-34.3612,85.4153,-34.7193,85.4153,-35.1697C85.4153,-35.6908,85.0218,-36.0489,84.536,-36.0489L65.0775,-36.0489C64.5918,-36.0489,64.1982,-35.6908,64.1982,-35.1697C64.1982,-34.7193,64.5918,-34.3612,65.0775,-34.3612z"/>
    </g>
  </g>
</svg>
