<?xml version='1.0' encoding='utf-8'?>
<svg xmlns="http://www.w3.org/2000/svg" version="1.1" id="图层_1" x="0px" y="0px" viewBox="0 0 3300 2200">
  <g id="Guides">
    <g id="H-reference" transform="matrix(1 0 0 1 339 696)">
      <path class="st6" d="M1,0h2.6l25.7-67.1H30v-3.3h-1.9L1,0z M11.7-24.5H47l-0.8-2.2H12.4L11.7-24.5z M55.1,0h2.6L30.6-70.5h-1.2    v3.3L55.1,0z" />
    </g>
    <line id="Baseline-S" class="st7" x1="263" y1="696" x2="3036" y2="696" />
    <line id="Capline-S" class="st7" x1="263" y1="625.5" x2="3036" y2="625.5" />
    <g id="H-reference_00000174582976744177833630000007730325773184391314_" transform="matrix(1 0 0 1 339 1126)">
      <path class="st6" d="M1,0h2.6l25.7-67.1H30v-3.3h-1.9L1,0z M11.7-24.5H47l-0.8-2.2H12.4L11.7-24.5z M55.1,0h2.6L30.6-70.5h-1.2    v3.3L55.1,0z" />
    </g>
    <line id="Baseline-M" class="st7" x1="263" y1="1126" x2="3036" y2="1126" />
    <line id="Capline-M" class="st7" x1="263" y1="1055.5" x2="3036" y2="1055.5" />
    <g id="H-reference_00000113329496982249443560000009416180920334905247_" transform="matrix(1 0 0 1 339 1556)">
      <path class="st6" d="M1,0h2.6l25.7-67.1H30v-3.3h-1.9L1,0z M11.7-24.5H47l-0.8-2.2H12.4L11.7-24.5z M55.1,0h2.6L30.6-70.5h-1.2    v3.3L55.1,0z" />
    </g>
    <line id="Baseline-L" class="st7" x1="263" y1="1556" x2="3036" y2="1556" />
    <line id="Capline-L" class="st7" x1="263" y1="1485.5" x2="3036" y2="1485.5" />
    <line id="left-margin-Regular-M" class="st5" x1="1391.3" y1="1030.8" x2="1391.3" y2="1150.1" />
    <line id="right-margin-Regular-M" class="st5" x1="1508.4" y1="1030.8" x2="1508.4" y2="1150.1" />
  </g>
  <g id="Symbols">
    <g id="Regular-M" transform="matrix(1 0 0 1 1391.32 1126)">
      <g>
        <g transform="translate(12.68, 10)scale(0.0125, -0.0126)">
          <path d="M3605,6953C3420,6910,3318,6841,3248,6713C3238,6695,3230,6672,3230,6662C3230,6652,3224,6636,3217,6625C3209,6614,3198,6592,3192,6575C3180,6541,3156,6479,3110,6365C3093,6321,3072,6267,3063,6245C3050,6210,3028,6156,2999,6085C2978,6033,2925,5900,2908,5855C2898,5828,2886,5796,2881,5785C2849,5709,2825,5648,2777,5525C2746,5448,2685,5293,2639,5180C2594,5067,2551,4957,2543,4935C2536,4913,2523,4882,2515,4865C2507,4849,2484,4792,2465,4740C2445,4688,2416,4614,2400,4575C2283,4292,2256,4210,2279,4210C2284,4210,2311,4231,2338,4258C2383,4300,2395,4321,2446,4450C2477,4530,2511,4614,2521,4637C2532,4660,2540,4685,2540,4692C2540,4699,2547,4714,2555,4724C2563,4735,2570,4752,2570,4762C2570,4771,2579,4796,2589,4817C2599,4838,2633,4920,2664,5000C2695,5080,2727,5158,2735,5173C2743,5189,2750,5206,2750,5211C2750,5217,2758,5240,2769,5263C2788,5306,2837,5431,2975,5780C3017,5887,3056,5986,3062,6000C3068,6014,3081,6045,3090,6070C3139,6200,3214,6377,3228,6393C3250,6417,3265,6414,3294,6379C3336,6330,3330,6299,3224,6035C3099,5724,3099,5724,3051,5595C3028,5535,2999,5458,2986,5425C2961,5363,2948,5329,2862,5105C2758,4837,2717,4732,2669,4612C2642,4544,2620,4484,2620,4479C2620,4460,2655,4472,2783,4534C2925,4603,2983,4627,3043,4640C3064,4644,3087,4653,3093,4659C3099,4665,3111,4670,3121,4670C3151,4670,3189,4710,3204,4758C3212,4784,3232,4843,3250,4890C3267,4937,3294,5013,3310,5060C3348,5172,3390,5285,3456,5451C3486,5526,3510,5593,3510,5600C3510,5623,3570,5718,3596,5735C3631,5757,3794,5759,3836,5737C3896,5706,3930,5650,3975,5510C3990,5463,4008,5410,4016,5392C4024,5374,4030,5354,4030,5347C4031,5340,4039,5317,4050,5295C4061,5273,4069,5249,4070,5242C4070,5234,4094,5169,4124,5097C4154,5024,4187,4940,4198,4910C4282,4688,4283,4686,4334,4671C4389,4655,4544,4600,4580,4583C4641,4556,4784,4484,4807,4470C4824,4459,4832,4458,4841,4467C4851,4477,4841,4510,4800,4612C4771,4685,4739,4765,4730,4790C4720,4815,4685,4903,4652,4985C4585,5150,4440,5521,4405,5615C4382,5675,4243,6024,4190,6155C4174,6194,4154,6248,4145,6275C4136,6303,4118,6344,4105,6368C4092,6392,4060,6457,4034,6513C4009,6569,3974,6632,3958,6652C3916,6706,3882,6714,3716,6705C3592,6699,3570,6695,3532,6674C3497,6653,3482,6650,3444,6656C3346,6670,3345,6735,3443,6797C3518,6845,3577,6861,3705,6867C3810,6872,3835,6870,3905,6850C3953,6837,4000,6816,4023,6798C4070,6760,4127,6664,4180,6530C4246,6363,4253,6347,4272,6303C4282,6280,4290,6256,4290,6250C4290,6243,4297,6226,4305,6212C4313,6197,4331,6154,4345,6115C4377,6030,4398,5975,4415,5935C4422,5919,4438,5878,4451,5845C4474,5783,4498,5725,4531,5652C4541,5629,4550,5601,4550,5592C4550,5582,4554,5570,4559,5565C4564,5559,4580,5524,4595,5485C4609,5447,4630,5395,4640,5370C4650,5345,4675,5282,4695,5230C4715,5178,4737,5122,4745,5107C4753,5091,4760,5074,4760,5069C4760,5063,4768,5040,4779,5017C4798,4974,4864,4807,4964,4550C5051,4329,5059,4314,5118,4259C5172,4211,5200,4198,5200,4223C5200,4234,5136,4398,5104,4467C5097,4484,5090,4502,5090,4508C5090,4513,5078,4544,5064,4576C5049,4609,5029,4658,5020,4685C5010,4713,4993,4758,4982,4785C4971,4813,4934,4905,4901,4990C4867,5075,4831,5165,4821,5190C4810,5215,4785,5278,4765,5330C4745,5382,4723,5439,4715,5455C4708,5472,4683,5535,4660,5595C4637,5656,4603,5741,4585,5785C4529,5919,4450,6118,4395,6260C4267,6591,4259,6610,4206,6705C4151,6802,4125,6835,4069,6875C4000,6927,3861,6960,3726,6959C3671,6958,3616,6956,3605,6953zM3356,6622C3378,6607,3400,6564,3400,6537C3400,6496,3357,6456,3322,6465C3280,6475,3256,6505,3257,6546C3259,6604,3317,6649,3356,6622z" />
          <path d="M2650,6331C2399,6244,2222,6161,2010,6032C1521,5735,1117,5310,843,4805C787,4702,710,4544,710,4533C710,4530,704,4514,696,4497C684,4467,669,4429,622,4297C603,4247,579,4162,546,4035C524,3951,510,3875,479,3664C461,3539,452,3280,460,3115C473,2851,508,2639,593,2327C605,2279,628,2268,649,2301C658,2314,697,2361,736,2405C826,2506,832,2518,819,2561C795,2643,781,2944,791,3176C802,3446,822,3578,896,3846C952,4050,992,4145,1168,4485C1195,4537,1340,4751,1409,4840C1445,4887,1545,4995,1630,5081C1872,5324,2104,5492,2405,5639C2501,5686,2543,5719,2566,5762C2597,5821,2571,5850,2517,5816C2505,5809,2466,5790,2430,5774C2213,5680,1887,5466,1708,5301C1672,5268,1635,5240,1627,5240C1618,5240,1602,5256,1590,5275C1570,5308,1569,5312,1583,5334C1592,5347,1627,5382,1662,5412C1906,5624,2221,5815,2530,5939C2616,5974,2662,5998,2678,6017C2708,6053,2852,6359,2844,6371C2834,6388,2784,6378,2650,6331zM1434,5109C1448,5092,1460,5075,1460,5071C1460,5060,1407,4988,1382,4967C1371,4957,1354,4950,1344,4952C1319,4957,1287,5004,1294,5026C1301,5050,1383,5140,1398,5140C1403,5140,1420,5126,1434,5109z" />
          <path d="M4648,6345C4643,6339,4663,6276,4698,6185C4709,6158,4728,6108,4741,6075C4774,5987,4792,5967,4857,5941C5041,5865,5291,5733,5445,5629C5606,5521,5820,5338,5820,5310C5820,5299,5808,5280,5793,5266C5760,5235,5752,5239,5655,5325C5491,5470,5259,5624,5023,5743C4851,5830,4831,5830,4870,5743C4898,5680,4924,5654,4990,5622C5116,5561,5312,5437,5450,5331C5915,4974,6273,4458,6453,3885C6470,3831,6511,3662,6531,3565C6574,3350,6586,3044,6564,2737L6557,2639L6674,2523C6800,2399,6799,2399,6820,2470C6838,2531,6888,2801,6902,2910C6919,3048,6919,3481,6902,3625C6843,4114,6691,4557,6446,4955C6217,5327,5893,5672,5544,5916C5490,5954,5438,5990,5428,5995C5418,6001,5360,6035,5298,6071C5177,6141,4993,6232,4895,6269C4862,6282,4821,6298,4805,6305C4788,6312,4760,6321,4743,6324C4725,6328,4708,6336,4705,6341C4698,6351,4657,6354,4648,6345zM6079,5055C6125,5005,6126,5001,6106,4961C6075,4903,6065,4903,6010,4961C5954,5022,5945,5059,5982,5084C6017,5109,6034,5103,6079,5055z" />
          <path d="M3800,5046C3800,4752,3799,4742,3779,4716C3752,4682,3715,4684,3686,4723C3666,4750,3665,4765,3662,5041L3659,5330L3635,5330C3605,5330,3582,5297,3564,5232C3557,5206,3530,5127,3505,5055C3479,4984,3446,4887,3430,4840C3414,4793,3373,4676,3340,4580C3307,4484,3266,4367,3250,4320C3234,4273,3204,4188,3184,4130C3076,3820,2988,3562,2983,3543C2980,3530,2991,3500,3014,3460C3034,3427,3050,3397,3050,3395C3050,3393,3074,3350,3104,3301C3134,3252,3162,3196,3165,3178C3169,3160,3195,3102,3223,3050C3295,2920,3300,2920,3374,3059C3406,3120,3439,3175,3448,3182C3456,3189,3483,3197,3509,3200L3555,3205L3561,3325C3564,3391,3563,3453,3558,3463C3551,3476,3536,3480,3484,3480C3449,3480,3404,3487,3385,3494C3343,3512,3340,3538,3371,3626C3382,3658,3397,3706,3404,3732C3412,3757,3421,3784,3425,3790C3429,3796,3438,3823,3446,3848C3453,3874,3482,3960,3510,4040C3538,4120,3567,4205,3575,4230C3617,4364,3667,4498,3682,4518C3697,4536,3734,4533,3753,4512C3771,4492,3818,4385,3849,4294C3860,4260,3890,4179,3916,4114C3941,4048,3973,3966,3985,3930C3998,3894,4027,3818,4050,3760C4111,3605,4128,3547,4119,3523C4111,3500,4063,3480,4016,3480C3965,3480,3960,3468,3960,3334C3960,3201,3955,3211,4022,3196C4053,3189,4075,3160,4125,3062C4145,3022,4167,2990,4175,2990C4193,2990,4216,3021,4270,3117C4296,3163,4327,3205,4342,3215C4362,3226,4389,3272,4440,3378L4511,3525L4477,3630C4458,3688,4433,3769,4420,3810C4408,3851,4392,3900,4384,3918C4376,3936,4370,3956,4370,3962C4370,3986,4089,4840,4005,5071C3925,5292,3888,5350,3829,5350L3800,5350L3800,5046z" />
          <path d="M2880,4249C2680,4144,2568,4061,2407,3902C2258,3755,2126,3572,2032,3383C1992,3303,1922,3113,1900,3025C1847,2814,1824,2432,1865,2442C1879,2445,1961,2532,2150,2745C2399,3025,2389,3020,2654,3001C2771,2993,2835,2992,2847,2999C2869,3010,2920,3106,2920,3135C2920,3159,2840,3296,2777,3380C2729,3444,2713,3491,2724,3537C2728,3553,2747,3608,2766,3660C2797,3742,2820,3800,2894,3975C2901,3992,2920,4037,2935,4075C2951,4114,2967,4150,2971,4155C2975,4161,2990,4194,3005,4229C3026,4280,3029,4295,3018,4301C3000,4313,3006,4316,2880,4249z" />
          <path d="M4440,4297C4440,4290,4458,4249,4480,4205C4502,4161,4520,4119,4520,4112C4520,4105,4524,4092,4530,4082C4540,4065,4554,4023,4610,3840C4628,3782,4655,3697,4671,3650C4725,3493,4708,3376,4611,3247C4547,3161,4547,3163,4584,3085C4602,3046,4626,3008,4636,2999C4664,2974,4849,2964,4913,2984C5029,3019,5125,2963,5278,2771C5319,2719,5412,2611,5484,2532C5648,2350,5644,2348,5637,2605C5624,3037,5507,3367,5244,3717C5076,3939,4854,4121,4582,4261C4488,4310,4440,4322,4440,4297z" />
          <path d="M3722,3467C3707,3450,3704,3222,3718,3208C3732,3194,3776,3195,3795,3210C3814,3226,3817,3449,3798,3468C3782,3484,3735,3483,3722,3467z" />
          <path d="M3489,3102C3478,3095,3470,3085,3470,3080C3470,3075,3457,3048,3440,3020C3396,2946,3399,2930,3455,2930C3492,2930,3504,2935,3527,2960L3553,2990L3742,2990L3930,2990L3957,2960C3980,2934,3990,2930,4037,2930C4079,2930,4090,2933,4090,2946C4090,2966,4034,3079,4015,3099C3995,3119,3517,3122,3489,3102z" />
          <path d="M1564,3067C1548,3053,1508,3008,1475,2965C1382,2846,1320,2768,1286,2729C1259,2698,1202,2626,1082,2476C1034,2415,942,2302,875,2220C842,2180,788,2112,755,2069C700,1998,575,1844,425,1661C392,1621,356,1576,345,1561C334,1547,292,1495,250,1445C208,1396,160,1333,143,1305C111,1253,70,1115,70,1057C70,983,145,759,187,709C194,701,200,688,200,681C200,659,271,566,315,531C417,449,474,437,720,443C827,446,992,455,1085,463C1179,472,1309,484,1375,490C1441,496,1522,503,1555,505C1588,508,1665,514,1725,520C1786,525,1916,537,2015,545C2114,553,2272,567,2365,575C2459,583,2561,590,2592,590C2700,590,2727,620,2650,655C2614,671,2597,672,2458,661C2229,644,1936,621,1745,605C1652,597,1514,586,1440,580C1366,575,1247,566,1175,560C649,518,523,517,454,553C384,589,271,747,224,875C164,1039,159,1078,190,1184C210,1255,217,1266,376,1460C424,1518,513,1628,575,1705C637,1782,739,1908,801,1986C864,2063,962,2184,1019,2256C1077,2327,1170,2442,1226,2511C1461,2801,1537,2897,1556,2930C1577,2964,1606,3077,1597,3086C1595,3089,1580,3080,1564,3067z" />
          <path d="M5865,3080C5857,3068,5897,2934,5918,2901C5928,2887,5971,2830,6015,2775C6143,2616,6287,2437,6415,2275C6481,2193,6537,2123,6540,2120C6543,2117,6570,2084,6600,2045C6630,2007,6671,1955,6692,1930C6712,1905,6784,1815,6850,1730C6917,1645,7000,1544,7034,1506C7067,1468,7103,1423,7113,1407C7123,1391,7144,1364,7161,1346C7206,1299,7209,1271,7174,1243C7158,1231,7133,1220,7118,1220C7091,1220,7065,1247,6919,1426C6888,1464,6827,1538,6784,1590C6740,1643,6662,1739,6610,1803C6472,1973,6004,2540,5973,2573C5955,2593,5944,2598,5937,2591C5931,2585,5923,2520,5918,2447C5914,2375,5906,2288,5901,2255C5885,2166,5888,2109,5909,2074C5946,2014,6253,1659,6375,1535C6464,1446,6591,1303,6607,1276C6625,1245,6622,1198,6598,1135C6574,1071,6537,1035,6477,1019C6428,1006,6212,1012,5950,1035C5920,1038,5807,1042,5700,1045C5593,1049,5476,1055,5440,1060C5404,1065,5367,1070,5358,1070C5349,1070,5301,1032,5252,987C5203,941,5135,882,5102,856C5069,830,5039,802,5036,795C5034,788,5048,772,5068,759C5096,741,5106,727,5108,703C5113,655,5084,644,4989,661C4894,677,4851,676,4811,656C4779,639,4762,615,4774,603C4778,599,4802,595,4828,595C4854,594,4955,587,5053,580C5151,573,5233,570,5237,574C5240,577,5231,597,5216,618C5186,662,5185,671,5205,709C5234,766,5298,770,5334,718C5360,681,5353,650,5310,609C5287,587,5275,568,5281,565C5287,561,5364,552,5453,544C5542,536,5667,526,5730,520C6104,487,6198,479,6320,470C6394,464,6488,455,6528,450C6652,433,6925,438,7000,458C7139,495,7193,547,7290,735C7351,851,7394,987,7393,1060C7392,1176,7343,1284,7227,1427C7180,1484,7095,1590,6963,1754C6914,1813,6846,1897,6810,1940C6774,1982,6727,2041,6705,2070C6664,2124,6630,2167,6548,2267C6522,2299,6468,2366,6428,2416C6388,2467,6256,2630,6135,2780C6014,2930,5909,3061,5901,3071C5886,3092,5874,3095,5865,3080zM7264,1178C7285,1149,7285,1046,7264,972C7256,940,7226,869,7198,813C7157,728,7135,697,7072,634C7030,592,6981,551,6963,544C6914,523,6810,526,6175,570C6021,581,5806,595,5697,601C5528,611,5495,616,5474,632C5442,658,5443,695,5476,717C5505,736,5612,737,5755,720C5836,710,6074,698,6584,677C6772,669,6872,668,6891,675C6928,688,7046,802,7087,864C7121,915,7145,984,7155,1060C7166,1136,7169,1146,7194,1173C7224,1206,7244,1207,7264,1178z" />
          <path d="M3069,3023C3048,2997,3029,2950,3035,2939C3039,2934,3064,2930,3091,2930C3151,2930,3162,2947,3134,2999C3112,3040,3090,3048,3069,3023z" />
          <path d="M4351,3000C4319,2943,4327,2930,4396,2930L4452,2930L4446,2958C4437,2992,4407,3034,4388,3038C4380,3039,4364,3023,4351,3000z" />
          <path d="M2491,2743C2456,2706,2343,2590,2241,2485C2005,2244,1527,1757,1353,1578C1228,1452,1219,1439,1222,1408C1224,1384,1230,1374,1245,1372C1257,1370,1371,1421,1499,1484C1746,1605,1803,1623,1846,1595C1877,1575,1877,1547,1845,1518C1815,1490,1816,1490,1528,1351C1401,1290,1300,1235,1300,1228C1301,1190,1342,1170,1422,1170C1490,1170,1764,1204,2035,1245C2129,1260,2240,1275,2283,1280C2326,1285,2384,1293,2413,1299C2442,1304,2528,1319,2605,1330C2682,1342,2792,1360,2850,1370C2908,1380,3018,1398,3094,1411C3182,1425,3240,1440,3249,1450C3299,1499,3442,1694,3456,1731C3465,1755,3478,1782,3485,1790C3518,1833,3591,1974,3586,1986C3582,1996,3563,2000,3522,2000C3461,2000,3439,2013,3411,2068C3405,2080,3392,2090,3384,2090C3355,2090,3061,1920,3055,1899C3051,1887,3055,1868,3065,1854C3090,1816,3081,1779,3041,1756C3014,1741,2964,1732,2816,1718C2711,1707,2609,1697,2590,1695C2539,1690,2146,1650,2074,1643C2015,1638,2011,1639,1995,1664C1985,1679,1980,1699,1984,1712C1991,1742,2644,2401,2688,2424C2744,2453,2769,2443,2808,2377C2826,2345,2848,2316,2856,2313C2875,2306,2914,2323,3058,2400C3125,2435,3182,2471,3185,2480C3189,2488,3179,2518,3163,2547L3135,2599L3180,2684C3240,2799,3237,2804,3100,2808C3025,2810,2986,2807,2959,2796C2930,2784,2909,2783,2872,2790C2846,2795,2764,2801,2690,2805L2555,2811L2491,2743z" />
          <path d="M4287,2803C4272,2789,4282,2754,4322,2678C4364,2601,4364,2599,4347,2571C4316,2518,4323,2505,4412,2448C4458,2419,4524,2376,4559,2353C4594,2329,4631,2310,4641,2310C4653,2310,4668,2327,4685,2360C4714,2416,4744,2436,4787,2426C4806,2421,4930,2304,5168,2067C5362,1873,5526,1707,5531,1697C5539,1684,5537,1672,5525,1653C5510,1630,5504,1629,5452,1634C5421,1637,5310,1649,5205,1660C4978,1684,4604,1721,4538,1726C4481,1730,4422,1753,4414,1774C4411,1782,4418,1811,4430,1838C4465,1919,4463,1922,4300,2016C4220,2062,4145,2099,4133,2100C4119,2100,4104,2088,4089,2063C4056,2006,4043,2000,3968,2000C3919,2000,3898,1996,3894,1986C3889,1973,3968,1820,4013,1755C4036,1723,4136,1597,4206,1515C4256,1456,4230,1462,4715,1390C4748,1385,4847,1369,4935,1355C5023,1340,5146,1322,5208,1315C5270,1307,5324,1298,5329,1296C5333,1293,5383,1286,5441,1281C5498,1275,5568,1266,5595,1260C5693,1241,5979,1210,6059,1210C6127,1210,6143,1213,6161,1231C6172,1242,6180,1256,6178,1262C6176,1267,6126,1292,6066,1316C5845,1405,5727,1464,5691,1505C5674,1525,5660,1545,5660,1550C5660,1569,5700,1600,5725,1600C5748,1600,5873,1556,5895,1540C5922,1520,6242,1390,6250,1395C6256,1398,6260,1419,6260,1440C6260,1479,6249,1490,5593,2146L4925,2811L4790,2805C4716,2802,4634,2795,4608,2790C4573,2783,4552,2784,4526,2795C4490,2810,4300,2817,4287,2803z" />
          <path d="M3543,2764C3535,2744,3740,2330,3757,2330C3774,2330,3784,2347,3893,2565C3963,2704,3986,2758,3978,2767C3970,2777,3914,2780,3758,2780C3575,2780,3549,2778,3543,2764z" />
          <path d="M4187,2709C4158,2692,4139,2644,4146,2603C4151,2569,4140,2543,4050,2365C3993,2254,3937,2156,3923,2145C3886,2114,3895,2086,3943,2082C4008,2076,4033,2104,4060,2207C4066,2231,4088,2270,4109,2294C4145,2336,4171,2390,4184,2450C4187,2464,4205,2494,4224,2516C4272,2572,4277,2599,4251,2654C4223,2710,4210,2721,4187,2709z" />
          <path d="M3279,2688C3239,2655,3217,2588,3239,2565C3244,2559,3298,2456,3359,2335C3421,2214,3481,2107,3492,2097C3508,2084,3527,2080,3564,2082C3611,2085,3615,2087,3615,2110C3615,2129,3606,2139,3578,2152C3550,2166,3534,2184,3507,2237C3488,2274,3461,2325,3447,2350C3357,2512,3338,2556,3335,2606C3332,2657,3317,2700,3302,2700C3297,2700,3287,2694,3279,2688z" />
          <path d="M1494,2603C1481,2587,1392,2478,1297,2360C1090,2101,1052,2054,424,1279C334,1168,331,1150,359,976C375,878,445,736,505,681L552,637L659,644C717,648,842,658,935,666C1029,674,1191,687,1295,695C1400,704,1555,717,1640,725C1725,733,1854,744,1925,750C2164,769,2379,793,2392,802C2402,808,2389,824,2345,863C2312,892,2246,952,2199,998L2114,1080L2059,1080C2004,1079,1934,1073,1670,1045C1279,1004,936,978,908,989C862,1006,807,1085,795,1153C780,1229,791,1247,938,1396C1055,1514,1232,1712,1345,1849C1361,1869,1419,1934,1473,1994C1527,2054,1573,2115,1577,2128C1580,2142,1575,2193,1566,2242C1556,2292,1546,2399,1543,2481C1539,2566,1533,2630,1527,2630C1522,2630,1507,2618,1494,2603z" />
          <path d="M4218,2314C4210,2297,4209,2283,4216,2274C4223,2261,4351,2189,4497,2113C4533,2094,4560,2101,4560,2129C4560,2150,4527,2178,4450,2224C4425,2239,4374,2271,4335,2295C4254,2346,4234,2350,4218,2314z" />
          <path d="M3095,2227C2963,2155,2945,2142,2945,2120C2945,2074,2986,2083,3149,2164C3303,2242,3311,2249,3294,2294C3283,2322,3248,2310,3095,2227z" />
          <path d="M3672,1810C3648,1772,3632,1736,3635,1730C3644,1716,3803,1717,3817,1731C3826,1740,3821,1757,3798,1799C3740,1904,3730,1905,3672,1810z" />
          <path d="M3694,1541C3623,1537,3577,1530,3567,1521C3558,1514,3518,1462,3479,1406C3439,1351,3398,1294,3386,1282C3334,1223,3249,1206,2775,1155C2578,1134,2537,1127,2533,1113C2527,1095,2579,1049,2690,976C2783,914,2997,800,3020,800C3027,800,3044,794,3058,786C3090,769,3162,746,3285,715C3657,619,4092,649,4455,795C4536,827,4717,924,4795,977C4965,1092,4986,1110,4977,1134C4971,1148,4938,1150,4703,1150C4498,1150,4422,1154,4380,1165C4350,1173,4312,1180,4295,1180C4253,1180,4150,1231,4101,1275C4078,1296,4035,1354,4005,1405C3937,1520,3904,1551,3847,1548C3824,1547,3755,1544,3694,1541z" />
          <path d="M4675,309C4637,297,4589,282,4570,275C4551,267,4519,258,4500,254C4481,251,4461,244,4455,240C4450,236,4425,229,4400,225C4375,222,4335,213,4310,205C4285,198,4202,181,4125,168C3999,147,3955,145,3670,145C3371,146,3347,147,3210,173C3130,188,3045,205,3020,211C2953,227,2839,259,2805,271C2712,305,2540,310,2540,280C2540,266,2639,224,2770,185C2795,177,2833,164,2855,156C2877,148,2909,141,2925,140C2942,140,2966,133,2980,125C2994,117,3020,111,3039,110C3057,110,3109,101,3154,91C3379,38,4071,41,4244,95C4271,103,4310,110,4331,110C4352,110,4384,116,4402,124C4420,132,4458,143,4485,148C4567,165,4716,213,4787,246C4804,253,4823,260,4830,260C4849,260,4920,305,4917,315C4910,335,4749,330,4675,309z" />
        </g>
      </g>
    </g>
  </g>
</svg>