<?xml version="1.0" encoding="utf-8"?>
<!-- Generator: Adobe Illustrator 26.3.1, SVG Export Plug-In . SVG Version: 6.00 Build 0)  -->
<svg version="1.1" id="图层_1" xmlns="http://www.w3.org/2000/svg" xmlns:xlink="http://www.w3.org/1999/xlink" x="0px" y="0px"
	 viewBox="0 0 3300 2200" style="enable-background:new 0 0 3300 2200;" xml:space="preserve">
<style type="text/css">
	.st0{fill:#FFFFFF;}
	.st1{fill:none;stroke:#000000;stroke-width:0.5;}
	.st2{font-family:'Helvetica-Bold';}
	.st3{font-size:13px;}
	.st4{font-family:'Helvetica';}
	.st5{fill:none;stroke:#00AEEF;stroke-width:0.5;}
	.st6{fill:#27AAE1;}
	.st7{fill:none;stroke:#27AAE1;stroke-width:0.5;}
</style>
<g id="Notes">
	<rect id="artboard" x="-0.5" y="-63.1" class="st0" width="3300" height="2200"/>
	<line class="st1" x1="262.5" y1="228.9" x2="3035.5" y2="228.9"/>
	<text transform="matrix(1 0 0 1 262.5 258.9335)" class="st2 st3">Weight/Scale Variations</text>
	<text transform="matrix(1 0 0 1 533.5633 258.9335)" class="st4 st3">Ultralight</text>
	<text transform="matrix(1 0 0 1 843.2775 258.9335)" class="st4 st3">Thin</text>
	<text transform="matrix(1 0 0 1 1138.535 258.9335)" class="st4 st3">Light</text>
	<text transform="matrix(1 0 0 1 1426.5773 258.9335)" class="st4 st3">Regular</text>
	<text transform="matrix(1 0 0 1 1722.9419 258.9335)" class="st4 st3">Medium</text>
	<text transform="matrix(1 0 0 1 2015.6719 258.9335)" class="st4 st3">Semibold</text>
	<text transform="matrix(1 0 0 1 2326.4705 258.9335)" class="st4 st3">Bold</text>
	<text transform="matrix(1 0 0 1 2617.7659 258.9335)" class="st4 st3">Heavy</text>
	<text transform="matrix(1 0 0 1 2917.0054 258.9335)" class="st4 st3">Black</text>
	<line class="st1" x1="262.5" y1="1839.9" x2="3035.5" y2="1839.9"/>
	<g transform="matrix(1 0 0 1 263 1933)">
		<path d="M8.7-62.3c1.1,0,2.1-0.2,3-0.6c1-0.4,1.8-1,2.5-1.7c0.7-0.7,1.3-1.6,1.7-2.5c0.4-1,0.6-2,0.6-3s-0.2-2.1-0.6-3
			c-0.4-1-1-1.8-1.7-2.5c-0.7-0.7-1.6-1.3-2.5-1.7c-1-0.4-2-0.6-3-0.6c-1.1,0-2.1,0.2-3,0.6s-1.8,1-2.5,1.7
			c-0.7,0.6-1.3,1.5-1.7,2.4c-0.4,1-0.6,2-0.6,3s0.2,2.1,0.6,3.1s1,1.8,1.7,2.5c0.7,0.7,1.6,1.3,2.5,1.7C6.7-62.5,7.7-62.3,8.7-62.3
			z M8.7-63.8c-0.9,0-1.7-0.2-2.5-0.5c-0.7-0.3-1.4-0.7-2-1.3s-1-1.3-1.4-2c-0.3-0.8-0.4-1.7-0.4-2.6s0.2-1.7,0.5-2.5s0.8-1.5,1.4-2
			c0.6-0.6,1.3-1,2-1.4c0.8-0.3,1.6-0.5,2.5-0.5s1.7,0.2,2.5,0.5c0.8,0.3,1.5,0.8,2,1.4c0.6,0.6,1,1.3,1.4,2
			c0.3,0.8,0.5,1.6,0.5,2.5s-0.2,1.7-0.5,2.5s-0.8,1.5-1.4,2c-0.6,0.6-1.3,1-2,1.4C10.5-63.9,9.6-63.8,8.7-63.8z M5.2-70.2
			c0,0.2,0.1,0.4,0.2,0.5c0.1,0.2,0.3,0.3,0.5,0.3H8v2.1c0,0.2,0.1,0.4,0.2,0.5c0.1,0.2,0.3,0.2,0.5,0.2s0.4-0.1,0.5-0.2
			c0.2-0.1,0.3-0.3,0.3-0.5v-2.1h2.1c0.2,0,0.4-0.1,0.5-0.2c0.1-0.1,0.2-0.3,0.2-0.5c0-0.2-0.1-0.4-0.2-0.5
			c-0.1-0.1-0.3-0.2-0.5-0.2H9.5v-2.1c0-0.2-0.1-0.4-0.2-0.5c-0.1-0.1-0.3-0.2-0.5-0.2s-0.4,0.1-0.5,0.2s-0.2,0.3-0.2,0.5v2.1H5.9
			c-0.2-0.1-0.4,0-0.5,0.1C5.2-70.6,5.2-70.4,5.2-70.2z"/>
	</g>
	<g transform="matrix(1 0 0 1 281.867 1933)">
		<path d="M11.2-60.2c1.4,0,2.6-0.3,3.8-0.8s2.3-1.2,3.2-2.2c0.9-0.9,1.6-2,2.2-3.2c0.5-1.2,0.8-2.5,0.8-3.8c0-1.4-0.3-2.6-0.8-3.8
			c-0.5-1.2-1.2-2.3-2.2-3.2c-0.9-0.9-2-1.6-3.2-2.2c-1.2-0.5-2.5-0.8-3.8-0.8s-2.6,0.3-3.8,0.8s-2.3,1.2-3.2,2.2
			c-0.9,0.9-1.6,2-2.2,3.2c-0.5,1.2-0.8,2.5-0.8,3.8c0,1.4,0.3,2.6,0.8,3.8c0.5,1.2,1.3,2.4,2.2,3.3c0.9,0.9,2,1.6,3.2,2.2
			C8.6-60.3,9.8-60.2,11.2-60.2z M11.2-61.9C10-61.9,9-62.1,8-62.5s-1.9-1-2.6-1.8C4.6-65,4-65.9,3.6-66.9S2.9-69,2.9-70.2
			s0.2-2.2,0.6-3.2s1-1.9,1.8-2.6c0.8-0.8,1.6-1.4,2.6-1.8s2.1-0.6,3.2-0.6s2.2,0.2,3.2,0.6s1.9,1,2.6,1.8c0.8,0.8,1.4,1.6,1.8,2.6
			s0.6,2.1,0.6,3.2c0,1.2-0.2,2.2-0.6,3.2s-1,1.9-1.8,2.6c-0.8,0.8-1.6,1.4-2.6,1.8C13.3-62.2,12.4-61.9,11.2-61.9z M6.7-70.2
			c0,0.2,0.1,0.4,0.2,0.6c0.2,0.2,0.4,0.3,0.6,0.3h2.9v2.9c0,0.2,0.1,0.4,0.2,0.6c0.1,0.2,0.3,0.2,0.6,0.2c0.2,0,0.4-0.1,0.6-0.2
			C12-66,12-66.2,12-66.4v-2.9h2.9c0.2,0,0.4-0.1,0.6-0.2c0.2-0.1,0.2-0.3,0.2-0.6c0-0.2-0.1-0.4-0.2-0.6c-0.2-0.2-0.4-0.2-0.6-0.2
			H12v-2.9c0-0.3-0.1-0.5-0.2-0.6s-0.4-0.2-0.6-0.2c-0.2,0-0.4,0.1-0.6,0.2c-0.1,0.2-0.2,0.4-0.2,0.6v2.9H7.5
			c-0.3,0-0.5,0.1-0.6,0.2S6.7-70.4,6.7-70.2z"/>
	</g>
	<g transform="matrix(1 0 0 1 305.646 1933)">
		<path d="M14.5-57.4c1.4,0,2.7-0.2,4-0.6s2.4-1,3.5-1.8s2-1.7,2.8-2.8c0.7-1.1,1.3-2.3,1.7-3.6c0.4-1.3,0.6-2.6,0.6-4
			s-0.2-2.7-0.6-4s-1-2.4-1.8-3.5s-1.7-2-2.8-2.8c-1.1-0.8-2.2-1.4-3.5-1.8s-2.6-0.6-4-0.6s-2.7,0.2-4,0.6s-2.4,1-3.5,1.8
			c-1.1,0.8-2,1.7-2.8,2.8s-1.4,2.2-1.8,3.5c-0.4,1.3-0.6,2.6-0.6,4s0.2,2.7,0.6,4c0.4,1.3,1,2.4,1.8,3.5c0.8,1.1,1.7,2,2.8,2.8
			c1.2,0.8,2.3,1.4,3.6,1.8C11.7-57.7,13.1-57.4,14.5-57.4z M14.5-59.3c-1.2,0-2.4-0.2-3.4-0.6c-1.1-0.4-2.1-0.9-3-1.5
			c-1-0.6-1.8-1.4-2.4-2.3c-0.7-0.9-1.2-1.9-1.6-3c-0.3-1.1-0.5-2.2-0.5-3.5c0-1.2,0.2-2.4,0.5-3.5c0.4-1.1,0.9-2.1,1.5-3
			C6.3-77.6,7-78.4,8-79.1c0.9-0.7,1.9-1.2,3-1.5c1.1-0.4,2.2-0.5,3.4-0.5s2.4,0.2,3.5,0.5c1.1,0.4,2.1,0.9,3,1.5
			c0.9,0.7,1.7,1.5,2.4,2.4c0.7,0.9,1.2,1.9,1.5,3c0.4,1.1,0.6,2.2,0.6,3.5c0,1.2-0.2,2.4-0.5,3.4c-0.4,1.1-0.9,2.1-1.5,3
			c-0.7,0.9-1.5,1.7-2.4,2.4c-0.9,0.7-1.9,1.2-3,1.5C16.8-59.4,15.7-59.3,14.5-59.3z M8.7-70.2c0,0.3,0.1,0.5,0.3,0.6
			c0.2,0.2,0.4,0.2,0.7,0.2h3.9v4c0,0.3,0.1,0.5,0.2,0.7c0.2,0.2,0.4,0.3,0.6,0.3c0.3,0,0.5-0.1,0.7-0.3s0.3-0.4,0.3-0.7v-4h4
			c0.3,0,0.5-0.1,0.7-0.2c0.2-0.2,0.3-0.4,0.3-0.6c0-0.3-0.1-0.5-0.3-0.7c-0.3-0.1-0.5-0.2-0.8-0.2h-4V-75c0-0.3-0.1-0.5-0.3-0.7
			c-0.2-0.2-0.4-0.3-0.7-0.3s-0.5,0.1-0.6,0.3c-0.2,0.2-0.2,0.4-0.2,0.7v3.9H9.6c-0.3,0-0.5,0.1-0.6,0.3C8.8-70.6,8.7-70.4,8.7-70.2
			z"/>
	</g>
	<text transform="matrix(1 0 0 1 262.5 1889.9336)" class="st2 st3">Design Variations</text>
	<text transform="matrix(1 0 0 1 262.5 1907.9336)" class="st4 st3">Symbols are supported in up to nine weights and three scales.</text>
	<text transform="matrix(1 0 0 1 262.5 1925.9336)" class="st4 st3">For optimal layout with text and other symbols, vertically align</text>
	<text transform="matrix(1 0 0 1 262.5 1943.9336)" class="st4 st3">symbols with the adjacent text.</text>
	<line class="st5" x1="775.5" y1="1855.9" x2="775.5" y2="1869.9"/>
	<g transform="matrix(1 0 0 1 776 1933)">
		<path d="M2.8-62.9c0.3,0,0.5-0.1,0.6-0.2c0.1-0.1,0.3-0.3,0.4-0.6L5-67.1h5.8l1.3,3.4c0.1,0.3,0.2,0.5,0.4,0.6
			c0.1,0.1,0.3,0.2,0.6,0.2s0.5-0.1,0.6-0.2c0.2-0.1,0.2-0.3,0.2-0.6c0-0.1,0-0.3-0.1-0.5L9.2-76.5c-0.1-0.3-0.3-0.5-0.5-0.7
			c-0.2-0.1-0.5-0.2-0.8-0.2c-0.6,0-1,0.3-1.2,0.9L2.1-64.3C2-64.1,2-63.9,2-63.7s0.1,0.4,0.2,0.6C2.3-62.9,2.6-62.9,2.8-62.9z
			 M5.5-68.6l2.4-6.6l0,0l2.4,6.6C10.3-68.6,5.5-68.6,5.5-68.6z"/>
	</g>
	<line class="st5" x1="792.7" y1="1855.9" x2="792.7" y2="1869.9"/>
	<text transform="matrix(1 0 0 1 775.5 1889.9336)" class="st2 st3">Margins</text>
	<text transform="matrix(1 0 0 1 775.5 1907.9336)" class="st4 st3">Leading and trailing margins on the left and right side of each symbol</text>
	<text transform="matrix(1 0 0 1 775.5 1925.9336)" class="st4 st3">can be adjusted by modifying the x-location of the margin guidelines.</text>
	<text transform="matrix(1 0 0 1 775.5 1943.9336)" class="st4 st3">Modifications are automatically applied proportionally to all</text>
	<text transform="matrix(1 0 0 1 775.5 1961.9336)" class="st4 st3">scales and weights.</text>
	<g transform="matrix(1 0 0 1 1289 1933)">
		<path d="M2.3-61.2L4-59.5c0.5,0.4,0.9,0.6,1.4,0.6s0.9-0.3,1.4-0.8l10.7-11.8l-1-1L5.9-60.8c-0.2,0.2-0.3,0.3-0.5,0.3
			S5-60.6,4.8-60.8L3.6-62c-0.2-0.2-0.3-0.4-0.3-0.6c0-0.2,0.1-0.4,0.3-0.5l11.5-10.8l-1-1L2.5-64c-0.4,0.5-0.7,0.9-0.7,1.4
			C1.7-62.1,1.9-61.7,2.3-61.2z M8.8-79.4c-0.2,0.2-0.3,0.4-0.4,0.7c0,0.3,0,0.5,0.1,0.7c0.1,0.2,0.3,0.3,0.5,0.4
			c0.2,0.1,0.5,0.1,0.8,0c0.7-0.2,1.5-0.2,2.2-0.2s1.5,0.3,2.2,0.7l-0.6,1.5c-0.2,0.4-0.2,0.8-0.1,1.1c0.1,0.3,0.2,0.6,0.5,0.9
			l2.3,2.3c0.2,0.2,0.5,0.4,0.7,0.4s0.5,0,0.8,0l1.1-0.2l0.7,0.7v0.6c0,0.2,0,0.5,0.1,0.7c0.1,0.2,0.2,0.4,0.5,0.7l0.8,0.7
			c0.2,0.2,0.5,0.4,0.8,0.4s0.5-0.1,0.8-0.3l2.9-2.9c0.2-0.2,0.3-0.5,0.3-0.8c0-0.3-0.1-0.5-0.4-0.8L24.5-73
			c-0.2-0.2-0.5-0.4-0.7-0.5c-0.2-0.1-0.4-0.1-0.7-0.1h-0.6l-0.6-0.6l0.2-1.1c0.1-0.3,0.1-0.5,0-0.8c-0.1-0.3-0.3-0.5-0.6-0.8
			l-2.1-2.2c-0.8-0.8-1.7-1.4-2.7-1.9c-0.9-0.4-1.9-0.6-2.8-0.6c-1,0-1.9,0.2-2.8,0.5C10.3-80.7,9.5-80.2,8.8-79.4z M10.3-79.1
			c0.6-0.4,1.3-0.8,1.9-0.9c0.7-0.2,1.4-0.2,2.1-0.2c0.7,0.1,1.4,0.3,2.1,0.6c0.7,0.3,1.3,0.7,1.8,1.3l2.4,2.4
			c0.1,0.1,0.2,0.2,0.2,0.3c0,0.1,0,0.3,0,0.4l-0.3,1.6l1.5,1.5l1-0.1c0.1,0,0.2,0,0.3,0c0.1,0,0.1,0.1,0.2,0.2l0.6,0.6L21.7-69
			l-0.6-0.6c-0.1-0.1-0.2-0.2-0.2-0.2c0-0.1,0-0.2,0-0.3l0.1-1l-1.5-1.5L18-72.3c-0.2,0-0.3,0-0.4,0s-0.2-0.1-0.3-0.2l-2-2
			c-0.1-0.1-0.2-0.2-0.2-0.3s0-0.3,0.1-0.4l0.9-2.1c-0.8-0.7-1.7-1.2-2.6-1.5c-1-0.3-2-0.3-3,0c-0.1,0-0.1,0-0.2,0
			C10.2-79,10.2-79,10.3-79.1z"/>
	</g>
	<text transform="matrix(1 0 0 1 1288.5 1889.9336)" class="st2 st3">Exporting</text>
	<text transform="matrix(1 0 0 1 1288.5 1907.9336)" class="st4 st3">Symbols should be outlined when exporting to ensure the</text>
	<text transform="matrix(1 0 0 1 1288.5 1925.9336)" class="st4 st3">design is preserved when submitting to Xcode.</text>
	<text id="template-version" transform="matrix(1 0 0 1 2951.9141 1869.9336)" class="st4 st3">Template v.3.0</text>
	<text transform="matrix(1 0 0 1 2864.9575 1887.9336)" class="st4 st3">Requires Xcode 13 or greater</text>
	<text id="descriptive-name" transform="matrix(1 0 0 1 2850.5293 1905.9336)" class="st4 st3">Generated from hourglass.circle</text>
	<text transform="matrix(1 0 0 1 2911.9111 1923.9336)" class="st4 st3">Typeset at 100 points</text>
	<text transform="matrix(1 0 0 1 262.5 662.9335)" class="st4 st3">Small</text>
	<text transform="matrix(1 0 0 1 262.5 1092.9336)" class="st4 st3">Medium</text>
	<text transform="matrix(1 0 0 1 262.5 1522.9336)" class="st4 st3">Large</text>
</g>
<g id="Guides">
	<g id="H-reference" transform="matrix(1 0 0 1 339 696)">
		<path class="st6" d="M1,0h2.6l25.7-67.1H30v-3.3h-1.9L1,0z M11.7-24.5H47l-0.8-2.2H12.4L11.7-24.5z M55.1,0h2.6L30.6-70.5h-1.2
			v3.3L55.1,0z"/>
	</g>
	<line id="Baseline-S" class="st7" x1="263" y1="696" x2="3036" y2="696"/>
	<line id="Capline-S" class="st7" x1="263" y1="625.5" x2="3036" y2="625.5"/>
	<g id="H-reference_00000174582976744177833630000007730325773184391314_" transform="matrix(1 0 0 1 339 1126)">
		<path class="st6" d="M1,0h2.6l25.7-67.1H30v-3.3h-1.9L1,0z M11.7-24.5H47l-0.8-2.2H12.4L11.7-24.5z M55.1,0h2.6L30.6-70.5h-1.2
			v3.3L55.1,0z"/>
	</g>
	<line id="Baseline-M" class="st7" x1="263" y1="1126" x2="3036" y2="1126"/>
	<line id="Capline-M" class="st7" x1="263" y1="1055.5" x2="3036" y2="1055.5"/>
	<g id="H-reference_00000113329496982249443560000009416180920334905247_" transform="matrix(1 0 0 1 339 1556)">
		<path class="st6" d="M1,0h2.6l25.7-67.1H30v-3.3h-1.9L1,0z M11.7-24.5H47l-0.8-2.2H12.4L11.7-24.5z M55.1,0h2.6L30.6-70.5h-1.2
			v3.3L55.1,0z"/>
	</g>
	<line id="Baseline-L" class="st7" x1="263" y1="1556" x2="3036" y2="1556"/>
	<line id="Capline-L" class="st7" x1="263" y1="1485.5" x2="3036" y2="1485.5"/>
	<line id="left-margin-Regular-M" class="st5" x1="1391.3" y1="1030.8" x2="1391.3" y2="1150.1"/>
	<line id="right-margin-Regular-M" class="st5" x1="1508.4" y1="1030.8" x2="1508.4" y2="1150.1"/>
</g>
<g id="Symbols">
	<g id="Regular-M" transform="matrix(1 0 0 1 1391.32 1126)">
		<g>
    <g id="Regular-M" transform="translate(11.246, 10.7)scale(0.0469, -0.0469)">
      <path d="M704,1920C595,1841,584,1823,434,1440C173,777,117,575,167,479C182,450,200,403,207,374C215,342,246,308,285,288C321,269,391,221,440,180C682,-20,875,-44,1038,107C1145,207,1573,787,1600,870C1614,912,1655,972,1692,1004C1902,1189,1925,1576,1737,1752C1522,1952,890,2055,704,1920zM1260,1881C1332,1859,1415,1840,1446,1840C1572,1840,1755,1699,1730,1621C1715,1572,1565,1566,1575,1615C1582,1651,1481,1713,1462,1683C1440,1648,1360,1732,1360,1791C1360,1821,1349,1840,1330,1840C1314,1840,1300,1831,1300,1820C1300,1789,1237,1797,1197,1833C1151,1875,988,1888,1023,1847C1039,1827,1052,1825,1072,1841C1102,1867,1140,1850,1140,1811C1140,1797,1154,1773,1171,1759C1191,1742,1195,1727,1182,1714C1168,1700,1152,1702,1133,1717C1111,1736,1102,1735,1093,1711C1076,1667,1014,1696,1026,1742C1033,1766,1022,1783,996,1791C972,1799,961,1815,968,1833C975,1850,971,1857,959,1849C929,1831,836,1857,850,1881C877,1923,823,1897,794,1853C760,1802,762,1797,860,1679C991,1523,1463,1220,1576,1220C1626,1220,1713,1289,1764,1368C1804,1431,1808,1410,1778,1303C1751,1211,1600,1112,1514,1131C1326,1172,710,1617,765,1672C773,1679,765,1704,749,1727C733,1750,720,1787,719,1809C719,1848,718,1848,698,1814C671,1768,702,1686,793,1567C829,1520,846,1486,832,1492C818,1497,776,1542,739,1591C654,1705,657,1706,584,1539L522,1398L559,1332C579,1295,607,1248,620,1228C641,1193,425,696,345,595C334,581,313,537,299,496C243,337,176,524,227,697C368,1171,641,1834,706,1859C731,1868,765,1891,780,1911C818,1956,1071,1941,1260,1881zM1450,1573C1580,1512,1629,1457,1612,1391C1592,1311,1523,1308,1382,1379C1124,1509,1189,1695,1450,1573zM799,1405C730,1282,632,1360,694,1490L728,1561L779,1510C827,1462,828,1456,799,1405zM940,1369C940,1360,865,1219,825,1152C818,1141,806,1154,796,1179C780,1224,802,1278,868,1354C890,1379,940,1389,940,1369zM773,1090C896,977,1231,818,1354,814C1476,809,1481,827,1265,521C896,-1,787,-34,424,268L306,366L445,658C522,819,605,997,631,1055C687,1180,677,1177,773,1090zM1450,1092C1494,1060,1465,960,1412,960C1396,960,1380,953,1375,945C1370,937,1371,944,1377,960C1383,977,1388,1019,1388,1055C1389,1128,1396,1132,1450,1092zM1560,968C1560,914,1493,827,1454,830C1404,834,1404,837,1453,920C1483,971,1560,1005,1560,968z"/>
      <path d="M332,906C303,831,281,760,281,750C282,739,309,797,341,879C373,960,396,1031,392,1035C388,1039,361,981,332,906z"/>
      <path d="M665,1075C607,1003,622,920,680,990C694,1007,717,1020,732,1020C766,1020,768,1044,736,1076C706,1106,690,1106,665,1075z"/>
      <path d="M749,807C684,748,592,680,545,655C437,598,438,574,550,509C674,436,670,391,536,332C370,259,577,199,828,248L907,263L870,207C830,145,855,158,942,243C960,261,1027,313,1090,360L1206,446L1160,480C1129,503,1122,519,1138,528C1170,549,1240,691,1240,738C1240,769,1215,784,1125,811C1062,829,978,859,939,878L868,913L749,807zM1120,788C1223,771,1185,571,1070,527C978,492,985,555,1082,627C1225,734,1190,740,1032,636C871,530,871,533,1029,488C1168,448,1173,426,1054,379C1019,365,977,342,960,329C918,295,740,260,609,260C494,260,464,287,554,309C605,322,759,420,759,440C760,446,696,480,617,517L474,585L584,644C645,676,733,742,780,790L865,876L954,838C1003,817,1078,794,1120,788z"/>
    </g>
		</g>
	</g>
</g>
</svg>
