<?xml version='1.0' encoding='utf-8'?>
<svg xmlns="http://www.w3.org/2000/svg" version="1.1" id="图层_1" x="0px" y="0px" viewBox="0 0 3300 2200" style="enable-background:new 0 0 3300 2200;" xml:space="preserve">
<style type="text/css">
	.st0{fill:#FFFFFF;}
	.st1{fill:none;stroke:#000000;stroke-width:0.5;}
	.st2{font-family:'Helvetica-Bold';}
	.st3{font-size:13px;}
	.st4{font-family:'Helvetica';}
	.st5{fill:none;stroke:#00AEEF;stroke-width:0.5;}
	.st6{fill:#27AAE1;}
	.st7{fill:none;stroke:#27AAE1;stroke-width:0.5;}
</style>
<g id="Notes">
	<rect id="artboard" x="-0.5" y="-63.1" class="st0" width="3300" height="2200" />
	<line class="st1" x1="262.5" y1="228.9" x2="3035.5" y2="228.9" />
	<text transform="matrix(1 0 0 1 262.5 258.9335)" class="st2 st3">Weight/Scale Variations</text>
	<text transform="matrix(1 0 0 1 533.5633 258.9335)" class="st4 st3">Ultralight</text>
	<text transform="matrix(1 0 0 1 843.2775 258.9335)" class="st4 st3">Thin</text>
	<text transform="matrix(1 0 0 1 1138.535 258.9335)" class="st4 st3">Light</text>
	<text transform="matrix(1 0 0 1 1426.5773 258.9335)" class="st4 st3">Regular</text>
	<text transform="matrix(1 0 0 1 1722.9419 258.9335)" class="st4 st3">Medium</text>
	<text transform="matrix(1 0 0 1 2015.6719 258.9335)" class="st4 st3">Semibold</text>
	<text transform="matrix(1 0 0 1 2326.4705 258.9335)" class="st4 st3">Bold</text>
	<text transform="matrix(1 0 0 1 2617.7659 258.9335)" class="st4 st3">Heavy</text>
	<text transform="matrix(1 0 0 1 2917.0054 258.9335)" class="st4 st3">Black</text>
	<line class="st1" x1="262.5" y1="1839.9" x2="3035.5" y2="1839.9" />
	<g transform="matrix(1 0 0 1 263 1933)">
		<path d="M8.7-62.3c1.1,0,2.1-0.2,3-0.6c1-0.4,1.8-1,2.5-1.7c0.7-0.7,1.3-1.6,1.7-2.5c0.4-1,0.6-2,0.6-3s-0.2-2.1-0.6-3    c-0.4-1-1-1.8-1.7-2.5c-0.7-0.7-1.6-1.3-2.5-1.7c-1-0.4-2-0.6-3-0.6c-1.1,0-2.1,0.2-3,0.6s-1.8,1-2.5,1.7    c-0.7,0.6-1.3,1.5-1.7,2.4c-0.4,1-0.6,2-0.6,3s0.2,2.1,0.6,3.1s1,1.8,1.7,2.5c0.7,0.7,1.6,1.3,2.5,1.7C6.7-62.5,7.7-62.3,8.7-62.3    z M8.7-63.8c-0.9,0-1.7-0.2-2.5-0.5c-0.7-0.3-1.4-0.7-2-1.3s-1-1.3-1.4-2c-0.3-0.8-0.4-1.7-0.4-2.6s0.2-1.7,0.5-2.5s0.8-1.5,1.4-2    c0.6-0.6,1.3-1,2-1.4c0.8-0.3,1.6-0.5,2.5-0.5s1.7,0.2,2.5,0.5c0.8,0.3,1.5,0.8,2,1.4c0.6,0.6,1,1.3,1.4,2    c0.3,0.8,0.5,1.6,0.5,2.5s-0.2,1.7-0.5,2.5s-0.8,1.5-1.4,2c-0.6,0.6-1.3,1-2,1.4C10.5-63.9,9.6-63.8,8.7-63.8z M5.2-70.2    c0,0.2,0.1,0.4,0.2,0.5c0.1,0.2,0.3,0.3,0.5,0.3H8v2.1c0,0.2,0.1,0.4,0.2,0.5c0.1,0.2,0.3,0.2,0.5,0.2s0.4-0.1,0.5-0.2    c0.2-0.1,0.3-0.3,0.3-0.5v-2.1h2.1c0.2,0,0.4-0.1,0.5-0.2c0.1-0.1,0.2-0.3,0.2-0.5c0-0.2-0.1-0.4-0.2-0.5    c-0.1-0.1-0.3-0.2-0.5-0.2H9.5v-2.1c0-0.2-0.1-0.4-0.2-0.5c-0.1-0.1-0.3-0.2-0.5-0.2s-0.4,0.1-0.5,0.2s-0.2,0.3-0.2,0.5v2.1H5.9    c-0.2-0.1-0.4,0-0.5,0.1C5.2-70.6,5.2-70.4,5.2-70.2z" />
	</g>
	<g transform="matrix(1 0 0 1 281.867 1933)">
		<path d="M11.2-60.2c1.4,0,2.6-0.3,3.8-0.8s2.3-1.2,3.2-2.2c0.9-0.9,1.6-2,2.2-3.2c0.5-1.2,0.8-2.5,0.8-3.8c0-1.4-0.3-2.6-0.8-3.8    c-0.5-1.2-1.2-2.3-2.2-3.2c-0.9-0.9-2-1.6-3.2-2.2c-1.2-0.5-2.5-0.8-3.8-0.8s-2.6,0.3-3.8,0.8s-2.3,1.2-3.2,2.2    c-0.9,0.9-1.6,2-2.2,3.2c-0.5,1.2-0.8,2.5-0.8,3.8c0,1.4,0.3,2.6,0.8,3.8c0.5,1.2,1.3,2.4,2.2,3.3c0.9,0.9,2,1.6,3.2,2.2    C8.6-60.3,9.8-60.2,11.2-60.2z M11.2-61.9C10-61.9,9-62.1,8-62.5s-1.9-1-2.6-1.8C4.6-65,4-65.9,3.6-66.9S2.9-69,2.9-70.2    s0.2-2.2,0.6-3.2s1-1.9,1.8-2.6c0.8-0.8,1.6-1.4,2.6-1.8s2.1-0.6,3.2-0.6s2.2,0.2,3.2,0.6s1.9,1,2.6,1.8c0.8,0.8,1.4,1.6,1.8,2.6    s0.6,2.1,0.6,3.2c0,1.2-0.2,2.2-0.6,3.2s-1,1.9-1.8,2.6c-0.8,0.8-1.6,1.4-2.6,1.8C13.3-62.2,12.4-61.9,11.2-61.9z M6.7-70.2    c0,0.2,0.1,0.4,0.2,0.6c0.2,0.2,0.4,0.3,0.6,0.3h2.9v2.9c0,0.2,0.1,0.4,0.2,0.6c0.1,0.2,0.3,0.2,0.6,0.2c0.2,0,0.4-0.1,0.6-0.2    C12-66,12-66.2,12-66.4v-2.9h2.9c0.2,0,0.4-0.1,0.6-0.2c0.2-0.1,0.2-0.3,0.2-0.6c0-0.2-0.1-0.4-0.2-0.6c-0.2-0.2-0.4-0.2-0.6-0.2    H12v-2.9c0-0.3-0.1-0.5-0.2-0.6s-0.4-0.2-0.6-0.2c-0.2,0-0.4,0.1-0.6,0.2c-0.1,0.2-0.2,0.4-0.2,0.6v2.9H7.5    c-0.3,0-0.5,0.1-0.6,0.2S6.7-70.4,6.7-70.2z" />
	</g>
	<g transform="matrix(1 0 0 1 305.646 1933)">
		<path d="M14.5-57.4c1.4,0,2.7-0.2,4-0.6s2.4-1,3.5-1.8s2-1.7,2.8-2.8c0.7-1.1,1.3-2.3,1.7-3.6c0.4-1.3,0.6-2.6,0.6-4    s-0.2-2.7-0.6-4s-1-2.4-1.8-3.5s-1.7-2-2.8-2.8c-1.1-0.8-2.2-1.4-3.5-1.8s-2.6-0.6-4-0.6s-2.7,0.2-4,0.6s-2.4,1-3.5,1.8    c-1.1,0.8-2,1.7-2.8,2.8s-1.4,2.2-1.8,3.5c-0.4,1.3-0.6,2.6-0.6,4s0.2,2.7,0.6,4c0.4,1.3,1,2.4,1.8,3.5c0.8,1.1,1.7,2,2.8,2.8    c1.2,0.8,2.3,1.4,3.6,1.8C11.7-57.7,13.1-57.4,14.5-57.4z M14.5-59.3c-1.2,0-2.4-0.2-3.4-0.6c-1.1-0.4-2.1-0.9-3-1.5    c-1-0.6-1.8-1.4-2.4-2.3c-0.7-0.9-1.2-1.9-1.6-3c-0.3-1.1-0.5-2.2-0.5-3.5c0-1.2,0.2-2.4,0.5-3.5c0.4-1.1,0.9-2.1,1.5-3    C6.3-77.6,7-78.4,8-79.1c0.9-0.7,1.9-1.2,3-1.5c1.1-0.4,2.2-0.5,3.4-0.5s2.4,0.2,3.5,0.5c1.1,0.4,2.1,0.9,3,1.5    c0.9,0.7,1.7,1.5,2.4,2.4c0.7,0.9,1.2,1.9,1.5,3c0.4,1.1,0.6,2.2,0.6,3.5c0,1.2-0.2,2.4-0.5,3.4c-0.4,1.1-0.9,2.1-1.5,3    c-0.7,0.9-1.5,1.7-2.4,2.4c-0.9,0.7-1.9,1.2-3,1.5C16.8-59.4,15.7-59.3,14.5-59.3z M8.7-70.2c0,0.3,0.1,0.5,0.3,0.6    c0.2,0.2,0.4,0.2,0.7,0.2h3.9v4c0,0.3,0.1,0.5,0.2,0.7c0.2,0.2,0.4,0.3,0.6,0.3c0.3,0,0.5-0.1,0.7-0.3s0.3-0.4,0.3-0.7v-4h4    c0.3,0,0.5-0.1,0.7-0.2c0.2-0.2,0.3-0.4,0.3-0.6c0-0.3-0.1-0.5-0.3-0.7c-0.3-0.1-0.5-0.2-0.8-0.2h-4V-75c0-0.3-0.1-0.5-0.3-0.7    c-0.2-0.2-0.4-0.3-0.7-0.3s-0.5,0.1-0.6,0.3c-0.2,0.2-0.2,0.4-0.2,0.7v3.9H9.6c-0.3,0-0.5,0.1-0.6,0.3C8.8-70.6,8.7-70.4,8.7-70.2    z" />
	</g>
	<text transform="matrix(1 0 0 1 262.5 1889.9336)" class="st2 st3">Design Variations</text>
	<text transform="matrix(1 0 0 1 262.5 1907.9336)" class="st4 st3">Symbols are supported in up to nine weights and three scales.</text>
	<text transform="matrix(1 0 0 1 262.5 1925.9336)" class="st4 st3">For optimal layout with text and other symbols, vertically align</text>
	<text transform="matrix(1 0 0 1 262.5 1943.9336)" class="st4 st3">symbols with the adjacent text.</text>
	<line class="st5" x1="775.5" y1="1855.9" x2="775.5" y2="1869.9" />
	<g transform="matrix(1 0 0 1 776 1933)">
		<path d="M2.8-62.9c0.3,0,0.5-0.1,0.6-0.2c0.1-0.1,0.3-0.3,0.4-0.6L5-67.1h5.8l1.3,3.4c0.1,0.3,0.2,0.5,0.4,0.6    c0.1,0.1,0.3,0.2,0.6,0.2s0.5-0.1,0.6-0.2c0.2-0.1,0.2-0.3,0.2-0.6c0-0.1,0-0.3-0.1-0.5L9.2-76.5c-0.1-0.3-0.3-0.5-0.5-0.7    c-0.2-0.1-0.5-0.2-0.8-0.2c-0.6,0-1,0.3-1.2,0.9L2.1-64.3C2-64.1,2-63.9,2-63.7s0.1,0.4,0.2,0.6C2.3-62.9,2.6-62.9,2.8-62.9z     M5.5-68.6l2.4-6.6l0,0l2.4,6.6C10.3-68.6,5.5-68.6,5.5-68.6z" />
	</g>
	<line class="st5" x1="792.7" y1="1855.9" x2="792.7" y2="1869.9" />
	<text transform="matrix(1 0 0 1 775.5 1889.9336)" class="st2 st3">Margins</text>
	<text transform="matrix(1 0 0 1 775.5 1907.9336)" class="st4 st3">Leading and trailing margins on the left and right side of each symbol</text>
	<text transform="matrix(1 0 0 1 775.5 1925.9336)" class="st4 st3">can be adjusted by modifying the x-location of the margin guidelines.</text>
	<text transform="matrix(1 0 0 1 775.5 1943.9336)" class="st4 st3">Modifications are automatically applied proportionally to all</text>
	<text transform="matrix(1 0 0 1 775.5 1961.9336)" class="st4 st3">scales and weights.</text>
	<g transform="matrix(1 0 0 1 1289 1933)">
		<path d="M2.3-61.2L4-59.5c0.5,0.4,0.9,0.6,1.4,0.6s0.9-0.3,1.4-0.8l10.7-11.8l-1-1L5.9-60.8c-0.2,0.2-0.3,0.3-0.5,0.3    S5-60.6,4.8-60.8L3.6-62c-0.2-0.2-0.3-0.4-0.3-0.6c0-0.2,0.1-0.4,0.3-0.5l11.5-10.8l-1-1L2.5-64c-0.4,0.5-0.7,0.9-0.7,1.4    C1.7-62.1,1.9-61.7,2.3-61.2z M8.8-79.4c-0.2,0.2-0.3,0.4-0.4,0.7c0,0.3,0,0.5,0.1,0.7c0.1,0.2,0.3,0.3,0.5,0.4    c0.2,0.1,0.5,0.1,0.8,0c0.7-0.2,1.5-0.2,2.2-0.2s1.5,0.3,2.2,0.7l-0.6,1.5c-0.2,0.4-0.2,0.8-0.1,1.1c0.1,0.3,0.2,0.6,0.5,0.9    l2.3,2.3c0.2,0.2,0.5,0.4,0.7,0.4s0.5,0,0.8,0l1.1-0.2l0.7,0.7v0.6c0,0.2,0,0.5,0.1,0.7c0.1,0.2,0.2,0.4,0.5,0.7l0.8,0.7    c0.2,0.2,0.5,0.4,0.8,0.4s0.5-0.1,0.8-0.3l2.9-2.9c0.2-0.2,0.3-0.5,0.3-0.8c0-0.3-0.1-0.5-0.4-0.8L24.5-73    c-0.2-0.2-0.5-0.4-0.7-0.5c-0.2-0.1-0.4-0.1-0.7-0.1h-0.6l-0.6-0.6l0.2-1.1c0.1-0.3,0.1-0.5,0-0.8c-0.1-0.3-0.3-0.5-0.6-0.8    l-2.1-2.2c-0.8-0.8-1.7-1.4-2.7-1.9c-0.9-0.4-1.9-0.6-2.8-0.6c-1,0-1.9,0.2-2.8,0.5C10.3-80.7,9.5-80.2,8.8-79.4z M10.3-79.1    c0.6-0.4,1.3-0.8,1.9-0.9c0.7-0.2,1.4-0.2,2.1-0.2c0.7,0.1,1.4,0.3,2.1,0.6c0.7,0.3,1.3,0.7,1.8,1.3l2.4,2.4    c0.1,0.1,0.2,0.2,0.2,0.3c0,0.1,0,0.3,0,0.4l-0.3,1.6l1.5,1.5l1-0.1c0.1,0,0.2,0,0.3,0c0.1,0,0.1,0.1,0.2,0.2l0.6,0.6L21.7-69    l-0.6-0.6c-0.1-0.1-0.2-0.2-0.2-0.2c0-0.1,0-0.2,0-0.3l0.1-1l-1.5-1.5L18-72.3c-0.2,0-0.3,0-0.4,0s-0.2-0.1-0.3-0.2l-2-2    c-0.1-0.1-0.2-0.2-0.2-0.3s0-0.3,0.1-0.4l0.9-2.1c-0.8-0.7-1.7-1.2-2.6-1.5c-1-0.3-2-0.3-3,0c-0.1,0-0.1,0-0.2,0    C10.2-79,10.2-79,10.3-79.1z" />
	</g>
	<text transform="matrix(1 0 0 1 1288.5 1889.9336)" class="st2 st3">Exporting</text>
	<text transform="matrix(1 0 0 1 1288.5 1907.9336)" class="st4 st3">Symbols should be outlined when exporting to ensure the</text>
	<text transform="matrix(1 0 0 1 1288.5 1925.9336)" class="st4 st3">design is preserved when submitting to Xcode.</text>
	<text id="template-version" transform="matrix(1 0 0 1 2951.9141 1869.9336)" class="st4 st3">Template v.3.0</text>
	<text transform="matrix(1 0 0 1 2864.9575 1887.9336)" class="st4 st3">Requires Xcode 13 or greater</text>
	<text id="descriptive-name" transform="matrix(1 0 0 1 2850.5293 1905.9336)" class="st4 st3">Generated from hourglass.circle</text>
	<text transform="matrix(1 0 0 1 2911.9111 1923.9336)" class="st4 st3">Typeset at 100 points</text>
	<text transform="matrix(1 0 0 1 262.5 662.9335)" class="st4 st3">Small</text>
	<text transform="matrix(1 0 0 1 262.5 1092.9336)" class="st4 st3">Medium</text>
	<text transform="matrix(1 0 0 1 262.5 1522.9336)" class="st4 st3">Large</text>
</g>
<g id="Guides">
	<g id="H-reference" transform="matrix(1 0 0 1 339 696)">
		<path class="st6" d="M1,0h2.6l25.7-67.1H30v-3.3h-1.9L1,0z M11.7-24.5H47l-0.8-2.2H12.4L11.7-24.5z M55.1,0h2.6L30.6-70.5h-1.2    v3.3L55.1,0z" />
	</g>
	<line id="Baseline-S" class="st7" x1="263" y1="696" x2="3036" y2="696" />
	<line id="Capline-S" class="st7" x1="263" y1="625.5" x2="3036" y2="625.5" />
	<g id="H-reference_00000174582976744177833630000007730325773184391314_" transform="matrix(1 0 0 1 339 1126)">
		<path class="st6" d="M1,0h2.6l25.7-67.1H30v-3.3h-1.9L1,0z M11.7-24.5H47l-0.8-2.2H12.4L11.7-24.5z M55.1,0h2.6L30.6-70.5h-1.2    v3.3L55.1,0z" />
	</g>
	<line id="Baseline-M" class="st7" x1="263" y1="1126" x2="3036" y2="1126" />
	<line id="Capline-M" class="st7" x1="263" y1="1055.5" x2="3036" y2="1055.5" />
	<g id="H-reference_00000113329496982249443560000009416180920334905247_" transform="matrix(1 0 0 1 339 1556)">
		<path class="st6" d="M1,0h2.6l25.7-67.1H30v-3.3h-1.9L1,0z M11.7-24.5H47l-0.8-2.2H12.4L11.7-24.5z M55.1,0h2.6L30.6-70.5h-1.2    v3.3L55.1,0z" />
	</g>
	<line id="Baseline-L" class="st7" x1="263" y1="1556" x2="3036" y2="1556" />
	<line id="Capline-L" class="st7" x1="263" y1="1485.5" x2="3036" y2="1485.5" />
	<line id="left-margin-Regular-M" class="st5" x1="1391.3" y1="1030.8" x2="1391.3" y2="1150.1" />
	<line id="right-margin-Regular-M" class="st5" x1="1508.4" y1="1030.8" x2="1508.4" y2="1150.1" />
</g>
<g id="Symbols">
	<g id="Regular-M" transform="matrix(1 0 0 1 1391.32 1126)">
		<g>
    <g id="Regular-M">
      <path d="M44.263600000000004 -79.348C39.1515 -75.6429 38.6356 -74.7987 31.6006 -56.836C19.3597 -25.7413 16.7333 -16.2675 19.0783 -11.7651C19.7818 -10.405000000000001 20.625999999999998 -8.200700000000001 20.9543 -6.8405999999999985C21.3295 -5.3398 22.7834 -3.7452000000000005 24.612499999999997 -2.8072C26.3009 -1.9161000000000001 29.5839 0.3351000000000006 31.881999999999998 2.257999999999999C43.2318 11.638 52.2835 12.7636 59.9282 5.681699999999999C64.9465 0.9916999999999998 85.01969999999999 -26.2103 86.28599999999999 -30.102999999999998C86.94259999999998 -32.0728 88.8655 -34.886799999999994 90.60079999999999 -36.38759999999999C100.4498 -45.064099999999996 101.5285 -63.2144 92.7113 -71.46879999999999C82.6278 -80.8488 52.987 -85.67949999999999 44.263600000000004 -79.348ZM70.33999999999999 -77.51889999999999C73.71679999999999 -76.4871 77.6095 -75.59599999999999 79.06339999999999 -75.59599999999999C84.97279999999999 -75.59599999999999 93.5555 -68.9831 92.383 -65.3249C91.67949999999999 -63.026799999999994 84.6445 -62.74539999999999 85.11349999999999 -65.0435C85.44179999999999 -66.7319 80.7049 -69.63969999999999 79.81379999999999 -68.2327C78.782 -66.59119999999999 75.03 -70.5308 75.03 -73.2979C75.03 -74.7049 74.5141 -75.59599999999999 73.62299999999999 -75.59599999999999C72.87259999999999 -75.59599999999999 72.216 -75.17389999999999 72.216 -74.65799999999999C72.216 -73.2041 69.26129999999999 -73.57929999999999 67.3853 -75.26769999999999C65.22789999999999 -77.2375 57.5832 -77.84719999999999 59.2247 -75.92429999999999C59.9751 -74.98629999999999 60.5848 -74.8925 61.5228 -75.6429C62.9298 -76.86229999999999 64.71199999999999 -76.065 64.71199999999999 -74.23589999999999C64.71199999999999 -73.57929999999999 65.3686 -72.4537 66.1659 -71.79709999999999C67.1039 -70.9998 67.2915 -70.29629999999999 66.6818 -69.6866C66.0252 -69.02999999999999 65.2748 -69.12379999999999 64.38369999999999 -69.8273C63.3519 -70.71839999999999 62.9298 -70.6715 62.5077 -69.54589999999999C61.7104 -67.4823 58.8026 -68.8424 59.3654 -70.9998C59.6937 -72.1254 59.1778 -72.92269999999999 57.9584 -73.2979C56.8328 -73.67309999999999 56.3169 -74.42349999999999 56.6452 -75.26769999999999C56.9735 -76.065 56.7859 -76.3933 56.2231 -76.01809999999999C54.8161 -75.17389999999999 50.4544 -76.3933 51.111 -77.51889999999999C52.3773 -79.4887 49.8447 -78.26929999999999 48.4846 -76.2057C46.89 -73.81379999999999 46.9838 -73.57929999999999 51.58 -68.04509999999999C57.7239 -60.72869999999999 79.8607 -46.518 85.1604 -46.518C87.5054 -46.518 91.58569999999999 -49.754099999999994 93.9776 -53.459199999999996C95.85359999999999 -56.4139 96.04119999999999 -55.42899999999999 94.63419999999999 -50.41069999999999C93.36789999999999 -46.0959 86.28599999999999 -41.452799999999996 82.25259999999999 -42.34389999999999C73.4354 -44.2668 44.545 -65.1373 47.1245 -67.71679999999999C47.4997 -68.04509999999999 47.1245 -69.21759999999999 46.3741 -70.29629999999999C45.6237 -71.37499999999999 45.014 -73.1103 44.9671 -74.1421C44.9671 -75.9712 44.9202 -75.9712 43.9822 -74.3766C42.7159 -72.21919999999999 44.1698 -68.37339999999999 48.4377 -62.7923C50.1261 -60.587999999999994 50.9234 -58.993399999999994 50.266799999999996 -59.2748C49.6102 -59.509299999999996 47.6404 -61.6198 45.9051 -63.91789999999999C41.9186 -69.2645 42.0593 -69.31139999999999 38.6356 -61.47909999999999L35.7278 -54.86619999999999L37.4631 -51.770799999999994C38.4011 -50.0355 39.7143 -47.831199999999995 40.324 -46.89319999999999C41.3089 -45.2517 31.1785 -21.942399999999996 27.426499999999997 -17.2055C26.9106 -16.5489 25.9257 -14.485299999999999 25.2691 -12.5624C22.642699999999998 -5.1053 19.5004 -13.875599999999999 21.8923 -21.989299999999997C28.505200000000002 -44.219899999999996 41.3089 -75.3146 44.3574 -76.4871C45.5299 -76.9092 47.1245 -77.9879 47.828 -78.9259C49.6102 -81.03639999999999 61.475899999999996 -80.3329 70.33999999999999 -77.51889999999999ZM79.25099999999999 -63.07369999999999C85.34799999999998 -60.21279999999999 87.64609999999999 -57.63329999999999 86.8488 -54.53789999999999C85.9108 -50.7859 82.67469999999999 -50.6452 76.06179999999999 -53.9751C63.9616 -60.07209999999999 67.0101 -68.79549999999999 79.25099999999999 -63.07369999999999ZM48.7191 -55.19449999999999C45.483 -49.425799999999995 40.8868 -53.084 43.7946 -59.181L45.3892 -62.51089999999999L47.7811 -60.119C50.0323 -57.86779999999999 50.0792 -57.5864 48.7191 -55.19449999999999ZM55.332 -53.50609999999999C55.332 -53.084 51.8145 -46.47109999999999 49.9385 -43.3288C49.6102 -42.8129 49.0474 -43.4226 48.5784 -44.5951C47.828 -46.705600000000004 48.8598 -49.23819999999999 51.9552 -52.8026C52.987 -53.9751 55.332 -54.44409999999999 55.332 -53.50609999999999ZM47.4997 -40.42099999999999C53.2684 -35.121300000000005 68.9799 -27.664199999999997 74.7486 -27.4766C80.4704 -27.242099999999997 80.7049 -28.086299999999998 70.5745 -13.7349C53.2684 10.7469 48.1563 12.294599999999999 31.1316 -1.8691999999999993L25.5974 -6.465399999999999L32.1165 -20.1602C35.7278 -27.7111 39.6205 -36.05929999999999 40.8399 -38.7795C43.4663 -44.641999999999996 42.997299999999996 -44.5013 47.4997 -40.42099999999999ZM79.25099999999999 -40.514799999999994C81.31459999999998 -39.013999999999996 79.9545 -34.324 77.46879999999999 -34.324C76.71839999999999 -34.324 75.96799999999999 -33.9957 75.73349999999999 -33.62049999999999C75.499 -33.2453 75.54589999999999 -33.5736 75.8273 -34.324C76.10869999999998 -35.121300000000005 76.3432 -37.0911 76.3432 -38.7795C76.39009999999999 -42.203199999999995 76.71839999999999 -42.3908 79.25099999999999 -40.514799999999994ZM84.41 -34.699200000000005C84.41 -32.1666 81.26769999999999 -28.086299999999998 79.4386 -28.227C77.0936 -28.414599999999997 77.0936 -28.5553 79.39169999999999 -32.44799999999999C80.7987 -34.8399 84.41 -36.4345 84.41 -34.699200000000005Z" />
      <path d="M26.8168 -31.7914C25.456699999999998 -28.2739 24.4249 -24.944 24.4249 -24.474999999999998C24.4718 -23.959099999999996 25.7381 -26.6793 27.2389 -30.5251C28.7397 -34.324 29.818399999999997 -37.65389999999999 29.6308 -37.841499999999996C29.443199999999997 -38.0291 28.176899999999996 -35.308899999999994 26.8168 -31.7914Z" />
      <path d="M42.4345 -39.7175C39.7143 -36.3407 40.4178 -32.44799999999999 43.138 -35.730999999999995C43.7946 -36.5283 44.8733 -37.13799999999999 45.5768 -37.13799999999999C47.1714 -37.13799999999999 47.2652 -38.2636 45.7644 -39.764399999999995C44.3574 -41.17139999999999 43.607 -41.17139999999999 42.4345 -39.7175Z" />
      <path d="M46.3741 -27.148299999999995C43.3256 -24.381199999999996 39.010799999999996 -21.192 36.8065 -20.019499999999997C31.741300000000003 -17.3462 31.788199999999996 -16.220599999999997 37.041 -13.1721C42.8566 -9.7484 42.669 -7.637899999999998 36.3844 -4.870799999999999C28.598999999999997 -1.4471000000000007 38.3073 1.3668999999999993 50.0792 -0.9312000000000005L53.7843 -1.6347000000000005L52.049 0.9916999999999998C50.173 3.8994999999999997 51.3455 3.2897999999999996 55.4258 -0.6966999999999999C56.27 -1.5409000000000006 59.4123 -3.9796999999999993 62.367 -6.184000000000001L67.8074 -10.217399999999998L65.64999999999999 -11.812000000000001C64.1961 -12.890699999999999 63.8678 -13.641099999999998 64.6182 -14.063199999999998C66.119 -15.048099999999998 69.402 -21.7079 69.402 -23.912200000000002C69.402 -25.3661 68.2295 -26.069599999999998 64.0085 -27.3359C61.0538 -28.1801 57.1142 -29.587099999999996 55.2851 -30.478199999999998L51.9552 -32.119699999999995L46.3741 -27.148299999999995ZM63.774 -26.2572C68.6047 -25.4599 66.82249999999999 -16.0799 61.429 -14.016299999999998C57.1142 -12.3748 57.4425 -15.3295 61.9918 -18.7063C68.6985 -23.7246 67.057 -24.005999999999997 59.6468 -19.1284C52.0959 -14.157 52.0959 -14.297699999999999 59.506099999999996 -12.1872C66.0252 -10.3112 66.2597 -9.279399999999999 60.678599999999996 -7.075099999999999C59.0371 -6.418499999999998 57.0673 -5.3398 56.27 -4.7301C54.3002 -3.1355000000000004 45.952 -1.4939999999999998 39.808099999999996 -1.4939999999999998C34.4146 -1.4939999999999998 33.0076 -2.760299999999999 37.2286 -3.7920999999999996C39.6205 -4.4018 46.8431 -8.998000000000001 46.8431 -9.936C46.89 -10.217399999999998 43.8884 -11.812000000000001 40.183299999999996 -13.5473L33.4766 -16.7365L38.6356 -19.5036C41.4965 -21.0044 45.6237 -24.0998 47.828 -26.350999999999996L51.8145 -30.384399999999996L55.9886 -28.6022C58.286699999999996 -27.617299999999997 61.8042 -26.5386 63.774 -26.2572Z" />
    </g>
		</g>
	</g>
</g>
</svg>