<?xml version='1.0' encoding='utf-8'?>
<svg xmlns="http://www.w3.org/2000/svg" version="1.1" id="图层_1" x="0px" y="0px" viewBox="0 0 3300 2200">
  <g id="Guides">
    <g id="H-reference" transform="matrix(1 0 0 1 339 696)">
      <path class="st6" d="M1,0h2.6l25.7-67.1H30v-3.3h-1.9L1,0z M11.7-24.5H47l-0.8-2.2H12.4L11.7-24.5z M55.1,0h2.6L30.6-70.5h-1.2    v3.3L55.1,0z" />
    </g>
    <line id="Baseline-S" class="st7" x1="263" y1="696" x2="3036" y2="696" />
    <line id="Capline-S" class="st7" x1="263" y1="625.5" x2="3036" y2="625.5" />
    <g id="H-reference_00000174582976744177833630000007730325773184391314_" transform="matrix(1 0 0 1 339 1126)">
      <path class="st6" d="M1,0h2.6l25.7-67.1H30v-3.3h-1.9L1,0z M11.7-24.5H47l-0.8-2.2H12.4L11.7-24.5z M55.1,0h2.6L30.6-70.5h-1.2    v3.3L55.1,0z" />
    </g>
    <line id="Baseline-M" class="st7" x1="263" y1="1126" x2="3036" y2="1126" />
    <line id="Capline-M" class="st7" x1="263" y1="1055.5" x2="3036" y2="1055.5" />
    <g id="H-reference_00000113329496982249443560000009416180920334905247_" transform="matrix(1 0 0 1 339 1556)">
      <path class="st6" d="M1,0h2.6l25.7-67.1H30v-3.3h-1.9L1,0z M11.7-24.5H47l-0.8-2.2H12.4L11.7-24.5z M55.1,0h2.6L30.6-70.5h-1.2    v3.3L55.1,0z" />
    </g>
    <line id="Baseline-L" class="st7" x1="263" y1="1556" x2="3036" y2="1556" />
    <line id="Capline-L" class="st7" x1="263" y1="1485.5" x2="3036" y2="1485.5" />
    <line id="left-margin-Regular-M" class="st5" x1="1391.3" y1="1030.8" x2="1391.3" y2="1150.1" />
    <line id="right-margin-Regular-M" class="st5" x1="1508.4" y1="1030.8" x2="1508.4" y2="1150.1" />
  </g>
  <g id="Symbols">
    <g id="Regular-M" transform="matrix(1 0 0 1 1391.32 1126)">
      <g>
        <g id="Regular-M" transform="translate(11.246, 10.7)scale(0.0469, -0.0469)">
          <path d="M704,1920C595,1841,584,1823,434,1440C173,777,117,575,167,479C182,450,200,403,207,374C215,342,246,308,285,288C321,269,391,221,440,180C682,-20,875,-44,1038,107C1145,207,1573,787,1600,870C1614,912,1655,972,1692,1004C1902,1189,1925,1576,1737,1752C1522,1952,890,2055,704,1920zM1260,1881C1332,1859,1415,1840,1446,1840C1572,1840,1755,1699,1730,1621C1715,1572,1565,1566,1575,1615C1582,1651,1481,1713,1462,1683C1440,1648,1360,1732,1360,1791C1360,1821,1349,1840,1330,1840C1314,1840,1300,1831,1300,1820C1300,1789,1237,1797,1197,1833C1151,1875,988,1888,1023,1847C1039,1827,1052,1825,1072,1841C1102,1867,1140,1850,1140,1811C1140,1797,1154,1773,1171,1759C1191,1742,1195,1727,1182,1714C1168,1700,1152,1702,1133,1717C1111,1736,1102,1735,1093,1711C1076,1667,1014,1696,1026,1742C1033,1766,1022,1783,996,1791C972,1799,961,1815,968,1833C975,1850,971,1857,959,1849C929,1831,836,1857,850,1881C877,1923,823,1897,794,1853C760,1802,762,1797,860,1679C991,1523,1463,1220,1576,1220C1626,1220,1713,1289,1764,1368C1804,1431,1808,1410,1778,1303C1751,1211,1600,1112,1514,1131C1326,1172,710,1617,765,1672C773,1679,765,1704,749,1727C733,1750,720,1787,719,1809C719,1848,718,1848,698,1814C671,1768,702,1686,793,1567C829,1520,846,1486,832,1492C818,1497,776,1542,739,1591C654,1705,657,1706,584,1539L522,1398L559,1332C579,1295,607,1248,620,1228C641,1193,425,696,345,595C334,581,313,537,299,496C243,337,176,524,227,697C368,1171,641,1834,706,1859C731,1868,765,1891,780,1911C818,1956,1071,1941,1260,1881zM1450,1573C1580,1512,1629,1457,1612,1391C1592,1311,1523,1308,1382,1379C1124,1509,1189,1695,1450,1573zM799,1405C730,1282,632,1360,694,1490L728,1561L779,1510C827,1462,828,1456,799,1405zM940,1369C940,1360,865,1219,825,1152C818,1141,806,1154,796,1179C780,1224,802,1278,868,1354C890,1379,940,1389,940,1369zM773,1090C896,977,1231,818,1354,814C1476,809,1481,827,1265,521C896,-1,787,-34,424,268L306,366L445,658C522,819,605,997,631,1055C687,1180,677,1177,773,1090zM1450,1092C1494,1060,1465,960,1412,960C1396,960,1380,953,1375,945C1370,937,1371,944,1377,960C1383,977,1388,1019,1388,1055C1389,1128,1396,1132,1450,1092zM1560,968C1560,914,1493,827,1454,830C1404,834,1404,837,1453,920C1483,971,1560,1005,1560,968z" />
          <path d="M332,906C303,831,281,760,281,750C282,739,309,797,341,879C373,960,396,1031,392,1035C388,1039,361,981,332,906z" />
          <path d="M665,1075C607,1003,622,920,680,990C694,1007,717,1020,732,1020C766,1020,768,1044,736,1076C706,1106,690,1106,665,1075z" />
          <path d="M749,807C684,748,592,680,545,655C437,598,438,574,550,509C674,436,670,391,536,332C370,259,577,199,828,248L907,263L870,207C830,145,855,158,942,243C960,261,1027,313,1090,360L1206,446L1160,480C1129,503,1122,519,1138,528C1170,549,1240,691,1240,738C1240,769,1215,784,1125,811C1062,829,978,859,939,878L868,913L749,807zM1120,788C1223,771,1185,571,1070,527C978,492,985,555,1082,627C1225,734,1190,740,1032,636C871,530,871,533,1029,488C1168,448,1173,426,1054,379C1019,365,977,342,960,329C918,295,740,260,609,260C494,260,464,287,554,309C605,322,759,420,759,440C760,446,696,480,617,517L474,585L584,644C645,676,733,742,780,790L865,876L954,838C1003,817,1078,794,1120,788z" />
        </g>
      </g>
    </g>
  </g>
</svg>