<?xml version='1.0' encoding='utf-8'?>
<svg xmlns="http://www.w3.org/2000/svg" version="1.1" viewBox="0 0 3300 2200">
  <g id="Guides">
    <g id="H-reference" style="fill:#27AAE1;stroke:none;" transform="matrix(1 0 0 1 339 696)">
      <path d="M0.993654 0L3.63775 0L29.3281-67.1323L30.0303-67.1323L30.0303-70.459L28.1226-70.459ZM11.6885-24.4799L46.9815-24.4799L46.2315-26.7285L12.4385-26.7285ZM55.1196 0L57.7637 0L30.6382-70.459L29.4326-70.459L29.4326-67.1323Z" />
    </g>
    <line id="Baseline-S" style="fill:none;stroke:#27AAE1;opacity:1;stroke-width:0.5;" x1="263" x2="3036" y1="696" y2="696" />
    <line id="Capline-S" style="fill:none;stroke:#27AAE1;opacity:1;stroke-width:0.5;" x1="263" x2="3036" y1="625.541" y2="625.541" />
    <g id="H-reference" style="fill:#27AAE1;stroke:none;" transform="matrix(1 0 0 1 339 1126)">
      <path d="M0.993654 0L3.63775 0L29.3281-67.1323L30.0303-67.1323L30.0303-70.459L28.1226-70.459ZM11.6885-24.4799L46.9815-24.4799L46.2315-26.7285L12.4385-26.7285ZM55.1196 0L57.7637 0L30.6382-70.459L29.4326-70.459L29.4326-67.1323Z" />
    </g>
    <line id="Baseline-M" style="fill:none;stroke:#27AAE1;opacity:1;stroke-width:0.5;" x1="263" x2="3036" y1="1126" y2="1126" />
    <line id="Capline-M" style="fill:none;stroke:#27AAE1;opacity:1;stroke-width:0.5;" x1="263" x2="3036" y1="1055.54" y2="1055.54" />
    <g id="H-reference" style="fill:#27AAE1;stroke:none;" transform="matrix(1 0 0 1 339 1556)">
      <path d="M0.993654 0L3.63775 0L29.3281-67.1323L30.0303-67.1323L30.0303-70.459L28.1226-70.459ZM11.6885-24.4799L46.9815-24.4799L46.2315-26.7285L12.4385-26.7285ZM55.1196 0L57.7637 0L30.6382-70.459L29.4326-70.459L29.4326-67.1323Z" />
    </g>
    <line id="Baseline-L" style="fill:none;stroke:#27AAE1;opacity:1;stroke-width:0.5;" x1="263" x2="3036" y1="1556" y2="1556" />
    <line id="Capline-L" style="fill:none;stroke:#27AAE1;opacity:1;stroke-width:0.5;" x1="263" x2="3036" y1="1485.54" y2="1485.54" />
    <line id="right-margin" style="fill:none;stroke:#00AEEF;stroke-width:0.5;opacity:1.0;" x1="1508.37" x2="1508.37" y1="1030.79" y2="1150.12" />
    <line id="left-margin" style="fill:none;stroke:#00AEEF;stroke-width:0.5;opacity:1.0;" x1="1391.32" x2="1391.32" y1="1030.79" y2="1150.12" />
  </g>
  <g id="Symbols">
    <g id="Regular-M" transform="matrix(1 0 0 1 1391.32 1126)">
      <path d="M58.4961 14.5751C85.978 14.5751 108.321-7.76818 108.321-35.1983C108.321-62.6285 85.978-84.9718 58.4961-84.9718C31.0659-84.9718 8.72266-62.6285 8.72266-35.1983C8.72266-7.76818 31.0659 14.5751 58.4961 14.5751ZM34.6359-17.335C29.4656-17.335 26.0188-20.7406 26.0188-25.9732C26.0188-28.2057 26.5901-30.7707 27.4729-33.7211C28.8753-38.2503 31.2333-44.5239 33.5501-49.3963C35.4816-53.4461 36.4468-55.3037 41.202-56.3523C45.4619-57.3185 51.2793-57.9416 58.4443-57.9416C65.6094-57.9416 71.4786-57.3185 75.7384-56.3523C80.4831-55.3037 81.4589-53.4461 83.3903-49.3963C85.7071-44.5239 88.0652-38.2503 89.4675-33.7211C90.2986-30.7707 90.8699-28.2057 90.8699-25.9732C90.8699-20.7406 87.4748-17.335 82.3045-17.335C79.2536-17.335 77.1342-18.4565 75.2651-20.7617L71.2439-25.7175C70.5998-26.3933 69.9662-26.7154 69.2386-26.7154L47.7018-26.7154C46.9743-26.7154 46.2889-26.3933 45.6965-25.7175L41.6754-20.7617C39.8062-18.4565 37.6869-17.335 34.6359-17.335ZM39.6349-42.1468C39.6349-40.8922 40.4026-40.0832 41.6573-40.0832L45.6824-40.0832L45.6824-36.1088C45.6824-34.8542 46.4396-34.1487 47.6425-34.1487C48.8349-34.1487 49.6026-34.8542 49.6026-36.1088L49.6026-40.0832L53.4102-40.0832C54.7684-40.0832 55.5879-40.8922 55.5879-42.1468C55.5879-43.4015 54.7684-44.1692 53.4102-44.1692L49.6026-44.1692L49.6026-48.0813C49.6026-49.3877 48.8349-50.1555 47.6425-50.1555C46.4396-50.1555 45.6824-49.3877 45.6824-48.0813L45.6824-44.1692L41.6573-44.1692C40.4026-44.1692 39.6349-43.4015 39.6349-42.1468ZM72.8493-42.398C74.7385-42.398 76.2434-43.9029 76.2434-45.7921C76.2434-47.5673 74.7385-49.0827 72.8493-49.0827C71.0223-49.0827 69.5069-47.5673 69.5069-45.7921C69.5069-43.9029 71.0223-42.398 72.8493-42.398ZM66.0646-35.532C67.9433-35.532 69.407-37.0368 69.407-38.9155C69.407-40.753 67.9433-42.2061 66.0646-42.2061C64.2377-42.2061 62.6705-40.753 62.6705-38.9155C62.6705-37.0368 64.2377-35.532 66.0646-35.532Z" />
    </g>
  </g>
</svg>