<?xml version='1.0' encoding='utf-8'?>
<svg xmlns="http://www.w3.org/2000/svg" version="1.1" id="图层_1" x="0px" y="0px" viewBox="0 0 3300 2200" style="enable-background:new 0 0 3300 2200;" xml:space="preserve">
<style type="text/css">
	.st0{fill:#FFFFFF;}
	.st1{fill:none;stroke:#000000;stroke-width:0.5;}
	.st2{font-family:'Helvetica-Bold';}
	.st3{font-size:13px;}
	.st4{font-family:'Helvetica';}
	.st5{fill:none;stroke:#00AEEF;stroke-width:0.5;}
	.st6{fill:#27AAE1;}
	.st7{fill:none;stroke:#27AAE1;stroke-width:0.5;}
</style>
<g id="Notes">
	<rect id="artboard" x="-0.5" y="-63.1" class="st0" width="3300" height="2200" />
	<line class="st1" x1="262.5" y1="228.9" x2="3035.5" y2="228.9" />
	<text transform="matrix(1 0 0 1 262.5 258.9335)" class="st2 st3">Weight/Scale Variations</text>
	<text transform="matrix(1 0 0 1 533.5633 258.9335)" class="st4 st3">Ultralight</text>
	<text transform="matrix(1 0 0 1 843.2775 258.9335)" class="st4 st3">Thin</text>
	<text transform="matrix(1 0 0 1 1138.535 258.9335)" class="st4 st3">Light</text>
	<text transform="matrix(1 0 0 1 1426.5773 258.9335)" class="st4 st3">Regular</text>
	<text transform="matrix(1 0 0 1 1722.9419 258.9335)" class="st4 st3">Medium</text>
	<text transform="matrix(1 0 0 1 2015.6719 258.9335)" class="st4 st3">Semibold</text>
	<text transform="matrix(1 0 0 1 2326.4705 258.9335)" class="st4 st3">Bold</text>
	<text transform="matrix(1 0 0 1 2617.7659 258.9335)" class="st4 st3">Heavy</text>
	<text transform="matrix(1 0 0 1 2917.0054 258.9335)" class="st4 st3">Black</text>
	<line class="st1" x1="262.5" y1="1839.9" x2="3035.5" y2="1839.9" />
	<g transform="matrix(1 0 0 1 263 1933)">
		<path d="M8.7-62.3c1.1,0,2.1-0.2,3-0.6c1-0.4,1.8-1,2.5-1.7c0.7-0.7,1.3-1.6,1.7-2.5c0.4-1,0.6-2,0.6-3s-0.2-2.1-0.6-3    c-0.4-1-1-1.8-1.7-2.5c-0.7-0.7-1.6-1.3-2.5-1.7c-1-0.4-2-0.6-3-0.6c-1.1,0-2.1,0.2-3,0.6s-1.8,1-2.5,1.7    c-0.7,0.6-1.3,1.5-1.7,2.4c-0.4,1-0.6,2-0.6,3s0.2,2.1,0.6,3.1s1,1.8,1.7,2.5c0.7,0.7,1.6,1.3,2.5,1.7C6.7-62.5,7.7-62.3,8.7-62.3    z M8.7-63.8c-0.9,0-1.7-0.2-2.5-0.5c-0.7-0.3-1.4-0.7-2-1.3s-1-1.3-1.4-2c-0.3-0.8-0.4-1.7-0.4-2.6s0.2-1.7,0.5-2.5s0.8-1.5,1.4-2    c0.6-0.6,1.3-1,2-1.4c0.8-0.3,1.6-0.5,2.5-0.5s1.7,0.2,2.5,0.5c0.8,0.3,1.5,0.8,2,1.4c0.6,0.6,1,1.3,1.4,2    c0.3,0.8,0.5,1.6,0.5,2.5s-0.2,1.7-0.5,2.5s-0.8,1.5-1.4,2c-0.6,0.6-1.3,1-2,1.4C10.5-63.9,9.6-63.8,8.7-63.8z M5.2-70.2    c0,0.2,0.1,0.4,0.2,0.5c0.1,0.2,0.3,0.3,0.5,0.3H8v2.1c0,0.2,0.1,0.4,0.2,0.5c0.1,0.2,0.3,0.2,0.5,0.2s0.4-0.1,0.5-0.2    c0.2-0.1,0.3-0.3,0.3-0.5v-2.1h2.1c0.2,0,0.4-0.1,0.5-0.2c0.1-0.1,0.2-0.3,0.2-0.5c0-0.2-0.1-0.4-0.2-0.5    c-0.1-0.1-0.3-0.2-0.5-0.2H9.5v-2.1c0-0.2-0.1-0.4-0.2-0.5c-0.1-0.1-0.3-0.2-0.5-0.2s-0.4,0.1-0.5,0.2s-0.2,0.3-0.2,0.5v2.1H5.9    c-0.2-0.1-0.4,0-0.5,0.1C5.2-70.6,5.2-70.4,5.2-70.2z" />
	</g>
	<g transform="matrix(1 0 0 1 281.867 1933)">
		<path d="M11.2-60.2c1.4,0,2.6-0.3,3.8-0.8s2.3-1.2,3.2-2.2c0.9-0.9,1.6-2,2.2-3.2c0.5-1.2,0.8-2.5,0.8-3.8c0-1.4-0.3-2.6-0.8-3.8    c-0.5-1.2-1.2-2.3-2.2-3.2c-0.9-0.9-2-1.6-3.2-2.2c-1.2-0.5-2.5-0.8-3.8-0.8s-2.6,0.3-3.8,0.8s-2.3,1.2-3.2,2.2    c-0.9,0.9-1.6,2-2.2,3.2c-0.5,1.2-0.8,2.5-0.8,3.8c0,1.4,0.3,2.6,0.8,3.8c0.5,1.2,1.3,2.4,2.2,3.3c0.9,0.9,2,1.6,3.2,2.2    C8.6-60.3,9.8-60.2,11.2-60.2z M11.2-61.9C10-61.9,9-62.1,8-62.5s-1.9-1-2.6-1.8C4.6-65,4-65.9,3.6-66.9S2.9-69,2.9-70.2    s0.2-2.2,0.6-3.2s1-1.9,1.8-2.6c0.8-0.8,1.6-1.4,2.6-1.8s2.1-0.6,3.2-0.6s2.2,0.2,3.2,0.6s1.9,1,2.6,1.8c0.8,0.8,1.4,1.6,1.8,2.6    s0.6,2.1,0.6,3.2c0,1.2-0.2,2.2-0.6,3.2s-1,1.9-1.8,2.6c-0.8,0.8-1.6,1.4-2.6,1.8C13.3-62.2,12.4-61.9,11.2-61.9z M6.7-70.2    c0,0.2,0.1,0.4,0.2,0.6c0.2,0.2,0.4,0.3,0.6,0.3h2.9v2.9c0,0.2,0.1,0.4,0.2,0.6c0.1,0.2,0.3,0.2,0.6,0.2c0.2,0,0.4-0.1,0.6-0.2    C12-66,12-66.2,12-66.4v-2.9h2.9c0.2,0,0.4-0.1,0.6-0.2c0.2-0.1,0.2-0.3,0.2-0.6c0-0.2-0.1-0.4-0.2-0.6c-0.2-0.2-0.4-0.2-0.6-0.2    H12v-2.9c0-0.3-0.1-0.5-0.2-0.6s-0.4-0.2-0.6-0.2c-0.2,0-0.4,0.1-0.6,0.2c-0.1,0.2-0.2,0.4-0.2,0.6v2.9H7.5    c-0.3,0-0.5,0.1-0.6,0.2S6.7-70.4,6.7-70.2z" />
	</g>
	<g transform="matrix(1 0 0 1 305.646 1933)">
		<path d="M14.5-57.4c1.4,0,2.7-0.2,4-0.6s2.4-1,3.5-1.8s2-1.7,2.8-2.8c0.7-1.1,1.3-2.3,1.7-3.6c0.4-1.3,0.6-2.6,0.6-4    s-0.2-2.7-0.6-4s-1-2.4-1.8-3.5s-1.7-2-2.8-2.8c-1.1-0.8-2.2-1.4-3.5-1.8s-2.6-0.6-4-0.6s-2.7,0.2-4,0.6s-2.4,1-3.5,1.8    c-1.1,0.8-2,1.7-2.8,2.8s-1.4,2.2-1.8,3.5c-0.4,1.3-0.6,2.6-0.6,4s0.2,2.7,0.6,4c0.4,1.3,1,2.4,1.8,3.5c0.8,1.1,1.7,2,2.8,2.8    c1.2,0.8,2.3,1.4,3.6,1.8C11.7-57.7,13.1-57.4,14.5-57.4z M14.5-59.3c-1.2,0-2.4-0.2-3.4-0.6c-1.1-0.4-2.1-0.9-3-1.5    c-1-0.6-1.8-1.4-2.4-2.3c-0.7-0.9-1.2-1.9-1.6-3c-0.3-1.1-0.5-2.2-0.5-3.5c0-1.2,0.2-2.4,0.5-3.5c0.4-1.1,0.9-2.1,1.5-3    C6.3-77.6,7-78.4,8-79.1c0.9-0.7,1.9-1.2,3-1.5c1.1-0.4,2.2-0.5,3.4-0.5s2.4,0.2,3.5,0.5c1.1,0.4,2.1,0.9,3,1.5    c0.9,0.7,1.7,1.5,2.4,2.4c0.7,0.9,1.2,1.9,1.5,3c0.4,1.1,0.6,2.2,0.6,3.5c0,1.2-0.2,2.4-0.5,3.4c-0.4,1.1-0.9,2.1-1.5,3    c-0.7,0.9-1.5,1.7-2.4,2.4c-0.9,0.7-1.9,1.2-3,1.5C16.8-59.4,15.7-59.3,14.5-59.3z M8.7-70.2c0,0.3,0.1,0.5,0.3,0.6    c0.2,0.2,0.4,0.2,0.7,0.2h3.9v4c0,0.3,0.1,0.5,0.2,0.7c0.2,0.2,0.4,0.3,0.6,0.3c0.3,0,0.5-0.1,0.7-0.3s0.3-0.4,0.3-0.7v-4h4    c0.3,0,0.5-0.1,0.7-0.2c0.2-0.2,0.3-0.4,0.3-0.6c0-0.3-0.1-0.5-0.3-0.7c-0.3-0.1-0.5-0.2-0.8-0.2h-4V-75c0-0.3-0.1-0.5-0.3-0.7    c-0.2-0.2-0.4-0.3-0.7-0.3s-0.5,0.1-0.6,0.3c-0.2,0.2-0.2,0.4-0.2,0.7v3.9H9.6c-0.3,0-0.5,0.1-0.6,0.3C8.8-70.6,8.7-70.4,8.7-70.2    z" />
	</g>
	<text transform="matrix(1 0 0 1 262.5 1889.9336)" class="st2 st3">Design Variations</text>
	<text transform="matrix(1 0 0 1 262.5 1907.9336)" class="st4 st3">Symbols are supported in up to nine weights and three scales.</text>
	<text transform="matrix(1 0 0 1 262.5 1925.9336)" class="st4 st3">For optimal layout with text and other symbols, vertically align</text>
	<text transform="matrix(1 0 0 1 262.5 1943.9336)" class="st4 st3">symbols with the adjacent text.</text>
	<line class="st5" x1="775.5" y1="1855.9" x2="775.5" y2="1869.9" />
	<g transform="matrix(1 0 0 1 776 1933)">
		<path d="M2.8-62.9c0.3,0,0.5-0.1,0.6-0.2c0.1-0.1,0.3-0.3,0.4-0.6L5-67.1h5.8l1.3,3.4c0.1,0.3,0.2,0.5,0.4,0.6    c0.1,0.1,0.3,0.2,0.6,0.2s0.5-0.1,0.6-0.2c0.2-0.1,0.2-0.3,0.2-0.6c0-0.1,0-0.3-0.1-0.5L9.2-76.5c-0.1-0.3-0.3-0.5-0.5-0.7    c-0.2-0.1-0.5-0.2-0.8-0.2c-0.6,0-1,0.3-1.2,0.9L2.1-64.3C2-64.1,2-63.9,2-63.7s0.1,0.4,0.2,0.6C2.3-62.9,2.6-62.9,2.8-62.9z     M5.5-68.6l2.4-6.6l0,0l2.4,6.6C10.3-68.6,5.5-68.6,5.5-68.6z" />
	</g>
	<line class="st5" x1="792.7" y1="1855.9" x2="792.7" y2="1869.9" />
	<text transform="matrix(1 0 0 1 775.5 1889.9336)" class="st2 st3">Margins</text>
	<text transform="matrix(1 0 0 1 775.5 1907.9336)" class="st4 st3">Leading and trailing margins on the left and right side of each symbol</text>
	<text transform="matrix(1 0 0 1 775.5 1925.9336)" class="st4 st3">can be adjusted by modifying the x-location of the margin guidelines.</text>
	<text transform="matrix(1 0 0 1 775.5 1943.9336)" class="st4 st3">Modifications are automatically applied proportionally to all</text>
	<text transform="matrix(1 0 0 1 775.5 1961.9336)" class="st4 st3">scales and weights.</text>
	<g transform="matrix(1 0 0 1 1289 1933)">
		<path d="M2.3-61.2L4-59.5c0.5,0.4,0.9,0.6,1.4,0.6s0.9-0.3,1.4-0.8l10.7-11.8l-1-1L5.9-60.8c-0.2,0.2-0.3,0.3-0.5,0.3    S5-60.6,4.8-60.8L3.6-62c-0.2-0.2-0.3-0.4-0.3-0.6c0-0.2,0.1-0.4,0.3-0.5l11.5-10.8l-1-1L2.5-64c-0.4,0.5-0.7,0.9-0.7,1.4    C1.7-62.1,1.9-61.7,2.3-61.2z M8.8-79.4c-0.2,0.2-0.3,0.4-0.4,0.7c0,0.3,0,0.5,0.1,0.7c0.1,0.2,0.3,0.3,0.5,0.4    c0.2,0.1,0.5,0.1,0.8,0c0.7-0.2,1.5-0.2,2.2-0.2s1.5,0.3,2.2,0.7l-0.6,1.5c-0.2,0.4-0.2,0.8-0.1,1.1c0.1,0.3,0.2,0.6,0.5,0.9    l2.3,2.3c0.2,0.2,0.5,0.4,0.7,0.4s0.5,0,0.8,0l1.1-0.2l0.7,0.7v0.6c0,0.2,0,0.5,0.1,0.7c0.1,0.2,0.2,0.4,0.5,0.7l0.8,0.7    c0.2,0.2,0.5,0.4,0.8,0.4s0.5-0.1,0.8-0.3l2.9-2.9c0.2-0.2,0.3-0.5,0.3-0.8c0-0.3-0.1-0.5-0.4-0.8L24.5-73    c-0.2-0.2-0.5-0.4-0.7-0.5c-0.2-0.1-0.4-0.1-0.7-0.1h-0.6l-0.6-0.6l0.2-1.1c0.1-0.3,0.1-0.5,0-0.8c-0.1-0.3-0.3-0.5-0.6-0.8    l-2.1-2.2c-0.8-0.8-1.7-1.4-2.7-1.9c-0.9-0.4-1.9-0.6-2.8-0.6c-1,0-1.9,0.2-2.8,0.5C10.3-80.7,9.5-80.2,8.8-79.4z M10.3-79.1    c0.6-0.4,1.3-0.8,1.9-0.9c0.7-0.2,1.4-0.2,2.1-0.2c0.7,0.1,1.4,0.3,2.1,0.6c0.7,0.3,1.3,0.7,1.8,1.3l2.4,2.4    c0.1,0.1,0.2,0.2,0.2,0.3c0,0.1,0,0.3,0,0.4l-0.3,1.6l1.5,1.5l1-0.1c0.1,0,0.2,0,0.3,0c0.1,0,0.1,0.1,0.2,0.2l0.6,0.6L21.7-69    l-0.6-0.6c-0.1-0.1-0.2-0.2-0.2-0.2c0-0.1,0-0.2,0-0.3l0.1-1l-1.5-1.5L18-72.3c-0.2,0-0.3,0-0.4,0s-0.2-0.1-0.3-0.2l-2-2    c-0.1-0.1-0.2-0.2-0.2-0.3s0-0.3,0.1-0.4l0.9-2.1c-0.8-0.7-1.7-1.2-2.6-1.5c-1-0.3-2-0.3-3,0c-0.1,0-0.1,0-0.2,0    C10.2-79,10.2-79,10.3-79.1z" />
	</g>
	<text transform="matrix(1 0 0 1 1288.5 1889.9336)" class="st2 st3">Exporting</text>
	<text transform="matrix(1 0 0 1 1288.5 1907.9336)" class="st4 st3">Symbols should be outlined when exporting to ensure the</text>
	<text transform="matrix(1 0 0 1 1288.5 1925.9336)" class="st4 st3">design is preserved when submitting to Xcode.</text>
	<text id="template-version" transform="matrix(1 0 0 1 2951.9141 1869.9336)" class="st4 st3">Template v.3.0</text>
	<text transform="matrix(1 0 0 1 2864.9575 1887.9336)" class="st4 st3">Requires Xcode 13 or greater</text>
	<text id="descriptive-name" transform="matrix(1 0 0 1 2850.5293 1905.9336)" class="st4 st3">Generated from hourglass.circle</text>
	<text transform="matrix(1 0 0 1 2911.9111 1923.9336)" class="st4 st3">Typeset at 100 points</text>
	<text transform="matrix(1 0 0 1 262.5 662.9335)" class="st4 st3">Small</text>
	<text transform="matrix(1 0 0 1 262.5 1092.9336)" class="st4 st3">Medium</text>
	<text transform="matrix(1 0 0 1 262.5 1522.9336)" class="st4 st3">Large</text>
</g>
<g id="Guides">
	<g id="H-reference" transform="matrix(1 0 0 1 339 696)">
		<path class="st6" d="M1,0h2.6l25.7-67.1H30v-3.3h-1.9L1,0z M11.7-24.5H47l-0.8-2.2H12.4L11.7-24.5z M55.1,0h2.6L30.6-70.5h-1.2    v3.3L55.1,0z" />
	</g>
	<line id="Baseline-S" class="st7" x1="263" y1="696" x2="3036" y2="696" />
	<line id="Capline-S" class="st7" x1="263" y1="625.5" x2="3036" y2="625.5" />
	<g id="H-reference_00000174582976744177833630000007730325773184391314_" transform="matrix(1 0 0 1 339 1126)">
		<path class="st6" d="M1,0h2.6l25.7-67.1H30v-3.3h-1.9L1,0z M11.7-24.5H47l-0.8-2.2H12.4L11.7-24.5z M55.1,0h2.6L30.6-70.5h-1.2    v3.3L55.1,0z" />
	</g>
	<line id="Baseline-M" class="st7" x1="263" y1="1126" x2="3036" y2="1126" />
	<line id="Capline-M" class="st7" x1="263" y1="1055.5" x2="3036" y2="1055.5" />
	<g id="H-reference_00000113329496982249443560000009416180920334905247_" transform="matrix(1 0 0 1 339 1556)">
		<path class="st6" d="M1,0h2.6l25.7-67.1H30v-3.3h-1.9L1,0z M11.7-24.5H47l-0.8-2.2H12.4L11.7-24.5z M55.1,0h2.6L30.6-70.5h-1.2    v3.3L55.1,0z" />
	</g>
	<line id="Baseline-L" class="st7" x1="263" y1="1556" x2="3036" y2="1556" />
	<line id="Capline-L" class="st7" x1="263" y1="1485.5" x2="3036" y2="1485.5" />
	<line id="left-margin-Regular-M" class="st5" x1="1391.3" y1="1030.8" x2="1391.3" y2="1150.1" />
	<line id="right-margin-Regular-M" class="st5" x1="1508.4" y1="1030.8" x2="1508.4" y2="1150.1" />
</g>
  <g id="Symbols">
    <g id="Regular-M">
      <path d="M1450.1882 1042.7011C1476.5229 1042.7011 1497.9033 1064.2691 1497.9033 1090.8349C1497.9033 1117.4006 1476.5229 1138.9687 1450.1882 1138.9687C1423.8537000000001 1138.9687 1402.4732 1117.4006 1402.4732 1090.8349C1402.4732 1064.2691 1423.8537000000001 1042.7011 1450.1882 1042.7011ZM1438.3086 1046.1474C1403.9237 1055.5308 1392.723 1099.7836 1418.5355 1124.2439C1446.6042 1150.8508 1491.9129 1133.5337 1495.7847000000002 1094.7887C1498.8276 1063.9322 1468.2218 1037.9785 1438.3086 1046.1474ZM1461.6316 1049.8813C1472.7848 1052.823 1481.8193 1060.5725 1487.3501 1072.009C1490.6234 1078.8235 1492.6506 1087.6471 1490.9001 1087.6471C1490.3915 1087.6471 1489.7004 1090.1666 1489.3787 1093.2938C1488.3644 1103.098 1488.134 1103.5174 1484.0318 1103.5174C1479.4225000000001 1103.5174 1476.1044 1105.2448 1472.0472 1109.7721C1468.4072 1113.9281 1461.8607 1123.4503 1464.3037 1121.1151C1465.7788 1119.7619 1466.286 1119.7165 1469.0057 1120.8827C1472.2313 1122.2359999999999 1473.5223 1121.536 1472.5544 1119.0151C1472.1399000000001 1117.8943 1472.3702 1117.6619 1473.5223 1118.1281C1474.4902 1118.5022 1474.951 1119.3892 1474.6742 1120.4165C1473.1528 1126.2504 1484.3535 1112.8072 1487.5355 1104.9656C1488.4569999999999 1102.6304 1489.5627 1100.7174 1489.9307 1100.7174C1491.1291 1100.7174 1490.7146 1103.0045 1489.1019000000001 1105.3383C1488.2253 1106.5513 1488.0412999999999 1107.2527 1488.6412 1106.8786C1489.2395999999999 1106.5059 1490.761 1104.2174 1491.9593 1101.8368C1494.7718 1096.3757 1494.9558 1098.8031 1492.3288 1106.0382C1489.7004 1113.2735 1483.1552 1122.5165 1477.8546999999999 1126.3906C1473.0152 1129.9387 1471.7254 1129.892 1475.0437 1126.2984999999999L1477.2563 1123.8244L1473.7063 1126.2504C1460.8941 1134.9805000000001 1441.4892 1135.3999 1428.6742 1127.1842C1426.6471000000001 1125.9243999999999 1424.3894 1125.0841 1423.6505 1125.4101C1421.5306 1126.205 1419.1803 1124.5244 1415.723 1119.623C1412.4961 1115.141 1410.6064999999999 1110.4267 1412.4961 1111.5929C1413.1886 1112.0138 1413.2337 1111.6397 1412.7729 1110.4267C1408.3027 1099.5499 1408.2563 1099.5031 1408.2099 1086.7132C1408.1186 1072.4753 1409.5923 1068.3206 1417.843 1059.7322C1423.0971 1054.2229 1431.9474 1048.9956 1427.4295 1054.0827C1426.0472 1055.6697 1426.4629 1055.5775 1430.1493 1053.4761C1439.2751 1048.3409 1450.7077 1046.9877999999999 1461.6316 1049.8813ZM1443.9771 1070.8415C1443.4714 1071.3544 1440.6125 1072.1961000000001 1437.571 1072.7544C1434.5745 1073.3155 1430.7955 1074.3429 1429.1828 1075.0896C1427.5686 1075.8364 1425.7254 1076.4428 1425.0342 1076.4895999999999C1423.0971 1076.5364 1419.6411 1079.804 1419.6411 1081.578C1419.6411 1082.6508 1419.134 1082.9781 1418.2586999999999 1082.6508C1417.0591 1082.1845 1417.0140000000001 1082.4184 1417.8892 1084.0522C1418.7645 1085.7326 1418.5355 1086.3391 1416.5982 1088.0197C1415.3086 1089.0938 1413.9712 1091.4276 1413.6031 1093.2484C1413.28 1095.0211 1412.5889 1096.9822 1412.128 1097.5887C1411.2992 1098.6628 1413.096 1105.2915 1415.539 1110.1462C1416.2301 1111.4994 1416.5982 1112.8526 1416.3215 1113.1332C1416.0448000000001 1113.4137 1416.6909 1113.88 1417.7979 1114.254C1419.0412999999999 1114.6749 1420.1483 1114.3942 1420.8395 1113.554C1421.8987 1112.2462 1425.1719 1110.6136999999999 1425.1719 1111.4059C1425.1719 1111.6397 1424.7575 1112.9462 1424.2503 1114.3008C1423.1448 1117.1944 1424.4344 1119.623 1426.6007 1118.7827C1427.3382 1118.5022 1427.9381 1118.7346 1427.9381 1119.2957000000001C1427.9381 1119.8554 1427.5223 1120.323 1427.0164 1120.323C1426.508 1120.323 1426.0936 1121.2087 1426.0936 1122.2359999999999C1426.0936 1124.0101 1426.2325 1124.0568 1427.5223 1122.7036C1428.3525 1121.91 1430.0116 1121.2568 1431.2099 1121.2568C1433.3299 1121.2568 1433.2835 1121.1151 1430.0116 1118.0359C1424.7111 1113.1332 1427.3382 1110.6136999999999 1434.021 1114.1605C1440.8893 1117.7554 1452.8262 1119.5749 1452.8262 1117.0086000000001C1452.8262 1115.8878 1450.5686 1111.9202 1449.8774 1111.9202C1446.5591 1111.9202 1442.5484000000001 1109.0253 1443.7003 1107.4851C1444.3466 1106.5981 1443.6554 1107.0188 1442.134 1108.4188C1438.9535 1111.3605 1437.755 1111.6865 1438.4013 1109.3526C1438.6767 1108.4656 1439.3679 1105.898 1439.9214 1103.7045C1440.6589 1100.8577 1441.5805 1099.4563 1443.1946 1098.8484C1444.4393 1098.3355 1445.4522 1097.5434 1445.4522 1096.9822C1445.4522 1095.629 1444.4393 1095.816 1442.4571 1097.6822C1441.0283 1098.942 1438.3086 1099.4096 1429.4595 1099.8304C1417.982 1100.3901 1416.2301 1100.2966 1419.2717 1099.2225C1420.2409 1098.8484 1424.8501999999999 1096.9822 1429.5045 1094.9758C1434.1601 1093.0147 1438.4926 1091.3809 1439.1375 1091.3809C1439.7372 1091.3809 1439.4605999999999 1090.7744 1438.4926 1090.073C1437.5247 1089.3262 1436.4191 1088.9535 1436.0032 1089.1873C1435.6352 1089.4198 1435.5425 1089.047 1435.8192 1088.3457C1436.096 1087.6471 1435.2208 1086.1067 1433.976 1084.8924C1430.5187 1081.6248 1431.0259 1081.2975 1437.2479 1082.8378C1441.5805 1083.9119 1443.0106 1084.7054 1443.6554 1086.3859C1444.1162 1087.5989 1445.0841 1088.5809 1445.8667 1088.5809C1447.4808 1088.5809 1446.8346000000001 1086.1521 1444.9913999999999 1085.4521C1442.9179 1084.6119 1442.2730999999999 1077.0026 1443.9771 1073.5493C1445.4985 1070.422 1445.4985 1069.3011 1443.9771 1070.8415ZM1450.9831 1114.8618999999999C1450.9831 1115.8411 1446.5591 1115.7943 1444.0698 1114.7202C1442.7338 1114.1605 1443.4237 1113.9735 1446.6042 1113.9735C1449.0008 1114.0202 1450.9831 1114.3942 1450.9831 1114.8618999999999ZM1463.0604 1105.7577C1462.4605999999999 1106.4577 1460.7551 1107.5786 1459.2337 1108.1851C1456.8833 1109.2123 1456.5139 1109.8202 1456.653 1112.7138C1456.7457 1115.3267 1456.8833 1115.5605 1457.2065 1113.7864C1457.7136 1110.8929 1459.0959 1109.1189 1460.8015 1109.1189C1461.539 1109.1189 1463.2445 1108.0461 1464.6268 1106.785C1466.47 1105.0577 1466.7004 1104.4512 1465.5947 1104.4512C1464.7658999999999 1104.4512 1463.6125 1105.0577 1463.0604 1105.7577ZM1471.9558 1090.2147C1469.2361 1091.3341 1468.5913 1092.0341 1469.0057 1093.3873C1469.6041 1095.3017 1467.6219 1101.6512 1466.425 1101.6512C1465.9642 1101.6512 1465.9165 1102.1175 1466.286 1102.724C1466.7004 1103.4239 1467.4856 1102.8174 1468.4072 1101.0902C1469.2361 1099.5966 1470.388 1098.2902 1470.9879 1098.1498C1472.647 1097.8225 1471.356 1100.8095 1468.729 1103.2837C1467.5307 1104.4512 1466.7930999999999 1105.8045 1467.1161 1106.3189C1467.4379 1106.8318 1465.7788 1108.3721 1463.4749 1109.7721C1458.7729 1112.667 1456.653 1115.654 1460.9391 1113.4137C1468.3146 1109.5397 1479.1921 1096.0484 1474.906 1096.0484C1474.3062 1096.0484 1474.3062 1095.3952 1474.9974 1094.0873C1475.5509 1093.0147 1475.7812 1091.8938 1475.5045 1091.6133C1475.2277 1091.3341 1475.6885 1090.5405 1476.5651 1089.8874C1478.8228 1088.16 1476.4724 1088.3002999999999 1471.9558 1090.2147ZM1453.5188 1100.0174C1454.5794 1101.1836 1455.6387 1103.1447 1455.8691 1104.4512C1456.1922 1106.5059 1456.2849 1106.5513 1456.3762 1104.7304C1456.6066 1101.5577 1454.8561 1097.9161 1453.1493 1097.9161C1451.7669 1097.9161 1451.8133 1098.1966 1453.5188 1100.0174ZM1447.6648 1099.0355C1447.2041 1099.6901 1447.0199 1100.9966 1447.1577 1101.9304C1447.2953 1102.8642 1446.9273 1104.2642 1446.3274000000001 1105.0109C1445.4059 1106.085 1445.4522 1106.2721 1446.6042 1105.8045C1447.3881000000001 1105.5253 1448.3096 1103.7513 1448.6327 1101.9772C1449.3252 1098.3836000000001 1448.8631 1097.0757 1447.6648 1099.0355ZM1455.501 1094.2276C1454.8084 1094.6952 1454.6244 1095.1145999999999 1455.1315 1095.1614C1455.6387 1095.2082 1457.1136999999999 1095.3952 1458.3584 1095.5355C1459.6494 1095.6758 1461.3072 1095.4419 1462.0462 1094.9277C1463.2894000000001 1094.1809 1463.2894000000001 1094.1354000000001 1462.0462 1094.4614C1461.3072 1094.6952 1459.7872 1094.5082 1458.7278999999999 1094.1354000000001C1457.6671999999999 1093.7147 1456.2371 1093.8081 1455.501 1094.2276ZM1438.5389 1051.6086C1422.4522 1056.7437 1416.5982 1065.9401 1426.3703 1070.6544C1431.9012 1073.3155 1438.5389 1072.009 1448.4487 1066.2206C1451.8596 1064.2127 1454.6707999999999 1062.953 1454.6707999999999 1063.4193C1454.6707999999999 1063.8854000000001 1453.7955 1064.7257 1452.7349 1065.2868C1449.1863 1067.1998 1447.8952 1072.1961000000001 1449.6007 1077.3766C1450.5686 1080.3636999999999 1450.8917000000001 1083.1184 1450.4309 1085.4053C1449.9702 1087.8795 1450.1078 1088.673 1450.8453 1088.2068C1451.4439 1087.8327 1451.9047 1086.5262 1451.9047 1085.2665C1451.9047 1084.0054 1452.6886 1082.2313 1453.6100999999999 1081.3443C1461.4463 1073.922 1462.5997 1073.5947 1460.248 1079.4313C1459.7872 1080.5975 1459.141 1082.7443 1458.8654999999999 1084.1924C1458.4962 1085.7794 1457.4355 1087.1327 1456.0082 1087.6471C1454.7635 1088.16 1453.7492 1088.9535 1453.7492 1089.5133C1453.7492 1090.8679 1454.3953000000001 1090.6808 1457.2514 1088.6262C1459.2337 1087.1327 1461.3999 1086.76 1467.8537000000001 1086.6198C1475.0437 1086.4794 1480.8976 1084.8456 1474.2135 1084.8456C1471.6327 1084.8456 1469.3738 1081.6248 1464.9499 1071.5414C1464.4891 1070.4674 1469.2361 1070.7012 1469.8809 1071.7753C1470.204 1072.2882 1470.9416 1072.7091 1471.5414 1072.7091C1472.0935 1072.7091 1471.356 1071.5414 1469.836 1070.1415C1468.3595 1068.7401 1466.5164 1066.6401 1465.7325 1065.5206C1464.1197 1063.1401 1443.4237 1057.7711 1435.8656 1057.7711C1433.5603 1057.7711 1431.6258 1057.3517 1431.6258 1056.8373C1431.6258 1055.5308 1435.2657 1055.6697 1444.9913999999999 1057.3034C1449.5543 1058.0502 1454.8561 1058.6581 1456.7906 1058.7048H1460.248L1457.2514 1056.0905C1450.1542 1049.9294 1446.5128 1049.0423 1438.5389 1051.6086ZM1464.2586999999999 1082.4637C1466.286 1085.5924 1466.1933 1085.7794 1462.6446 1085.7794C1459.7872 1085.7794 1459.6031 1085.5924 1460.0176000000001 1082.9781C1460.4784 1079.5701 1462.2302 1079.3845000000001 1464.2586999999999 1082.4637ZM1419.318 1061.4595C1414.387 1066.6869 1408.4867 1077.0026 1408.6243 1080.1766C1408.6707000000001 1080.9248 1409.2693 1080.0832 1409.9153999999999 1078.2637C1412.4047 1071.448 1415.3999 1066.5933 1420.3787 1061.3178C1423.1448 1058.3308 1425.2633 1055.9048 1424.9865 1055.9048C1424.7575 1055.9048 1422.1754 1058.3775 1419.318 1061.4595ZM1415.9533999999999 1068.6947C1414.432 1071.1207 1413.1886 1073.5012 1413.1886 1074.0623C1413.2337 1074.6221 1414.2015999999999 1073.3623 1415.4476 1071.3077C1416.6909 1069.2545 1418.166 1066.8271 1418.7195 1065.9401C1419.2717 1065.0531 1419.4569999999999 1064.3063 1419.1803 1064.3063C1418.9035 1064.3063 1417.4284 1066.266 1415.9533999999999 1068.6947ZM1481.5425 1109.1656C1482.9712 1109.9591 1483.1552 1110.472 1482.28 1111.4994C1481.0367 1113.0396 1479.976 1112.5735 1478.5937 1110.0059C1477.4867 1107.9059 1478.5937 1107.5786 1481.5425 1109.1656Z" />
    </g>
  </g>
</svg>