<?xml version="1.0" encoding="utf-8"?>
<!-- Generator: Adobe Illustrator 26.3.1, SVG Export Plug-In . SVG Version: 6.00 Build 0)  -->
<svg version="1.1" id="图层_1" xmlns="http://www.w3.org/2000/svg" xmlns:xlink="http://www.w3.org/1999/xlink" x="0px" y="0px"
	 viewBox="0 0 3300 2200" style="enable-background:new 0 0 3300 2200;" xml:space="preserve">
<style type="text/css">
	.st0{fill:#FFFFFF;}
	.st1{fill:none;stroke:#000000;stroke-width:0.5;}
	.st2{font-family:'Helvetica-Bold';}
	.st3{font-size:13px;}
	.st4{font-family:'Helvetica';}
	.st5{fill:none;stroke:#00AEEF;stroke-width:0.5;}
	.st6{fill:#27AAE1;}
	.st7{fill:none;stroke:#27AAE1;stroke-width:0.5;}
</style>
<g id="Notes">
	<rect id="artboard" x="-0.5" y="-63.1" class="st0" width="3300" height="2200"/>
	<line class="st1" x1="262.5" y1="228.9" x2="3035.5" y2="228.9"/>
	<text transform="matrix(1 0 0 1 262.5 258.9335)" class="st2 st3">Weight/Scale Variations</text>
	<text transform="matrix(1 0 0 1 533.5633 258.9335)" class="st4 st3">Ultralight</text>
	<text transform="matrix(1 0 0 1 843.2775 258.9335)" class="st4 st3">Thin</text>
	<text transform="matrix(1 0 0 1 1138.535 258.9335)" class="st4 st3">Light</text>
	<text transform="matrix(1 0 0 1 1426.5773 258.9335)" class="st4 st3">Regular</text>
	<text transform="matrix(1 0 0 1 1722.9419 258.9335)" class="st4 st3">Medium</text>
	<text transform="matrix(1 0 0 1 2015.6719 258.9335)" class="st4 st3">Semibold</text>
	<text transform="matrix(1 0 0 1 2326.4705 258.9335)" class="st4 st3">Bold</text>
	<text transform="matrix(1 0 0 1 2617.7659 258.9335)" class="st4 st3">Heavy</text>
	<text transform="matrix(1 0 0 1 2917.0054 258.9335)" class="st4 st3">Black</text>
	<line class="st1" x1="262.5" y1="1839.9" x2="3035.5" y2="1839.9"/>
	<g transform="matrix(1 0 0 1 263 1933)">
		<path d="M8.7-62.3c1.1,0,2.1-0.2,3-0.6c1-0.4,1.8-1,2.5-1.7c0.7-0.7,1.3-1.6,1.7-2.5c0.4-1,0.6-2,0.6-3s-0.2-2.1-0.6-3
			c-0.4-1-1-1.8-1.7-2.5c-0.7-0.7-1.6-1.3-2.5-1.7c-1-0.4-2-0.6-3-0.6c-1.1,0-2.1,0.2-3,0.6s-1.8,1-2.5,1.7
			c-0.7,0.6-1.3,1.5-1.7,2.4c-0.4,1-0.6,2-0.6,3s0.2,2.1,0.6,3.1s1,1.8,1.7,2.5c0.7,0.7,1.6,1.3,2.5,1.7C6.7-62.5,7.7-62.3,8.7-62.3
			z M8.7-63.8c-0.9,0-1.7-0.2-2.5-0.5c-0.7-0.3-1.4-0.7-2-1.3s-1-1.3-1.4-2c-0.3-0.8-0.4-1.7-0.4-2.6s0.2-1.7,0.5-2.5s0.8-1.5,1.4-2
			c0.6-0.6,1.3-1,2-1.4c0.8-0.3,1.6-0.5,2.5-0.5s1.7,0.2,2.5,0.5c0.8,0.3,1.5,0.8,2,1.4c0.6,0.6,1,1.3,1.4,2
			c0.3,0.8,0.5,1.6,0.5,2.5s-0.2,1.7-0.5,2.5s-0.8,1.5-1.4,2c-0.6,0.6-1.3,1-2,1.4C10.5-63.9,9.6-63.8,8.7-63.8z M5.2-70.2
			c0,0.2,0.1,0.4,0.2,0.5c0.1,0.2,0.3,0.3,0.5,0.3H8v2.1c0,0.2,0.1,0.4,0.2,0.5c0.1,0.2,0.3,0.2,0.5,0.2s0.4-0.1,0.5-0.2
			c0.2-0.1,0.3-0.3,0.3-0.5v-2.1h2.1c0.2,0,0.4-0.1,0.5-0.2c0.1-0.1,0.2-0.3,0.2-0.5c0-0.2-0.1-0.4-0.2-0.5
			c-0.1-0.1-0.3-0.2-0.5-0.2H9.5v-2.1c0-0.2-0.1-0.4-0.2-0.5c-0.1-0.1-0.3-0.2-0.5-0.2s-0.4,0.1-0.5,0.2s-0.2,0.3-0.2,0.5v2.1H5.9
			c-0.2-0.1-0.4,0-0.5,0.1C5.2-70.6,5.2-70.4,5.2-70.2z"/>
	</g>
	<g transform="matrix(1 0 0 1 281.867 1933)">
		<path d="M11.2-60.2c1.4,0,2.6-0.3,3.8-0.8s2.3-1.2,3.2-2.2c0.9-0.9,1.6-2,2.2-3.2c0.5-1.2,0.8-2.5,0.8-3.8c0-1.4-0.3-2.6-0.8-3.8
			c-0.5-1.2-1.2-2.3-2.2-3.2c-0.9-0.9-2-1.6-3.2-2.2c-1.2-0.5-2.5-0.8-3.8-0.8s-2.6,0.3-3.8,0.8s-2.3,1.2-3.2,2.2
			c-0.9,0.9-1.6,2-2.2,3.2c-0.5,1.2-0.8,2.5-0.8,3.8c0,1.4,0.3,2.6,0.8,3.8c0.5,1.2,1.3,2.4,2.2,3.3c0.9,0.9,2,1.6,3.2,2.2
			C8.6-60.3,9.8-60.2,11.2-60.2z M11.2-61.9C10-61.9,9-62.1,8-62.5s-1.9-1-2.6-1.8C4.6-65,4-65.9,3.6-66.9S2.9-69,2.9-70.2
			s0.2-2.2,0.6-3.2s1-1.9,1.8-2.6c0.8-0.8,1.6-1.4,2.6-1.8s2.1-0.6,3.2-0.6s2.2,0.2,3.2,0.6s1.9,1,2.6,1.8c0.8,0.8,1.4,1.6,1.8,2.6
			s0.6,2.1,0.6,3.2c0,1.2-0.2,2.2-0.6,3.2s-1,1.9-1.8,2.6c-0.8,0.8-1.6,1.4-2.6,1.8C13.3-62.2,12.4-61.9,11.2-61.9z M6.7-70.2
			c0,0.2,0.1,0.4,0.2,0.6c0.2,0.2,0.4,0.3,0.6,0.3h2.9v2.9c0,0.2,0.1,0.4,0.2,0.6c0.1,0.2,0.3,0.2,0.6,0.2c0.2,0,0.4-0.1,0.6-0.2
			C12-66,12-66.2,12-66.4v-2.9h2.9c0.2,0,0.4-0.1,0.6-0.2c0.2-0.1,0.2-0.3,0.2-0.6c0-0.2-0.1-0.4-0.2-0.6c-0.2-0.2-0.4-0.2-0.6-0.2
			H12v-2.9c0-0.3-0.1-0.5-0.2-0.6s-0.4-0.2-0.6-0.2c-0.2,0-0.4,0.1-0.6,0.2c-0.1,0.2-0.2,0.4-0.2,0.6v2.9H7.5
			c-0.3,0-0.5,0.1-0.6,0.2S6.7-70.4,6.7-70.2z"/>
	</g>
	<g transform="matrix(1 0 0 1 305.646 1933)">
		<path d="M14.5-57.4c1.4,0,2.7-0.2,4-0.6s2.4-1,3.5-1.8s2-1.7,2.8-2.8c0.7-1.1,1.3-2.3,1.7-3.6c0.4-1.3,0.6-2.6,0.6-4
			s-0.2-2.7-0.6-4s-1-2.4-1.8-3.5s-1.7-2-2.8-2.8c-1.1-0.8-2.2-1.4-3.5-1.8s-2.6-0.6-4-0.6s-2.7,0.2-4,0.6s-2.4,1-3.5,1.8
			c-1.1,0.8-2,1.7-2.8,2.8s-1.4,2.2-1.8,3.5c-0.4,1.3-0.6,2.6-0.6,4s0.2,2.7,0.6,4c0.4,1.3,1,2.4,1.8,3.5c0.8,1.1,1.7,2,2.8,2.8
			c1.2,0.8,2.3,1.4,3.6,1.8C11.7-57.7,13.1-57.4,14.5-57.4z M14.5-59.3c-1.2,0-2.4-0.2-3.4-0.6c-1.1-0.4-2.1-0.9-3-1.5
			c-1-0.6-1.8-1.4-2.4-2.3c-0.7-0.9-1.2-1.9-1.6-3c-0.3-1.1-0.5-2.2-0.5-3.5c0-1.2,0.2-2.4,0.5-3.5c0.4-1.1,0.9-2.1,1.5-3
			C6.3-77.6,7-78.4,8-79.1c0.9-0.7,1.9-1.2,3-1.5c1.1-0.4,2.2-0.5,3.4-0.5s2.4,0.2,3.5,0.5c1.1,0.4,2.1,0.9,3,1.5
			c0.9,0.7,1.7,1.5,2.4,2.4c0.7,0.9,1.2,1.9,1.5,3c0.4,1.1,0.6,2.2,0.6,3.5c0,1.2-0.2,2.4-0.5,3.4c-0.4,1.1-0.9,2.1-1.5,3
			c-0.7,0.9-1.5,1.7-2.4,2.4c-0.9,0.7-1.9,1.2-3,1.5C16.8-59.4,15.7-59.3,14.5-59.3z M8.7-70.2c0,0.3,0.1,0.5,0.3,0.6
			c0.2,0.2,0.4,0.2,0.7,0.2h3.9v4c0,0.3,0.1,0.5,0.2,0.7c0.2,0.2,0.4,0.3,0.6,0.3c0.3,0,0.5-0.1,0.7-0.3s0.3-0.4,0.3-0.7v-4h4
			c0.3,0,0.5-0.1,0.7-0.2c0.2-0.2,0.3-0.4,0.3-0.6c0-0.3-0.1-0.5-0.3-0.7c-0.3-0.1-0.5-0.2-0.8-0.2h-4V-75c0-0.3-0.1-0.5-0.3-0.7
			c-0.2-0.2-0.4-0.3-0.7-0.3s-0.5,0.1-0.6,0.3c-0.2,0.2-0.2,0.4-0.2,0.7v3.9H9.6c-0.3,0-0.5,0.1-0.6,0.3C8.8-70.6,8.7-70.4,8.7-70.2
			z"/>
	</g>
	<text transform="matrix(1 0 0 1 262.5 1889.9336)" class="st2 st3">Design Variations</text>
	<text transform="matrix(1 0 0 1 262.5 1907.9336)" class="st4 st3">Symbols are supported in up to nine weights and three scales.</text>
	<text transform="matrix(1 0 0 1 262.5 1925.9336)" class="st4 st3">For optimal layout with text and other symbols, vertically align</text>
	<text transform="matrix(1 0 0 1 262.5 1943.9336)" class="st4 st3">symbols with the adjacent text.</text>
	<line class="st5" x1="775.5" y1="1855.9" x2="775.5" y2="1869.9"/>
	<g transform="matrix(1 0 0 1 776 1933)">
		<path d="M2.8-62.9c0.3,0,0.5-0.1,0.6-0.2c0.1-0.1,0.3-0.3,0.4-0.6L5-67.1h5.8l1.3,3.4c0.1,0.3,0.2,0.5,0.4,0.6
			c0.1,0.1,0.3,0.2,0.6,0.2s0.5-0.1,0.6-0.2c0.2-0.1,0.2-0.3,0.2-0.6c0-0.1,0-0.3-0.1-0.5L9.2-76.5c-0.1-0.3-0.3-0.5-0.5-0.7
			c-0.2-0.1-0.5-0.2-0.8-0.2c-0.6,0-1,0.3-1.2,0.9L2.1-64.3C2-64.1,2-63.9,2-63.7s0.1,0.4,0.2,0.6C2.3-62.9,2.6-62.9,2.8-62.9z
			 M5.5-68.6l2.4-6.6l0,0l2.4,6.6C10.3-68.6,5.5-68.6,5.5-68.6z"/>
	</g>
	<line class="st5" x1="792.7" y1="1855.9" x2="792.7" y2="1869.9"/>
	<text transform="matrix(1 0 0 1 775.5 1889.9336)" class="st2 st3">Margins</text>
	<text transform="matrix(1 0 0 1 775.5 1907.9336)" class="st4 st3">Leading and trailing margins on the left and right side of each symbol</text>
	<text transform="matrix(1 0 0 1 775.5 1925.9336)" class="st4 st3">can be adjusted by modifying the x-location of the margin guidelines.</text>
	<text transform="matrix(1 0 0 1 775.5 1943.9336)" class="st4 st3">Modifications are automatically applied proportionally to all</text>
	<text transform="matrix(1 0 0 1 775.5 1961.9336)" class="st4 st3">scales and weights.</text>
	<g transform="matrix(1 0 0 1 1289 1933)">
		<path d="M2.3-61.2L4-59.5c0.5,0.4,0.9,0.6,1.4,0.6s0.9-0.3,1.4-0.8l10.7-11.8l-1-1L5.9-60.8c-0.2,0.2-0.3,0.3-0.5,0.3
			S5-60.6,4.8-60.8L3.6-62c-0.2-0.2-0.3-0.4-0.3-0.6c0-0.2,0.1-0.4,0.3-0.5l11.5-10.8l-1-1L2.5-64c-0.4,0.5-0.7,0.9-0.7,1.4
			C1.7-62.1,1.9-61.7,2.3-61.2z M8.8-79.4c-0.2,0.2-0.3,0.4-0.4,0.7c0,0.3,0,0.5,0.1,0.7c0.1,0.2,0.3,0.3,0.5,0.4
			c0.2,0.1,0.5,0.1,0.8,0c0.7-0.2,1.5-0.2,2.2-0.2s1.5,0.3,2.2,0.7l-0.6,1.5c-0.2,0.4-0.2,0.8-0.1,1.1c0.1,0.3,0.2,0.6,0.5,0.9
			l2.3,2.3c0.2,0.2,0.5,0.4,0.7,0.4s0.5,0,0.8,0l1.1-0.2l0.7,0.7v0.6c0,0.2,0,0.5,0.1,0.7c0.1,0.2,0.2,0.4,0.5,0.7l0.8,0.7
			c0.2,0.2,0.5,0.4,0.8,0.4s0.5-0.1,0.8-0.3l2.9-2.9c0.2-0.2,0.3-0.5,0.3-0.8c0-0.3-0.1-0.5-0.4-0.8L24.5-73
			c-0.2-0.2-0.5-0.4-0.7-0.5c-0.2-0.1-0.4-0.1-0.7-0.1h-0.6l-0.6-0.6l0.2-1.1c0.1-0.3,0.1-0.5,0-0.8c-0.1-0.3-0.3-0.5-0.6-0.8
			l-2.1-2.2c-0.8-0.8-1.7-1.4-2.7-1.9c-0.9-0.4-1.9-0.6-2.8-0.6c-1,0-1.9,0.2-2.8,0.5C10.3-80.7,9.5-80.2,8.8-79.4z M10.3-79.1
			c0.6-0.4,1.3-0.8,1.9-0.9c0.7-0.2,1.4-0.2,2.1-0.2c0.7,0.1,1.4,0.3,2.1,0.6c0.7,0.3,1.3,0.7,1.8,1.3l2.4,2.4
			c0.1,0.1,0.2,0.2,0.2,0.3c0,0.1,0,0.3,0,0.4l-0.3,1.6l1.5,1.5l1-0.1c0.1,0,0.2,0,0.3,0c0.1,0,0.1,0.1,0.2,0.2l0.6,0.6L21.7-69
			l-0.6-0.6c-0.1-0.1-0.2-0.2-0.2-0.2c0-0.1,0-0.2,0-0.3l0.1-1l-1.5-1.5L18-72.3c-0.2,0-0.3,0-0.4,0s-0.2-0.1-0.3-0.2l-2-2
			c-0.1-0.1-0.2-0.2-0.2-0.3s0-0.3,0.1-0.4l0.9-2.1c-0.8-0.7-1.7-1.2-2.6-1.5c-1-0.3-2-0.3-3,0c-0.1,0-0.1,0-0.2,0
			C10.2-79,10.2-79,10.3-79.1z"/>
	</g>
	<text transform="matrix(1 0 0 1 1288.5 1889.9336)" class="st2 st3">Exporting</text>
	<text transform="matrix(1 0 0 1 1288.5 1907.9336)" class="st4 st3">Symbols should be outlined when exporting to ensure the</text>
	<text transform="matrix(1 0 0 1 1288.5 1925.9336)" class="st4 st3">design is preserved when submitting to Xcode.</text>
	<text id="template-version" transform="matrix(1 0 0 1 2951.9141 1869.9336)" class="st4 st3">Template v.3.0</text>
	<text transform="matrix(1 0 0 1 2864.9575 1887.9336)" class="st4 st3">Requires Xcode 13 or greater</text>
	<text id="descriptive-name" transform="matrix(1 0 0 1 2850.5293 1905.9336)" class="st4 st3">Generated from hourglass.circle</text>
	<text transform="matrix(1 0 0 1 2911.9111 1923.9336)" class="st4 st3">Typeset at 100 points</text>
	<text transform="matrix(1 0 0 1 262.5 662.9335)" class="st4 st3">Small</text>
	<text transform="matrix(1 0 0 1 262.5 1092.9336)" class="st4 st3">Medium</text>
	<text transform="matrix(1 0 0 1 262.5 1522.9336)" class="st4 st3">Large</text>
</g>
<g id="Guides">
	<g id="H-reference" transform="matrix(1 0 0 1 339 696)">
		<path class="st6" d="M1,0h2.6l25.7-67.1H30v-3.3h-1.9L1,0z M11.7-24.5H47l-0.8-2.2H12.4L11.7-24.5z M55.1,0h2.6L30.6-70.5h-1.2
			v3.3L55.1,0z"/>
	</g>
	<line id="Baseline-S" class="st7" x1="263" y1="696" x2="3036" y2="696"/>
	<line id="Capline-S" class="st7" x1="263" y1="625.5" x2="3036" y2="625.5"/>
	<g id="H-reference_00000174582976744177833630000007730325773184391314_" transform="matrix(1 0 0 1 339 1126)">
		<path class="st6" d="M1,0h2.6l25.7-67.1H30v-3.3h-1.9L1,0z M11.7-24.5H47l-0.8-2.2H12.4L11.7-24.5z M55.1,0h2.6L30.6-70.5h-1.2
			v3.3L55.1,0z"/>
	</g>
	<line id="Baseline-M" class="st7" x1="263" y1="1126" x2="3036" y2="1126"/>
	<line id="Capline-M" class="st7" x1="263" y1="1055.5" x2="3036" y2="1055.5"/>
	<g id="H-reference_00000113329496982249443560000009416180920334905247_" transform="matrix(1 0 0 1 339 1556)">
		<path class="st6" d="M1,0h2.6l25.7-67.1H30v-3.3h-1.9L1,0z M11.7-24.5H47l-0.8-2.2H12.4L11.7-24.5z M55.1,0h2.6L30.6-70.5h-1.2
			v3.3L55.1,0z"/>
	</g>
	<line id="Baseline-L" class="st7" x1="263" y1="1556" x2="3036" y2="1556"/>
	<line id="Capline-L" class="st7" x1="263" y1="1485.5" x2="3036" y2="1485.5"/>
	<line id="left-margin-Regular-M" class="st5" x1="1391.3" y1="1030.8" x2="1391.3" y2="1150.1"/>
	<line id="right-margin-Regular-M" class="st5" x1="1508.4" y1="1030.8" x2="1508.4" y2="1150.1"/>
</g>
<g id="Symbols">
	<g id="Regular-M">
       <path transform="translate(979, 980)" d="M470.6164,67.6194C494.3577,67.6194,513.6326,86.8943,513.6326,110.6356C513.6326,134.3768,494.3577,153.6518,470.6164,153.6518C446.8752,153.6518,427.6002,134.3768,427.6002,110.6356C427.6002,86.8943,446.8752,67.6194,470.6164,67.6194zM459.9066,70.6993C428.9079,79.085,418.8102,118.6329,442.0807,140.4925C467.3853,164.2706,508.2322,148.7946,511.7227,114.169C514.4659,86.5932,486.8741,63.3989,459.9066,70.6993zM480.9329,74.0362C490.9877,76.6651,499.1325,83.5907,504.1187,93.8113C507.0696,99.9012,508.8972,107.7867,507.3191,107.7867C506.8606,107.7867,506.2375,110.0383,505.9475,112.8331C505.0331,121.5949,504.8254,121.9697,501.1272,121.9697C496.9718,121.9697,493.9804,123.5134,490.3228,127.5594C487.0412,131.2735,481.1394,139.7833,483.3418,137.6964C484.6717,136.4871,485.1289,136.4465,487.5808,137.4887C490.4887,138.6981,491.6526,138.0725,490.78,135.8197C490.4063,134.818,490.614,134.6103,491.6526,135.027C492.5252,135.3613,492.9406,136.154,492.6911,137.0721C491.3195,142.2857,501.4172,130.2718,504.2858,123.2639C505.1166,121.177,506.1134,119.4674,506.4452,119.4674C507.5255,119.4674,507.1519,121.5113,505.698,123.597C504.9077,124.681,504.7418,125.3078,505.2826,124.9735C505.8221,124.6404,507.1937,122.5953,508.274,120.4678C510.8095,115.5873,510.9754,117.7566,508.6071,124.2225C506.2375,130.6885,500.3369,138.9488,495.5584,142.411C491.1954,145.5819,490.0327,145.5401,493.0242,142.3287L495.0189,140.1176L491.8185,142.2857C480.268,150.0876,462.774,150.4624,451.221,143.1202C449.3935,141.9944,447.3582,141.2434,446.692,141.5347C444.7809,142.2451,442.662,140.7432,439.5452,136.3629C436.6361,132.3575,434.9326,128.1444,436.6361,129.1866C437.2604,129.5627,437.301,129.2284,436.8856,128.1444C432.8556,118.424,432.8138,118.3822,432.772,106.9521C432.6897,94.228,434.0182,90.515,441.4564,82.8397C446.1931,77.9162,454.1719,73.2447,450.0989,77.7909C448.8527,79.2092,449.2275,79.1268,452.5508,77.2488C460.778,72.6596,471.0847,71.4503,480.9329,74.0362zM465.0169,92.7679C464.561,93.2263,461.9837,93.9785,459.2417,94.4774C456.5403,94.9789,453.1334,95.897,451.6795,96.5643C450.2243,97.2317,448.5626,97.7737,447.9395,97.8155C446.1931,97.8573,443.0775,100.7775,443.0775,102.3629C443.0775,103.3216,442.6203,103.6141,441.8312,103.3216C440.7497,102.9049,440.7091,103.1139,441.4981,104.574C442.2872,106.0758,442.0807,106.6178,440.3342,108.1197C439.1716,109.0796,437.9659,111.1653,437.6341,112.7925C437.3428,114.3767,436.7197,116.1293,436.3042,116.6713C435.557,117.6312,437.1769,123.5552,439.3793,127.8937C440.0024,129.103,440.3342,130.3124,440.0848,130.5631C439.8353,130.8138,440.4178,131.2305,441.4158,131.5648C442.5367,131.9409,443.5347,131.6901,444.1578,130.9392C445.1127,129.7704,448.0636,128.3115,448.0636,129.0195C448.0636,129.2284,447.69,130.396,447.2328,131.6066C446.2361,134.1925,447.3987,136.3629,449.3517,135.612C450.0166,135.3613,450.5574,135.569,450.5574,136.0704C450.5574,136.5706,450.1825,136.9885,449.7265,136.9885C449.2681,136.9885,448.8945,137.78,448.8945,138.6981C448.8945,140.2836,449.0198,140.3253,450.1825,139.116C450.931,138.4068,452.4267,137.823,453.507,137.823C455.4182,137.823,455.3764,137.6964,452.4267,134.9446C447.6482,130.5631,450.0166,128.3115,456.0413,131.4812C462.2332,134.6939,472.9946,136.3199,472.9946,134.0265C472.9946,133.0249,470.9593,129.4791,470.3362,129.4791C467.3447,129.4791,463.7289,126.892,464.7674,125.5155C465.35,124.7228,464.7269,125.0988,463.3553,126.35C460.488,128.9789,459.4076,129.2702,459.9902,127.1845C460.2385,126.3918,460.8616,124.0972,461.3606,122.1369C462.0255,119.5928,462.8563,118.3404,464.3115,117.7971C465.4336,117.3387,466.3468,116.6308,466.3468,116.1293C466.3468,114.92,465.4336,115.0871,463.6466,116.7549C462.3585,117.8807,459.9066,118.2986,451.929,118.6747C441.5817,119.1749,440.0024,119.0913,442.7444,118.1314C443.6182,117.7971,447.7736,116.1293,451.9695,114.3362C456.1667,112.5836,460.0725,111.1235,460.6539,111.1235C461.1946,111.1235,460.9452,110.5815,460.0725,109.9547C459.1999,109.2873,458.2032,108.9542,457.8283,109.1632C457.4965,109.3709,457.4129,109.0378,457.6624,108.411C457.9119,107.7867,457.1229,106.4101,456.0007,105.3249C452.8839,102.4047,453.3411,102.1122,458.9504,103.4887C462.8563,104.4486,464.1456,105.1578,464.7269,106.6596C465.1423,107.7436,466.0149,108.6212,466.7204,108.6212C468.1756,108.6212,467.593,106.4507,465.9313,105.8251C464.062,105.0742,463.4807,98.2739,465.0169,95.1878C466.3885,92.393,466.3885,91.3913,465.0169,92.7679zM471.333,132.108C471.333,132.9831,467.3447,132.9413,465.1005,131.9814C463.8961,131.4812,464.518,131.3141,467.3853,131.3141C469.5459,131.3558,471.333,131.6901,471.333,132.108zM482.221,123.9718C481.6802,124.5974,480.1427,125.5991,478.7711,126.1411C476.6522,127.0591,476.3191,127.6024,476.4445,130.1883C476.5281,132.5234,476.6522,132.7324,476.9435,131.1469C477.4007,128.561,478.6469,126.9756,480.1845,126.9756C480.8494,126.9756,482.3869,126.0169,483.6331,124.8899C485.2948,123.3462,485.5025,122.8042,484.5057,122.8042C483.7585,122.8042,482.7187,123.3462,482.221,123.9718zM490.2404,110.0813C487.7885,111.0817,487.2072,111.7073,487.5808,112.9166C488.1203,114.6275,486.3333,120.3019,485.2542,120.3019C484.8388,120.3019,484.7958,120.7186,485.1289,121.2606C485.5025,121.8861,486.2104,121.3441,487.0412,119.8005C487.7885,118.4657,488.827,117.2982,489.3678,117.1728C490.8635,116.8803,489.6996,119.5497,487.3313,121.7608C486.251,122.8042,485.5861,124.0136,485.8773,124.4733C486.1674,124.9317,484.6717,126.3082,482.5946,127.5594C478.3557,130.1465,476.4445,132.8159,480.3086,130.8138C486.9577,127.3517,496.7641,115.2948,492.9,115.2948C492.3593,115.2948,492.3593,114.711,492.9824,113.5422C493.4814,112.5836,493.6891,111.5819,493.4396,111.3312C493.1901,111.0817,493.6055,110.3725,494.3958,109.7888C496.4311,108.2451,494.3122,108.3705,490.2404,110.0813zM473.619,118.8418C474.5751,119.884,475.5301,121.6366,475.7378,122.8042C476.0291,124.6404,476.1127,124.681,476.195,123.0537C476.4027,120.2183,474.8246,116.9639,473.2859,116.9639C472.0396,116.9639,472.0814,117.2146,473.619,118.8418zM468.3415,117.9643C467.9261,118.5493,467.7601,119.7169,467.8843,120.5514C468.0084,121.3859,467.6766,122.6371,467.1358,123.3044C466.305,124.2643,466.3468,124.4315,467.3853,124.0136C468.092,123.7641,468.9228,122.1787,469.2141,120.5932C469.8384,117.3817,469.4218,116.2129,468.3415,117.9643zM475.406,113.6676C474.7816,114.0855,474.6157,114.4603,475.0729,114.5021C475.5301,114.5439,476.8599,114.711,477.982,114.8364C479.1459,114.9618,480.6404,114.7528,481.3066,114.2932C482.4274,113.6258,482.4274,113.5852,481.3066,113.8765C480.6404,114.0855,479.2701,113.9183,478.3151,113.5852C477.3589,113.2092,476.0696,113.2927,475.406,113.6676zM460.1143,75.5798C445.6117,80.169,440.3342,88.3876,449.144,92.6007C454.1302,94.9789,460.1143,93.8113,469.0482,88.6383C472.1232,86.8439,474.6575,85.7181,474.6575,86.1348C474.6575,86.5514,473.8684,87.3023,472.9123,87.8038C469.7131,89.5134,468.5492,93.9785,470.0867,98.6082C470.9593,101.2777,471.2506,103.7395,470.8352,105.7833C470.4198,107.9944,470.5439,108.7035,471.2088,108.2869C471.7484,107.9526,472.1638,106.785,472.1638,105.6592C472.1638,104.5322,472.8705,102.9467,473.7013,102.154C480.7658,95.5209,481.8056,95.2284,479.6855,100.4444C479.2701,101.4866,478.6875,103.4052,478.4392,104.6993C478.1062,106.1176,477.15,107.327,475.8632,107.7867C474.7411,108.2451,473.8267,108.9542,473.8267,109.4545C473.8267,110.6651,474.4092,110.4979,476.984,108.6617C478.7711,107.327,480.724,106.9939,486.5422,106.8686C493.0242,106.7432,498.3016,105.2831,492.2757,105.2831C489.9491,105.2831,487.9126,102.4047,483.9244,93.3934C483.509,92.4336,487.7885,92.6425,488.3698,93.6024C488.6611,94.0608,489.326,94.4369,489.8668,94.4369C490.3645,94.4369,489.6996,93.3934,488.3293,92.1423C486.9982,90.8899,485.3366,89.0132,484.6299,88.0127C483.1759,85.8853,464.518,81.0871,457.7042,81.0871C455.6259,81.0871,453.8819,80.7123,453.8819,80.2526C453.8819,79.085,457.1634,79.2092,465.9313,80.6692C470.0449,81.3366,474.8246,81.8798,476.5686,81.9216L479.6855,81.9216L476.984,79.5852C470.5857,74.0792,467.3029,73.2864,460.1143,75.5798zM483.3013,103.1544C485.1289,105.9505,485.0453,106.1176,481.8461,106.1176C479.2701,106.1176,479.1041,105.9505,479.4778,103.6141C479.8932,100.5685,481.4725,100.4026,483.3013,103.1544zM442.7862,84.3834C438.3408,89.055,433.0215,98.2739,433.1456,101.1105C433.1874,101.7791,433.727,101.027,434.3095,99.401C436.5537,93.3099,439.2539,88.9714,443.7424,84.2568C446.2361,81.5873,448.146,79.4193,447.8965,79.4193C447.69,79.4193,445.3622,81.6291,442.7862,84.3834zM439.7529,90.8493C438.3813,93.0174,437.2604,95.1448,437.2604,95.6463C437.301,96.1465,438.1736,95.0207,439.2969,93.1845C440.4178,91.3496,441.7476,89.1803,442.2466,88.3876C442.7444,87.5949,442.9115,86.9275,442.662,86.9275C442.4125,86.9275,441.0827,88.6789,439.7529,90.8493zM498.883,127.0174C500.171,127.7265,500.3369,128.1849,499.5479,129.103C498.427,130.4795,497.4708,130.0629,496.2246,127.7683C495.2266,125.8916,496.2246,125.5991,498.883,127.0174z"/>
	</g>
</g>
</svg>
