<?xml version='1.0' encoding='utf-8'?>
<svg xmlns="http://www.w3.org/2000/svg" version="1.1" id="图层_1" x="0px" y="0px" viewBox="0 0 3300 2200">
  <g id="Guides">
    <g id="H-reference" transform="matrix(1 0 0 1 339 696)">
      <path class="st6" d="M1,0h2.6l25.7-67.1H30v-3.3h-1.9L1,0z M11.7-24.5H47l-0.8-2.2H12.4L11.7-24.5z M55.1,0h2.6L30.6-70.5h-1.2    v3.3L55.1,0z" />
    </g>
    <line id="Baseline-S" class="st7" x1="263" y1="696" x2="3036" y2="696" />
    <line id="Capline-S" class="st7" x1="263" y1="625.5" x2="3036" y2="625.5" />
    <g id="H-reference_00000159449326583301302470000008244968300832230298_" transform="matrix(1 0 0 1 339 1126)">
      <path class="st6" d="M1,0h2.6l25.7-67.1H30v-3.3h-1.9L1,0z M11.7-24.5H47l-0.8-2.2H12.4L11.7-24.5z M55.1,0h2.6L30.6-70.5h-1.2    v3.3L55.1,0z" />
    </g>
    <line id="Baseline-M" class="st7" x1="263" y1="1126" x2="3036" y2="1126" />
    <line id="Capline-M" class="st7" x1="263" y1="1055.5" x2="3036" y2="1055.5" />
    <g id="H-reference_00000065789569473801283150000015638944612170713007_" transform="matrix(1 0 0 1 339 1556)">
      <path class="st6" d="M1,0h2.6l25.7-67.1H30v-3.3h-1.9L1,0z M11.7-24.5H47l-0.8-2.2H12.4L11.7-24.5z M55.1,0h2.6L30.6-70.5h-1.2    v3.3L55.1,0z" />
    </g>
    <line id="Baseline-L" class="st7" x1="263" y1="1556" x2="3036" y2="1556" />
    <line id="Capline-L" class="st7" x1="263" y1="1485.5" x2="3036" y2="1485.5" />
    <line id="left-margin-Regular-M" class="st5" x1="1391.3" y1="1030.8" x2="1391.3" y2="1150.1" />
    <line id="right-margin-Regular-M" class="st5" x1="1508.4" y1="1030.8" x2="1508.4" y2="1150.1" />
  </g>
  <g id="Symbols">
    <g id="Regular-M" transform="matrix(1 0 0 1 1391.32 1126)">
      <path d="M102.6-31.5c-2.6-1.6-5.6,1.8-8.3,4.7c-1.1,1.2-2.4,2.1-3.8,2.7c-7.2,2.8-14.3,2.1-21.4-1l0,0    c-10.8-5.7-16.4-14.8-18.2-26.7c-2.4-15.4,8.5-19.1,19.6-23.1c0.1,0,0.3-0.1,0.4-0.2c0.7-0.6,0.6-1.7-0.1-2.4    c-0.4-0.3-0.8-0.6-1.3-0.8c-20.4-7.1-41.3,5.1-44.8,26c-0.1,0.7-0.1,1.2-0.2,1.9c0,0.1,0,0.2,0,0.2c0.3,17.6,6.7,32.5,20.6,43.9    l0,0c16.3,13.1,45.1,5.9,55.3-14C102.3-23.9,105.9-29.4,102.6-31.5z" />
    </g>
  </g>
</svg>