<?xml version="1.0" encoding="UTF-8" standalone="no"?>
<!-- Created with Pixodesk SVG (https://pixodesk.com) -->
<svg xmlns="http://www.w3.org/2000/svg" viewBox="0 0 3300 2200" text-rendering="geometricPrecision" shape-rendering="geometricPrecision">
  <g id="Notes" transform="translate(8.2639, -9.6592)">
    <rect id="artboard" class="st0" fill="#ffffff" width="3300" height="2200"/>
    <path class="st1" fill="none" stroke="#000000" stroke-width="0.5" d="M263,292L3036,292"/>
    <text class="st2 st3" font-family="Helvetica-Bold" font-size="13px" xml:space="preserve" transform="translate(263, 322)" data-gn-el-type="text" style="white-space:pre"><tspan>Weight/Scale Variations</tspan></text>
    <text class="st4 st3" font-family="Helvetica" font-size="13px" xml:space="preserve" transform="translate(534.0633, 322)" data-gn-el-type="text" style="white-space:pre"><tspan>Ultralight</tspan></text>
    <text class="st4 st3" font-family="Helvetica" font-size="13px" xml:space="preserve" transform="translate(843.7775, 322)" data-gn-el-type="text" style="white-space:pre"><tspan>Thin</tspan></text>
    <text class="st4 st3" font-family="Helvetica" font-size="13px" xml:space="preserve" transform="translate(1139.035, 322)" data-gn-el-type="text" style="white-space:pre"><tspan>Light</tspan></text>
    <text class="st4 st3" font-family="Helvetica" font-size="13px" xml:space="preserve" transform="translate(1427.0773, 322)" data-gn-el-type="text" style="white-space:pre"><tspan>Regular</tspan></text>
    <text class="st4 st3" font-family="Helvetica" font-size="13px" xml:space="preserve" transform="translate(1723.4419, 322)" data-gn-el-type="text" style="white-space:pre"><tspan>Medium</tspan></text>
    <text class="st4 st3" font-family="Helvetica" font-size="13px" xml:space="preserve" transform="translate(2016.1719, 322)" data-gn-el-type="text" style="white-space:pre"><tspan>Semibold</tspan></text>
    <text class="st4 st3" font-family="Helvetica" font-size="13px" xml:space="preserve" transform="translate(2326.9705, 322)" data-gn-el-type="text" style="white-space:pre"><tspan>Bold</tspan></text>
    <text class="st4 st3" font-family="Helvetica" font-size="13px" xml:space="preserve" transform="translate(2618.2659, 322)" data-gn-el-type="text" style="white-space:pre"><tspan>Heavy</tspan></text>
    <text class="st4 st3" font-family="Helvetica" font-size="13px" xml:space="preserve" transform="translate(2917.5054, 322)" data-gn-el-type="text" style="white-space:pre"><tspan>Black</tspan></text>
    <path class="st1" fill="none" stroke="#000000" stroke-width="0.5" d="M263,1903L3036,1903"/>
    <g transform="translate(263, 1933)">
      <path d="M9.2,0.8C10.3,0.8,11.3,0.6,12.2,0.2C13.2,-0.2,14,-0.8,14.7,-1.5C15.4,-2.2,16,-3.1,16.4,-4C16.8,-5,17,-6,17,-7C17,-8,16.8,-9.1,16.4,-10C16,-11,15.4,-11.8,14.7,-12.5C14,-13.2,13.1,-13.8,12.2,-14.2C11.2,-14.6,10.2,-14.8,9.2,-14.8C8.1,-14.8,7.1,-14.6,6.2,-14.2C5.3,-13.8,4.4,-13.2,3.7,-12.5C3,-11.9,2.4,-11,2,-10.1C1.6,-9.1,1.4,-8.1,1.4,-7.1C1.4,-6.1,1.6,-5,2,-4C2.4,-3,3,-2.2,3.7,-1.5C4.4,-0.8,5.3,-0.2,6.2,0.2C7.2,0.6,8.2,0.8,9.2,0.8zM9.2,-0.7C8.3,-0.7,7.5,-0.9,6.7,-1.2C6,-1.5,5.3,-1.9,4.7,-2.5C4.1,-3.1,3.7,-3.8,3.3,-4.5C3,-5.3,2.9,-6.2,2.9,-7.1C2.9,-8,3.1,-8.8,3.4,-9.6C3.7,-10.4,4.2,-11.1,4.8,-11.6C5.4,-12.2,6.1,-12.6,6.8,-13C7.6,-13.3,8.4,-13.5,9.3,-13.5C10.2,-13.5,11,-13.3,11.8,-13C12.6,-12.7,13.3,-12.2,13.8,-11.6C14.4,-11,14.8,-10.3,15.2,-9.6C15.5,-8.8,15.7,-8,15.7,-7.1C15.7,-6.2,15.5,-5.4,15.2,-4.6C14.9,-3.8,14.4,-3.1,13.8,-2.6C13.2,-2,12.5,-1.6,11.8,-1.2C11,-0.8,10.1,-0.7,9.2,-0.7zM5.7,-7.1C5.7,-6.9,5.8,-6.7,5.9,-6.6C6,-6.4,6.2,-6.3,6.4,-6.3L8.5,-6.3L8.5,-4.2C8.5,-4,8.6,-3.8,8.7,-3.7C8.8,-3.5,9,-3.5,9.2,-3.5C9.4,-3.5,9.6,-3.6,9.7,-3.7C9.9,-3.8,10,-4,10,-4.2L10,-6.3L12.1,-6.3C12.3,-6.3,12.5,-6.4,12.6,-6.5C12.7,-6.6,12.8,-6.8,12.8,-7C12.8,-7.2,12.7,-7.4,12.6,-7.5C12.5,-7.6,12.3,-7.7,12.1,-7.7L10,-7.7L10,-9.8C10,-10,9.9,-10.2,9.8,-10.3C9.7,-10.4,9.5,-10.5,9.3,-10.5C9.1,-10.5,8.9,-10.4,8.8,-10.3C8.7,-10.2,8.6,-10,8.6,-9.8L8.6,-7.7L6.4,-7.7C6.2,-7.8,6,-7.7,5.9,-7.6C5.7,-7.5,5.7,-7.3,5.7,-7.1z"/>
    </g>
    <g transform="translate(281.867, 1933)">
      <path d="M11.7,2.9C13.1,2.9,14.3,2.6,15.5,2.1C16.7,1.6,17.8,0.9,18.7,-0.1C19.6,-1,20.3,-2.1,20.9,-3.3C21.4,-4.5,21.7,-5.8,21.7,-7.1C21.7,-8.5,21.4,-9.7,20.9,-10.9C20.4,-12.1,19.7,-13.2,18.7,-14.1C17.8,-15,16.7,-15.7,15.5,-16.3C14.3,-16.8,13,-17.1,11.7,-17.1C10.4,-17.1,9.1,-16.8,7.9,-16.3C6.7,-15.8,5.6,-15.1,4.7,-14.1C3.8,-13.2,3.1,-12.1,2.5,-10.9C2,-9.7,1.7,-8.4,1.7,-7.1C1.7,-5.7,2,-4.5,2.5,-3.3C3,-2.1,3.8,-0.9,4.7,0C5.6,0.9,6.7,1.6,7.9,2.2C9.1,2.8,10.3,2.9,11.7,2.9zM11.7,1.2C10.5,1.2,9.5,1,8.5,0.6C7.5,0.2,6.6,-0.4,5.9,-1.2C5.1,-1.9,4.5,-2.8,4.1,-3.8C3.7,-4.8,3.4,-5.9,3.4,-7.1C3.4,-8.3,3.6,-9.3,4,-10.3C4.4,-11.3,5,-12.2,5.8,-12.9C6.6,-13.7,7.4,-14.3,8.4,-14.7C9.4,-15.1,10.5,-15.3,11.6,-15.3C12.7,-15.3,13.8,-15.1,14.8,-14.7C15.8,-14.3,16.7,-13.7,17.4,-12.9C18.2,-12.1,18.8,-11.3,19.2,-10.3C19.6,-9.3,19.8,-8.2,19.8,-7.1C19.8,-5.9,19.6,-4.9,19.2,-3.9C18.8,-2.9,18.2,-2,17.4,-1.3C16.6,-0.5,15.8,0.1,14.8,0.5C13.8,0.9,12.9,1.2,11.7,1.2zM7.2,-7.1C7.2,-6.9,7.3,-6.7,7.4,-6.5C7.6,-6.3,7.8,-6.2,8,-6.2L10.9,-6.2L10.9,-3.3C10.9,-3.1,11,-2.9,11.1,-2.7C11.2,-2.5,11.4,-2.5,11.7,-2.5C11.9,-2.5,12.1,-2.6,12.3,-2.7C12.5,-2.9,12.5,-3.1,12.5,-3.3L12.5,-6.2L15.4,-6.2C15.6,-6.2,15.8,-6.3,16,-6.4C16.2,-6.5,16.2,-6.7,16.2,-7C16.2,-7.2,16.1,-7.4,16,-7.6C15.8,-7.8,15.6,-7.8,15.4,-7.8L12.5,-7.8L12.5,-10.7C12.5,-11,12.4,-11.2,12.3,-11.3C12.2,-11.4,11.9,-11.5,11.7,-11.5C11.5,-11.5,11.3,-11.4,11.1,-11.3C11,-11.1,10.9,-10.9,10.9,-10.7L10.9,-7.8L8,-7.8C7.7,-7.8,7.5,-7.7,7.4,-7.6C7.3,-7.5,7.2,-7.3,7.2,-7.1z"/>
    </g>
    <g transform="translate(305.646, 1933)">
      <path d="M15,5.7C16.4,5.7,17.7,5.5,19,5.1C20.3,4.7,21.4,4.1,22.5,3.3C23.6,2.5,24.5,1.6,25.3,0.5C26,-0.6,26.6,-1.8,27,-3.1C27.4,-4.4,27.6,-5.7,27.6,-7.1C27.6,-8.5,27.4,-9.8,27,-11.1C26.6,-12.4,26,-13.5,25.2,-14.6C24.4,-15.7,23.5,-16.6,22.4,-17.4C21.3,-18.2,20.2,-18.8,18.9,-19.2C17.6,-19.6,16.3,-19.8,14.9,-19.8C13.5,-19.8,12.2,-19.6,10.9,-19.2C9.6,-18.8,8.5,-18.2,7.4,-17.4C6.3,-16.6,5.4,-15.7,4.6,-14.6C3.8,-13.5,3.2,-12.4,2.8,-11.1C2.4,-9.8,2.2,-8.5,2.2,-7.1C2.2,-5.7,2.4,-4.4,2.8,-3.1C3.2,-1.8,3.8,-0.7,4.6,0.4C5.4,1.5,6.3,2.4,7.4,3.2C8.6,4,9.7,4.6,11,5C12.2,5.4,13.6,5.7,15,5.7zM15,3.8C13.8,3.8,12.6,3.6,11.6,3.2C10.5,2.8,9.5,2.3,8.6,1.7C7.6,1.1,6.8,0.3,6.2,-0.6C5.5,-1.5,5,-2.5,4.6,-3.6C4.3,-4.7,4.1,-5.8,4.1,-7.1C4.1,-8.3,4.3,-9.5,4.6,-10.6C5,-11.7,5.5,-12.7,6.1,-13.6C6.8,-14.5,7.5,-15.3,8.5,-16C9.4,-16.7,10.4,-17.2,11.5,-17.5C12.6,-17.9,13.7,-18,14.9,-18C16.1,-18,17.3,-17.8,18.4,-17.5C19.5,-17.1,20.5,-16.6,21.4,-16C22.3,-15.3,23.1,-14.5,23.8,-13.6C24.5,-12.7,25,-11.7,25.3,-10.6C25.7,-9.5,25.9,-8.4,25.9,-7.1C25.9,-5.9,25.7,-4.7,25.4,-3.7C25,-2.6,24.5,-1.6,23.9,-0.7C23.2,0.2,22.4,1,21.5,1.7C20.6,2.4,19.6,2.9,18.5,3.2C17.3,3.7,16.2,3.8,15,3.8zM9.2,-7.1C9.2,-6.8,9.3,-6.6,9.5,-6.5C9.7,-6.3,9.9,-6.3,10.2,-6.3L14.1,-6.3L14.1,-2.3C14.1,-2,14.2,-1.8,14.3,-1.6C14.5,-1.4,14.7,-1.3,14.9,-1.3C15.2,-1.3,15.4,-1.4,15.6,-1.6C15.8,-1.8,15.9,-2,15.9,-2.3L15.9,-6.3L19.9,-6.3C20.2,-6.3,20.4,-6.4,20.6,-6.5C20.8,-6.7,20.9,-6.9,20.9,-7.1C20.9,-7.4,20.8,-7.6,20.6,-7.8C20.3,-7.9,20.1,-8,19.8,-8L15.8,-8L15.8,-11.9C15.8,-12.2,15.7,-12.4,15.5,-12.6C15.3,-12.8,15.1,-12.9,14.8,-12.9C14.5,-12.9,14.3,-12.8,14.2,-12.6C14,-12.4,14,-12.2,14,-11.9L14,-8L10.1,-8C9.8,-8,9.6,-7.9,9.5,-7.7C9.3,-7.5,9.2,-7.3,9.2,-7.1z"/>
    </g>
    <text class="st2 st3" font-family="Helvetica-Bold" font-size="13px" xml:space="preserve" transform="translate(263, 1953)" data-gn-el-type="text" style="white-space:pre"><tspan>Design Variations</tspan></text>
    <text class="st4 st3" font-family="Helvetica" font-size="13px" xml:space="preserve" transform="translate(263, 1971)" data-gn-el-type="text" style="white-space:pre"><tspan>Symbols are supported in up to nine weights and three scales.</tspan></text>
    <text class="st4 st3" font-family="Helvetica" font-size="13px" xml:space="preserve" transform="translate(263, 1989)" data-gn-el-type="text" style="white-space:pre"><tspan>For optimal layout with text and other symbols, vertically align</tspan></text>
    <text class="st4 st3" font-family="Helvetica" font-size="13px" xml:space="preserve" transform="translate(263, 2007)" data-gn-el-type="text" style="white-space:pre"><tspan>symbols with the adjacent text.</tspan></text>
    <path class="st5" fill="none" stroke="#00aeef" stroke-width="0.5" d="M776,1919L776,1933"/>
    <g transform="translate(776, 1933)">
      <path d="M3.3,0.2C3.6,0.2,3.8,0.1,3.9,0C4,-0.1,4.2,-0.3,4.3,-0.6L5.5,-4L11.3,-4L12.6,-0.6C12.7,-0.3,12.8,-0.1,13,0C13.1,0.1,13.3,0.2,13.6,0.2C13.9,0.2,14.1,0.1,14.2,0C14.4,-0.1,14.4,-0.3,14.4,-0.6C14.4,-0.7,14.4,-0.9,14.3,-1.1L9.7,-13.4C9.6,-13.7,9.4,-13.9,9.2,-14.1C9,-14.2,8.7,-14.3,8.4,-14.3C7.8,-14.3,7.4,-14,7.2,-13.4L2.6,-1.2C2.5,-1,2.5,-0.8,2.5,-0.6C2.5,-0.4,2.6,-0.2,2.7,0C2.8,0.2,3.1,0.2,3.3,0.2zM6,-5.5L8.4,-12.1L8.4,-12.1L10.8,-5.5L6,-5.5z"/>
    </g>
    <path class="st5" fill="none" stroke="#00aeef" stroke-width="0.5" d="M793.2,1919L793.2,1933"/>
    <text class="st2 st3" font-family="Helvetica-Bold" font-size="13px" xml:space="preserve" transform="translate(776, 1953)" data-gn-el-type="text" style="white-space:pre"><tspan>Margins</tspan></text>
    <text class="st4 st3" font-family="Helvetica" font-size="13px" xml:space="preserve" transform="translate(776, 1971)" data-gn-el-type="text" style="white-space:pre"><tspan>Leading and trailing margins on the left and right side of each symbol</tspan></text>
    <text class="st4 st3" font-family="Helvetica" font-size="13px" xml:space="preserve" transform="translate(776, 1989)" data-gn-el-type="text" style="white-space:pre"><tspan>can be adjusted by modifying the x-location of the margin guidelines.</tspan></text>
    <text class="st4 st3" font-family="Helvetica" font-size="13px" xml:space="preserve" transform="translate(776, 2007)" data-gn-el-type="text" style="white-space:pre"><tspan>Modifications are automatically applied proportionally to all</tspan></text>
    <text class="st4 st3" font-family="Helvetica" font-size="13px" xml:space="preserve" transform="translate(776, 2025)" data-gn-el-type="text" style="white-space:pre"><tspan>scales and weights.</tspan></text>
    <g transform="translate(1289, 1933)">
      <path d="M2.8,1.9L4.5,3.6C5,4,5.4,4.2,5.9,4.2C6.4,4.2,6.8,3.9,7.3,3.4L18,-8.4L17,-9.4L6.4,2.3C6.2,2.5,6.1,2.6,5.9,2.6C5.7,2.6,5.5,2.5,5.3,2.3L4.1,1.1C3.9,0.9,3.8,0.7,3.8,0.5C3.8,0.3,3.9,0.1,4.1,0L15.6,-10.8L14.6,-11.8L3,-0.9C2.6,-0.4,2.3,0,2.3,0.5C2.2,1,2.4,1.4,2.8,1.9zM9.3,-16.3C9.1,-16.1,9,-15.9,8.9,-15.6C8.9,-15.3,8.9,-15.1,9,-14.9C9.1,-14.7,9.3,-14.6,9.5,-14.5C9.7,-14.4,10,-14.4,10.3,-14.5C11,-14.7,11.8,-14.7,12.5,-14.7C13.2,-14.7,14,-14.4,14.7,-14L14.1,-12.5C13.9,-12.1,13.9,-11.7,14,-11.4C14.1,-11.1,14.2,-10.8,14.5,-10.5L16.8,-8.2C17,-8,17.3,-7.8,17.5,-7.8C17.7,-7.8,18,-7.8,18.3,-7.8L19.4,-8L20.1,-7.3L20.1,-6.7C20.1,-6.5,20.1,-6.2,20.2,-6C20.3,-5.8,20.4,-5.6,20.7,-5.3L21.5,-4.6C21.7,-4.4,22,-4.2,22.3,-4.2C22.6,-4.2,22.8,-4.3,23.1,-4.5L26,-7.4C26.2,-7.6,26.3,-7.9,26.3,-8.2C26.3,-8.5,26.2,-8.7,25.9,-9L25,-9.9C24.8,-10.1,24.5,-10.3,24.3,-10.4C24.1,-10.5,23.9,-10.5,23.6,-10.5L23,-10.5L22.4,-11.1L22.6,-12.2C22.7,-12.5,22.7,-12.7,22.6,-13C22.5,-13.3,22.3,-13.5,22,-13.8L19.9,-16C19.1,-16.8,18.2,-17.4,17.2,-17.9C16.3,-18.3,15.3,-18.5,14.4,-18.5C13.4,-18.5,12.5,-18.3,11.6,-18C10.8,-17.6,10,-17.1,9.3,-16.3zM10.8,-16C11.4,-16.4,12.1,-16.8,12.7,-16.9C13.4,-17.1,14.1,-17.1,14.8,-17.1C15.5,-17,16.2,-16.8,16.9,-16.5C17.6,-16.2,18.2,-15.8,18.7,-15.2L21.1,-12.8C21.2,-12.7,21.3,-12.6,21.3,-12.5C21.3,-12.4,21.3,-12.2,21.3,-12.1L21,-10.5L22.5,-9L23.5,-9.1C23.6,-9.1,23.7,-9.1,23.8,-9.1C23.9,-9.1,23.9,-9,24,-8.9L24.6,-8.3L22.2,-5.9L21.6,-6.5C21.5,-6.6,21.4,-6.7,21.4,-6.7C21.4,-6.8,21.4,-6.9,21.4,-7L21.5,-8L20,-9.5L18.5,-9.2C18.3,-9.2,18.2,-9.2,18.1,-9.2C18,-9.2,17.9,-9.3,17.8,-9.4L15.8,-11.4C15.7,-11.5,15.6,-11.6,15.6,-11.7C15.6,-11.8,15.6,-12,15.7,-12.1L16.6,-14.2C15.8,-14.9,14.9,-15.4,14,-15.7C13,-16,12,-16,11,-15.7C10.9,-15.7,10.9,-15.7,10.8,-15.7C10.7,-15.9,10.7,-15.9,10.8,-16z"/>
    </g>
    <text class="st2 st3" font-family="Helvetica-Bold" font-size="13px" xml:space="preserve" transform="translate(1289, 1953)" data-gn-el-type="text" style="white-space:pre"><tspan>Exporting</tspan></text>
    <text class="st4 st3" font-family="Helvetica" font-size="13px" xml:space="preserve" transform="translate(1289, 1971)" data-gn-el-type="text" style="white-space:pre"><tspan>Symbols should be outlined when exporting to ensure the</tspan></text>
    <text class="st4 st3" font-family="Helvetica" font-size="13px" xml:space="preserve" transform="translate(1289, 1989)" data-gn-el-type="text" style="white-space:pre"><tspan>design is preserved when submitting to Xcode.</tspan></text>
    <text class="st4 st3" font-family="Helvetica" font-size="13px" xml:space="preserve" transform="translate(2952.4141, 1933)" data-gn-el-type="text" style="white-space:pre"><tspan>Template v.3.0</tspan></text>
    <text class="st4 st3" font-family="Helvetica" font-size="13px" xml:space="preserve" transform="translate(2865.4575, 1951)" data-gn-el-type="text" style="white-space:pre"><tspan>Requires Xcode 13 or greater</tspan></text>
    <text class="st4 st3" font-family="Helvetica" font-size="13px" xml:space="preserve" transform="translate(2809.1411, 1969)" data-gn-el-type="text" style="white-space:pre"><tspan>Generated from exclamationmark.circle</tspan></text>
    <text class="st4 st3" font-family="Helvetica" font-size="13px" xml:space="preserve" transform="translate(2912.4111, 1987)" data-gn-el-type="text" style="white-space:pre"><tspan>Typeset at 100 points</tspan></text>
    <text class="st4 st3" font-family="Helvetica" font-size="13px" xml:space="preserve" transform="translate(263, 726)" data-gn-el-type="text" style="white-space:pre"><tspan>Small</tspan></text>
    <text class="st4 st3" font-family="Helvetica" font-size="13px" xml:space="preserve" transform="translate(263, 1156)" data-gn-el-type="text" style="white-space:pre"><tspan>Medium</tspan></text>
    <text class="st4 st3" font-family="Helvetica" font-size="13px" xml:space="preserve" transform="translate(263, 1586)" data-gn-el-type="text" style="white-space:pre"><tspan>Large</tspan></text>
  </g>
  <g id="Guides">
    <g id="H-reference" transform="translate(339, 696)">
      <path class="st6" fill="#27aae1" d="M1,0L3.6,0L29.3,-67.1L30,-67.1L30,-70.4L28.1,-70.4L1,0zM11.7,-24.5L47,-24.5L46.2,-26.7L12.4,-26.7L11.7,-24.5zM55.1,0L57.7,0L30.6,-70.5L29.4,-70.5L29.4,-67.2L55.1,0z"/>
    </g>
    <path id="Baseline-S" class="st7" fill="none" stroke="#27aae1" stroke-width="0.5" d="M263,696L3036,696"/>
    <path id="Capline-S" class="st7" fill="none" stroke="#27aae1" stroke-width="0.5" d="M263,625.5L3036,625.5"/>
    <g id="H-reference_00000159449326583301302470000008244968300832230298_" transform="translate(339, 1126)">
      <path class="st6" fill="#27aae1" d="M1,0L3.6,0L29.3,-67.1L30,-67.1L30,-70.4L28.1,-70.4L1,0zM11.7,-24.5L47,-24.5L46.2,-26.7L12.4,-26.7L11.7,-24.5zM55.1,0L57.7,0L30.6,-70.5L29.4,-70.5L29.4,-67.2L55.1,0z"/>
    </g>
    <path id="Baseline-M" class="st7" fill="none" stroke="#27aae1" stroke-width="0.5" d="M263,1126L3036,1126"/>
    <path id="Capline-M" class="st7" fill="none" stroke="#27aae1" stroke-width="0.5" d="M263,1055.5L3036,1055.5"/>
    <g id="H-reference_00000065789569473801283150000015638944612170713007_" transform="translate(339, 1556)">
      <path class="st6" fill="#27aae1" d="M1,0L3.6,0L29.3,-67.1L30,-67.1L30,-70.4L28.1,-70.4L1,0zM11.7,-24.5L47,-24.5L46.2,-26.7L12.4,-26.7L11.7,-24.5zM55.1,0L57.7,0L30.6,-70.5L29.4,-70.5L29.4,-67.2L55.1,0z"/>
    </g>
    <path id="Baseline-L" class="st7" fill="none" stroke="#27aae1" stroke-width="0.5" d="M263,1556L3036,1556"/>
    <path id="Capline-L" class="st7" fill="none" stroke="#27aae1" stroke-width="0.5" d="M263,1485.5L3036,1485.5"/>
    <path id="left-margin-Regular-M" class="st5" fill="none" stroke="#00aeef" stroke-width="0.5" d="M1391.3,1030.8L1391.3,1150.1"/>
    <path id="right-margin-Regular-M" class="st5" fill="none" stroke="#00aeef" stroke-width="0.5" d="M1508.4,1030.8L1508.4,1150.1"/>
  </g>
  <g id="Regular-M" transform="translate(1403.566, 1136.7)scale(0.0469, -0.0469)">
    <path d="M704,1920C595,1841,584,1823,434,1440C173,777,117,575,167,479C182,450,200,403,207,374C215,342,246,308,285,288C321,269,391,221,440,180C682,-20,875,-44,1038,107C1145,207,1573,787,1600,870C1614,912,1655,972,1692,1004C1902,1189,1925,1576,1737,1752C1522,1952,890,2055,704,1920zM1260,1881C1332,1859,1415,1840,1446,1840C1572,1840,1755,1699,1730,1621C1715,1572,1565,1566,1575,1615C1582,1651,1481,1713,1462,1683C1440,1648,1360,1732,1360,1791C1360,1821,1349,1840,1330,1840C1314,1840,1300,1831,1300,1820C1300,1789,1237,1797,1197,1833C1151,1875,988,1888,1023,1847C1039,1827,1052,1825,1072,1841C1102,1867,1140,1850,1140,1811C1140,1797,1154,1773,1171,1759C1191,1742,1195,1727,1182,1714C1168,1700,1152,1702,1133,1717C1111,1736,1102,1735,1093,1711C1076,1667,1014,1696,1026,1742C1033,1766,1022,1783,996,1791C972,1799,961,1815,968,1833C975,1850,971,1857,959,1849C929,1831,836,1857,850,1881C877,1923,823,1897,794,1853C760,1802,762,1797,860,1679C991,1523,1463,1220,1576,1220C1626,1220,1713,1289,1764,1368C1804,1431,1808,1410,1778,1303C1751,1211,1600,1112,1514,1131C1326,1172,710,1617,765,1672C773,1679,765,1704,749,1727C733,1750,720,1787,719,1809C719,1848,718,1848,698,1814C671,1768,702,1686,793,1567C829,1520,846,1486,832,1492C818,1497,776,1542,739,1591C654,1705,657,1706,584,1539L522,1398L559,1332C579,1295,607,1248,620,1228C641,1193,425,696,345,595C334,581,313,537,299,496C243,337,176,524,227,697C368,1171,641,1834,706,1859C731,1868,765,1891,780,1911C818,1956,1071,1941,1260,1881zM1450,1573C1580,1512,1629,1457,1612,1391C1592,1311,1523,1308,1382,1379C1124,1509,1189,1695,1450,1573zM799,1405C730,1282,632,1360,694,1490L728,1561L779,1510C827,1462,828,1456,799,1405zM940,1369C940,1360,865,1219,825,1152C818,1141,806,1154,796,1179C780,1224,802,1278,868,1354C890,1379,940,1389,940,1369zM773,1090C896,977,1231,818,1354,814C1476,809,1481,827,1265,521C896,-1,787,-34,424,268L306,366L445,658C522,819,605,997,631,1055C687,1180,677,1177,773,1090zM1450,1092C1494,1060,1465,960,1412,960C1396,960,1380,953,1375,945C1370,937,1371,944,1377,960C1383,977,1388,1019,1388,1055C1389,1128,1396,1132,1450,1092zM1560,968C1560,914,1493,827,1454,830C1404,834,1404,837,1453,920C1483,971,1560,1005,1560,968z"/>
    <path d="M332,906C303,831,281,760,281,750C282,739,309,797,341,879C373,960,396,1031,392,1035C388,1039,361,981,332,906z"/>
    <path d="M665,1075C607,1003,622,920,680,990C694,1007,717,1020,732,1020C766,1020,768,1044,736,1076C706,1106,690,1106,665,1075z"/>
    <path d="M749,807C684,748,592,680,545,655C437,598,438,574,550,509C674,436,670,391,536,332C370,259,577,199,828,248L907,263L870,207C830,145,855,158,942,243C960,261,1027,313,1090,360L1206,446L1160,480C1129,503,1122,519,1138,528C1170,549,1240,691,1240,738C1240,769,1215,784,1125,811C1062,829,978,859,939,878L868,913L749,807zM1120,788C1223,771,1185,571,1070,527C978,492,985,555,1082,627C1225,734,1190,740,1032,636C871,530,871,533,1029,488C1168,448,1173,426,1054,379C1019,365,977,342,960,329C918,295,740,260,609,260C494,260,464,287,554,309C605,322,759,420,759,440C760,446,696,480,617,517L474,585L584,644C645,676,733,742,780,790L865,876L954,838C1003,817,1078,794,1120,788z"/>
  </g>
</svg>