<?xml version='1.0' encoding='utf-8'?>
<svg xmlns="http://www.w3.org/2000/svg" version="1.1" viewBox="0 0 3300 2200">
  <g id="Guides">
    <g id="H-reference" style="fill:#27AAE1;stroke:none;" transform="matrix(1 0 0 1 339 696)">
      <path d="M0.993654 0L3.63775 0L29.3281-67.1323L30.0303-67.1323L30.0303-70.459L28.1226-70.459ZM11.6885-24.4799L46.9815-24.4799L46.2315-26.7285L12.4385-26.7285ZM55.1196 0L57.7637 0L30.6382-70.459L29.4326-70.459L29.4326-67.1323Z" />
    </g>
    <line id="Baseline-S" style="fill:none;stroke:#27AAE1;opacity:1;stroke-width:0.5;" x1="263" x2="3036" y1="696" y2="696" />
    <line id="Capline-S" style="fill:none;stroke:#27AAE1;opacity:1;stroke-width:0.5;" x1="263" x2="3036" y1="625.541" y2="625.541" />
    <g id="H-reference" style="fill:#27AAE1;stroke:none;" transform="matrix(1 0 0 1 339 1126)">
      <path d="M0.993654 0L3.63775 0L29.3281-67.1323L30.0303-67.1323L30.0303-70.459L28.1226-70.459ZM11.6885-24.4799L46.9815-24.4799L46.2315-26.7285L12.4385-26.7285ZM55.1196 0L57.7637 0L30.6382-70.459L29.4326-70.459L29.4326-67.1323Z" />
    </g>
    <line id="Baseline-M" style="fill:none;stroke:#27AAE1;opacity:1;stroke-width:0.5;" x1="263" x2="3036" y1="1126" y2="1126" />
    <line id="Capline-M" style="fill:none;stroke:#27AAE1;opacity:1;stroke-width:0.5;" x1="263" x2="3036" y1="1055.54" y2="1055.54" />
    <g id="H-reference" style="fill:#27AAE1;stroke:none;" transform="matrix(1 0 0 1 339 1556)">
      <path d="M0.993654 0L3.63775 0L29.3281-67.1323L30.0303-67.1323L30.0303-70.459L28.1226-70.459ZM11.6885-24.4799L46.9815-24.4799L46.2315-26.7285L12.4385-26.7285ZM55.1196 0L57.7637 0L30.6382-70.459L29.4326-70.459L29.4326-67.1323Z" />
    </g>
    <line id="Baseline-L" style="fill:none;stroke:#27AAE1;opacity:1;stroke-width:0.5;" x1="263" x2="3036" y1="1556" y2="1556" />
    <line id="Capline-L" style="fill:none;stroke:#27AAE1;opacity:1;stroke-width:0.5;" x1="263" x2="3036" y1="1485.54" y2="1485.54" />
    <line id="right-margin" style="fill:none;stroke:#00AEEF;stroke-width:0.5;opacity:1.0;" x1="1508.37" x2="1508.37" y1="1030.79" y2="1150.12" />
    <line id="left-margin" style="fill:none;stroke:#00AEEF;stroke-width:0.5;opacity:1.0;" x1="1391.32" x2="1391.32" y1="1030.79" y2="1150.12" />
  </g>
  <g id="Symbols">
    <g id="Black-L" transform="matrix(1 0 0 1 2854.19 1556)">
      <path d="M79.1958 32.6673C116.725 32.6673 147.154 2.25907 147.154-35.2697C147.154-72.7985 116.725-103.207 79.1958-103.207C41.6878-103.207 11.2588-72.7985 11.2588-35.2697C11.2588 2.25907 41.6878 32.6673 79.1958 32.6673ZM79.1958 12.5197C52.7846 12.5197 31.426-8.85853 31.426-35.2697C31.426-61.6809 52.7846-83.0592 79.1958-83.0592C105.607-83.0592 126.985-61.6809 126.985-35.2697C126.985-8.85853 105.607 12.5197 79.1958 12.5197ZM55.3204-9.32474L103.05-9.32474C109.915-9.32474 113.848-13.2376 113.848-20.0817L113.848-40.6555L44.523-40.6555L44.523-20.0817C44.523-13.2364 48.4555-9.32474 55.3204-9.32474ZM57.2526-19.232C55.5417-19.232 54.3938-20.3215 54.3938-21.9739L54.3938-27.2552C54.3938-28.8869 55.5417-29.9763 57.2526-29.9763L64.2459-29.9763C65.9204-29.9763 67.0683-28.8869 67.0683-27.2552L67.0683-21.9739C67.0683-20.3215 65.9204-19.232 64.2459-19.232ZM44.523-47.9989L113.848-47.9989L113.848-50.2992C113.848-57.1433 109.915-61.0562 103.05-61.0562L55.3204-61.0562C48.4555-61.0562 44.523-57.1445 44.523-50.2992Z" />
    </g>
    <g id="Heavy-L" transform="matrix(1 0 0 1 2558.42 1556)">
      <path d="M78.2532 31.7248C115.263 31.7248 145.278 1.74009 145.278-35.2697C145.278-72.2795 115.263-102.264 78.2532-102.264C41.2736-102.264 11.2588-72.2795 11.2588-35.2697C11.2588 1.74009 41.2736 31.7248 78.2532 31.7248ZM78.2532 13.9829C51.0308 13.9829 29.0252-8.04727 29.0252-35.2697C29.0252-62.4921 51.0308-84.5223 78.2532-84.5223C105.476-84.5223 127.506-62.4921 127.506-35.2697C127.506-8.04727 105.476 13.9829 78.2532 13.9829ZM53.7785-9.31659L102.698-9.31659C109.414-9.31659 113.169-13.0464 113.169-19.7327L113.169-41.0113L43.3076-41.0113L43.3076-19.7327C43.3076-13.0408 47.062-9.31659 53.7785-9.31659ZM55.961-19.0925C54.2364-19.0925 53.0747-20.2096 53.0747-21.8896L53.0747-27.2625C53.0747-28.9123 54.2364-30.0293 55.961-30.0293L63.0641-30.0293C64.7799-30.0293 65.9416-28.9123 65.9416-27.2625L65.9416-21.8896C65.9416-20.2096 64.7799-19.0925 63.0641-19.0925ZM43.3076-48.2587L113.169-48.2587L113.169-50.6571C113.169-57.3434 109.414-61.0732 102.698-61.0732L53.7785-61.0732C47.062-61.0732 43.3076-57.349 43.3076-50.6571Z" />
    </g>
    <g id="Bold-L" transform="matrix(1 0 0 1 2262.89 1556)">
      <path d="M77.0704 30.5419C113.427 30.5419 142.92 1.08726 142.92-35.2697C142.92-71.6267 113.427-101.081 77.0704-101.081C40.7514-101.081 11.2588-71.6267 11.2588-35.2697C11.2588 1.08726 40.7514 30.5419 77.0704 30.5419ZM77.0704 15.7963C48.8414 15.7963 26.0292-7.04073 26.0292-35.2697C26.0292-63.4987 48.8414-86.3357 77.0704-86.3357C105.299-86.3357 128.136-63.4987 128.136-35.2697C128.136-7.04073 105.299 15.7963 77.0704 15.7963ZM51.8876-9.36099L102.215-9.36099C108.717-9.36099 112.257-12.8753 112.257-19.3396L112.257-41.4493L41.8462-41.4493L41.8462-19.3396C41.8462-12.8621 45.3853-9.36099 51.8876-9.36099ZM54.385-18.9607C52.645-18.9607 51.4679-20.1085 51.4679-21.8194L51.4679-27.3C51.4679-28.9729 52.645-30.1207 54.385-30.1207L61.6189-30.1207C63.381-30.1207 64.5581-28.9729 64.5581-27.3L64.5581-21.8194C64.5581-20.1085 63.381-18.9607 61.6189-18.9607ZM41.8462-48.5814L112.257-48.5814L112.257-51.0654C112.257-57.5297 108.717-61.044 102.215-61.044L51.8876-61.044C45.3853-61.044 41.8462-57.5429 41.8462-51.0654Z" />
    </g>
    <g id="Semibold-L" transform="matrix(1 0 0 1 1966.99 1556)">
      <path d="M76.2549 29.7265C112.162 29.7265 141.294 0.637211 141.294-35.2697C141.294-71.1766 112.162-100.266 76.2549-100.266C40.3914-100.266 11.2588-71.1766 11.2588-35.2697C11.2588 0.637211 40.3914 29.7265 76.2549 29.7265ZM76.2549 17.0464C47.3321 17.0464 23.9637-6.34682 23.9637-35.2697C23.9637-64.1926 47.3321-87.5858 76.2549-87.5858C105.178-87.5858 128.571-64.1926 128.571-35.2697C128.571-6.34682 105.178 17.0464 76.2549 17.0464ZM50.5841-9.39161L101.882-9.39161C108.237-9.39161 111.628-12.7574 111.628-19.0686L111.628-41.7513L40.8388-41.7513L40.8388-19.0686C40.8388-12.7389 44.2295-9.39161 50.5841-9.39161ZM53.2986-18.8697C51.5479-18.8697 50.3602-20.0389 50.3602-21.771L50.3602-27.3259C50.3602-29.0146 51.5479-30.1838 53.2986-30.1838L60.6227-30.1838C62.4166-30.1838 63.6043-29.0146 63.6043-27.3259L63.6043-21.771C63.6043-20.0389 62.4166-18.8697 60.6227-18.8697ZM40.8388-48.8038L111.628-48.8038L111.628-51.3469C111.628-57.6582 108.237-61.0239 101.882-61.0239L50.5841-61.0239C44.2295-61.0239 40.8388-57.6766 40.8388-51.3469Z" />
    </g>
    <g id="Medium-L" transform="matrix(1 0 0 1 1670.9 1556)">
      <path d="M75.6366 29.1081C111.202 29.1081 140.062 0.295961 140.062-35.2697C140.062-70.8354 111.202-99.6475 75.6366-99.6475C40.1184-99.6475 11.2588-70.8354 11.2588-35.2697C11.2588 0.295961 40.1184 29.1081 75.6366 29.1081ZM75.6366 17.9943C46.1876 17.9943 22.3976-5.82067 22.3976-35.2697C22.3976-64.7187 46.1876-88.5337 75.6366-88.5337C105.086-88.5337 128.901-64.7187 128.901-35.2697C128.901-5.82067 105.086 17.9943 75.6366 17.9943ZM49.5957-9.41482L101.63-9.41482C107.873-9.41482 111.151-12.6679 111.151-18.8631L111.151-41.9803L40.0749-41.9803L40.0749-18.8631C40.0749-12.6455 43.353-9.41482 49.5957-9.41482ZM52.4748-18.8008C50.7161-18.8008 49.5203-19.9861 49.5203-21.7343L49.5203-27.3455C49.5203-29.0463 50.7161-30.2315 52.4748-30.2315L59.8672-30.2315C61.6854-30.2315 62.8811-29.0463 62.8811-27.3455L62.8811-21.7343C62.8811-19.9861 61.6854-18.8008 59.8672-18.8008ZM40.0749-48.9725L111.151-48.9725L111.151-51.5603C111.151-57.7556 107.873-61.0087 101.63-61.0087L49.5957-61.0087C43.353-61.0087 40.0749-57.778 40.0749-51.5603Z" />
    </g>
    <g id="Regular-L" transform="matrix(1 0 0 1 1374.99 1556)">
      <path d="M74.8301 28.3017C109.951 28.3017 138.454-0.149147 138.454-35.2697C138.454-70.3903 109.951-98.8411 74.8301-98.8411C39.7624-98.8411 11.2588-70.3903 11.2588-35.2697C11.2588-0.149147 39.7624 28.3017 74.8301 28.3017ZM74.8301 19.2307C44.6948 19.2307 20.3549-5.13439 20.3549-35.2697C20.3549-65.405 44.6948-89.7701 74.8301-89.7701C104.965-89.7701 129.331-65.405 129.331-35.2697C129.331-5.13439 104.965 19.2307 74.8301 19.2307ZM48.3065-9.4451L101.301-9.4451C107.398-9.4451 110.529-12.5513 110.529-18.5951L110.529-42.279L39.0786-42.279L39.0786-18.5951C39.0786-12.5236 42.2099-9.4451 48.3065-9.4451ZM51.4003-18.7108C49.6311-18.7108 48.4248-19.9171 48.4248-21.6864L48.4248-27.3711C48.4248-29.0876 49.6311-30.2939 51.4003-30.2939L58.8819-30.2939C60.7316-30.2939 61.9379-29.0876 61.9379-27.3711L61.9379-21.6864C61.9379-19.9171 60.7316-18.7108 58.8819-18.7108ZM39.0786-49.1925L110.529-49.1925L110.529-51.8388C110.529-57.8826 107.398-60.9888 101.301-60.9888L48.3065-60.9888C42.2099-60.9888 39.0786-57.9103 39.0786-51.8388Z" />
    </g>
    <g id="Light-L" transform="matrix(1 0 0 1 1079.2 1556)">
      <path d="M73.9141 27.3856C108.519 27.3856 136.603-0.66445 136.603-35.2697C136.603-69.875 108.519-97.925 73.9141-97.925C39.3425-97.925 11.2588-69.875 11.2588-35.2697C11.2588-0.66445 39.3425 27.3856 73.9141 27.3856ZM73.9141 20.4903C43.0726 20.4903 18.141-4.42824 18.141-35.2697C18.141-66.1112 43.0726-91.0297 73.9141-91.0297C104.756-91.0297 129.674-66.1112 129.674-35.2697C129.674-4.42824 104.756 20.4903 73.9141 20.4903ZM47.1232-9.82681L100.671-9.82681C106.424-9.82681 109.441-12.8566 109.441-18.576L109.441-42.5653L38.3533-42.5653L38.3533-18.576C38.3533-12.8099 41.3701-9.82681 47.1232-9.82681ZM50.4651-18.8826C48.6959-18.8826 47.4896-20.0889 47.4896-21.8582L47.4896-27.581C47.4896-29.3166 48.6959-30.5229 50.4651-30.5229L58.004-30.5229C59.8536-30.5229 61.0599-29.3166 61.0599-27.581L61.0599-21.8582C61.0599-20.0889 59.8536-18.8826 58.004-18.8826ZM38.3533-49.4216L109.441-49.4216L109.441-51.896C109.441-57.6154 106.424-60.6452 100.671-60.6452L47.1232-60.6452C41.3701-60.6452 38.3533-57.6622 38.3533-51.896Z" />
    </g>
    <g id="Thin-L" transform="matrix(1 0 0 1 783.716 1556)">
      <path d="M72.7024 26.174C106.626 26.174 134.155-1.34598 134.155-35.2697C134.155-69.1934 106.626-96.7134 72.7024-96.7134C38.7872-96.7134 11.2588-69.1934 11.2588-35.2697C11.2588-1.34598 38.7872 26.174 72.7024 26.174ZM72.7024 22.1563C40.927 22.1563 15.2129-3.49429 15.2129-35.2697C15.2129-67.0451 40.927-92.6957 72.7024-92.6957C104.478-92.6957 130.128-67.0451 130.128-35.2697C130.128-3.49429 104.478 22.1563 72.7024 22.1563ZM45.5582-10.3316L99.8383-10.3316C105.137-10.3316 108.002-13.2605 108.002-18.5508L108.002-42.9439L37.3942-42.9439L37.3942-18.5508C37.3942-13.1885 40.2595-10.3316 45.5582-10.3316ZM49.2283-19.1098C47.459-19.1098 46.2527-20.3161 46.2527-22.0853L46.2527-27.8587C46.2527-29.6195 47.459-30.8258 49.2283-30.8258L56.8428-30.8258C58.6925-30.8258 59.8988-29.6195 59.8988-27.8587L59.8988-22.0853C59.8988-20.3161 58.6925-19.1098 56.8428-19.1098ZM37.3942-49.7245L108.002-49.7245L108.002-51.9717C108.002-57.262 105.137-60.1909 99.8383-60.1909L45.5582-60.1909C40.2595-60.1909 37.3942-57.334 37.3942-51.9717Z" />
    </g>
    <g id="Ultralight-L" transform="matrix(1 0 0 1 487.631 1556)">
      <path d="M72.0819 25.5534C105.657 25.5534 132.9-1.69505 132.9-35.2697C132.9-68.8443 105.657-96.0928 72.0819-96.0928C38.5027-96.0928 11.2588-68.8443 11.2588-35.2697C11.2588-1.69505 38.5027 25.5534 72.0819 25.5534ZM72.0819 23.0096C39.8281 23.0096 13.7132-3.01593 13.7132-35.2697C13.7132-67.5235 39.8281-93.549 72.0819-93.549C104.336-93.549 130.361-67.5235 130.361-35.2697C130.361-3.01593 104.336 23.0096 72.0819 23.0096ZM44.7566-10.5902L99.4116-10.5902C104.478-10.5902 107.265-13.4674 107.265-18.5379L107.265-43.1378L36.9029-43.1378L36.9029-18.5379C36.9029-13.3825 39.6906-10.5902 44.7566-10.5902ZM48.5948-19.2262C46.8255-19.2262 45.6192-20.4324 45.6192-22.2017L45.6192-28.0009C45.6192-29.7746 46.8255-30.9809 48.5948-30.9809L56.2481-30.9809C58.0978-30.9809 59.3041-29.7746 59.3041-28.0009L59.3041-22.2017C59.3041-20.4324 58.0978-19.2262 56.2481-19.2262ZM36.9029-49.8796L107.265-49.8796L107.265-52.0105C107.265-57.081 104.478-59.9582 99.4116-59.9582L44.7566-59.9582C39.6906-59.9582 36.9029-57.1659 36.9029-52.0105Z" />
    </g>
    <g id="Black-M" transform="matrix(1 0 0 1 2871.36 1126)">
      <path d="M62.0422 18.0589C91.4936 18.0589 115.367-5.80932 115.367-35.2606C115.367-64.712 91.4936-88.5802 62.0422-88.5802C32.5964-88.5802 8.72266-64.712 8.72266-35.2606C8.72266-5.80932 32.5964 18.0589 62.0422 18.0589ZM62.0422 0.677054C42.1819 0.677054 26.1103-15.4003 26.1103-35.2606C26.1103-55.1209 42.1819-71.1983 62.0422-71.1983C81.9025-71.1983 97.9799-55.1209 97.9799-35.2606C97.9799-15.4003 81.9025 0.677054 62.0422 0.677054ZM44.0239-15.2187L80.055-15.2187C85.4546-15.2187 88.6389-18.3972 88.6389-23.7913L88.6389-39.1664L35.4401-39.1664L35.4401-23.7913C35.4401-18.3975 38.6244-15.2187 44.0239-15.2187ZM45.3393-22.9787C44.0257-22.9787 43.1482-23.799 43.1482-25.0556L43.1482-29.0737C43.1482-30.3248 44.0257-31.1451 45.3393-31.1451L50.6708-31.1451C51.9325-31.1451 52.81-30.3248 52.81-29.0737L52.81-25.0556C52.81-23.799 51.9325-22.9787 50.6708-22.9787ZM35.4401-44.9303L88.6389-44.9303L88.6389-46.6048C88.6389-51.9989 85.4546-55.1774 80.055-55.1774L44.0239-55.1774C38.6244-55.1774 35.4401-51.9986 35.4401-46.6048Z" />
    </g>
    <g id="Heavy-M" transform="matrix(1 0 0 1 2575.48 1126)">
      <path d="M61.2053 17.222C90.1969 17.222 113.704-6.26912 113.704-35.2606C113.704-64.2522 90.1969-87.7433 61.2053-87.7433C32.2302-87.7433 8.72266-64.2522 8.72266-35.2606C8.72266-6.26912 32.2302 17.222 61.2053 17.222ZM61.2053 1.99116C40.6171 1.99116 23.9677-14.6724 23.9677-35.2606C23.9677-55.8489 40.6171-72.5124 61.2053-72.5124C81.7936-72.5124 98.4571-55.8489 98.4571-35.2606C98.4571-14.6724 81.7936 1.99116 61.2053 1.99116ZM42.6257-15.1755L79.7685-15.1755C85.0547-15.1755 88.0754-18.1821 88.0754-23.4518L88.0754-39.4877L34.3189-39.4877L34.3189-23.4518C34.3189-18.1798 37.3396-15.1755 42.6257-15.1755ZM44.1629-22.8265C42.8359-22.8265 41.9449-23.6738 41.9449-24.9573L41.9449-29.0614C41.9449-30.3285 42.8359-31.1758 44.1629-31.1758L49.5964-31.1758C50.8986-31.1758 51.7895-30.3285 51.7895-29.0614L51.7895-24.9573C51.7895-23.6738 50.8986-22.8265 49.5964-22.8265ZM34.3189-45.1631L88.0754-45.1631L88.0754-46.9494C88.0754-52.2191 85.0547-55.2257 79.7685-55.2257L42.6257-55.2257C37.3396-55.2257 34.3189-52.2214 34.3189-46.9494Z" />
    </g>
    <g id="Bold-M" transform="matrix(1 0 0 1 2279.69 1126)">
      <path d="M60.2692 16.2859C88.7463 16.2859 111.844-6.78347 111.844-35.2606C111.844-63.7378 88.7463-86.8071 60.2692-86.8071C31.8206-86.8071 8.72266-63.7378 8.72266-35.2606C8.72266-6.78347 31.8206 16.2859 60.2692 16.2859ZM60.2692 3.46117C38.8667 3.46117 21.5708-13.8582 21.5708-35.2606C21.5708-56.6631 38.8667-73.9825 60.2692-73.9825C81.6717-73.9825 98.991-56.6631 98.991-35.2606C98.991-13.8582 81.6717 3.46117 60.2692 3.46117ZM41.0616-15.1272L79.4481-15.1272C84.6074-15.1272 87.4451-17.9415 87.4451-23.0721L87.4451-39.8471L33.0646-39.8471L33.0646-23.0721C33.0646-17.9363 35.9023-15.1272 41.0616-15.1272ZM42.8471-22.6563C41.5049-22.6563 40.5989-23.5338 40.5989-24.8474L40.5989-29.0477C40.5989-30.3327 41.5049-31.2101 42.8471-31.2101L48.3947-31.2101C49.742-31.2101 50.648-30.3327 50.648-29.0477L50.648-24.8474C50.648-23.5338 49.742-22.6563 48.3947-22.6563ZM33.0646-45.4235L87.4451-45.4235L87.4451-47.3348C87.4451-52.4655 84.6074-55.2797 79.4481-55.2797L41.0616-55.2797C35.9023-55.2797 33.0646-52.4706 33.0646-47.3348Z" />
    </g>
    <g id="Semibold-M" transform="matrix(1 0 0 1 1983.62 1126)">
      <path d="M59.6238 15.6405C87.7463 15.6405 110.562-7.13807 110.562-35.2606C110.562-63.3832 87.7463-86.1618 59.6238-86.1618C31.5382-86.1618 8.72266-63.3832 8.72266-35.2606C8.72266-7.13807 31.5382 15.6405 59.6238 15.6405ZM59.6238 4.47459C37.6599 4.47459 19.9185-13.2968 19.9185-35.2606C19.9185-57.2245 37.6599-74.9959 59.6238-74.9959C81.5876-74.9959 99.359-57.2245 99.359-35.2606C99.359-13.2968 81.5876 4.47459 59.6238 4.47459ZM39.9834-15.0939L79.2271-15.0939C84.299-15.0939 87.0106-17.7756 87.0106-22.8104L87.0106-40.0949L32.1999-40.0949L32.1999-22.8104C32.1999-17.7685 34.9115-15.0939 39.9834-15.0939ZM41.9399-22.539C40.5874-22.539 39.6709-23.4372 39.6709-24.7716L39.6709-29.0382C39.6709-30.3355 40.5874-31.2338 41.9399-31.2338L47.5662-31.2338C48.9447-31.2338 49.8611-30.3355 49.8611-29.0382L49.8611-24.7716C49.8611-23.4372 48.9447-22.539 47.5662-22.539ZM32.1999-45.6031L87.0106-45.6031L87.0106-47.6005C87.0106-52.6353 84.299-55.317 79.2271-55.317L39.9834-55.317C34.9115-55.317 32.1999-52.6424 32.1999-47.6005Z" />
    </g>
    <g id="Medium-M" transform="matrix(1 0 0 1 1687.4 1126)">
      <path d="M59.1344 15.1511C86.9881 15.1511 109.59-7.40694 109.59-35.2606C109.59-63.1144 86.9881-85.6724 59.1344-85.6724C31.3241-85.6724 8.72266-63.1144 8.72266-35.2606C8.72266-7.40694 31.3241 15.1511 59.1344 15.1511ZM59.1344 5.24301C36.7449 5.24301 18.6656-12.8711 18.6656-35.2606C18.6656-57.6501 36.7449-75.7643 59.1344-75.7643C81.5239-75.7643 99.6381-57.6501 99.6381-35.2606C99.6381-12.8711 81.5239 5.24301 59.1344 5.24301ZM39.1658-15.0687L79.0596-15.0687C84.0651-15.0687 86.6811-17.6498 86.6811-22.6119L86.6811-40.2828L31.5443-40.2828L31.5443-22.6119C31.5443-17.6412 34.1602-15.0687 39.1658-15.0687ZM41.2521-22.45C39.8916-22.45 38.9673-23.364 38.9673-24.7141L38.9673-29.031C38.9673-30.3377 39.8916-31.2517 41.2521-31.2517L46.938-31.2517C48.3401-31.2517 49.2644-30.3377 49.2644-29.031L49.2644-24.7141C49.2644-23.364 48.3401-22.45 46.938-22.45ZM31.5443-45.7392L86.6811-45.7392L86.6811-47.802C86.6811-52.7641 84.0651-55.3452 79.0596-55.3452L39.1658-55.3452C34.1602-55.3452 31.5443-52.7727 31.5443-47.802Z" />
    </g>
    <g id="Regular-M" transform="matrix(1 0 0 1 1391.32 1126)">
      <path d="M58.4961 14.5128C85.9991 14.5128 108.321-7.75763 108.321-35.2606C108.321-62.7637 85.9991-85.0341 58.4961-85.0341C31.0448-85.0341 8.72266-62.7637 8.72266-35.2606C8.72266-7.75763 31.0448 14.5128 58.4961 14.5128ZM58.4961 6.24529C35.5514 6.24529 17.0314-12.316 17.0314-35.2606C17.0314-58.2053 35.5514-76.7666 58.4961-76.7666C81.4408-76.7666 100.002-58.2053 100.002-35.2606C100.002-12.316 81.4408 6.24529 58.4961 6.24529ZM38.0994-15.0357L78.8411-15.0357C83.7601-15.0357 86.2513-17.4857 86.2513-22.353L86.2513-40.5279L30.6891-40.5279L30.6891-22.353C30.6891-17.4752 33.1803-15.0357 38.0994-15.0357ZM40.3549-22.3339C38.9842-22.3339 38.0496-23.2685 38.0496-24.6392L38.0496-29.0216C38.0496-30.3406 38.9842-31.2751 40.3549-31.2751L46.1186-31.2751C47.5516-31.2751 48.4861-30.3406 48.4861-29.0216L48.4861-24.6392C48.4861-23.2685 47.5516-22.3339 46.1186-22.3339ZM30.6891-45.9167L86.2513-45.9167L86.2513-48.0648C86.2513-52.9321 83.7601-55.3821 78.8411-55.3821L38.0994-55.3821C33.1803-55.3821 30.6891-52.9426 30.6891-48.0648Z" />
    </g>
    <g id="Light-M" transform="matrix(1 0 0 1 1095.44 1126)">
      <path d="M57.6748 13.6915C84.7158 13.6915 106.662-8.21963 106.662-35.2606C106.662-62.3017 84.7158-84.2128 57.6748-84.2128C30.6684-84.2128 8.72266-62.3017 8.72266-35.2606C8.72266-8.21963 30.6684 13.6915 57.6748 13.6915ZM57.6748 7.37462C34.097 7.37462 15.0465-11.6829 15.0465-35.2606C15.0465-58.8384 34.097-77.8959 57.6748-77.8959C81.2526-77.8959 100.31-58.8384 100.31-35.2606C100.31-11.6829 81.2526 7.37462 57.6748 7.37462ZM37.0385-15.3779L78.2764-15.3779C82.8875-15.3779 85.276-17.7595 85.276-22.3359L85.276-40.7846L30.0389-40.7846L30.0389-22.3359C30.0389-17.7318 32.4274-15.3779 37.0385-15.3779ZM39.5164-22.4879C38.1457-22.4879 37.2112-23.4225 37.2112-24.7932L37.2112-29.2098C37.2112-30.5459 38.1457-31.4805 39.5164-31.4805L45.3315-31.4805C46.7645-31.4805 47.699-30.5459 47.699-29.2098L47.699-24.7932C47.699-23.4225 46.7645-22.4879 45.3315-22.4879ZM30.0389-46.1221L85.276-46.1221L85.276-48.1161C85.276-52.6925 82.8875-55.0741 78.2764-55.0741L37.0385-55.0741C32.4274-55.0741 30.0389-52.7202 30.0389-48.1161Z" />
    </g>
    <g id="Thin-M" transform="matrix(1 0 0 1 799.828 1126)">
      <path d="M56.5885 12.6052C83.0185 12.6052 104.466-8.83065 104.466-35.2606C104.466-61.6906 83.0185-83.1265 56.5885-83.1265C30.1705-83.1265 8.72266-61.6906 8.72266-35.2606C8.72266-8.83065 30.1705 12.6052 56.5885 12.6052ZM56.5885 8.86824C32.1734 8.86824 12.4213-10.8455 12.4213-35.2606C12.4213-59.6758 32.1734-79.3895 56.5885-79.3895C81.0036-79.3895 100.717-59.6758 100.717-35.2606C100.717-10.8455 81.0036 8.86824 56.5885 8.86824ZM35.6354-15.8306L77.5296-15.8306C81.7333-15.8306 83.9861-18.1216 83.9861-22.3133L83.9861-41.124L29.1789-41.124L29.1789-22.3133C29.1789-18.0713 31.4317-15.8306 35.6354-15.8306ZM38.4075-22.6916C37.0368-22.6916 36.1023-23.6262 36.1023-24.9969L36.1023-29.4588C36.1023-30.8175 37.0368-31.752 38.4075-31.752L44.2904-31.752C45.7235-31.752 46.658-30.8175 46.658-29.4588L46.658-24.9969C46.658-23.6262 45.7235-22.6916 44.2904-22.6916ZM29.1789-46.3936L83.9861-46.3936L83.9861-48.184C83.9861-52.3757 81.7333-54.6667 77.5296-54.6667L35.6354-54.6667C31.4317-54.6667 29.1789-52.426 29.1789-48.184Z" />
    </g>
    <g id="Ultralight-M" transform="matrix(1 0 0 1 503.679 1126)">
      <path d="M56.0321 12.0488C82.1491 12.0488 103.342-9.14362 103.342-35.2606C103.342-61.3777 82.1491-82.5701 56.0321-82.5701C29.9155-82.5701 8.72266-61.3777 8.72266-35.2606C8.72266-9.14362 29.9155 12.0488 56.0321 12.0488ZM56.0321 9.63326C31.1881 9.63326 11.0767-10.4166 11.0767-35.2606C11.0767-60.1046 31.1881-80.1545 56.0321-80.1545C80.8761-80.1545 100.926-60.1046 100.926-35.2606C100.926-10.4166 80.8761 9.63326 56.0321 9.63326ZM34.9167-16.0624L77.1471-16.0624C81.1422-16.0624 83.3254-18.307 83.3254-22.3017L83.3254-41.2979L28.7385-41.2979L28.7385-22.3017C28.7385-18.2452 30.9216-16.0624 34.9167-16.0624ZM37.8396-22.7959C36.4689-22.7959 35.5343-23.7305 35.5343-25.1012L35.5343-29.5863C35.5343-30.9566 36.4689-31.8911 37.8396-31.8911L43.7572-31.8911C45.1903-31.8911 46.1248-30.9566 46.1248-29.5863L46.1248-25.1012C46.1248-23.7305 45.1903-22.7959 43.7572-22.7959ZM28.7385-46.5327L83.3254-46.5327L83.3254-48.2188C83.3254-52.2134 81.1422-54.4581 77.1471-54.4581L34.9167-54.4581C30.9216-54.4581 28.7385-52.2753 28.7385-48.2188Z" />
    </g>
    <g id="Black-S" transform="matrix(1 0 0 1 2884.57 696)">
      <path d="M48.8281 6.73828C72.0215 6.73828 90.8203-12.0605 90.8203-35.2539C90.8203-58.4473 72.0215-77.2461 48.8281-77.2461C25.6348-77.2461 6.83594-58.4473 6.83594-35.2539C6.83594-12.0605 25.6348 6.73828 48.8281 6.73828ZM48.8281-7.42188C33.4473-7.42188 20.9961-19.873 20.9961-35.2539C20.9961-50.6348 33.4473-63.0859 48.8281-63.0859C64.209-63.0859 76.6602-50.6348 76.6602-35.2539C76.6602-19.873 64.209-7.42188 48.8281-7.42188ZM34.8633-19.5801L62.793-19.5801C67.041-19.5801 69.5801-22.1191 69.5801-26.3672L69.5801-38.2324L28.0762-38.2324L28.0762-26.3672C28.0762-22.1191 30.6152-19.5801 34.8633-19.5801ZM35.8398-25.6836C34.8145-25.6836 34.1309-26.3184 34.1309-27.2949L34.1309-30.4199C34.1309-31.3965 34.8145-32.0312 35.8398-32.0312L39.9902-32.0312C40.9668-32.0312 41.6504-31.3965 41.6504-30.4199L41.6504-27.2949C41.6504-26.3184 40.9668-25.6836 39.9902-25.6836ZM28.0762-42.7734L69.5801-42.7734L69.5801-44.043C69.5801-48.291 67.041-50.8301 62.793-50.8301L34.8633-50.8301C30.6152-50.8301 28.0762-48.291 28.0762-44.043Z" />
    </g>
    <g id="Heavy-S" transform="matrix(1 0 0 1 2588.47 696)">
      <path d="M48.2173 6.12748C71.0765 6.12748 89.6102-12.3948 89.6102-35.2539C89.6102-58.1131 71.0765-76.6353 48.2173-76.6353C25.3697-76.6353 6.83594-58.1131 6.83594-35.2539C6.83594-12.3948 25.3697 6.12748 48.2173 6.12748ZM48.2173-6.4423C32.2948-6.4423 19.4172-19.3314 19.4172-35.2539C19.4172-51.1764 32.2948-64.0655 48.2173-64.0655C64.1398-64.0655 77.0289-51.1764 77.0289-35.2539C77.0289-19.3314 64.1398-6.4423 48.2173-6.4423ZM33.803-19.4994L62.6201-19.4994C66.8105-19.4994 69.2228-21.9002 69.2228-26.0791L69.2228-38.4744L27.2003-38.4744L27.2003-26.0791C27.2003-21.9002 29.6126-19.4994 33.803-19.4994ZM34.9409-25.5338C33.904-25.5338 33.2089-26.1916 33.2089-27.1912L33.2089-30.3853C33.2089-31.3734 33.904-32.0312 34.9409-32.0312L39.172-32.0312C40.1831-32.0312 40.8783-31.3734 40.8783-30.3853L40.8783-27.1912C40.8783-26.1916 40.1831-25.5338 39.172-25.5338ZM27.2003-42.9463L69.2228-42.9463L69.2228-44.3311C69.2228-48.51 66.8105-50.9107 62.6201-50.9107L33.803-50.9107C29.6126-50.9107 27.2003-48.51 27.2003-44.3311Z" />
    </g>
    <g id="Bold-S" transform="matrix(1 0 0 1 2292.43 696)">
      <path d="M47.5342 5.44434C70.0195 5.44434 88.2568-12.7686 88.2568-35.2539C88.2568-57.7393 70.0195-75.9521 47.5342-75.9521C25.0732-75.9521 6.83594-57.7393 6.83594-35.2539C6.83594-12.7686 25.0732 5.44434 47.5342 5.44434ZM47.5342-5.34668C31.0059-5.34668 17.6514-18.7256 17.6514-35.2539C17.6514-51.7822 31.0059-65.1611 47.5342-65.1611C64.0625-65.1611 77.4414-51.7822 77.4414-35.2539C77.4414-18.7256 64.0625-5.34668 47.5342-5.34668ZM32.6172-19.4092L62.4268-19.4092C66.5527-19.4092 68.8232-21.6553 68.8232-25.7568L68.8232-38.7451L26.2207-38.7451L26.2207-25.7568C26.2207-21.6553 28.4912-19.4092 32.6172-19.4092ZM33.9355-25.3662C32.8857-25.3662 32.1777-26.0498 32.1777-27.0752L32.1777-30.3467C32.1777-31.3477 32.8857-32.0312 33.9355-32.0312L38.2568-32.0312C39.3066-32.0312 40.0146-31.3477 40.0146-30.3467L40.0146-27.0752C40.0146-26.0498 39.3066-25.3662 38.2568-25.3662ZM26.2207-43.1396L68.8232-43.1396L68.8232-44.6533C68.8232-48.7549 66.5527-51.001 62.4268-51.001L32.6172-51.001C28.4912-51.001 26.2207-48.7549 26.2207-44.6533Z" />
    </g>
    <g id="Semibold-S" transform="matrix(1 0 0 1 1996.19 696)">
      <path d="M47.0632 4.97334C69.2908 4.97334 87.3237-13.0263 87.3237-35.2539C87.3237-57.4815 69.2908-75.4812 47.0632-75.4812C24.8688-75.4812 6.83594-57.4815 6.83594-35.2539C6.83594-13.0263 24.8688 4.97334 47.0632 4.97334ZM47.0632-4.59131C30.1172-4.59131 16.4339-18.3079 16.4339-35.2539C16.4339-52.1999 30.1172-65.9165 47.0632-65.9165C64.0092-65.9165 77.7258-52.1999 77.7258-35.2539C77.7258-18.3079 64.0092-4.59131 47.0632-4.59131ZM31.7996-19.347L62.2935-19.347C66.375-19.347 68.5478-21.4864 68.5478-25.5347L68.5478-38.9317L25.5453-38.9317L25.5453-25.5347C25.5453-21.4864 27.7181-19.347 31.7996-19.347ZM33.2424-25.2507C32.1837-25.2507 31.4668-25.9521 31.4668-26.9952L31.4668-30.32C31.4668-31.3299 32.1837-32.0312 33.2424-32.0312L37.6259-32.0312C38.7023-32.0312 39.4192-31.3299 39.4192-30.32L39.4192-26.9952C39.4192-25.9521 38.7023-25.2507 37.6259-25.2507ZM25.5453-43.2729L68.5478-43.2729L68.5478-44.8755C68.5478-48.9237 66.375-51.0632 62.2935-51.0632L31.7996-51.0632C27.7181-51.0632 25.5453-48.9237 25.5453-44.8755Z" />
    </g>
    <g id="Medium-S" transform="matrix(1 0 0 1 1699.83 696)">
      <path d="M46.7061 4.61621C68.7383 4.61621 86.6162-13.2217 86.6162-35.2539C86.6162-57.2861 68.7383-75.124 46.7061-75.124C24.7139-75.124 6.83594-57.2861 6.83594-35.2539C6.83594-13.2217 24.7139 4.61621 46.7061 4.61621ZM46.7061-4.01855C29.4434-4.01855 15.5107-17.9912 15.5107-35.2539C15.5107-52.5166 29.4434-66.4893 46.7061-66.4893C63.9688-66.4893 77.9414-52.5166 77.9414-35.2539C77.9414-17.9912 63.9688-4.01855 46.7061-4.01855ZM31.1797-19.2998L62.1924-19.2998C66.2402-19.2998 68.3389-21.3584 68.3389-25.3662L68.3389-39.0732L25.0332-39.0732L25.0332-25.3662C25.0332-21.3584 27.1318-19.2998 31.1797-19.2998ZM32.7168-25.1631C31.6514-25.1631 30.9277-25.8779 30.9277-26.9346L30.9277-30.2998C30.9277-31.3164 31.6514-32.0312 32.7168-32.0312L37.1475-32.0312C38.2441-32.0312 38.9678-31.3164 38.9678-30.2998L38.9678-26.9346C38.9678-25.8779 38.2441-25.1631 37.1475-25.1631ZM25.0332-43.374L68.3389-43.374L68.3389-45.0439C68.3389-49.0518 66.2402-51.1104 62.1924-51.1104L31.1797-51.1104C27.1318-51.1104 25.0332-49.0518 25.0332-45.0439Z" />
    </g>
    <g id="Regular-S" transform="matrix(1 0 0 1 1403.58 696)">
      <path d="M46.2402 4.15039C68.0176 4.15039 85.6934-13.4766 85.6934-35.2539C85.6934-57.0312 68.0176-74.6582 46.2402-74.6582C24.5117-74.6582 6.83594-57.0312 6.83594-35.2539C6.83594-13.4766 24.5117 4.15039 46.2402 4.15039ZM46.2402-3.27148C28.5645-3.27148 14.3066-17.5781 14.3066-35.2539C14.3066-52.9297 28.5645-67.2363 46.2402-67.2363C63.916-67.2363 78.2227-52.9297 78.2227-35.2539C78.2227-17.5781 63.916-3.27148 46.2402-3.27148ZM30.3711-19.2383L62.0605-19.2383C66.0645-19.2383 68.0664-21.1914 68.0664-25.1465L68.0664-39.2578L24.3652-39.2578L24.3652-25.1465C24.3652-21.1914 26.3672-19.2383 30.3711-19.2383ZM32.0312-25.0488C30.957-25.0488 30.2246-25.7812 30.2246-26.8555L30.2246-30.2734C30.2246-31.2988 30.957-32.0312 32.0312-32.0312L36.5234-32.0312C37.6465-32.0312 38.3789-31.2988 38.3789-30.2734L38.3789-26.8555C38.3789-25.7812 37.6465-25.0488 36.5234-25.0488ZM24.3652-43.5059L68.0664-43.5059L68.0664-45.2637C68.0664-49.2188 66.0645-51.1719 62.0605-51.1719L30.3711-51.1719C26.3672-51.1719 24.3652-49.2188 24.3652-45.2637Z" />
    </g>
    <g id="Light-S" transform="matrix(1 0 0 1 1107.6 696)">
      <path d="M45.5137 3.42383C66.8823 3.42383 84.2251-13.8853 84.2251-35.2539C84.2251-56.6226 66.8823-73.9316 45.5137-73.9316C24.1787-73.9316 6.83594-56.6226 6.83594-35.2539C6.83594-13.8853 24.1787 3.42383 45.5137 3.42383ZM45.5137-2.27247C27.2778-2.27247 12.5508-17.0181 12.5508-35.2539C12.5508-53.4897 27.2778-68.2353 45.5137-68.2353C63.7495-68.2353 78.4951-53.4897 78.4951-35.2539C78.4951-17.0181 63.7495-2.27247 45.5137-2.27247ZM29.4326-19.541L61.561-19.541C65.2925-19.541 67.2036-21.4336 67.2036-25.1313L67.2036-39.4849L23.79-39.4849L23.79-25.1313C23.79-21.4185 25.7012-19.541 29.4326-19.541ZM31.2896-25.1851C30.2153-25.1851 29.4829-25.9175 29.4829-26.9917L29.4829-30.4399C29.4829-31.4805 30.2153-32.2129 31.2896-32.2129L35.8272-32.2129C36.9502-32.2129 37.6826-31.4805 37.6826-30.4399L37.6826-26.9917C37.6826-25.9175 36.9502-25.1851 35.8272-25.1851ZM23.79-43.6875L67.2036-43.6875L67.2036-45.3091C67.2036-49.0068 65.2925-50.8994 61.561-50.8994L29.4326-50.8994C25.7012-50.8994 23.79-49.022 23.79-45.3091Z" />
    </g>
    <g id="Thin-S" transform="matrix(1 0 0 1 811.863 696)">
      <path d="M44.5527 2.4629C65.3809 2.4629 82.2832-14.4258 82.2832-35.2539C82.2832-56.082 65.3809-72.9707 44.5527-72.9707C23.7383-72.9707 6.83594-56.082 6.83594-35.2539C6.83594-14.4258 23.7383 2.4629 44.5527 2.4629ZM44.5527-0.95119C25.5762-0.95119 10.2285-16.2774 10.2285-35.2539C10.2285-54.2305 25.5762-69.5566 44.5527-69.5566C63.5293-69.5566 78.8555-54.2305 78.8555-35.2539C78.8555-16.2774 63.5293-0.95119 44.5527-0.95119ZM28.1914-19.9414L60.9004-19.9414C64.2715-19.9414 66.0625-21.7539 66.0625-25.1113L66.0625-39.7852L23.0293-39.7852L23.0293-25.1113C23.0293-21.7187 24.8203-19.9414 28.1914-19.9414ZM30.3086-25.3652C29.2344-25.3652 28.502-26.0977 28.502-27.1719L28.502-30.6602C28.502-31.7207 29.2344-32.4531 30.3086-32.4531L34.9063-32.4531C36.0293-32.4531 36.7617-31.7207 36.7617-30.6602L36.7617-27.1719C36.7617-26.0977 36.0293-25.3652 34.9063-25.3652ZM23.0293-43.9277L66.0625-43.9277L66.0625-45.3691C66.0625-48.7266 64.2715-50.5391 60.9004-50.5391L28.1914-50.5391C24.8203-50.5391 23.0293-48.7617 23.0293-45.3691Z" />
    </g>
    <g id="Ultralight-S" transform="matrix(1 0 0 1 515.649 696)">
      <path d="M44.0606 1.97072C64.6118 1.97072 81.2886-14.7026 81.2886-35.2539C81.2886-55.8052 64.6118-72.4785 44.0606-72.4785C23.5127-72.4785 6.83594-55.8052 6.83594-35.2539C6.83594-14.7026 23.5127 1.97072 44.0606 1.97072ZM44.0606-0.274438C24.7046-0.274438 9.0391-15.898 9.0391-35.2539C9.0391-54.6099 24.7046-70.2334 44.0606-70.2334C63.4165-70.2334 79.04-54.6099 79.04-35.2539C79.04-15.898 63.4165-0.274438 44.0606-0.274438ZM27.5557-20.1465L60.562-20.1465C63.7486-20.1465 65.478-21.918 65.478-25.1011L65.478-39.939L22.6397-39.939L22.6397-25.1011C22.6397-21.8726 24.3692-20.1465 27.5557-20.1465ZM29.8062-25.4575C28.732-25.4575 27.9995-26.1899 27.9995-27.2642L27.9995-30.7729C27.9995-31.8437 28.732-32.5762 29.8062-32.5762L34.4346-32.5762C35.5576-32.5762 36.2901-31.8437 36.2901-30.7729L36.2901-27.2642C36.2901-26.1899 35.5576-25.4575 34.4346-25.4575ZM22.6397-44.0508L65.478-44.0508L65.478-45.3999C65.478-48.583 63.7486-50.3545 60.562-50.3545L27.5557-50.3545C24.3692-50.3545 22.6397-48.6284 22.6397-45.3999Z" />
    </g>
  </g>
</svg>