<?xml version='1.0' encoding='utf-8'?>
<svg xmlns="http://www.w3.org/2000/svg" version="1.1" id="图层_1" x="0px" y="0px" viewBox="0 0 3300 2200">
  <g id="Guides">
    <g id="H-reference" transform="matrix(1 0 0 1 339 696)">
      <path class="st6" d="M1,0h2.6l25.7-67.1H30v-3.3h-1.9L1,0z M11.7-24.5H47l-0.8-2.2H12.4L11.7-24.5z M55.1,0h2.6L30.6-70.5h-1.2    v3.3L55.1,0z" />
    </g>
    <line id="Baseline-S" class="st7" x1="263" y1="696" x2="3036" y2="696" />
    <line id="Capline-S" class="st7" x1="263" y1="625.5" x2="3036" y2="625.5" />
    <g id="H-reference_00000174582976744177833630000007730325773184391314_" transform="matrix(1 0 0 1 339 1126)">
      <path class="st6" d="M1,0h2.6l25.7-67.1H30v-3.3h-1.9L1,0z M11.7-24.5H47l-0.8-2.2H12.4L11.7-24.5z M55.1,0h2.6L30.6-70.5h-1.2    v3.3L55.1,0z" />
    </g>
    <line id="Baseline-M" class="st7" x1="263" y1="1126" x2="3036" y2="1126" />
    <line id="Capline-M" class="st7" x1="263" y1="1055.5" x2="3036" y2="1055.5" />
    <g id="H-reference_00000113329496982249443560000009416180920334905247_" transform="matrix(1 0 0 1 339 1556)">
      <path class="st6" d="M1,0h2.6l25.7-67.1H30v-3.3h-1.9L1,0z M11.7-24.5H47l-0.8-2.2H12.4L11.7-24.5z M55.1,0h2.6L30.6-70.5h-1.2    v3.3L55.1,0z" />
    </g>
    <line id="Baseline-L" class="st7" x1="263" y1="1556" x2="3036" y2="1556" />
    <line id="Capline-L" class="st7" x1="263" y1="1485.5" x2="3036" y2="1485.5" />
    <line id="left-margin-Regular-M" class="st5" x1="1391.3" y1="1030.8" x2="1391.3" y2="1150.1" />
    <line id="right-margin-Regular-M" class="st5" x1="1508.4" y1="1030.8" x2="1508.4" y2="1150.1" />
  </g>
  <g id="Symbols">
    <g id="Regular-M" transform="matrix(1 0 0 1 1391.32 1126)">
      <g>
        <g transform="translate(3, -35.0013)scale(0.0958, -0.0958)translate(0, -630)">
          <path transform="translate(-104.3735, 0)" d="M270,1081C270,1044,272,1041,303,1038L335,1035L335,970L335,905L303,902C271,899,270,897,270,854C270,810,270,810,305,810L341,810L338,748C335,685,335,685,303,682C271,679,270,677,270,634C270,590,270,590,305,590L341,590L338,528C335,465,335,465,303,462C271,459,270,457,270,414C270,370,270,370,305,370L341,370L338,308L335,245L302,242C270,239,269,238,272,197L275,155L463,152C566,151,650,153,650,157C650,162,632,182,610,203C538,273,502,385,520,481C549,634,685,750,835,750L890,750L892,913L895,1075L925,1075L955,1075L958,898C959,800,964,720,969,720C974,720,985,717,994,714C1008,709,1010,730,1010,914L1010,1120L640,1120L270,1120L270,1081z" />
          <path transform="translate(-104.3735, 0)" d="M737,696C552,630,491,384,622,235C681,168,745,140,841,140C930,140,999,169,1051,228C1087,269,1119,334,1120,367C1120,386,1124,388,1155,383C1178,379,1190,381,1190,389C1190,403,1118,547,1097,575C1083,594,1079,588,1031,486C1003,426,980,375,980,372C980,370,996,370,1015,373L1050,379L1034,342C955,153,683,174,629,374C575,576,834,726,986,579L1016,550L1033,586C1055,631,1049,639,967,680C918,704,895,710,841,710C805,709,758,703,737,696z" />
          <path transform="translate(-104.3735, 0)" d="M800,465L800,370L875,370C938,370,951,373,960,389C976,419,974,420,910,420L850,420L850,490C850,558,849,560,825,560C800,560,800,560,800,465z" />
        </g>
      </g>
    </g>
  </g>
</svg>