<?xml version='1.0' encoding='utf-8'?>
<svg xmlns="http://www.w3.org/2000/svg" version="1.1" id="图层_1" x="0px" y="0px" viewBox="0 0 3300 2200" style="enable-background:new 0 0 3300 2200;" xml:space="preserve">
<style type="text/css">
	.st0{fill:#FFFFFF;}
	.st1{fill:none;stroke:#000000;stroke-width:0.5;}
	.st2{font-family:'Helvetica-Bold';}
	.st3{font-size:13px;}
	.st4{font-family:'Helvetica';}
	.st5{fill:none;stroke:#00AEEF;stroke-width:0.5;}
	.st6{fill:#27AAE1;}
	.st7{fill:none;stroke:#27AAE1;stroke-width:0.5;}
</style>
<g id="Notes">
	<rect id="artboard" x="-0.5" y="-63.1" class="st0" width="3300" height="2200" />
	<line class="st1" x1="262.5" y1="228.9" x2="3035.5" y2="228.9" />
	<text transform="matrix(1 0 0 1 262.5 258.9335)" class="st2 st3">Weight/Scale Variations</text>
	<text transform="matrix(1 0 0 1 533.5633 258.9335)" class="st4 st3">Ultralight</text>
	<text transform="matrix(1 0 0 1 843.2775 258.9335)" class="st4 st3">Thin</text>
	<text transform="matrix(1 0 0 1 1138.535 258.9335)" class="st4 st3">Light</text>
	<text transform="matrix(1 0 0 1 1426.5773 258.9335)" class="st4 st3">Regular</text>
	<text transform="matrix(1 0 0 1 1722.9419 258.9335)" class="st4 st3">Medium</text>
	<text transform="matrix(1 0 0 1 2015.6719 258.9335)" class="st4 st3">Semibold</text>
	<text transform="matrix(1 0 0 1 2326.4705 258.9335)" class="st4 st3">Bold</text>
	<text transform="matrix(1 0 0 1 2617.7659 258.9335)" class="st4 st3">Heavy</text>
	<text transform="matrix(1 0 0 1 2917.0054 258.9335)" class="st4 st3">Black</text>
	<line class="st1" x1="262.5" y1="1839.9" x2="3035.5" y2="1839.9" />
	<g transform="matrix(1 0 0 1 263 1933)">
		<path d="M8.7-62.3c1.1,0,2.1-0.2,3-0.6c1-0.4,1.8-1,2.5-1.7c0.7-0.7,1.3-1.6,1.7-2.5c0.4-1,0.6-2,0.6-3s-0.2-2.1-0.6-3    c-0.4-1-1-1.8-1.7-2.5c-0.7-0.7-1.6-1.3-2.5-1.7c-1-0.4-2-0.6-3-0.6c-1.1,0-2.1,0.2-3,0.6s-1.8,1-2.5,1.7    c-0.7,0.6-1.3,1.5-1.7,2.4c-0.4,1-0.6,2-0.6,3s0.2,2.1,0.6,3.1s1,1.8,1.7,2.5c0.7,0.7,1.6,1.3,2.5,1.7C6.7-62.5,7.7-62.3,8.7-62.3    z M8.7-63.8c-0.9,0-1.7-0.2-2.5-0.5c-0.7-0.3-1.4-0.7-2-1.3s-1-1.3-1.4-2c-0.3-0.8-0.4-1.7-0.4-2.6s0.2-1.7,0.5-2.5s0.8-1.5,1.4-2    c0.6-0.6,1.3-1,2-1.4c0.8-0.3,1.6-0.5,2.5-0.5s1.7,0.2,2.5,0.5c0.8,0.3,1.5,0.8,2,1.4c0.6,0.6,1,1.3,1.4,2    c0.3,0.8,0.5,1.6,0.5,2.5s-0.2,1.7-0.5,2.5s-0.8,1.5-1.4,2c-0.6,0.6-1.3,1-2,1.4C10.5-63.9,9.6-63.8,8.7-63.8z M5.2-70.2    c0,0.2,0.1,0.4,0.2,0.5c0.1,0.2,0.3,0.3,0.5,0.3H8v2.1c0,0.2,0.1,0.4,0.2,0.5c0.1,0.2,0.3,0.2,0.5,0.2s0.4-0.1,0.5-0.2    c0.2-0.1,0.3-0.3,0.3-0.5v-2.1h2.1c0.2,0,0.4-0.1,0.5-0.2c0.1-0.1,0.2-0.3,0.2-0.5c0-0.2-0.1-0.4-0.2-0.5    c-0.1-0.1-0.3-0.2-0.5-0.2H9.5v-2.1c0-0.2-0.1-0.4-0.2-0.5c-0.1-0.1-0.3-0.2-0.5-0.2s-0.4,0.1-0.5,0.2s-0.2,0.3-0.2,0.5v2.1H5.9    c-0.2-0.1-0.4,0-0.5,0.1C5.2-70.6,5.2-70.4,5.2-70.2z" />
	</g>
	<g transform="matrix(1 0 0 1 281.867 1933)">
		<path d="M11.2-60.2c1.4,0,2.6-0.3,3.8-0.8s2.3-1.2,3.2-2.2c0.9-0.9,1.6-2,2.2-3.2c0.5-1.2,0.8-2.5,0.8-3.8c0-1.4-0.3-2.6-0.8-3.8    c-0.5-1.2-1.2-2.3-2.2-3.2c-0.9-0.9-2-1.6-3.2-2.2c-1.2-0.5-2.5-0.8-3.8-0.8s-2.6,0.3-3.8,0.8s-2.3,1.2-3.2,2.2    c-0.9,0.9-1.6,2-2.2,3.2c-0.5,1.2-0.8,2.5-0.8,3.8c0,1.4,0.3,2.6,0.8,3.8c0.5,1.2,1.3,2.4,2.2,3.3c0.9,0.9,2,1.6,3.2,2.2    C8.6-60.3,9.8-60.2,11.2-60.2z M11.2-61.9C10-61.9,9-62.1,8-62.5s-1.9-1-2.6-1.8C4.6-65,4-65.9,3.6-66.9S2.9-69,2.9-70.2    s0.2-2.2,0.6-3.2s1-1.9,1.8-2.6c0.8-0.8,1.6-1.4,2.6-1.8s2.1-0.6,3.2-0.6s2.2,0.2,3.2,0.6s1.9,1,2.6,1.8c0.8,0.8,1.4,1.6,1.8,2.6    s0.6,2.1,0.6,3.2c0,1.2-0.2,2.2-0.6,3.2s-1,1.9-1.8,2.6c-0.8,0.8-1.6,1.4-2.6,1.8C13.3-62.2,12.4-61.9,11.2-61.9z M6.7-70.2    c0,0.2,0.1,0.4,0.2,0.6c0.2,0.2,0.4,0.3,0.6,0.3h2.9v2.9c0,0.2,0.1,0.4,0.2,0.6c0.1,0.2,0.3,0.2,0.6,0.2c0.2,0,0.4-0.1,0.6-0.2    C12-66,12-66.2,12-66.4v-2.9h2.9c0.2,0,0.4-0.1,0.6-0.2c0.2-0.1,0.2-0.3,0.2-0.6c0-0.2-0.1-0.4-0.2-0.6c-0.2-0.2-0.4-0.2-0.6-0.2    H12v-2.9c0-0.3-0.1-0.5-0.2-0.6s-0.4-0.2-0.6-0.2c-0.2,0-0.4,0.1-0.6,0.2c-0.1,0.2-0.2,0.4-0.2,0.6v2.9H7.5    c-0.3,0-0.5,0.1-0.6,0.2S6.7-70.4,6.7-70.2z" />
	</g>
	<g transform="matrix(1 0 0 1 305.646 1933)">
		<path d="M14.5-57.4c1.4,0,2.7-0.2,4-0.6s2.4-1,3.5-1.8s2-1.7,2.8-2.8c0.7-1.1,1.3-2.3,1.7-3.6c0.4-1.3,0.6-2.6,0.6-4    s-0.2-2.7-0.6-4s-1-2.4-1.8-3.5s-1.7-2-2.8-2.8c-1.1-0.8-2.2-1.4-3.5-1.8s-2.6-0.6-4-0.6s-2.7,0.2-4,0.6s-2.4,1-3.5,1.8    c-1.1,0.8-2,1.7-2.8,2.8s-1.4,2.2-1.8,3.5c-0.4,1.3-0.6,2.6-0.6,4s0.2,2.7,0.6,4c0.4,1.3,1,2.4,1.8,3.5c0.8,1.1,1.7,2,2.8,2.8    c1.2,0.8,2.3,1.4,3.6,1.8C11.7-57.7,13.1-57.4,14.5-57.4z M14.5-59.3c-1.2,0-2.4-0.2-3.4-0.6c-1.1-0.4-2.1-0.9-3-1.5    c-1-0.6-1.8-1.4-2.4-2.3c-0.7-0.9-1.2-1.9-1.6-3c-0.3-1.1-0.5-2.2-0.5-3.5c0-1.2,0.2-2.4,0.5-3.5c0.4-1.1,0.9-2.1,1.5-3    C6.3-77.6,7-78.4,8-79.1c0.9-0.7,1.9-1.2,3-1.5c1.1-0.4,2.2-0.5,3.4-0.5s2.4,0.2,3.5,0.5c1.1,0.4,2.1,0.9,3,1.5    c0.9,0.7,1.7,1.5,2.4,2.4c0.7,0.9,1.2,1.9,1.5,3c0.4,1.1,0.6,2.2,0.6,3.5c0,1.2-0.2,2.4-0.5,3.4c-0.4,1.1-0.9,2.1-1.5,3    c-0.7,0.9-1.5,1.7-2.4,2.4c-0.9,0.7-1.9,1.2-3,1.5C16.8-59.4,15.7-59.3,14.5-59.3z M8.7-70.2c0,0.3,0.1,0.5,0.3,0.6    c0.2,0.2,0.4,0.2,0.7,0.2h3.9v4c0,0.3,0.1,0.5,0.2,0.7c0.2,0.2,0.4,0.3,0.6,0.3c0.3,0,0.5-0.1,0.7-0.3s0.3-0.4,0.3-0.7v-4h4    c0.3,0,0.5-0.1,0.7-0.2c0.2-0.2,0.3-0.4,0.3-0.6c0-0.3-0.1-0.5-0.3-0.7c-0.3-0.1-0.5-0.2-0.8-0.2h-4V-75c0-0.3-0.1-0.5-0.3-0.7    c-0.2-0.2-0.4-0.3-0.7-0.3s-0.5,0.1-0.6,0.3c-0.2,0.2-0.2,0.4-0.2,0.7v3.9H9.6c-0.3,0-0.5,0.1-0.6,0.3C8.8-70.6,8.7-70.4,8.7-70.2    z" />
	</g>
	<text transform="matrix(1 0 0 1 262.5 1889.9336)" class="st2 st3">Design Variations</text>
	<text transform="matrix(1 0 0 1 262.5 1907.9336)" class="st4 st3">Symbols are supported in up to nine weights and three scales.</text>
	<text transform="matrix(1 0 0 1 262.5 1925.9336)" class="st4 st3">For optimal layout with text and other symbols, vertically align</text>
	<text transform="matrix(1 0 0 1 262.5 1943.9336)" class="st4 st3">symbols with the adjacent text.</text>
	<line class="st5" x1="775.5" y1="1855.9" x2="775.5" y2="1869.9" />
	<g transform="matrix(1 0 0 1 776 1933)">
		<path d="M2.8-62.9c0.3,0,0.5-0.1,0.6-0.2c0.1-0.1,0.3-0.3,0.4-0.6L5-67.1h5.8l1.3,3.4c0.1,0.3,0.2,0.5,0.4,0.6    c0.1,0.1,0.3,0.2,0.6,0.2s0.5-0.1,0.6-0.2c0.2-0.1,0.2-0.3,0.2-0.6c0-0.1,0-0.3-0.1-0.5L9.2-76.5c-0.1-0.3-0.3-0.5-0.5-0.7    c-0.2-0.1-0.5-0.2-0.8-0.2c-0.6,0-1,0.3-1.2,0.9L2.1-64.3C2-64.1,2-63.9,2-63.7s0.1,0.4,0.2,0.6C2.3-62.9,2.6-62.9,2.8-62.9z     M5.5-68.6l2.4-6.6l0,0l2.4,6.6C10.3-68.6,5.5-68.6,5.5-68.6z" />
	</g>
	<line class="st5" x1="792.7" y1="1855.9" x2="792.7" y2="1869.9" />
	<text transform="matrix(1 0 0 1 775.5 1889.9336)" class="st2 st3">Margins</text>
	<text transform="matrix(1 0 0 1 775.5 1907.9336)" class="st4 st3">Leading and trailing margins on the left and right side of each symbol</text>
	<text transform="matrix(1 0 0 1 775.5 1925.9336)" class="st4 st3">can be adjusted by modifying the x-location of the margin guidelines.</text>
	<text transform="matrix(1 0 0 1 775.5 1943.9336)" class="st4 st3">Modifications are automatically applied proportionally to all</text>
	<text transform="matrix(1 0 0 1 775.5 1961.9336)" class="st4 st3">scales and weights.</text>
	<g transform="matrix(1 0 0 1 1289 1933)">
		<path d="M2.3-61.2L4-59.5c0.5,0.4,0.9,0.6,1.4,0.6s0.9-0.3,1.4-0.8l10.7-11.8l-1-1L5.9-60.8c-0.2,0.2-0.3,0.3-0.5,0.3    S5-60.6,4.8-60.8L3.6-62c-0.2-0.2-0.3-0.4-0.3-0.6c0-0.2,0.1-0.4,0.3-0.5l11.5-10.8l-1-1L2.5-64c-0.4,0.5-0.7,0.9-0.7,1.4    C1.7-62.1,1.9-61.7,2.3-61.2z M8.8-79.4c-0.2,0.2-0.3,0.4-0.4,0.7c0,0.3,0,0.5,0.1,0.7c0.1,0.2,0.3,0.3,0.5,0.4    c0.2,0.1,0.5,0.1,0.8,0c0.7-0.2,1.5-0.2,2.2-0.2s1.5,0.3,2.2,0.7l-0.6,1.5c-0.2,0.4-0.2,0.8-0.1,1.1c0.1,0.3,0.2,0.6,0.5,0.9    l2.3,2.3c0.2,0.2,0.5,0.4,0.7,0.4s0.5,0,0.8,0l1.1-0.2l0.7,0.7v0.6c0,0.2,0,0.5,0.1,0.7c0.1,0.2,0.2,0.4,0.5,0.7l0.8,0.7    c0.2,0.2,0.5,0.4,0.8,0.4s0.5-0.1,0.8-0.3l2.9-2.9c0.2-0.2,0.3-0.5,0.3-0.8c0-0.3-0.1-0.5-0.4-0.8L24.5-73    c-0.2-0.2-0.5-0.4-0.7-0.5c-0.2-0.1-0.4-0.1-0.7-0.1h-0.6l-0.6-0.6l0.2-1.1c0.1-0.3,0.1-0.5,0-0.8c-0.1-0.3-0.3-0.5-0.6-0.8    l-2.1-2.2c-0.8-0.8-1.7-1.4-2.7-1.9c-0.9-0.4-1.9-0.6-2.8-0.6c-1,0-1.9,0.2-2.8,0.5C10.3-80.7,9.5-80.2,8.8-79.4z M10.3-79.1    c0.6-0.4,1.3-0.8,1.9-0.9c0.7-0.2,1.4-0.2,2.1-0.2c0.7,0.1,1.4,0.3,2.1,0.6c0.7,0.3,1.3,0.7,1.8,1.3l2.4,2.4    c0.1,0.1,0.2,0.2,0.2,0.3c0,0.1,0,0.3,0,0.4l-0.3,1.6l1.5,1.5l1-0.1c0.1,0,0.2,0,0.3,0c0.1,0,0.1,0.1,0.2,0.2l0.6,0.6L21.7-69    l-0.6-0.6c-0.1-0.1-0.2-0.2-0.2-0.2c0-0.1,0-0.2,0-0.3l0.1-1l-1.5-1.5L18-72.3c-0.2,0-0.3,0-0.4,0s-0.2-0.1-0.3-0.2l-2-2    c-0.1-0.1-0.2-0.2-0.2-0.3s0-0.3,0.1-0.4l0.9-2.1c-0.8-0.7-1.7-1.2-2.6-1.5c-1-0.3-2-0.3-3,0c-0.1,0-0.1,0-0.2,0    C10.2-79,10.2-79,10.3-79.1z" />
	</g>
	<text transform="matrix(1 0 0 1 1288.5 1889.9336)" class="st2 st3">Exporting</text>
	<text transform="matrix(1 0 0 1 1288.5 1907.9336)" class="st4 st3">Symbols should be outlined when exporting to ensure the</text>
	<text transform="matrix(1 0 0 1 1288.5 1925.9336)" class="st4 st3">design is preserved when submitting to Xcode.</text>
	<text id="template-version" transform="matrix(1 0 0 1 2951.9141 1869.9336)" class="st4 st3">Template v.3.0</text>
	<text transform="matrix(1 0 0 1 2864.9575 1887.9336)" class="st4 st3">Requires Xcode 13 or greater</text>
	<text id="descriptive-name" transform="matrix(1 0 0 1 2850.5293 1905.9336)" class="st4 st3">Generated from hourglass.circle</text>
	<text transform="matrix(1 0 0 1 2911.9111 1923.9336)" class="st4 st3">Typeset at 100 points</text>
	<text transform="matrix(1 0 0 1 262.5 662.9335)" class="st4 st3">Small</text>
	<text transform="matrix(1 0 0 1 262.5 1092.9336)" class="st4 st3">Medium</text>
	<text transform="matrix(1 0 0 1 262.5 1522.9336)" class="st4 st3">Large</text>
</g>
<g id="Guides">
	<g id="H-reference" transform="matrix(1 0 0 1 339 696)">
		<path class="st6" d="M1,0h2.6l25.7-67.1H30v-3.3h-1.9L1,0z M11.7-24.5H47l-0.8-2.2H12.4L11.7-24.5z M55.1,0h2.6L30.6-70.5h-1.2    v3.3L55.1,0z" />
	</g>
	<line id="Baseline-S" class="st7" x1="263" y1="696" x2="3036" y2="696" />
	<line id="Capline-S" class="st7" x1="263" y1="625.5" x2="3036" y2="625.5" />
	<g id="H-reference_00000174582976744177833630000007730325773184391314_" transform="matrix(1 0 0 1 339 1126)">
		<path class="st6" d="M1,0h2.6l25.7-67.1H30v-3.3h-1.9L1,0z M11.7-24.5H47l-0.8-2.2H12.4L11.7-24.5z M55.1,0h2.6L30.6-70.5h-1.2    v3.3L55.1,0z" />
	</g>
	<line id="Baseline-M" class="st7" x1="263" y1="1126" x2="3036" y2="1126" />
	<line id="Capline-M" class="st7" x1="263" y1="1055.5" x2="3036" y2="1055.5" />
	<g id="H-reference_00000113329496982249443560000009416180920334905247_" transform="matrix(1 0 0 1 339 1556)">
		<path class="st6" d="M1,0h2.6l25.7-67.1H30v-3.3h-1.9L1,0z M11.7-24.5H47l-0.8-2.2H12.4L11.7-24.5z M55.1,0h2.6L30.6-70.5h-1.2    v3.3L55.1,0z" />
	</g>
	<line id="Baseline-L" class="st7" x1="263" y1="1556" x2="3036" y2="1556" />
	<line id="Capline-L" class="st7" x1="263" y1="1485.5" x2="3036" y2="1485.5" />
	<line id="left-margin-Regular-M" class="st5" x1="1391.3" y1="1030.8" x2="1391.3" y2="1150.1" />
	<line id="right-margin-Regular-M" class="st5" x1="1508.4" y1="1030.8" x2="1508.4" y2="1150.1" />
</g>
<g id="Symbols">
	<g id="Regular-M" transform="matrix(1 0 0 1 1391.32 1126)">
      <g>
        <g>
          <path d="M18.8670187 -78.2071C18.8670187 -74.6625 19.0586187 -74.3751 22.0284187 -74.0877L25.094018699999996 -73.8003V-67.5733V-61.3463L22.0284187 -61.058899999999994C18.9628187 -60.7715 18.8670187 -60.579899999999995 18.8670187 -56.460499999999996C18.8670187 -52.2453 18.8670187 -52.2453 22.220018699999997 -52.2453H25.6688187L25.3814187 -46.3057C25.094018699999996 -40.27029999999999 25.094018699999996 -40.27029999999999 22.0284187 -39.9829C18.9628187 -39.695499999999996 18.8670187 -39.5039 18.8670187 -35.384499999999996C18.8670187 -31.1693 18.8670187 -31.1693 22.220018699999997 -31.1693H25.6688187L25.3814187 -25.2297C25.094018699999996 -19.1943 25.094018699999996 -19.1943 22.0284187 -18.9069C18.9628187 -18.619500000000002 18.8670187 -18.4279 18.8670187 -14.308500000000002C18.8670187 -10.0933 18.8670187 -10.0933 22.220018699999997 -10.0933H25.6688187L25.3814187 -4.153700000000001L25.094018699999996 1.8816999999999986L21.9326187 2.1691000000000003C18.8670187 2.4564999999999984 18.7712187 2.552299999999999 19.0586187 6.4801L19.3460187 10.503699999999998L37.35641869999999 10.7911C47.223818699999995 10.886899999999999 55.2710187 10.6953 55.2710187 10.3121C55.2710187 9.8331 53.546618699999996 7.917099999999998 51.43901869999999 5.9053C44.541418699999994 -0.8006999999999991 41.0926187 -11.530299999999997 42.81701869999999 -20.7271C45.595218700000004 -35.384499999999996 58.62401869999999 -46.497299999999996 72.9940187 -46.497299999999996H78.2630187L78.4546187 -62.112700000000004L78.7420187 -77.6323H81.6160187H84.4900187L84.7774187 -60.67569999999999C84.8732187 -51.2873 85.3522187 -43.6233 85.8312187 -43.6233C86.3102187 -43.6233 87.3640187 -43.335899999999995 88.2262187 -43.048500000000004C89.5674187 -42.569500000000005 89.7590187 -44.5813 89.7590187 -62.2085V-81.9433H54.3130187H18.8670187V-78.2071Z" />
          <path d="M63.605618699999994 -41.3241C45.882618699999995 -35.0013 40.03881869999999 -11.4345 52.5886187 2.8397000000000006C58.240818700000005 9.258299999999998 64.3720187 11.9407 73.5688187 11.9407C82.0950187 11.9407 88.7052187 9.162499999999998 93.6868187 3.510300000000001C97.1356187 -0.4175000000000004 100.2012187 -6.644500000000001 100.2970187 -9.805900000000001C100.2970187 -11.626100000000001 100.6802187 -11.817700000000002 103.6500187 -11.338700000000003C105.85341869999999 -10.9555 107.0030187 -11.147100000000002 107.0030187 -11.913499999999999C107.0030187 -13.2547 100.1054187 -27.0499 98.0936187 -29.732300000000002C96.75241869999999 -31.552500000000002 96.3692187 -30.9777 91.77081869999999 -21.2061C89.0884187 -15.458100000000002 86.8850187 -10.572299999999998 86.8850187 -10.2849C86.8850187 -10.0933 88.4178187 -10.0933 90.2380187 -10.380699999999997L93.59101869999999 -10.9555L92.0582187 -7.410899999999998C84.4900187 10.6953 58.4324187 8.683499999999999 53.25921869999999 -10.476500000000001C48.0860187 -29.8281 72.8982187 -44.1981 87.4598187 -30.115499999999997L90.3338187 -27.3373L91.9624187 -30.786099999999998C94.0700187 -35.0971 93.4952187 -35.8635 85.6396187 -39.79129999999999C80.9454187 -42.09049999999999 78.7420187 -42.6653 73.5688187 -42.6653C70.1200187 -42.569500000000005 65.6174187 -41.994699999999995 63.605618699999994 -41.3241Z" />
          <path d="M69.6410187 -19.1943V-10.0933H76.8260187C82.8614187 -10.0933 84.1068187 -10.380699999999997 84.96901869999999 -11.913499999999999C86.5018187 -14.787500000000001 86.3102187 -14.883299999999998 80.1790187 -14.883299999999998H74.4310187V-21.5893C74.4310187 -28.103699999999996 74.3352187 -28.295299999999997 72.0360187 -28.295299999999997C69.6410187 -28.295299999999997 69.6410187 -28.295299999999997 69.6410187 -19.1943Z" />
        </g>
      </g>
	</g>
</g>
</svg>