<?xml version='1.0' encoding='utf-8'?>
<svg xmlns="http://www.w3.org/2000/svg" version="1.1" id="图层_1" x="0px" y="0px" viewBox="0 0 3300 2200">
  <g id="Guides">
    <g id="H-reference" transform="matrix(1 0 0 1 339 696)">
      <path class="st6" d="M1,0h2.6l25.7-67.1H30v-3.3h-1.9L1,0z M11.7-24.5H47l-0.8-2.2H12.4L11.7-24.5z M55.1,0h2.6L30.6-70.5h-1.2    v3.3L55.1,0z" />
    </g>
    <line id="Baseline-S" class="st7" x1="263" y1="696" x2="3036" y2="696" />
    <line id="Capline-S" class="st7" x1="263" y1="625.5" x2="3036" y2="625.5" />
    <g id="H-reference_00000174582976744177833630000007730325773184391314_" transform="matrix(1 0 0 1 339 1126)">
      <path class="st6" d="M1,0h2.6l25.7-67.1H30v-3.3h-1.9L1,0z M11.7-24.5H47l-0.8-2.2H12.4L11.7-24.5z M55.1,0h2.6L30.6-70.5h-1.2    v3.3L55.1,0z" />
    </g>
    <line id="Baseline-M" class="st7" x1="263" y1="1126" x2="3036" y2="1126" />
    <line id="Capline-M" class="st7" x1="263" y1="1055.5" x2="3036" y2="1055.5" />
    <g id="H-reference_00000113329496982249443560000009416180920334905247_" transform="matrix(1 0 0 1 339 1556)">
      <path class="st6" d="M1,0h2.6l25.7-67.1H30v-3.3h-1.9L1,0z M11.7-24.5H47l-0.8-2.2H12.4L11.7-24.5z M55.1,0h2.6L30.6-70.5h-1.2    v3.3L55.1,0z" />
    </g>
    <line id="Baseline-L" class="st7" x1="263" y1="1556" x2="3036" y2="1556" />
    <line id="Capline-L" class="st7" x1="263" y1="1485.5" x2="3036" y2="1485.5" />
    <line id="left-margin-Regular-M" class="st5" x1="1391.3" y1="1030.8" x2="1391.3" y2="1150.1" />
    <line id="right-margin-Regular-M" class="st5" x1="1508.4" y1="1030.8" x2="1508.4" y2="1150.1" />
  </g>
  <g id="Symbols">
    <g id="Regular-M" transform="matrix(1 0 0 1 1391.32 1126)">
      <g>
        <g>
          <path d="M80.8-41.2c0.3-6,1.6-11.9,4.1-17.7l1.1-3.6l-3.6,1.1c-6,1.8-12.2,2.9-18.4,3.3C68.4-51.5,74.1-45.7,80.8-41.2z" />
          <path d="M36.9-40.6c7-4.6,13-10.6,17.7-17.6c-6.2-0.4-12.4-1.4-18.4-3.3l-3.6-1.1l1.1,3.6C35.5-52.9,36.5-46.7,36.9-40.6z" />
          <path d="M81-31.2c-6.9,4.7-12.8,10.7-17.4,17.7c6.3,0.3,12.6,1.4,18.7,3.3L86-9.1l-1.1-3.7C83-18.8,81.6-25,81-31.2z" />
          <path d="M36.9-31.6c-0.3,6.4-1.4,12.7-3.3,18.8l-1.1,3.7l3.6-1.1c6.1-1.9,12.4-2.9,18.8-3.3C50.3-20.7,44.1-26.8,36.9-31.6z" />
        </g>
        <g>
          <g>
            <path d="M103.6-38.1c-17.9-9.5-32.5-24.2-42-42l-2.3-4.3L57-80.2c-9.5,17.9-24.2,32.5-42,42l-4.3,2.3l4.3,2.3       c17.9,9.5,32.5,24.2,42,42l2.3,4.3l2.3-4.3c9.5-17.9,24.2-32.5,42-42l4.3-2.3L103.6-38.1z M86.7-34.6c-11,5.9-20.1,14.9-26,26       l-1.4,2.7l-1.4-2.7c-5.9-11-14.9-20.1-26-26l-2.7-1.4l2.7-1.5c11-5.9,20.1-14.9,26-26l1.4-2.7l1.4,2.7c5.9,11,14.9,20.1,26,26       l2.7,1.5L86.7-34.6z" />
          </g>
        </g>
        <path d="M59.3-47.8L38.7-24.9c5,4.3,9.4,9.3,13.3,14.7c1.6-0.1,3.3-0.1,4.9-0.1c-2.3-4-5-7.8-8.2-11.2l10.6-11.8l10.6,11.8     c-3.1,3.4-5.9,7.2-8.2,11.2c1.6,0,3.3,0.1,4.9,0.1c3.8-5.4,8.3-10.3,13.3-14.7L59.3-47.8z" />
      </g>
    </g>
  </g>
</svg>