<?xml version="1.0" encoding="UTF-8"?>
<!--Generator: Apple Native CoreSVG 341-->
<!DOCTYPE svg
PUBLIC "-//W3C//DTD SVG 1.1//EN"
       "http://www.w3.org/Graphics/SVG/1.1/DTD/svg11.dtd">
<svg version="1.1" xmlns="http://www.w3.org/2000/svg" xmlns:xlink="http://www.w3.org/1999/xlink" viewBox="0 0 3300 2200">
 <!--glyph: "", point size: 100.0, font version: "20.0d10e1", template writer version: "138.0.0"-->
 <style>.SFSymbolsPreviewWireframe {fill:none;opacity:1.0;stroke:black;stroke-width:0.5}
</style>
 <g id="Notes">
  <rect height="2200" id="artboard" style="fill:white;opacity:1" width="3300" x="0" y="0"/>
  <line style="fill:none;stroke:black;opacity:1;stroke-width:0.5;" x1="263" x2="3036" y1="292" y2="292"/>
  <text style="stroke:none;fill:black;font-family:sans-serif;font-size:13;font-weight:bold;" transform="matrix(1 0 0 1 263 322)">Weight/Scale Variations</text>
  <text style="stroke:none;fill:black;font-family:sans-serif;font-size:13;text-anchor:middle;" transform="matrix(1 0 0 1 559.711 322)">Ultralight</text>
  <text style="stroke:none;fill:black;font-family:sans-serif;font-size:13;text-anchor:middle;" transform="matrix(1 0 0 1 856.422 322)">Thin</text>
  <text style="stroke:none;fill:black;font-family:sans-serif;font-size:13;text-anchor:middle;" transform="matrix(1 0 0 1 1153.13 322)">Light</text>
  <text style="stroke:none;fill:black;font-family:sans-serif;font-size:13;text-anchor:middle;" transform="matrix(1 0 0 1 1449.84 322)">Regular</text>
  <text style="stroke:none;fill:black;font-family:sans-serif;font-size:13;text-anchor:middle;" transform="matrix(1 0 0 1 1746.56 322)">Medium</text>
  <text style="stroke:none;fill:black;font-family:sans-serif;font-size:13;text-anchor:middle;" transform="matrix(1 0 0 1 2043.27 322)">Semibold</text>
  <text style="stroke:none;fill:black;font-family:sans-serif;font-size:13;text-anchor:middle;" transform="matrix(1 0 0 1 2339.98 322)">Bold</text>
  <text style="stroke:none;fill:black;font-family:sans-serif;font-size:13;text-anchor:middle;" transform="matrix(1 0 0 1 2636.69 322)">Heavy</text>
  <text style="stroke:none;fill:black;font-family:sans-serif;font-size:13;text-anchor:middle;" transform="matrix(1 0 0 1 2933.4 322)">Black</text>
  <line style="fill:none;stroke:black;opacity:1;stroke-width:0.5;" x1="263" x2="3036" y1="1903" y2="1903"/>
  <g transform="matrix(0.2 0 0 0.2 263 1933)">
   <path d="m46.2402 4.15039c21.7773 0 39.4531-17.627 39.4531-39.4043s-17.6758-39.4043-39.4531-39.4043c-21.7285 0-39.4043 17.627-39.4043 39.4043s17.6758 39.4043 39.4043 39.4043Zm0-7.42188c-17.6758 0-31.9336-14.3066-31.9336-31.9824s14.2578-31.9824 31.9336-31.9824 31.9824 14.3066 31.9824 31.9824-14.3066 31.9824-31.9824 31.9824Zm-17.9688-31.9824c0 2.14844 1.51367 3.61328 3.75977 3.61328h10.498v10.5957c0 2.19727 1.46484 3.71094 3.61328 3.71094 2.24609 0 3.71094-1.51367 3.71094-3.71094v-10.5957h10.5957c2.19727 0 3.71094-1.46484 3.71094-3.61328 0-2.19727-1.51367-3.71094-3.71094-3.71094h-10.5957v-10.5469c0-2.24609-1.46484-3.75977-3.71094-3.75977-2.14844 0-3.61328 1.51367-3.61328 3.75977v10.5469h-10.498c-2.24609 0-3.75977 1.51367-3.75977 3.71094Z"/>
  </g>
  <g transform="matrix(0.2 0 0 0.2 281.506 1933)">
   <path d="m58.5449 14.5508c27.4902 0 49.8047-22.3145 49.8047-49.8047s-22.3145-49.8047-49.8047-49.8047-49.8047 22.3145-49.8047 49.8047 22.3145 49.8047 49.8047 49.8047Zm0-8.30078c-22.9492 0-41.5039-18.5547-41.5039-41.5039s18.5547-41.5039 41.5039-41.5039 41.5039 18.5547 41.5039 41.5039-18.5547 41.5039-41.5039 41.5039Zm-22.6562-41.5039c0 2.39258 1.66016 4.00391 4.15039 4.00391h14.3555v14.4043c0 2.44141 1.66016 4.15039 4.05273 4.15039 2.44141 0 4.15039-1.66016 4.15039-4.15039v-14.4043h14.4043c2.44141 0 4.15039-1.61133 4.15039-4.00391 0-2.44141-1.70898-4.15039-4.15039-4.15039h-14.4043v-14.3555c0-2.49023-1.70898-4.19922-4.15039-4.19922-2.39258 0-4.05273 1.70898-4.05273 4.19922v14.3555h-14.3555c-2.49023 0-4.15039 1.70898-4.15039 4.15039Z"/>
  </g>
  <g transform="matrix(0.2 0 0 0.2 304.924 1933)">
   <path d="m74.8535 28.3203c35.1074 0 63.623-28.4668 63.623-63.5742s-28.5156-63.623-63.623-63.623-63.5742 28.5156-63.5742 63.623 28.4668 63.5742 63.5742 63.5742Zm0-9.08203c-30.127 0-54.4922-24.3652-54.4922-54.4922s24.3652-54.4922 54.4922-54.4922 54.4922 24.3652 54.4922 54.4922-24.3652 54.4922-54.4922 54.4922Zm-28.8574-54.4922c0 2.58789 1.85547 4.39453 4.58984 4.39453h19.7266v19.7754c0 2.68555 1.85547 4.58984 4.44336 4.58984 2.68555 0 4.54102-1.85547 4.54102-4.58984v-19.7754h19.7754c2.68555 0 4.58984-1.80664 4.58984-4.39453 0-2.73438-1.85547-4.58984-4.58984-4.58984h-19.7754v-19.7266c0-2.73438-1.85547-4.63867-4.54102-4.63867-2.58789 0-4.44336 1.9043-4.44336 4.63867v19.7266h-19.7266c-2.73438 0-4.58984 1.85547-4.58984 4.58984Z"/>
  </g>
  <text style="stroke:none;fill:black;font-family:sans-serif;font-size:13;font-weight:bold;" transform="matrix(1 0 0 1 263 1953)">Design Variations</text>
  <text style="stroke:none;fill:black;font-family:sans-serif;font-size:13;" transform="matrix(1 0 0 1 263 1971)">Symbols are supported in up to nine weights and three scales.</text>
  <text style="stroke:none;fill:black;font-family:sans-serif;font-size:13;" transform="matrix(1 0 0 1 263 1989)">For optimal layout with text and other symbols, vertically align</text>
  <text style="stroke:none;fill:black;font-family:sans-serif;font-size:13;" transform="matrix(1 0 0 1 263 2007)">symbols with the adjacent text.</text>
  <line style="fill:none;stroke:#00AEEF;stroke-width:0.5;opacity:1.0;" x1="776" x2="776" y1="1919" y2="1933"/>
  <g transform="matrix(0.2 0 0 0.2 776 1933)">
   <path d="m16.5527 0.78125c2.58789 0 3.85742-0.976562 4.78516-3.71094l6.29883-17.2363h28.8086l6.29883 17.2363c0.927734 2.73438 2.19727 3.71094 4.73633 3.71094 2.58789 0 4.24805-1.5625 4.24805-4.00391 0-0.830078-0.146484-1.61133-0.537109-2.63672l-22.9004-60.9863c-1.12305-2.97852-3.125-4.49219-6.25-4.49219-3.02734 0-5.07812 1.46484-6.15234 4.44336l-22.9004 61.084c-0.390625 1.02539-0.537109 1.80664-0.537109 2.63672 0 2.44141 1.5625 3.95508 4.10156 3.95508Zm13.4766-28.3691 11.8652-32.8613h0.244141l11.8652 32.8613Z"/>
  </g>
  <line style="fill:none;stroke:#00AEEF;stroke-width:0.5;opacity:1.0;" x1="792.836" x2="792.836" y1="1919" y2="1933"/>
  <text style="stroke:none;fill:black;font-family:sans-serif;font-size:13;font-weight:bold;" transform="matrix(1 0 0 1 776 1953)">Margins</text>
  <text style="stroke:none;fill:black;font-family:sans-serif;font-size:13;" transform="matrix(1 0 0 1 776 1971)">Leading and trailing margins on the left and right side of each symbol</text>
  <text style="stroke:none;fill:black;font-family:sans-serif;font-size:13;" transform="matrix(1 0 0 1 776 1989)">can be adjusted by modifying the x-location of the margin guidelines.</text>
  <text style="stroke:none;fill:black;font-family:sans-serif;font-size:13;" transform="matrix(1 0 0 1 776 2007)">Modifications are automatically applied proportionally to all</text>
  <text style="stroke:none;fill:black;font-family:sans-serif;font-size:13;" transform="matrix(1 0 0 1 776 2025)">scales and weights.</text>
  <g transform="matrix(0.2 0 0 0.2 1289 1933)">
   <path d="m14.209 9.32617 8.49609 8.54492c4.29688 4.3457 9.22852 4.05273 13.8672-1.07422l53.4668-58.9355-4.83398-4.88281-53.0762 58.3984c-1.75781 2.00195-3.41797 2.49023-5.76172 0.146484l-5.85938-5.81055c-2.34375-2.29492-1.80664-4.00391 0.195312-5.81055l57.373-54.0039-4.88281-4.83398-57.959 54.4434c-4.93164 4.58984-5.32227 9.47266-1.02539 13.8184Zm32.0801-90.9668c-2.09961 2.05078-2.24609 4.93164-1.07422 6.88477 1.17188 1.80664 3.4668 2.97852 6.68945 2.14844 7.32422-1.70898 14.9414-2.00195 22.0703 2.68555l-2.92969 7.27539c-1.70898 4.15039-0.830078 7.08008 1.85547 9.81445l11.4746 11.5723c2.44141 2.44141 4.49219 2.53906 7.32422 2.05078l5.32227-0.976562 3.32031 3.36914-0.195312 2.7832c-0.195312 2.49023 0.439453 4.39453 2.88086 6.78711l3.80859 3.71094c2.39258 2.39258 5.46875 2.53906 7.8125 0.195312l14.5508-14.5996c2.34375-2.34375 2.24609-5.32227-0.146484-7.71484l-3.85742-3.80859c-2.39258-2.39258-4.24805-3.17383-6.64062-2.97852l-2.88086 0.244141-3.22266-3.17383 1.2207-5.61523c0.634766-2.83203-0.146484-5.0293-3.07617-7.95898l-10.9863-10.9375c-16.6992-16.6016-38.8672-16.2109-53.3203-1.75781Zm7.4707 1.85547c12.1582-8.88672 28.6133-7.37305 39.7461 3.75977l12.1582 12.0605c1.17188 1.17188 1.36719 2.09961 1.02539 3.80859l-1.61133 7.42188 7.51953 7.42188 4.93164-0.292969c1.26953-0.0488281 1.66016 0.0488281 2.63672 1.02539l2.88086 2.88086-12.207 12.207-2.88086-2.88086c-0.976562-0.976562-1.12305-1.36719-1.07422-2.68555l0.341797-4.88281-7.4707-7.42188-7.61719 1.26953c-1.61133 0.341797-2.34375 0.195312-3.56445-0.976562l-10.0098-10.0098c-1.26953-1.17188-1.41602-2.00195-0.634766-3.85742l4.39453-10.4492c-7.8125-7.27539-17.9688-10.4004-28.125-7.42188-0.78125 0.195312-1.07422-0.439453-0.439453-0.976562Z"/>
  </g>
  <text style="stroke:none;fill:black;font-family:sans-serif;font-size:13;font-weight:bold;" transform="matrix(1 0 0 1 1289 1953)">Exporting</text>
  <text style="stroke:none;fill:black;font-family:sans-serif;font-size:13;" transform="matrix(1 0 0 1 1289 1971)">Symbols should be outlined when exporting to ensure the</text>
  <text style="stroke:none;fill:black;font-family:sans-serif;font-size:13;" transform="matrix(1 0 0 1 1289 1989)">design is preserved when submitting to Xcode.</text>
  <text id="template-version" style="stroke:none;fill:black;font-family:sans-serif;font-size:13;text-anchor:end;" transform="matrix(1 0 0 1 3036 1933)">Template v.6.0</text>
  <text style="stroke:none;fill:black;font-family:sans-serif;font-size:13;text-anchor:end;" transform="matrix(1 0 0 1 3036 1951)">Requires Xcode 16 or greater</text>
  <text id="descriptive-name" style="stroke:none;fill:black;font-family:sans-serif;font-size:13;text-anchor:end;" transform="matrix(1 0 0 1 3036 1969)">Generated from custom.dot.scope</text>
  <text style="stroke:none;fill:black;font-family:sans-serif;font-size:13;text-anchor:end;" transform="matrix(1 0 0 1 3036 1987)">Typeset at 100.0 points</text>
  <text style="stroke:none;fill:black;font-family:sans-serif;font-size:13;" transform="matrix(1 0 0 1 263 726)">Small</text>
  <text style="stroke:none;fill:black;font-family:sans-serif;font-size:13;" transform="matrix(1 0 0 1 263 1156)">Medium</text>
  <text style="stroke:none;fill:black;font-family:sans-serif;font-size:13;" transform="matrix(1 0 0 1 263 1586)">Large</text>
 </g>
 <g id="Guides">
  <g id="H-reference" style="fill:#27AAE1;stroke:none;" transform="matrix(1 0 0 1 339 696)">
   <path d="M0.993654 0L3.63775 0L29.3281-67.1323L30.0303-67.1323L30.0303-70.459L28.1226-70.459ZM11.6885-24.4799L46.9815-24.4799L46.2315-26.7285L12.4385-26.7285ZM55.1196 0L57.7637 0L30.6382-70.459L29.4326-70.459L29.4326-67.1323Z"/>
  </g>
  <line id="Baseline-S" style="fill:none;stroke:#27AAE1;opacity:1;stroke-width:0.5;" x1="263" x2="3036" y1="696" y2="696"/>
  <line id="Capline-S" style="fill:none;stroke:#27AAE1;opacity:1;stroke-width:0.5;" x1="263" x2="3036" y1="625.541" y2="625.541"/>
  <g id="H-reference" style="fill:#27AAE1;stroke:none;" transform="matrix(1 0 0 1 339 1126)">
   <path d="M0.993654 0L3.63775 0L29.3281-67.1323L30.0303-67.1323L30.0303-70.459L28.1226-70.459ZM11.6885-24.4799L46.9815-24.4799L46.2315-26.7285L12.4385-26.7285ZM55.1196 0L57.7637 0L30.6382-70.459L29.4326-70.459L29.4326-67.1323Z"/>
  </g>
  <line id="Baseline-M" style="fill:none;stroke:#27AAE1;opacity:1;stroke-width:0.5;" x1="263" x2="3036" y1="1126" y2="1126"/>
  <line id="Capline-M" style="fill:none;stroke:#27AAE1;opacity:1;stroke-width:0.5;" x1="263" x2="3036" y1="1055.54" y2="1055.54"/>
  <g id="H-reference" style="fill:#27AAE1;stroke:none;" transform="matrix(1 0 0 1 339 1556)">
   <path d="M0.993654 0L3.63775 0L29.3281-67.1323L30.0303-67.1323L30.0303-70.459L28.1226-70.459ZM11.6885-24.4799L46.9815-24.4799L46.2315-26.7285L12.4385-26.7285ZM55.1196 0L57.7637 0L30.6382-70.459L29.4326-70.459L29.4326-67.1323Z"/>
  </g>
  <line id="Baseline-L" style="fill:none;stroke:#27AAE1;opacity:1;stroke-width:0.5;" x1="263" x2="3036" y1="1556" y2="1556"/>
  <line id="Capline-L" style="fill:none;stroke:#27AAE1;opacity:1;stroke-width:0.5;" x1="263" x2="3036" y1="1485.54" y2="1485.54"/>
  <line id="right-margin-Black-S" style="fill:none;stroke:#00AEEF;stroke-width:0.5;opacity:1.0;" x1="2988.23" x2="2988.23" y1="600.785" y2="720.121"/>
  <line id="left-margin-Black-S" style="fill:none;stroke:#00AEEF;stroke-width:0.5;opacity:1.0;" x1="2878.57" x2="2878.57" y1="600.785" y2="720.121"/>
  <line id="right-margin-Regular-S" style="fill:none;stroke:#00AEEF;stroke-width:0.5;opacity:1.0;" x1="1503.73" x2="1503.73" y1="600.785" y2="720.121"/>
  <line id="left-margin-Regular-S" style="fill:none;stroke:#00AEEF;stroke-width:0.5;opacity:1.0;" x1="1395.96" x2="1395.96" y1="600.785" y2="720.121"/>
  <line id="right-margin-Ultralight-S" style="fill:none;stroke:#00AEEF;stroke-width:0.5;opacity:1.0;" x1="610.687" x2="610.687" y1="600.785" y2="720.121"/>
  <line id="left-margin-Ultralight-S" style="fill:none;stroke:#00AEEF;stroke-width:0.5;opacity:1.0;" x1="508.736" x2="508.736" y1="600.785" y2="720.121"/>
 </g>
 <g id="Symbols">
  <g id="Black-S" transform="matrix(1 0 0 1 2878.57 696)">
   <path class="SFSymbolsPreviewWireframe" d="M54.834-27.832C58.8867-27.832 62.207-31.1523 62.207-35.2051C62.207-39.2578 58.8867-42.5781 54.834-42.5781C50.7812-42.5781 47.4609-39.2578 47.4609-35.2051C47.4609-31.1523 50.7812-27.832 54.834-27.832ZM54.8828 4.29688C76.6602 4.29688 94.3359-13.3789 94.3359-35.1562C94.3359-56.9336 76.6602-74.6094 54.8828-74.6094C33.1055-74.6094 15.4297-56.9336 15.4297-35.1562C15.4297-13.3789 33.1055 4.29688 54.8828 4.29688ZM54.8828-8.69141C40.2832-8.69141 28.418-20.5566 28.418-35.1562C28.418-49.7559 40.2832-61.6211 54.8828-61.6211C69.4824-61.6211 81.3477-49.7559 81.3477-35.1562C81.3477-20.5566 69.4824-8.69141 54.8828-8.69141ZM54.8828-49.0234C57.5195-49.0234 59.5703-51.123 59.5703-53.7598L59.5703-78.4668C59.5703-81.1035 57.5195-83.2031 54.8828-83.2031C52.2461-83.2031 50.1953-81.1035 50.1953-78.4668L50.1953-53.7598C50.1953-51.123 52.2461-49.0234 54.8828-49.0234ZM11.5723-30.5176L36.2793-30.5176C38.916-30.5176 41.0156-32.5684 41.0156-35.2051C41.0156-37.8418 38.916-39.8926 36.2793-39.8926L11.5723-39.8926C8.93555-39.8926 6.83594-37.8418 6.83594-35.2051C6.83594-32.5684 8.93555-30.5176 11.5723-30.5176ZM54.8828 12.793C57.5195 12.793 59.5703 10.6934 59.5703 8.05664L59.5703-16.6504C59.5703-19.2871 57.5195-21.3867 54.8828-21.3867C52.2461-21.3867 50.1953-19.2871 50.1953-16.6504L50.1953 8.05664C50.1953 10.6934 52.2461 12.793 54.8828 12.793ZM73.3887-30.5176L98.0957-30.5176C100.732-30.5176 102.832-32.5684 102.832-35.2051C102.832-37.8418 100.732-39.8926 98.0957-39.8926L73.3887-39.8926C70.752-39.8926 68.6523-37.8418 68.6523-35.2051C68.6523-32.5684 70.752-30.5176 73.3887-30.5176Z"/>
  </g>
  <g id="Regular-S" transform="matrix(1 0 0 1 1395.96 696)">
   <path class="SFSymbolsPreviewWireframe" d="M53.9062-28.5645C57.5684-28.5645 60.5469-31.543 60.5469-35.2051C60.5469-38.8672 57.5684-41.8457 53.9062-41.8457C50.1953-41.8457 47.2168-38.8672 47.2168-35.2051C47.2168-31.543 50.1953-28.5645 53.9062-28.5645ZM53.9062 1.02539C73.9258 1.02539 90.1855-15.2832 90.1855-35.3027C90.1855-55.3223 73.9258-71.6309 53.9062-71.6309C33.8379-71.6309 17.5781-55.3223 17.5781-35.3027C17.5781-15.2832 33.8379 1.02539 53.9062 1.02539ZM53.9062-6.05469C37.7441-6.05469 24.6582-19.1406 24.6582-35.3027C24.6582-51.416 37.7441-64.5508 53.9062-64.5508C70.0195-64.5508 83.1055-51.416 83.1055-35.3027C83.1055-19.1406 70.0195-6.05469 53.9062-6.05469ZM53.9062-49.9512C55.6152-49.9512 56.9824-51.3184 56.9824-53.0273L56.9824-79.1504C56.9824-80.9082 55.6152-82.2754 53.9062-82.2754C52.1484-82.2754 50.7812-80.9082 50.7812-79.1504L50.7812-53.0273C50.7812-51.3184 52.1484-49.9512 53.9062-49.9512ZM9.96094-32.0801L36.0352-32.0801C37.793-32.0801 39.1602-33.4473 39.1602-35.2051C39.1602-36.9629 37.793-38.3301 36.0352-38.3301L9.96094-38.3301C8.20312-38.3301 6.83594-36.9629 6.83594-35.2051C6.83594-33.4473 8.20312-32.0801 9.96094-32.0801ZM53.9062 11.8652C55.6152 11.8652 56.9824 10.498 56.9824 8.74023L56.9824-17.3828C56.9824-19.0918 55.6152-20.459 53.9062-20.459C52.1484-20.459 50.7812-19.0918 50.7812-17.3828L50.7812 8.74023C50.7812 10.498 52.1484 11.8652 53.9062 11.8652ZM71.7285-32.0801L97.8027-32.0801C99.5605-32.0801 100.928-33.4473 100.928-35.2051C100.928-36.9629 99.5605-38.3301 97.8027-38.3301L71.7285-38.3301C69.9707-38.3301 68.6035-36.9629 68.6035-35.2051C68.6035-33.4473 69.9707-32.0801 71.7285-32.0801Z"/>
  </g>
  <g id="Ultralight-S" transform="matrix(1 0 0 1 508.736 696)">
   <path class="SFSymbolsPreviewWireframe" d="M51-29.3364C54.208-29.3364 56.8233-31.9517 56.8233-35.2051C56.8233-38.4585 54.208-41.0737 51-41.0737C47.7432-41.0737 45.1279-38.4585 45.1279-35.2051C45.1279-31.9517 47.7432-29.3364 51-29.3364ZM51.0454 0.117195C70.4746 0.117195 86.3257-15.7373 86.3257-35.2119C86.3257-54.6865 70.4746-70.4956 51.0454-70.4956C31.5674-70.4956 15.7163-54.6865 15.7163-35.2119C15.7163-15.7373 31.5674 0.117195 51.0454 0.117195ZM51.0454-2.10404C32.7491-2.10404 17.9376-16.9155 17.9376-35.2119C17.9376-53.5049 32.7491-68.3198 51.0454-68.3198C69.3384-68.3198 84.1045-53.5049 84.1045-35.2119C84.1045-16.9155 69.3384-2.10404 51.0454-2.10404ZM51-52.1308C51.6646-52.1308 52.1236-52.6807 52.1236-53.2544L52.1236-78.2422C52.1236-78.8194 51.6646-79.3692 51-79.3692C50.3775-79.3692 49.9639-78.8194 49.9639-78.2422L49.9639-53.2544C49.9639-52.6807 50.3775-52.1308 51-52.1308ZM7.96291-34.1235L32.9473-34.1235C33.5244-34.1235 34.0743-34.5825 34.0743-35.1597C34.0743-35.8276 33.5244-36.2866 32.9473-36.2866L7.96291-36.2866C7.38575-36.2866 6.83594-35.8276 6.83594-35.1597C6.83594-34.5825 7.38575-34.1235 7.96291-34.1235ZM51 8.95901C51.6646 8.95901 52.1236 8.4092 52.1236 7.83204L52.1236-17.1558C52.1236-17.7295 51.6646-18.2793 51-18.2793C50.3775-18.2793 49.9639-17.7295 49.9639-17.1558L49.9639 7.83204C49.9639 8.4092 50.3775 8.95901 51 8.95901ZM69.0493-34.1235L93.9883-34.1235C94.6109-34.1235 95.1153-34.5825 95.1153-35.1597C95.1153-35.8276 94.6109-36.2866 93.9883-36.2866L69.0493-36.2866C68.4268-36.2866 67.9224-35.8276 67.9224-35.1597C67.9224-34.5825 68.4268-34.1235 69.0493-34.1235Z"/>
  </g>
 </g>
</svg>
