<?xml version='1.0' encoding='utf-8'?>
<svg xmlns="http://www.w3.org/2000/svg" version="1.1" id="图层_1" x="0px" y="0px" viewBox="0 0 3300 2200">
  <g id="Guides">
    <g id="H-reference" transform="matrix(1 0 0 1 339 696)">
      <path class="st6" d="M1,0h2.6l25.7-67.1H30v-3.3h-1.9L1,0z M11.7-24.5H47l-0.8-2.2H12.4L11.7-24.5z M55.1,0h2.6L30.6-70.5h-1.2    v3.3L55.1,0z" />
    </g>
    <line id="Baseline-S" class="st7" x1="263" y1="696" x2="3036" y2="696" />
    <line id="Capline-S" class="st7" x1="263" y1="625.5" x2="3036" y2="625.5" />
    <g id="H-reference_00000174582976744177833630000007730325773184391314_" transform="matrix(1 0 0 1 339 1126)">
      <path class="st6" d="M1,0h2.6l25.7-67.1H30v-3.3h-1.9L1,0z M11.7-24.5H47l-0.8-2.2H12.4L11.7-24.5z M55.1,0h2.6L30.6-70.5h-1.2    v3.3L55.1,0z" />
    </g>
    <line id="Baseline-M" class="st7" x1="263" y1="1126" x2="3036" y2="1126" />
    <line id="Capline-M" class="st7" x1="263" y1="1055.5" x2="3036" y2="1055.5" />
    <g id="H-reference_00000113329496982249443560000009416180920334905247_" transform="matrix(1 0 0 1 339 1556)">
      <path class="st6" d="M1,0h2.6l25.7-67.1H30v-3.3h-1.9L1,0z M11.7-24.5H47l-0.8-2.2H12.4L11.7-24.5z M55.1,0h2.6L30.6-70.5h-1.2    v3.3L55.1,0z" />
    </g>
    <line id="Baseline-L" class="st7" x1="263" y1="1556" x2="3036" y2="1556" />
    <line id="Capline-L" class="st7" x1="263" y1="1485.5" x2="3036" y2="1485.5" />
    <line id="left-margin-Regular-M" class="st5" x1="1391.3" y1="1030.8" x2="1391.3" y2="1150.1" />
    <line id="right-margin-Regular-M" class="st5" x1="1508.4" y1="1030.8" x2="1508.4" y2="1150.1" />
  </g>
  <g id="Symbols">
    <g id="Regular-M" transform="matrix(1 0 0 1 1391.32 1126)">
      <g>
        <g>
          <path d="M13.1-39.9c0.3-2-0.4-4.5-2.3-7.1c-2.4-3.2-1.6-7.4,1.4-10.2c3.6-3.3,7.9-4.9,12.9-3.7c1.4,0.4,2.4,0.4,3.4-1      c3.1-4.6,8.2-6.7,12.8-9.3c2.3-1.3,4.3-3,6.7-4.1c2.6-1.2,5.4-2.5,8.2-2.8c5.8-0.6,11.1,0.1,16,4.4c3.5,3.1,8.3,4.7,12.6,6.8      c0.7,0.4,1.8,0.1,2.7,0c11.4-1.7,20.2,5.5,21,17.1c0.1,1.9,0.3,3.8-0.1,5.6c-1.8,7.1-2.2,14.4-6.2,21c-2.4,4-5.3,6.2-9.8,6.6      c-3.6,0.4-5.3,3.4-7.6,5.4c-0.5,0.5-0.4,2-0.2,3c0.6,3.4-0.5,6.1-3.1,8.1c-2.8,2.1-5.9,2.6-9,0.8c-2.8-1.6-4.8-1.1-7.1,1.1      c-3.9,3.8-8.1,4-12.2,0.4c-2.5-2.2-5-2.2-7.8-1.7c-7.1,1.2-10.3-1.3-11-8.3c-0.1-1.3-0.9-2.8-1.8-3.7c-3.9-3.3-8-6.2-11.9-9.4      C15.2-25.5,12.7-31.6,13.1-39.9z M104.6-47.4C104.6-47.4,104.6-47.4,104.6-47.4c-0.1-1.1,0-2.1-0.1-3.2      c-0.8-7.7-7.2-13.8-14.4-12.4c-4.8,0.9-8.2-0.5-11.7-2.9c-0.5-0.4-1.1-0.7-1.7-1c-3.4-1.7-7.4-2.3-9.6-5.9      c-0.2-0.4-0.9-0.5-1.4-0.7c-4.2-1.2-8.5-1.3-12.7,0c-1,0.3-2.2,0.9-2.6,1.7c-1,1.9-2.7,2.4-4.4,3.2c-2.6,1.1-5.2,2.2-7.6,3.7      c-3.2,2-6.9,3.6-7.5,8.2c-0.3,2-1.9,2.4-3.7,1.4c-0.6-0.3-1.1-0.7-1.7-1.1c-3.2-1.7-8.9-0.7-10.8,2.4c-0.8,1.3-1.2,4-0.5,4.7      c3.4,3.5,2.7,7.7,2.7,11.7c0,4.9,1.4,9.6,5.3,12.5c4.5,3.3,8.8,6.8,13.1,10.3c0.1,0.1,0.2,0.1,0.3,0.2c2.4,1,3.2,2.8,3,5.4      c-0.2,5.6,1.1,6.5,6.6,5.6c3.7-0.6,7.3-1,10.3,2.5c2.2,2.5,4.6,2.6,6.7,0.4c3.8-3.9,7.4-5.1,12.4-2c2.8,1.7,6.9-1,6-3.9      c-1.5-5.3,0.6-8.3,4.8-10.8c0.4-0.3,0.8-0.7,1.1-1.1c1.4-1.7,3.1-2.4,5.3-2.2c2.6,0.1,4.5-0.9,6.1-3.2c4.6-6.6,4.6-14.6,6.5-22      C104.7-46.3,104.6-46.9,104.6-47.4z" />
          <path d="M20.6-42.2c0-1.8-0.1-5.2-2.6-8.1c-1-1.2-0.5-2,0.6-2.5c1.8-0.9,3.7-1.5,5.7-0.3c1.1,0.7,2.4,1.3,3.6,1.6      c2.3,0.7,4.5,0.6,5.5-2.2c0.9-2.4,2.9-2.3,5-2.3c13.4,0,26.7,0,40.1,0c2.6,0,4.7-0.4,7-2.1c6.2-4.7,14.8-0.2,15.9,8      c0.5,3.5-0.1,6.9-1.5,10.2c-0.6,1.4-0.8,3-0.8,4.5c-0.1,3.1-1.9,5.3-3.4,7.9c-1.8,3.2-4.2,3.1-7.1,2.9c-0.7,0-1.7,0.5-2.2,1.1      c-4.2,5.9-9.8,9-17.1,9.5c-8.6,0.6-17.1,1-25.5-0.8c-4.4-0.9-7.9-3-10.5-6.7c-0.7-1-1.8-2.1-2.9-2.5      C23.4-26.1,19.8-32.6,20.6-42.2z M67.7-35.2c-0.6,0.8-1.1,1.7-1.8,2.5c-2.3,2.6-4.7,5.1-6.9,7.7c-0.4,0.5-0.4,1.4-0.5,2.1      c0.7,0,1.4,0,2.1-0.1c0.3-0.1,0.6-0.5,0.9-0.7c3.4-3,6.7-6.1,10.2-9c1.4-1.2,1.2-2.2,0.3-3.4c-3.4-4.4-6.9-8.8-10.4-13.2      c-1.1-1.4-2.4-1.5-3.8-0.2c-2.4,2.3-5,4.5-7.1,7.1c-6.2,8-6.9,5.2,1.5,13.1c0.2,0.2,0.4,0.5,0.6,0.5c0.7,0.1,1.7,0.4,2.1,0      c1.9-1.9,3.6-3.9,5.3-6c0.2-0.3-0.1-1.2-0.5-1.7c-0.2-0.2-1.1-0.2-1.4,0c-1,0.8-2,1.8-2.9,2.7c-1.1,1.1-2.3,1.3-3.5,0.2      c-1.2-1.1-2-2.4-0.8-3.8c2-2.5,4.1-4.9,6.3-7.3c1.1-1.2,2.4-1,3.4,0.3c1.9,2.4,3.9,4.8,5.8,7.2C67.1-36.7,67.3-36.1,67.7-35.2z       M97.7-46.9c-0.5-3.4-1.8-6-4.3-7.4c-2.1-1.2-4.2-0.8-6.3,0.9c-1.9,1.5-1.9,3.2-1.1,5.3c1.1,2.8,1.8,5.9,2.8,8.7      c0.3,0.9,1,2.1,1.7,2.3c0.8,0.2,2.3-0.4,2.7-1.1C94.9-41,96.2-44,97.7-46.9z" />
          <path d="M59.6-56.7c-6.5,0-13.1,0-19.6,0c-1.1,0-2.2,0-3.2-0.2c-0.5-0.1-1.3-0.7-1.4-1.1c-0.1-0.5,0.5-1.2,1-1.5      c4.6-3.2,9.4-6.1,14.9-7.4c1.2-0.3,2.3-0.4,2.1-2.2c0-0.4,1.3-1.3,2-1.3c2.5-0.2,5.1-0.1,7.6,0c0.6,0,1.7,0.5,1.7,0.7      c0,3.4,3,2.6,4.7,3.6c4.1,2.2,8.2,4.4,12.2,6.6c0.6,0.3,0.9,1.2,1.4,1.8c-0.8,0.4-1.6,1-2.4,1C73.7-56.7,66.7-56.8,59.6-56.7      C59.6-56.7,59.6-56.7,59.6-56.7z" />
          <path d="M46.4-12.4c4.9,0.2,9.8,0.6,14.7,0.5c3.7,0,7.4-0.5,11.1-0.8c3.2-0.3,5.7,2.4,4.8,5.4c-0.1,0.4-1,0.9-1.5,0.9      c-0.8,0-1.5-0.4-2.3-0.6c-4.4-1.3-8.4-1.1-11.6,2.6c-1.5,1.7-3,2.1-4.6,0.2C53.9-8,49.8-7.5,45.7-7.1C44.6-7,43.5-7,42.3-6.9      c0.1-1.3-0.2-2.7,0.3-3.8c0.5-1,1.9-1.5,2.9-2.1c0.2-0.1,0.5,0,0.8,0C46.4-12.6,46.4-12.5,46.4-12.4z" />
        </g>
      </g>
    </g>
  </g>
</svg>