<?xml version="1.0" encoding="UTF-8" standalone="no"?>
<!-- Created with Pixodesk SVG (https://pixodesk.com) -->
<svg xmlns="http://www.w3.org/2000/svg" viewBox="0 0 1024 1024" text-rendering="geometricPrecision" shape-rendering="geometricPrecision" fill-rule="evenodd" stroke-linejoin="round" stroke-miterlimit="2">
  <g transform="translate(-139.002, -139.822)scale(1.2734, 1.2734)">
    <path fill="#818181" d="M511,120C584.502,203.995,630.71,311.072,645,435C654.99,439.677,663.076,446.258,671,453C699.1828,438.7701,730.0812,414.2735,742.6919,384.9845C716.7732,381.8736,681.7961,385.7367,659.1058,394.5594C654.9058,373.1144,651.086,350.708,640,321C714.46,307.245,802.121,303.6623,882.778,318.1373C850.184,400.1303,792.758,462.367,734,512C796.431,574.516,840.427,641.286,876,710C736.331,729.338,614.489,709.021,512,654C504.915,658.333,492.2788,666.4834,479.6858,670.8164C487.7294,704.912,501.2754,737.1865,512.2932,748.7016C523.7352,725.5266,536.1405,695.69,540.6985,686.974C562.495,697.549,585.191,705.1223,613.9491,714.8241C587.2861,787.1251,551.057,848.6,512,903C461.739,841.055,421.163,772.469,395,694C302.465,715.121,220.126,719.747,151,703C195.618,595.776,268.842,501.864,383,427L385,396C353.0413,387.3805,320.8603,381.7654,285.3615,383.8421C298.1905,403.1781,313.0108,422.9212,334.1068,436.7462C310.1289,453.56,285.7635,477.9254,282.7801,480.5575C239.4815,443.6222,171.5,374.688,141,313C227.7603,303.2891,317.5766,307.1683,402,324C427.543,249.3,458,188,511,120zM621.5,502.75C550.984,488.699,511.169,451.623,506.75,388C493.329,454.749,455.052,490.336,395.5,499.25C467.5,516.316,502.97,556.312,510.25,614C515.335,540.728,558.573,510.605,621.5,502.75z"/>
  </g>
</svg>