<?xml version='1.0' encoding='utf-8'?>
<svg xmlns="http://www.w3.org/2000/svg" version="1.1" id="图层_1" x="0px" y="0px" viewBox="0 0 3300 2200">
  <g id="Guides">
    <g id="H-reference" transform="matrix(1 0 0 1 339 696)">
      <path class="st6" d="M1,0h2.6l25.7-67.1H30v-3.3h-1.9L1,0z M11.7-24.5H47l-0.8-2.2H12.4L11.7-24.5z M55.1,0h2.6L30.6-70.5h-1.2    v3.3L55.1,0z" />
    </g>
    <line id="Baseline-S" class="st7" x1="263" y1="696" x2="3036" y2="696" />
    <line id="Capline-S" class="st7" x1="263" y1="625.5" x2="3036" y2="625.5" />
    <g id="H-reference_00000174582976744177833630000007730325773184391314_" transform="matrix(1 0 0 1 339 1126)">
      <path class="st6" d="M1,0h2.6l25.7-67.1H30v-3.3h-1.9L1,0z M11.7-24.5H47l-0.8-2.2H12.4L11.7-24.5z M55.1,0h2.6L30.6-70.5h-1.2    v3.3L55.1,0z" />
    </g>
    <line id="Baseline-M" class="st7" x1="263" y1="1126" x2="3036" y2="1126" />
    <line id="Capline-M" class="st7" x1="263" y1="1055.5" x2="3036" y2="1055.5" />
    <g id="H-reference_00000113329496982249443560000009416180920334905247_" transform="matrix(1 0 0 1 339 1556)">
      <path class="st6" d="M1,0h2.6l25.7-67.1H30v-3.3h-1.9L1,0z M11.7-24.5H47l-0.8-2.2H12.4L11.7-24.5z M55.1,0h2.6L30.6-70.5h-1.2    v3.3L55.1,0z" />
    </g>
    <line id="Baseline-L" class="st7" x1="263" y1="1556" x2="3036" y2="1556" />
    <line id="Capline-L" class="st7" x1="263" y1="1485.5" x2="3036" y2="1485.5" />
    <line id="left-margin-Regular-M" class="st5" x1="1391.3" y1="1030.8" x2="1391.3" y2="1150.1" />
    <line id="right-margin-Regular-M" class="st5" x1="1508.4" y1="1030.8" x2="1508.4" y2="1150.1" />
  </g>
  <g id="Symbols">
    <g id="Regular-M">
      <path transform="translate(979, 980)" d="M471.1882,62.7011C497.5229,62.7011,518.9033,84.2691,518.9033,110.8349C518.9033,137.4006,497.5229,158.9687,471.1882,158.9687C444.8537,158.9687,423.4732,137.4006,423.4732,110.8349C423.4732,84.2691,444.8537,62.7011,471.1882,62.7011zM459.3086,66.1474C424.9237,75.5308,413.723,119.7836,439.5355,144.2439C467.6042,170.8508,512.9129,153.5337,516.7847,114.7887C519.8276,83.9322,489.2218,57.9785,459.3086,66.1474zM482.6316,69.8813C493.7848,72.823,502.8193,80.5725,508.3501,92.009C511.6234,98.8235,513.6506,107.6471,511.9001,107.6471C511.3915,107.6471,510.7004,110.1666,510.3787,113.2938C509.3644,123.098,509.134,123.5174,505.0318,123.5174C500.4225,123.5174,497.1044,125.2448,493.0472,129.7721C489.4072,133.9281,482.8607,143.4503,485.3037,141.1151C486.7788,139.7619,487.286,139.7165,490.0057,140.8827C493.2313,142.236,494.5223,141.536,493.5544,139.0151C493.1399,137.8943,493.3702,137.6619,494.5223,138.1281C495.4902,138.5022,495.951,139.3892,495.6742,140.4165C494.1528,146.2504,505.3535,132.8072,508.5355,124.9656C509.457,122.6304,510.5627,120.7174,510.9307,120.7174C512.1291,120.7174,511.7146,123.0045,510.1019,125.3383C509.2253,126.5513,509.0413,127.2527,509.6412,126.8786C510.2396,126.5059,511.761,124.2174,512.9593,121.8368C515.7718,116.3757,515.9558,118.8031,513.3288,126.0382C510.7004,133.2735,504.1552,142.5165,498.8547,146.3906C494.0152,149.9387,492.7254,149.892,496.0437,146.2985L498.2563,143.8244L494.7063,146.2504C481.8941,154.9805,462.4892,155.3999,449.6742,147.1842C447.6471,145.9244,445.3894,145.0841,444.6505,145.4101C442.5306,146.205,440.1803,144.5244,436.723,139.623C433.4961,135.141,431.6065,130.4267,433.4961,131.5929C434.1886,132.0138,434.2337,131.6397,433.7729,130.4267C429.3027,119.5499,429.2563,119.5031,429.2099,106.7132C429.1186,92.4753,430.5923,88.3206,438.843,79.7322C444.0971,74.2229,452.9474,68.9956,448.4295,74.0827C447.0472,75.6697,447.4629,75.5775,451.1493,73.4761C460.2751,68.3409,471.7077,66.9878,482.6316,69.8813zM464.9771,90.8415C464.4714,91.3544,461.6125,92.1961,458.571,92.7544C455.5745,93.3155,451.7955,94.3429,450.1828,95.0896C448.5686,95.8364,446.7254,96.4428,446.0342,96.4896C444.0971,96.5364,440.6411,99.804,440.6411,101.578C440.6411,102.6508,440.134,102.9781,439.2587,102.6508C438.0591,102.1845,438.014,102.4184,438.8892,104.0522C439.7645,105.7326,439.5355,106.3391,437.5982,108.0197C436.3086,109.0938,434.9712,111.4276,434.6031,113.2484C434.28,115.0211,433.5889,116.9822,433.128,117.5887C432.2992,118.6628,434.096,125.2915,436.539,130.1462C437.2301,131.4994,437.5982,132.8526,437.3215,133.1332C437.0448,133.4137,437.6909,133.88,438.7979,134.254C440.0413,134.6749,441.1483,134.3942,441.8395,133.554C442.8987,132.2462,446.1719,130.6137,446.1719,131.4059C446.1719,131.6397,445.7575,132.9462,445.2503,134.3008C444.1448,137.1944,445.4344,139.623,447.6007,138.7827C448.3382,138.5022,448.9381,138.7346,448.9381,139.2957C448.9381,139.8554,448.5223,140.323,448.0164,140.323C447.508,140.323,447.0936,141.2087,447.0936,142.236C447.0936,144.0101,447.2325,144.0568,448.5223,142.7036C449.3525,141.91,451.0116,141.2568,452.2099,141.2568C454.3299,141.2568,454.2835,141.1151,451.0116,138.0359C445.7111,133.1332,448.3382,130.6137,455.021,134.1605C461.8893,137.7554,473.8262,139.5749,473.8262,137.0086C473.8262,135.8878,471.5686,131.9202,470.8774,131.9202C467.5591,131.9202,463.5484,129.0253,464.7003,127.4851C465.3466,126.5981,464.6554,127.0188,463.134,128.4188C459.9535,131.3605,458.755,131.6865,459.4013,129.3526C459.6767,128.4656,460.3679,125.898,460.9214,123.7045C461.6589,120.8577,462.5805,119.4563,464.1946,118.8484C465.4393,118.3355,466.4522,117.5434,466.4522,116.9822C466.4522,115.629,465.4393,115.816,463.4571,117.6822C462.0283,118.942,459.3086,119.4096,450.4595,119.8304C438.982,120.3901,437.2301,120.2966,440.2717,119.2225C441.2409,118.8484,445.8502,116.9822,450.5045,114.9758C455.1601,113.0147,459.4926,111.3809,460.1375,111.3809C460.7372,111.3809,460.4606,110.7744,459.4926,110.073C458.5247,109.3262,457.4191,108.9535,457.0032,109.1873C456.6352,109.4198,456.5425,109.047,456.8192,108.3457C457.096,107.6471,456.2208,106.1067,454.976,104.8924C451.5187,101.6248,452.0259,101.2975,458.2479,102.8378C462.5805,103.9119,464.0106,104.7054,464.6554,106.3859C465.1162,107.5989,466.0841,108.5809,466.8667,108.5809C468.4808,108.5809,467.8346,106.1521,465.9914,105.4521C463.9179,104.6119,463.2731,97.0026,464.9771,93.5493C466.4985,90.422,466.4985,89.3011,464.9771,90.8415zM471.9831,134.8619C471.9831,135.8411,467.5591,135.7943,465.0698,134.7202C463.7338,134.1605,464.4237,133.9735,467.6042,133.9735C470.0008,134.0202,471.9831,134.3942,471.9831,134.8619zM484.0604,125.7577C483.4606,126.4577,481.7551,127.5786,480.2337,128.1851C477.8833,129.2123,477.5139,129.8202,477.653,132.7138C477.7457,135.3267,477.8833,135.5605,478.2065,133.7864C478.7136,130.8929,480.0959,129.1189,481.8015,129.1189C482.539,129.1189,484.2445,128.0461,485.6268,126.785C487.47,125.0577,487.7004,124.4512,486.5947,124.4512C485.7659,124.4512,484.6125,125.0577,484.0604,125.7577zM492.9558,110.2147C490.2361,111.3341,489.5913,112.0341,490.0057,113.3873C490.6041,115.3017,488.6219,121.6512,487.425,121.6512C486.9642,121.6512,486.9165,122.1175,487.286,122.724C487.7004,123.4239,488.4856,122.8174,489.4072,121.0902C490.2361,119.5966,491.388,118.2902,491.9879,118.1498C493.647,117.8225,492.356,120.8095,489.729,123.2837C488.5307,124.4512,487.7931,125.8045,488.1161,126.3189C488.4379,126.8318,486.7788,128.3721,484.4749,129.7721C479.7729,132.667,477.653,135.654,481.9391,133.4137C489.3146,129.5397,500.1921,116.0484,495.906,116.0484C495.3062,116.0484,495.3062,115.3952,495.9974,114.0873C496.5509,113.0147,496.7812,111.8938,496.5045,111.6133C496.2277,111.3341,496.6885,110.5405,497.5651,109.8874C499.8228,108.16,497.4724,108.3003,492.9558,110.2147zM474.5188,120.0174C475.5794,121.1836,476.6387,123.1447,476.8691,124.4512C477.1922,126.5059,477.2849,126.5513,477.3762,124.7304C477.6066,121.5577,475.8561,117.9161,474.1493,117.9161C472.7669,117.9161,472.8133,118.1966,474.5188,120.0174zM468.6648,119.0355C468.2041,119.6901,468.0199,120.9966,468.1577,121.9304C468.2953,122.8642,467.9273,124.2642,467.3274,125.0109C466.4059,126.085,466.4522,126.2721,467.6042,125.8045C468.3881,125.5253,469.3096,123.7513,469.6327,121.9772C470.3252,118.3836,469.8631,117.0757,468.6648,119.0355zM476.501,114.2276C475.8084,114.6952,475.6244,115.1146,476.1315,115.1614C476.6387,115.2082,478.1137,115.3952,479.3584,115.5355C480.6494,115.6758,482.3072,115.4419,483.0462,114.9277C484.2894,114.1809,484.2894,114.1354,483.0462,114.4614C482.3072,114.6952,480.7872,114.5082,479.7279,114.1354C478.6672,113.7147,477.2371,113.8081,476.501,114.2276zM459.5389,71.6086C443.4522,76.7437,437.5982,85.9401,447.3703,90.6544C452.9012,93.3155,459.5389,92.009,469.4487,86.2206C472.8596,84.2127,475.6708,82.953,475.6708,83.4193C475.6708,83.8854,474.7955,84.7257,473.7349,85.2868C470.1863,87.1998,468.8952,92.1961,470.6007,97.3766C471.5686,100.3637,471.8917,103.1184,471.4309,105.4053C470.9702,107.8795,471.1078,108.673,471.8453,108.2068C472.4439,107.8327,472.9047,106.5262,472.9047,105.2665C472.9047,104.0054,473.6886,102.2313,474.6101,101.3443C482.4463,93.922,483.5997,93.5947,481.248,99.4313C480.7872,100.5975,480.141,102.7443,479.8655,104.1924C479.4962,105.7794,478.4355,107.1327,477.0082,107.6471C475.7635,108.16,474.7492,108.9535,474.7492,109.5133C474.7492,110.8679,475.3953,110.6808,478.2514,108.6262C480.2337,107.1327,482.3999,106.76,488.8537,106.6198C496.0437,106.4794,501.8976,104.8456,495.2135,104.8456C492.6327,104.8456,490.3738,101.6248,485.9499,91.5414C485.4891,90.4674,490.2361,90.7012,490.8809,91.7753C491.204,92.2882,491.9416,92.7091,492.5414,92.7091C493.0935,92.7091,492.356,91.5414,490.836,90.1415C489.3595,88.7401,487.5164,86.6401,486.7325,85.5206C485.1197,83.1401,464.4237,77.7711,456.8656,77.7711C454.5603,77.7711,452.6258,77.3517,452.6258,76.8373C452.6258,75.5308,456.2657,75.6697,465.9914,77.3034C470.5543,78.0502,475.8561,78.6581,477.7906,78.7048L481.248,78.7048L478.2514,76.0905C471.1542,69.9294,467.5128,69.0423,459.5389,71.6086zM485.2587,102.4637C487.286,105.5924,487.1933,105.7794,483.6446,105.7794C480.7872,105.7794,480.6031,105.5924,481.0176,102.9781C481.4784,99.5701,483.2302,99.3845,485.2587,102.4637zM440.318,81.4595C435.387,86.6869,429.4867,97.0026,429.6243,100.1766C429.6707,100.9248,430.2693,100.0832,430.9154,98.2637C433.4047,91.448,436.3999,86.5933,441.3787,81.3178C444.1448,78.3308,446.2633,75.9048,445.9865,75.9048C445.7575,75.9048,443.1754,78.3775,440.318,81.4595zM436.9534,88.6947C435.432,91.1207,434.1886,93.5012,434.1886,94.0623C434.2337,94.6221,435.2016,93.3623,436.4476,91.3077C437.6909,89.2545,439.166,86.8271,439.7195,85.9401C440.2717,85.0531,440.457,84.3063,440.1803,84.3063C439.9035,84.3063,438.4284,86.266,436.9534,88.6947zM502.5425,129.1656C503.9712,129.9591,504.1552,130.472,503.28,131.4994C502.0367,133.0396,500.976,132.5735,499.5937,130.0059C498.4867,127.9059,499.5937,127.5786,502.5425,129.1656z" />
    </g>
  </g>
</svg>