<?xml version='1.0' encoding='utf-8'?>
<svg xmlns="http://www.w3.org/2000/svg" version="1.1" id="图层_1" x="0px" y="0px" viewBox="0 0 3300 2200">
  <g id="Guides">
    <g id="H-reference" transform="matrix(1 0 0 1 339 696)">
      <path class="st6" d="M1,0h2.6l25.7-67.1H30v-3.3h-1.9L1,0z M11.7-24.5H47l-0.8-2.2H12.4L11.7-24.5z M55.1,0h2.6L30.6-70.5h-1.2    v3.3L55.1,0z" />
    </g>
    <line id="Baseline-S" class="st7" x1="263" y1="696" x2="3036" y2="696" />
    <line id="Capline-S" class="st7" x1="263" y1="625.5" x2="3036" y2="625.5" />
    <g id="H-reference_00000174582976744177833630000007730325773184391314_" transform="matrix(1 0 0 1 339 1126)">
      <path class="st6" d="M1,0h2.6l25.7-67.1H30v-3.3h-1.9L1,0z M11.7-24.5H47l-0.8-2.2H12.4L11.7-24.5z M55.1,0h2.6L30.6-70.5h-1.2    v3.3L55.1,0z" />
    </g>
    <line id="Baseline-M" class="st7" x1="263" y1="1126" x2="3036" y2="1126" />
    <line id="Capline-M" class="st7" x1="263" y1="1055.5" x2="3036" y2="1055.5" />
    <g id="H-reference_00000113329496982249443560000009416180920334905247_" transform="matrix(1 0 0 1 339 1556)">
      <path class="st6" d="M1,0h2.6l25.7-67.1H30v-3.3h-1.9L1,0z M11.7-24.5H47l-0.8-2.2H12.4L11.7-24.5z M55.1,0h2.6L30.6-70.5h-1.2    v3.3L55.1,0z" />
    </g>
    <line id="Baseline-L" class="st7" x1="263" y1="1556" x2="3036" y2="1556" />
    <line id="Capline-L" class="st7" x1="263" y1="1485.5" x2="3036" y2="1485.5" />
    <line id="left-margin-Regular-M" class="st5" x1="1391.3" y1="1030.8" x2="1391.3" y2="1150.1" />
    <line id="right-margin-Regular-M" class="st5" x1="1508.4" y1="1030.8" x2="1508.4" y2="1150.1" />
  </g>
  <g id="Symbols">
    <g id="Regular-M" transform="matrix(1 0 0 1 1391.32 1126)">
      <g>
        <path d="M59.3,7.1c-1.8-1-3.6-1.6-4.8-2.8c-12.1-12-24.1-24-36.1-36c-2.6-2.6-2.4-5.6,0.2-8.1c12-12,24-24.1,36.1-36     c2.9-2.9,5.5-3,8.5,0c12,11.8,23.9,23.7,35.7,35.6c3.4,3.5,3.3,5.8-0.2,9.3C87.2-19.3,75.6-7.7,63.9,3.9     C62.7,5.1,61,5.9,59.3,7.1z M21.4-35.9C33.8-23.4,46.6-10.6,59,1.9c12.4-12.4,25.3-25.2,37.7-37.6C84.2-48.1,71.4-61,59-73.4     C46.6-61,33.7-48.2,21.4-35.9z" />
        <g>
          <path d="M79.1-46.4v21.2c3.6-3.6,7.1-7.1,10.5-10.5C86.1-39.3,82.6-42.8,79.1-46.4z" />
          <path d="M73.9-51.7H45.1c-0.6,0.6-1.2,1.2-1.8,1.8v29.8c0.1,0.1,0.2,0.2,0.4,0.4h30c0.5-0.5,1-1,1.6-1.6v-29      C74.8-50.8,74.3-51.3,73.9-51.7z M48.8-36.2c3.2-3.2,6.5-6.6,10.2-10.3c3.7,3.7,7,7.1,10.6,10.8c-3.6,3.6-6.9,7-10.6,10.8      C55.5-28.8,52.3-32.4,48.8-36.2z" />
          <path d="M47.5-15.9c3.7,3.8,7.4,7.5,11,11.2c3.8-3.8,7.5-7.5,11.2-11.2H47.5z" />
          <path d="M39.4-46.1c-3.7,3.6-7.4,7.3-11,10.8c3.6,3.7,7.3,7.4,11,11.2V-46.1z" />
          <path d="M70.1-55.6c-3.5-3.6-7-7.1-10.3-10.5c-3.5,3.5-7.1,7-10.7,10.5H70.1z" />
        </g>
      </g>
    </g>
  </g>
</svg>