<?xml version='1.0' encoding='utf-8'?>
<svg xmlns="http://www.w3.org/2000/svg" version="1.1" id="图层_1" x="0px" y="0px" viewBox="0 0 3300 2200">
  <g id="Guides">
    <g id="H-reference" transform="matrix(1 0 0 1 339 696)">
      <path class="st6" d="M1,0h2.6l25.7-67.1H30v-3.3h-1.9L1,0z M11.7-24.5H47l-0.8-2.2H12.4L11.7-24.5z M55.1,0h2.6L30.6-70.5h-1.2    v3.3L55.1,0z" />
    </g>
    <line id="Baseline-S" class="st7" x1="263" y1="696" x2="3036" y2="696" />
    <line id="Capline-S" class="st7" x1="263" y1="625.5" x2="3036" y2="625.5" />
    <g id="H-reference_00000174582976744177833630000007730325773184391314_" transform="matrix(1 0 0 1 339 1126)">
      <path class="st6" d="M1,0h2.6l25.7-67.1H30v-3.3h-1.9L1,0z M11.7-24.5H47l-0.8-2.2H12.4L11.7-24.5z M55.1,0h2.6L30.6-70.5h-1.2    v3.3L55.1,0z" />
    </g>
    <line id="Baseline-M" class="st7" x1="263" y1="1126" x2="3036" y2="1126" />
    <line id="Capline-M" class="st7" x1="263" y1="1055.5" x2="3036" y2="1055.5" />
    <g id="H-reference_00000113329496982249443560000009416180920334905247_" transform="matrix(1 0 0 1 339 1556)">
      <path class="st6" d="M1,0h2.6l25.7-67.1H30v-3.3h-1.9L1,0z M11.7-24.5H47l-0.8-2.2H12.4L11.7-24.5z M55.1,0h2.6L30.6-70.5h-1.2    v3.3L55.1,0z" />
    </g>
    <line id="Baseline-L" class="st7" x1="263" y1="1556" x2="3036" y2="1556" />
    <line id="Capline-L" class="st7" x1="263" y1="1485.5" x2="3036" y2="1485.5" />
    <line id="left-margin-Regular-M" class="st5" x1="1391.3" y1="1030.8" x2="1391.3" y2="1150.1" />
    <line id="right-margin-Regular-M" class="st5" x1="1508.4" y1="1030.8" x2="1508.4" y2="1150.1" />
  </g>
  <g id="Symbols">
    <g id="Regular-M" transform="matrix(1 0 0 1 1391.32 1126)">
      <g>
        <g>
          <path d="M9.2-35.9c2-1,4.2-1.7,5.9-3.1c1.8-1.5,3.9-3.3,4.6-5.5C24.5-59.9,34-70.5,50.1-74.6c1.9-0.5,3.6-2.4,4.9-3.9      c1.5-1.7,2.5-3.9,4.3-6.7c1.4,2.4,2.8,3.9,3.4,5.7c1.1,3.2,3.3,4.5,6.5,5.3c15.8,4,24.8,14.7,29.4,29.8c0.6,1.9,2.3,3.6,3.8,5      c1.5,1.3,3.6,2.1,5.4,3.1c0.2,0.1,0.3,0.5,0.4,0.8c-9,3.6-10.3,12.7-14.4,19.8C88.7-6.8,81.7-0.1,71.7,2.5      c-5.1,1.4-8.5,3.7-10.2,8.7c-0.3,0.9-1.2,1.6-2.2,3c-1.1-1.4-2.2-2.4-2.7-3.6c-1.6-4.4-4.7-6.6-9.3-7.8      C34-0.8,25.5-9.8,21.2-22.5c-1.8-5.3-4.1-9-9.3-10.8c-1-0.3-1.8-1.1-2.6-1.7C9.2-35.3,9.2-35.6,9.2-35.9z M97.6-35.3      c-1-22-15.6-38.4-38.6-38.4c-22.3,0-38.3,16.7-38.4,38.3C20.4-14.1,37,2.8,58.7,3C80.7,3.1,96.6-13.1,97.6-35.3z" />
          <path d="M59-0.1c-20.2,0-35.5-15.1-35.5-35.1c0-20.1,15.5-35.6,35.6-35.6c20.5,0,35.1,14.6,35.1,35.2C94.2-14.7,79.7-0.1,59-0.1      z M88.7-34.8c0.1-0.3,0.1-0.6,0.2-0.9c-4.5-1.4-9-3.3-13.6-4c-7.2-1.1-10.3-5.4-11.8-11.9c-1.1-4.5-2.7-8.9-4-13.3      c-2.6,5.9-4.3,11.7-5.9,17.5c-1,3.7-3.3,5.6-7,6.5c-5.8,1.4-11.5,3.4-17.2,5.2c0,0.4,0.1,0.7,0.1,1.1c7.3,2.2,14.6,4.5,22.3,6.9      c2.3,7.6,4.6,15.2,7.1,23.4c2.5-7.2,4.9-13.6,6.9-20c1-3.2,2.8-4.5,5.8-5.3C77.3-31.4,83-33.2,88.7-34.8z" />
          <path d="M65.4-35.6c-2.9,2-4.5,4.1-5.8,3.9c-1.7-0.2-3.1-2.2-4.7-3.5c1.4-1.4,2.6-3.8,4.1-4C60.5-39.4,62.3-37.4,65.4-35.6z" />
        </g>
      </g>
    </g>
  </g>
</svg>