<?xml version='1.0' encoding='utf-8'?>
<svg xmlns="http://www.w3.org/2000/svg" version="1.1" id="图层_1" x="0px" y="0px" viewBox="0 0 3300 2200">
  <g id="Guides">
    <g id="H-reference" transform="matrix(1 0 0 1 339 696)">
      <path class="st6" d="M1,0h2.6l25.7-67.1H30v-3.3h-1.9L1,0z M11.7-24.5H47l-0.8-2.2H12.4L11.7-24.5z M55.1,0h2.6L30.6-70.5h-1.2    v3.3L55.1,0z" />
    </g>
    <line id="Baseline-S" class="st7" x1="263" y1="696" x2="3036" y2="696" />
    <line id="Capline-S" class="st7" x1="263" y1="625.5" x2="3036" y2="625.5" />
    <g id="H-reference_00000174582976744177833630000007730325773184391314_" transform="matrix(1 0 0 1 339 1126)">
      <path class="st6" d="M1,0h2.6l25.7-67.1H30v-3.3h-1.9L1,0z M11.7-24.5H47l-0.8-2.2H12.4L11.7-24.5z M55.1,0h2.6L30.6-70.5h-1.2    v3.3L55.1,0z" />
    </g>
    <line id="Baseline-M" class="st7" x1="263" y1="1126" x2="3036" y2="1126" />
    <line id="Capline-M" class="st7" x1="263" y1="1055.5" x2="3036" y2="1055.5" />
    <g id="H-reference_00000113329496982249443560000009416180920334905247_" transform="matrix(1 0 0 1 339 1556)">
      <path class="st6" d="M1,0h2.6l25.7-67.1H30v-3.3h-1.9L1,0z M11.7-24.5H47l-0.8-2.2H12.4L11.7-24.5z M55.1,0h2.6L30.6-70.5h-1.2    v3.3L55.1,0z" />
    </g>
    <line id="Baseline-L" class="st7" x1="263" y1="1556" x2="3036" y2="1556" />
    <line id="Capline-L" class="st7" x1="263" y1="1485.5" x2="3036" y2="1485.5" />
    <line id="left-margin-Regular-M" class="st5" x1="1391.3" y1="1030.8" x2="1391.3" y2="1150.1" />
    <line id="right-margin-Regular-M" class="st5" x1="1508.4" y1="1030.8" x2="1508.4" y2="1150.1" />
  </g>
  <g id="Symbols">
    <g id="Regular-M" transform="translate(1391.32, 1126)">
      <g>
        <g transform="translate(4.3531, 0.8162)scale(0.9316, 0.9316)">
          <path fill="#000000" transform="translate(0.9724, -64.4237)" d="M0,0C3.9,2.143,7.7546,4.3535,11.5928,6.6045C13.3169,7.604,15.0505,8.5872,16.79,9.5596C19.8009,11.2508,22.7755,12.9957,25.75,14.75C26.7266,15.2851,27.7033,15.8202,28.7095,16.3716C32.8269,18.8574,35.4707,20.4675,37.0801,25.127C37.5824,28.1078,37.9017,30.9807,38,34C38.2349,33.4222,38.4699,32.8444,38.7119,32.249C42.8045,22.33,48.6574,13.7889,56,6C60.7332,6.8364,62.6527,9.7728,65.4375,13.4375C65.924,14.067,66.4104,14.6964,66.9116,15.345C71.29,21.1379,74.6981,27.0944,77,34C76.9239,33.273,76.8479,32.5459,76.7695,31.7969C76.8244,27.9081,77.3046,25.5357,79,22C83.76,17.5665,89.7528,14.587,95.4097,11.458C99.4258,9.1975,103.2991,6.7215,107.1875,4.25C108.5135,3.4205,109.8402,2.5923,111.168,1.7656C112.1025,1.183,113.0371,0.6003,114,0C115.0419,3.1631,114.9857,4.8482,113.7524,7.9265C113.4553,8.6838,113.1581,9.441,112.852,10.2212C112.5218,11.0287,112.1917,11.8361,111.8516,12.668C111.5196,13.5034,111.1876,14.3388,110.8456,15.1995C109.7824,17.8665,108.7036,20.5268,107.625,23.1875C106.9053,24.9912,106.1865,26.7952,105.4688,28.5996C104.7847,30.3102,104.0998,32.0205,103.4141,33.7305C103.088,34.544,102.7619,35.3575,102.4259,36.1956C100.1186,41.8814,100.1186,41.8814,99,43C97.5702,43.0963,96.1362,43.132,94.7031,43.1406C93.8266,43.16,92.95,43.1793,92.0469,43.1992C90.1981,43.2328,88.349,43.2513,86.5,43.2539C82.0356,43.3779,79.7078,43.4647,76.0664,46.2188C74.1198,48.8387,72.3441,51.4384,70.6875,54.25C67.3216,59.714,63.4131,64.3576,59,69C55.8699,68.7043,54.9002,67.9001,52.6328,65.6289C51.8052,64.617,50.9777,63.6051,50.125,62.5625C49.6866,62.0277,49.2483,61.4929,48.7966,60.9419C45.5109,56.8497,42.7575,52.5795,40.2539,47.9609C38.999,45.7089,38.999,45.7089,36,44C33.7787,43.6349,33.7787,43.6349,31.332,43.5859C30.4394,43.5473,29.5467,43.5086,28.627,43.4688C27.6982,43.4378,26.7694,43.4069,25.8125,43.375C24.8721,43.3363,23.9318,43.2977,22.9629,43.2578C20.6421,43.1636,18.3214,43.078,16,43C12.0837,34.6397,8.5713,26.1507,5.1875,17.5625C4.6804,16.2975,4.1733,15.0325,3.666,13.7676C3.1923,12.5668,2.7186,11.3661,2.2305,10.1289C1.8015,9.0468,1.3724,7.9647,0.9304,6.8499C0,4,0,4,0,0z" />
          <path fill="#000000" transform="translate(61.9724, -83.4237)" d="M0,0C2.2474,1.6884,4.2212,3.3309,6.25,5.25C6.8163,5.7792,7.3826,6.3085,7.9661,6.8538C14.8732,13.5224,20.4206,21.0514,24,30C20.7,31.65,17.4,33.3,14,35C13.5643,34.215,13.1286,33.4299,12.6797,32.6211C6.7921,22.0713,6.7921,22.0713,-2,14C-5.4129,14.1177,-7.8244,16.0176,-10.3477,18.207C-14.8351,23.0764,-18.0557,29.1114,-21,35C-24.3,33.35,-27.6,31.7,-31,30C-26.5958,20.197,-13.033,-4.1971,0,0z" />
          <path fill="#000000" transform="translate(87.0974, -14.4237)" d="M0,0C3.3828,0.4375,3.3828,0.4375,5.875,1C1.7684,12.5951,-7.1153,18.576,-17.125,25C-18.0196,25.602,-18.9142,26.204,-19.8359,26.8242C-20.5913,27.2122,-21.3467,27.6002,-22.125,28C-23.115,27.67,-24.105,27.34,-25.125,27C-24.6635,26.4638,-24.202,25.9275,-23.7266,25.375C-20.3319,21.296,-17.2985,17.4698,-14.8242,12.7734C-7.9511,-0.0518,-7.9511,-0.0518,0,0z" />
          <path fill="#000000" transform="translate(23.9724, -13.4237)" d="M0,0C4.647,-1.0488,8.3921,-1.337,13,0C16.9855,3.8251,19.3033,9.1238,21.8491,13.9561C24.3403,18.3803,27.6974,22.1624,31,26C30.01,26.33,29.02,26.66,28,27C25.6415,25.7533,23.5167,24.4807,21.3125,23C20.3719,22.3786,20.3719,22.3786,19.4124,21.7446C11.4074,16.3707,2.0758,10.0295,0,0z" />
        </g>
      </g>
    </g>
  </g>
</svg>