<?xml version='1.0' encoding='utf-8'?>
<svg xmlns="http://www.w3.org/2000/svg" version="1.1" id="图层_1" x="0px" y="0px" viewBox="0 0 3300 2200" style="enable-background:new 0 0 3300 2200;" xml:space="preserve">
<style type="text/css">
	.st0{fill:#FFFFFF;}
	.st1{fill:none;stroke:#000000;stroke-width:0.5;}
	.st2{font-family:'Helvetica-Bold';}
	.st3{font-size:13px;}
	.st4{font-family:'Helvetica';}
	.st5{fill:none;stroke:#00AEEF;stroke-width:0.5;}
	.st6{fill:#27AAE1;}
	.st7{fill:none;stroke:#27AAE1;stroke-width:0.5;}
</style>
<g id="Notes">
	<rect id="artboard" x="-0.5" y="-63.1" class="st0" width="3300" height="2200" />
	<line class="st1" x1="262.5" y1="228.9" x2="3035.5" y2="228.9" />
	<text transform="matrix(1 0 0 1 262.5 258.9335)" class="st2 st3">Weight/Scale Variations</text>
	<text transform="matrix(1 0 0 1 533.5633 258.9335)" class="st4 st3">Ultralight</text>
	<text transform="matrix(1 0 0 1 843.2775 258.9335)" class="st4 st3">Thin</text>
	<text transform="matrix(1 0 0 1 1138.535 258.9335)" class="st4 st3">Light</text>
	<text transform="matrix(1 0 0 1 1426.5773 258.9335)" class="st4 st3">Regular</text>
	<text transform="matrix(1 0 0 1 1722.9419 258.9335)" class="st4 st3">Medium</text>
	<text transform="matrix(1 0 0 1 2015.6719 258.9335)" class="st4 st3">Semibold</text>
	<text transform="matrix(1 0 0 1 2326.4705 258.9335)" class="st4 st3">Bold</text>
	<text transform="matrix(1 0 0 1 2617.7659 258.9335)" class="st4 st3">Heavy</text>
	<text transform="matrix(1 0 0 1 2917.0054 258.9335)" class="st4 st3">Black</text>
	<line class="st1" x1="262.5" y1="1839.9" x2="3035.5" y2="1839.9" />
	<g transform="matrix(1 0 0 1 263 1933)">
		<path d="M8.7-62.3c1.1,0,2.1-0.2,3-0.6c1-0.4,1.8-1,2.5-1.7c0.7-0.7,1.3-1.6,1.7-2.5c0.4-1,0.6-2,0.6-3s-0.2-2.1-0.6-3    c-0.4-1-1-1.8-1.7-2.5c-0.7-0.7-1.6-1.3-2.5-1.7c-1-0.4-2-0.6-3-0.6c-1.1,0-2.1,0.2-3,0.6s-1.8,1-2.5,1.7    c-0.7,0.6-1.3,1.5-1.7,2.4c-0.4,1-0.6,2-0.6,3s0.2,2.1,0.6,3.1s1,1.8,1.7,2.5c0.7,0.7,1.6,1.3,2.5,1.7C6.7-62.5,7.7-62.3,8.7-62.3    z M8.7-63.8c-0.9,0-1.7-0.2-2.5-0.5c-0.7-0.3-1.4-0.7-2-1.3s-1-1.3-1.4-2c-0.3-0.8-0.4-1.7-0.4-2.6s0.2-1.7,0.5-2.5s0.8-1.5,1.4-2    c0.6-0.6,1.3-1,2-1.4c0.8-0.3,1.6-0.5,2.5-0.5s1.7,0.2,2.5,0.5c0.8,0.3,1.5,0.8,2,1.4c0.6,0.6,1,1.3,1.4,2    c0.3,0.8,0.5,1.6,0.5,2.5s-0.2,1.7-0.5,2.5s-0.8,1.5-1.4,2c-0.6,0.6-1.3,1-2,1.4C10.5-63.9,9.6-63.8,8.7-63.8z M5.2-70.2    c0,0.2,0.1,0.4,0.2,0.5c0.1,0.2,0.3,0.3,0.5,0.3H8v2.1c0,0.2,0.1,0.4,0.2,0.5c0.1,0.2,0.3,0.2,0.5,0.2s0.4-0.1,0.5-0.2    c0.2-0.1,0.3-0.3,0.3-0.5v-2.1h2.1c0.2,0,0.4-0.1,0.5-0.2c0.1-0.1,0.2-0.3,0.2-0.5c0-0.2-0.1-0.4-0.2-0.5    c-0.1-0.1-0.3-0.2-0.5-0.2H9.5v-2.1c0-0.2-0.1-0.4-0.2-0.5c-0.1-0.1-0.3-0.2-0.5-0.2s-0.4,0.1-0.5,0.2s-0.2,0.3-0.2,0.5v2.1H5.9    c-0.2-0.1-0.4,0-0.5,0.1C5.2-70.6,5.2-70.4,5.2-70.2z" />
	</g>
	<g transform="matrix(1 0 0 1 281.867 1933)">
		<path d="M11.2-60.2c1.4,0,2.6-0.3,3.8-0.8s2.3-1.2,3.2-2.2c0.9-0.9,1.6-2,2.2-3.2c0.5-1.2,0.8-2.5,0.8-3.8c0-1.4-0.3-2.6-0.8-3.8    c-0.5-1.2-1.2-2.3-2.2-3.2c-0.9-0.9-2-1.6-3.2-2.2c-1.2-0.5-2.5-0.8-3.8-0.8s-2.6,0.3-3.8,0.8s-2.3,1.2-3.2,2.2    c-0.9,0.9-1.6,2-2.2,3.2c-0.5,1.2-0.8,2.5-0.8,3.8c0,1.4,0.3,2.6,0.8,3.8c0.5,1.2,1.3,2.4,2.2,3.3c0.9,0.9,2,1.6,3.2,2.2    C8.6-60.3,9.8-60.2,11.2-60.2z M11.2-61.9C10-61.9,9-62.1,8-62.5s-1.9-1-2.6-1.8C4.6-65,4-65.9,3.6-66.9S2.9-69,2.9-70.2    s0.2-2.2,0.6-3.2s1-1.9,1.8-2.6c0.8-0.8,1.6-1.4,2.6-1.8s2.1-0.6,3.2-0.6s2.2,0.2,3.2,0.6s1.9,1,2.6,1.8c0.8,0.8,1.4,1.6,1.8,2.6    s0.6,2.1,0.6,3.2c0,1.2-0.2,2.2-0.6,3.2s-1,1.9-1.8,2.6c-0.8,0.8-1.6,1.4-2.6,1.8C13.3-62.2,12.4-61.9,11.2-61.9z M6.7-70.2    c0,0.2,0.1,0.4,0.2,0.6c0.2,0.2,0.4,0.3,0.6,0.3h2.9v2.9c0,0.2,0.1,0.4,0.2,0.6c0.1,0.2,0.3,0.2,0.6,0.2c0.2,0,0.4-0.1,0.6-0.2    C12-66,12-66.2,12-66.4v-2.9h2.9c0.2,0,0.4-0.1,0.6-0.2c0.2-0.1,0.2-0.3,0.2-0.6c0-0.2-0.1-0.4-0.2-0.6c-0.2-0.2-0.4-0.2-0.6-0.2    H12v-2.9c0-0.3-0.1-0.5-0.2-0.6s-0.4-0.2-0.6-0.2c-0.2,0-0.4,0.1-0.6,0.2c-0.1,0.2-0.2,0.4-0.2,0.6v2.9H7.5    c-0.3,0-0.5,0.1-0.6,0.2S6.7-70.4,6.7-70.2z" />
	</g>
	<g transform="matrix(1 0 0 1 305.646 1933)">
		<path d="M14.5-57.4c1.4,0,2.7-0.2,4-0.6s2.4-1,3.5-1.8s2-1.7,2.8-2.8c0.7-1.1,1.3-2.3,1.7-3.6c0.4-1.3,0.6-2.6,0.6-4    s-0.2-2.7-0.6-4s-1-2.4-1.8-3.5s-1.7-2-2.8-2.8c-1.1-0.8-2.2-1.4-3.5-1.8s-2.6-0.6-4-0.6s-2.7,0.2-4,0.6s-2.4,1-3.5,1.8    c-1.1,0.8-2,1.7-2.8,2.8s-1.4,2.2-1.8,3.5c-0.4,1.3-0.6,2.6-0.6,4s0.2,2.7,0.6,4c0.4,1.3,1,2.4,1.8,3.5c0.8,1.1,1.7,2,2.8,2.8    c1.2,0.8,2.3,1.4,3.6,1.8C11.7-57.7,13.1-57.4,14.5-57.4z M14.5-59.3c-1.2,0-2.4-0.2-3.4-0.6c-1.1-0.4-2.1-0.9-3-1.5    c-1-0.6-1.8-1.4-2.4-2.3c-0.7-0.9-1.2-1.9-1.6-3c-0.3-1.1-0.5-2.2-0.5-3.5c0-1.2,0.2-2.4,0.5-3.5c0.4-1.1,0.9-2.1,1.5-3    C6.3-77.6,7-78.4,8-79.1c0.9-0.7,1.9-1.2,3-1.5c1.1-0.4,2.2-0.5,3.4-0.5s2.4,0.2,3.5,0.5c1.1,0.4,2.1,0.9,3,1.5    c0.9,0.7,1.7,1.5,2.4,2.4c0.7,0.9,1.2,1.9,1.5,3c0.4,1.1,0.6,2.2,0.6,3.5c0,1.2-0.2,2.4-0.5,3.4c-0.4,1.1-0.9,2.1-1.5,3    c-0.7,0.9-1.5,1.7-2.4,2.4c-0.9,0.7-1.9,1.2-3,1.5C16.8-59.4,15.7-59.3,14.5-59.3z M8.7-70.2c0,0.3,0.1,0.5,0.3,0.6    c0.2,0.2,0.4,0.2,0.7,0.2h3.9v4c0,0.3,0.1,0.5,0.2,0.7c0.2,0.2,0.4,0.3,0.6,0.3c0.3,0,0.5-0.1,0.7-0.3s0.3-0.4,0.3-0.7v-4h4    c0.3,0,0.5-0.1,0.7-0.2c0.2-0.2,0.3-0.4,0.3-0.6c0-0.3-0.1-0.5-0.3-0.7c-0.3-0.1-0.5-0.2-0.8-0.2h-4V-75c0-0.3-0.1-0.5-0.3-0.7    c-0.2-0.2-0.4-0.3-0.7-0.3s-0.5,0.1-0.6,0.3c-0.2,0.2-0.2,0.4-0.2,0.7v3.9H9.6c-0.3,0-0.5,0.1-0.6,0.3C8.8-70.6,8.7-70.4,8.7-70.2    z" />
	</g>
	<text transform="matrix(1 0 0 1 262.5 1889.9336)" class="st2 st3">Design Variations</text>
	<text transform="matrix(1 0 0 1 262.5 1907.9336)" class="st4 st3">Symbols are supported in up to nine weights and three scales.</text>
	<text transform="matrix(1 0 0 1 262.5 1925.9336)" class="st4 st3">For optimal layout with text and other symbols, vertically align</text>
	<text transform="matrix(1 0 0 1 262.5 1943.9336)" class="st4 st3">symbols with the adjacent text.</text>
	<line class="st5" x1="775.5" y1="1855.9" x2="775.5" y2="1869.9" />
	<g transform="matrix(1 0 0 1 776 1933)">
		<path d="M2.8-62.9c0.3,0,0.5-0.1,0.6-0.2c0.1-0.1,0.3-0.3,0.4-0.6L5-67.1h5.8l1.3,3.4c0.1,0.3,0.2,0.5,0.4,0.6    c0.1,0.1,0.3,0.2,0.6,0.2s0.5-0.1,0.6-0.2c0.2-0.1,0.2-0.3,0.2-0.6c0-0.1,0-0.3-0.1-0.5L9.2-76.5c-0.1-0.3-0.3-0.5-0.5-0.7    c-0.2-0.1-0.5-0.2-0.8-0.2c-0.6,0-1,0.3-1.2,0.9L2.1-64.3C2-64.1,2-63.9,2-63.7s0.1,0.4,0.2,0.6C2.3-62.9,2.6-62.9,2.8-62.9z     M5.5-68.6l2.4-6.6l0,0l2.4,6.6C10.3-68.6,5.5-68.6,5.5-68.6z" />
	</g>
	<line class="st5" x1="792.7" y1="1855.9" x2="792.7" y2="1869.9" />
	<text transform="matrix(1 0 0 1 775.5 1889.9336)" class="st2 st3">Margins</text>
	<text transform="matrix(1 0 0 1 775.5 1907.9336)" class="st4 st3">Leading and trailing margins on the left and right side of each symbol</text>
	<text transform="matrix(1 0 0 1 775.5 1925.9336)" class="st4 st3">can be adjusted by modifying the x-location of the margin guidelines.</text>
	<text transform="matrix(1 0 0 1 775.5 1943.9336)" class="st4 st3">Modifications are automatically applied proportionally to all</text>
	<text transform="matrix(1 0 0 1 775.5 1961.9336)" class="st4 st3">scales and weights.</text>
	<g transform="matrix(1 0 0 1 1289 1933)">
		<path d="M2.3-61.2L4-59.5c0.5,0.4,0.9,0.6,1.4,0.6s0.9-0.3,1.4-0.8l10.7-11.8l-1-1L5.9-60.8c-0.2,0.2-0.3,0.3-0.5,0.3    S5-60.6,4.8-60.8L3.6-62c-0.2-0.2-0.3-0.4-0.3-0.6c0-0.2,0.1-0.4,0.3-0.5l11.5-10.8l-1-1L2.5-64c-0.4,0.5-0.7,0.9-0.7,1.4    C1.7-62.1,1.9-61.7,2.3-61.2z M8.8-79.4c-0.2,0.2-0.3,0.4-0.4,0.7c0,0.3,0,0.5,0.1,0.7c0.1,0.2,0.3,0.3,0.5,0.4    c0.2,0.1,0.5,0.1,0.8,0c0.7-0.2,1.5-0.2,2.2-0.2s1.5,0.3,2.2,0.7l-0.6,1.5c-0.2,0.4-0.2,0.8-0.1,1.1c0.1,0.3,0.2,0.6,0.5,0.9    l2.3,2.3c0.2,0.2,0.5,0.4,0.7,0.4s0.5,0,0.8,0l1.1-0.2l0.7,0.7v0.6c0,0.2,0,0.5,0.1,0.7c0.1,0.2,0.2,0.4,0.5,0.7l0.8,0.7    c0.2,0.2,0.5,0.4,0.8,0.4s0.5-0.1,0.8-0.3l2.9-2.9c0.2-0.2,0.3-0.5,0.3-0.8c0-0.3-0.1-0.5-0.4-0.8L24.5-73    c-0.2-0.2-0.5-0.4-0.7-0.5c-0.2-0.1-0.4-0.1-0.7-0.1h-0.6l-0.6-0.6l0.2-1.1c0.1-0.3,0.1-0.5,0-0.8c-0.1-0.3-0.3-0.5-0.6-0.8    l-2.1-2.2c-0.8-0.8-1.7-1.4-2.7-1.9c-0.9-0.4-1.9-0.6-2.8-0.6c-1,0-1.9,0.2-2.8,0.5C10.3-80.7,9.5-80.2,8.8-79.4z M10.3-79.1    c0.6-0.4,1.3-0.8,1.9-0.9c0.7-0.2,1.4-0.2,2.1-0.2c0.7,0.1,1.4,0.3,2.1,0.6c0.7,0.3,1.3,0.7,1.8,1.3l2.4,2.4    c0.1,0.1,0.2,0.2,0.2,0.3c0,0.1,0,0.3,0,0.4l-0.3,1.6l1.5,1.5l1-0.1c0.1,0,0.2,0,0.3,0c0.1,0,0.1,0.1,0.2,0.2l0.6,0.6L21.7-69    l-0.6-0.6c-0.1-0.1-0.2-0.2-0.2-0.2c0-0.1,0-0.2,0-0.3l0.1-1l-1.5-1.5L18-72.3c-0.2,0-0.3,0-0.4,0s-0.2-0.1-0.3-0.2l-2-2    c-0.1-0.1-0.2-0.2-0.2-0.3s0-0.3,0.1-0.4l0.9-2.1c-0.8-0.7-1.7-1.2-2.6-1.5c-1-0.3-2-0.3-3,0c-0.1,0-0.1,0-0.2,0    C10.2-79,10.2-79,10.3-79.1z" />
	</g>
	<text transform="matrix(1 0 0 1 1288.5 1889.9336)" class="st2 st3">Exporting</text>
	<text transform="matrix(1 0 0 1 1288.5 1907.9336)" class="st4 st3">Symbols should be outlined when exporting to ensure the</text>
	<text transform="matrix(1 0 0 1 1288.5 1925.9336)" class="st4 st3">design is preserved when submitting to Xcode.</text>
	<text id="template-version" transform="matrix(1 0 0 1 2951.9141 1869.9336)" class="st4 st3">Template v.3.0</text>
	<text transform="matrix(1 0 0 1 2864.9575 1887.9336)" class="st4 st3">Requires Xcode 13 or greater</text>
	<text id="descriptive-name" transform="matrix(1 0 0 1 2850.5293 1905.9336)" class="st4 st3">Generated from hourglass.circle</text>
	<text transform="matrix(1 0 0 1 2911.9111 1923.9336)" class="st4 st3">Typeset at 100 points</text>
	<text transform="matrix(1 0 0 1 262.5 662.9335)" class="st4 st3">Small</text>
	<text transform="matrix(1 0 0 1 262.5 1092.9336)" class="st4 st3">Medium</text>
	<text transform="matrix(1 0 0 1 262.5 1522.9336)" class="st4 st3">Large</text>
</g>
<g id="Guides">
	<g id="H-reference" transform="matrix(1 0 0 1 339 696)">
		<path class="st6" d="M1,0h2.6l25.7-67.1H30v-3.3h-1.9L1,0z M11.7-24.5H47l-0.8-2.2H12.4L11.7-24.5z M55.1,0h2.6L30.6-70.5h-1.2    v3.3L55.1,0z" />
	</g>
	<line id="Baseline-S" class="st7" x1="263" y1="696" x2="3036" y2="696" />
	<line id="Capline-S" class="st7" x1="263" y1="625.5" x2="3036" y2="625.5" />
	<g id="H-reference_00000174582976744177833630000007730325773184391314_" transform="matrix(1 0 0 1 339 1126)">
		<path class="st6" d="M1,0h2.6l25.7-67.1H30v-3.3h-1.9L1,0z M11.7-24.5H47l-0.8-2.2H12.4L11.7-24.5z M55.1,0h2.6L30.6-70.5h-1.2    v3.3L55.1,0z" />
	</g>
	<line id="Baseline-M" class="st7" x1="263" y1="1126" x2="3036" y2="1126" />
	<line id="Capline-M" class="st7" x1="263" y1="1055.5" x2="3036" y2="1055.5" />
	<g id="H-reference_00000113329496982249443560000009416180920334905247_" transform="matrix(1 0 0 1 339 1556)">
		<path class="st6" d="M1,0h2.6l25.7-67.1H30v-3.3h-1.9L1,0z M11.7-24.5H47l-0.8-2.2H12.4L11.7-24.5z M55.1,0h2.6L30.6-70.5h-1.2    v3.3L55.1,0z" />
	</g>
	<line id="Baseline-L" class="st7" x1="263" y1="1556" x2="3036" y2="1556" />
	<line id="Capline-L" class="st7" x1="263" y1="1485.5" x2="3036" y2="1485.5" />
	<line id="left-margin-Regular-M" class="st5" x1="1391.3" y1="1030.8" x2="1391.3" y2="1150.1" />
	<line id="right-margin-Regular-M" class="st5" x1="1508.4" y1="1030.8" x2="1508.4" y2="1150.1" />
</g>
<g id="Symbols">
    <g id="Regular-M" transform="translate(1391.32, 1126)">
      <g>
        <g>
          <path fill="#000000" d="M5.2589878400000005 -59.20091891999999C8.89222784 -57.20450011999999 12.4831732 -55.14519831999999 16.05884032 -53.04816671999999C17.66501188 -52.117032519999995 19.28003364 -51.201083399999995 20.90055184 -50.295195559999996C23.705506279999998 -48.719673639999996 26.47664364 -47.09412479999999 29.247687839999998 -45.45981891999999C30.157488400000002 -44.961319759999995 31.067382119999998 -44.46282059999999 32.00475804 -43.94913635999999C35.84052788 -41.63336507999999 38.30349196 -40.13339591999999 39.802809 -35.79260572C40.270751680000004 -33.015692439999995 40.56821156 -30.339298799999995 40.65978784 -27.526518919999994C40.878620680000004 -28.064797399999996 41.09754668000001 -28.60307587999999 41.322993880000006 -29.15775051999999C45.13566004 -38.398290919999994 50.588221680000004 -46.35517967999999 57.428587840000006 -53.611318919999995C61.83803696 -52.83212867999999 63.62624316000001 -50.096578439999995 66.22056284 -46.68254391999999C66.67378624 -46.09610171999999 67.12691647999999 -45.50975267999999 67.5938344 -44.90551691999999C71.67275184 -39.508851279999995 74.8477378 -33.959775879999995 76.99218784 -27.526518919999994C76.92129308 -28.20379211999999 76.85049148 -28.88115847999999 76.77745404 -29.578926879999994C76.82859888 -33.20173295999999 77.27595319999999 -35.4118608 78.85538784 -38.705718919999995C83.28980384 -42.83596751999999 88.87269631999999 -45.611669719999995 94.14266436 -48.526646119999995C97.88406312 -50.632527919999994 101.49242939999999 -52.93916951999999 105.11486284 -55.24161891999999C106.35016444 -56.014381119999996 107.58611816 -56.785932239999994 108.82309664 -57.55608595999999C109.69367684000001 -58.098836119999994 110.56435019999999 -58.64167943999999 111.46138784 -59.20091891999999C112.43202188 -56.25417495999999 112.37966596 -54.68433579999999 111.23072368 -51.81659151999999C110.95394532 -51.11109083999999 110.6770738 -50.405683319999994 110.39191104000001 -49.67884899999999C110.08429672 -48.926581999999996 109.77677556 -48.17440815999999 109.45993840000001 -47.39941011999999C109.1506472 -46.621151479999995 108.841356 -45.84289283999999 108.5227488 -45.041064719999994C107.53227168 -42.55648751999999 106.5272616 -40.07815203999999 105.52243784 -37.59944391999999C104.85196532 -35.91911699999999 104.18233124 -34.23851059999999 103.51372192000001 -32.557531559999994C102.87641436 -30.963936599999993 102.23836152 -29.370621119999996 101.59956340000001 -27.777585119999994C101.29576863999999 -27.019728519999994 100.99197388 -26.26187191999999 100.67895628 -25.481097959999992C98.5294756 -20.184206679999996 98.5294756 -20.184206679999996 97.48738784 -19.142118919999994C96.15538616 -19.05240583999999 94.81947176 -19.019147719999992 93.4843958 -19.011135959999997C92.6678484 -18.993062919999993 91.85120784 -18.975083039999994 91.00987988 -18.956544199999996C89.2875378 -18.925242439999998 87.56491624 -18.90800783999999 85.84238784 -18.905585679999994C81.68335280000001 -18.790067279999995 79.51477432 -18.70920439999999 76.12244608 -16.143484839999992C74.30899352 -13.702785999999989 72.6547514 -11.280905479999994 71.11146284 -8.661618919999995C67.97579040000001 -3.571356519999995 64.3346318 0.754621240000013 60.22338784 5.079481080000008C57.30738668 4.8040069600000095 56.40401416 4.054814239999999 54.29170432000001 1.9389643200000108C53.52071216 0.9962782800000127 52.74981316 0.05359224000000751 51.95543784 -0.9176939199999907C51.5470244 -1.415913599999989 51.13870412 -1.9141332799999944 50.7179004 -2.427444879999996C47.65694228 -6.239738399999993 45.09187484 -10.217856719999993 42.759521080000006 -14.520544479999991C41.59045624 -16.618507679999993 41.59045624 -16.618507679999993 38.79658784 -18.21051891999999C36.72722476 -18.550646079999993 36.72722476 -18.550646079999993 34.447879040000004 -18.59629447999999C33.61633288 -18.632254239999995 32.78469356 -18.66830715999999 31.92790104 -18.705384839999994C31.06263096 -18.73426443999999 30.19736088 -18.763050879999994 29.305912839999998 -18.792768919999993C28.4298362 -18.82882183999999 27.55385272 -18.864781599999993 26.65122548 -18.901952439999988C24.489168199999998 -18.98970915999999 22.32720408 -19.06945411999999 20.16458784 -19.142118919999994C16.51616276 -26.930574399999998 13.244010920000001 -34.838926799999996 10.091662840000001 -42.83969391999999C9.61924848 -44.018167919999996 9.146834120000001 -45.19664191999999 8.67423344 -46.37502275999999C8.23293452 -47.493688039999995 7.7916356 -48.61226015999999 7.336921640000001 -49.76483567999999C6.93726524 -50.772920039999995 6.53751568 -51.78100439999999 6.12574848 -52.819552079999994C5.2589878400000005 -55.474518919999994 5.2589878400000005 -55.474518919999994 5.2589878400000005 -59.20091891999999Z" />
          <path fill="#000000" d="M62.08658784 -76.90131892C64.18026568 -75.32840548 66.01905776 -73.79825247999999 67.90908784 -72.01041891999999C68.43665292 -71.5174162 68.964218 -71.02432031999999 69.5078066 -70.51631884C75.94246096 -64.30385108 81.1104188 -57.28983468 84.44498784 -48.953318919999994C81.37070784 -47.41617891999999 78.29642784 -45.87903892 75.12898784000001 -44.29531891999999C74.72308972 -45.02662491999999 74.3171916 -45.75802407999999 73.89899636 -46.51150215999999C68.4141082 -56.33969583999999 68.4141082 -56.33969583999999 60.22338784 -63.858918919999994C57.0439302 -63.74926959999999 54.7973768 -61.979322759999995 52.44667052 -59.93967771999999C48.26620868 -55.40334468 45.26589772 -49.78113868 42.52298784 -44.29531891999999C39.44870784 -45.83245891999999 36.374427839999996 -47.369598919999994 33.20698784 -48.953318919999994C37.30994056 -58.08579372 49.94504504 -80.81133727999999 62.08658784 -76.90131892Z" />
          <path fill="#000000" d="M85.49303783999999 -12.62091892C88.64445431999998 -12.21334392 88.64445431999998 -12.21334392 90.96618783999999 -11.68931892C87.14047927999998 -0.8873237599999992 78.86442435999999 4.68448268 69.53938783999999 10.66908108C68.70597847999998 11.229904280000001 67.87256911999998 11.79072748 67.01391339999998 12.368505800000003C66.31018275999999 12.7299666 65.60645211999999 13.091427400000002 64.88138783999999 13.463881080000002C63.95910383999998 13.15645308 63.036819839999986 12.849025079999999 62.086587839999986 12.532281079999999C62.51652123999999 12.032757160000001 62.946454639999985 11.533140079999997 63.389337279999985 11.018431080000001C66.55183979999998 7.21843468 69.37775523999998 3.6539467599999984 71.68281311999999 -0.7212194799999985C78.08579307999999 -12.6691758 78.08579307999999 -12.6691758 85.49303783999999 -12.62091892Z" />
          <path fill="#000000" d="M26.68578784 -11.68931892C31.01493304 -12.666381 34.5038682 -12.934868119999999 38.79658784 -11.68931892C42.509479639999995 -8.12585576 44.668742120000005 -3.1895868400000005 47.0404094 1.3121838399999994C49.361211319999995 5.433768559999999 52.488685679999996 8.95717292 55.56538784 12.532281079999999C54.64310384 12.839709079999997 53.72081984 13.147137079999998 52.770587840000005 13.463881079999998C50.573409240000004 12.302455359999998 48.593945559999995 11.1169012 46.54051284 9.73748108C45.66424988 9.158584839999998 45.66424988 9.158584839999998 44.770379680000005 8.567950439999999C37.31292168 3.5616252 28.61960312 -2.3458367199999994 26.68578784 -11.68931892Z" />
        </g>
      </g>
    </g>
</g>
</svg>