<?xml version='1.0' encoding='utf-8'?>
<svg xmlns="http://www.w3.org/2000/svg" version="1.1" id="图层_1" x="0px" y="0px" viewBox="0 0 3300 2200">
  <g id="Guides">
    <g id="H-reference" transform="matrix(1 0 0 1 339 696)">
      <path class="st6" d="M1,0h2.6l25.7-67.1H30v-3.3h-1.9L1,0z M11.7-24.5H47l-0.8-2.2H12.4L11.7-24.5z M55.1,0h2.6L30.6-70.5h-1.2    v3.3L55.1,0z" />
    </g>
    <line id="Baseline-S" class="st7" x1="263" y1="696" x2="3036" y2="696" />
    <line id="Capline-S" class="st7" x1="263" y1="625.5" x2="3036" y2="625.5" />
    <g id="H-reference_00000174582976744177833630000007730325773184391314_" transform="matrix(1 0 0 1 339 1126)">
      <path class="st6" d="M1,0h2.6l25.7-67.1H30v-3.3h-1.9L1,0z M11.7-24.5H47l-0.8-2.2H12.4L11.7-24.5z M55.1,0h2.6L30.6-70.5h-1.2    v3.3L55.1,0z" />
    </g>
    <line id="Baseline-M" class="st7" x1="263" y1="1126" x2="3036" y2="1126" />
    <line id="Capline-M" class="st7" x1="263" y1="1055.5" x2="3036" y2="1055.5" />
    <g id="H-reference_00000113329496982249443560000009416180920334905247_" transform="matrix(1 0 0 1 339 1556)">
      <path class="st6" d="M1,0h2.6l25.7-67.1H30v-3.3h-1.9L1,0z M11.7-24.5H47l-0.8-2.2H12.4L11.7-24.5z M55.1,0h2.6L30.6-70.5h-1.2    v3.3L55.1,0z" />
    </g>
    <line id="Baseline-L" class="st7" x1="263" y1="1556" x2="3036" y2="1556" />
    <line id="Capline-L" class="st7" x1="263" y1="1485.5" x2="3036" y2="1485.5" />
    <line id="left-margin-Regular-M" class="st5" x1="1391.3" y1="1030.8" x2="1391.3" y2="1150.1" />
    <line id="right-margin-Regular-M" class="st5" x1="1508.4" y1="1030.8" x2="1508.4" y2="1150.1" />
  </g>
  <g id="Symbols">
    <g id="Regular-M" transform="matrix(1 0 0 1 1391.32 1126)">
      <g>
        <path d="M34.3-24.6c0.9,0.5,1.9,0.8,2.6,1.4c1.9,1.7,3.7,3.6,5.6,5.3c4.5,4,10,6,15.8,7.2c1.4,0.3,2.1,0.8,2.4,2.2     c0.4,1.8,0.9,2,2.7,1.9c1-0.1,2-0.3,2.9-0.4c1.2-0.2,1.9,0.2,2.1,1.4c0.4,1.8,0.9,3.5,1.3,5.3C70.2,1.8,69,3.4,67.9,5     c-0.2,0.3-0.8,0.4-1.2,0.5c-7.8,1.4-15.4,0.8-22.8-2.1c-1.5-0.6-3.4-0.5-5.1-0.5c-1.5,0-3,0.4-4.5,0.5c-1.7,0.2-2.2-0.1-2.7-1.7     c-0.7-2.2-1.3-4.5-1.9-6.8c-0.2-0.6-0.4-1.1-0.8-1.6c-2.9-3.8-5.5-7.6-7.4-12c-0.7-1.6-1.4-3.2-3.7-3.1c-1,0.1-1.4-0.8-1.6-1.6     c-0.5-3-1.3-6-1.5-9c-0.2-3.2,0-6.5,0.2-9.8c0.3-3.9,2.2-6.1,6.1-7.1c-0.1-1.7-0.1-3.5-0.3-5.3c-0.2-2.3-0.6-4.7-0.9-7     c-0.2-1.6,0-1.8,1.6-2c1.7-0.2,3.3-0.4,5-0.5c3-0.2,5.9-0.8,8.1-3c0.4-0.4,0.9-0.6,1.3-0.9c1-0.7,1.8-0.6,2.5,0.4     c1,1.3,2.1,2.6,3.1,3.9c0.9,1,1.2,2.1,0.3,3.3c-0.8,1-1.5,2.2-2.5,2.9c-4,3-6.5,7-7.9,11.6c-2.2,7.4-0.9,14.5,2.3,21.4     C33.9-24.4,34.1-24.5,34.3-24.6z M32-7.3C31.8-4,32.3-1,32.6,2c3.3,0,8.6-1.5,9.8-2.9C39.1-3,35.8-5,32-7.3z M23.7-53.7     c2.4-3.5,4.4-6.5,6.8-9.9c-3.3,0.3-6.3,0.6-9.6,1C21.8-59.6,22.7-56.9,23.7-53.7z" />
        <path d="M87.3-46.6c-0.6,0-1.1,0-1.5,0c-1.8-0.2-3.4-0.5-4.6-2.3c-1.4-2.1-3.3-3.9-5-5.9c-0.1-0.2-0.4-0.3-0.5-0.5     c-1.6-3.7-5.3-4.9-8.5-6.2c-6.4-2.6-12.9-3.1-19.6-1c-1.8,0.6-4.6-1.2-5-3.1c-0.1-0.3-0.1-0.7,0.1-0.9c1.3-2,2.3-4.4,5-4.9     c1.4-0.3,2.5-0.9,3.3-2.2c0.4-0.6,1.2-1.2,1.9-1.4c1.9-0.6,3.6-1.6,5-3.1c0.5-0.5,1.3-0.9,2-0.8c3.4,0.1,6.8,0.5,10,1.8     c0.9,0.4,1.4,1,1.5,2c0.1,1,0.3,2.4,0.9,2.9c1.2,0.9,2.8,1.7,4.3,1.8c2.4,0.2,4.8-0.3,7.2-0.5c2-0.2,2.2-0.1,2.3,2     c0.2,2.3,0.4,4.5,0.7,6.8c0.1,0.9,0.7,1.8,1.2,2.6c1,1.5,2.1,2.8,3.1,4.2c1.2,1.6,2.3,3.3,0.9,5.5c0.6-0.3,1.1-0.6,1.7-0.9     c1.6-0.9,2-0.9,2.8,0.7c0.8,1.5,1.5,3.1,2.4,4.7c0.7,1.3,0.8,2.6,0,3.9c-1.2,1.8-1.4,3.8-1.2,5.9c0.3,3.7,0,7.4-1,11     c-0.7,2.4-0.5,4.8,0,7.1c0.4,2.1,0.9,4.2,1.3,6.2c0.4,2.1,0,2.6-2.1,2.9c-1.7,0.2-3.4,0.5-5.2,0.7c-1,4.1-3.5,7-7,9.1     c-2.4,1.5-2.7,1.4-4.6-0.7c-0.1-0.2-0.4-0.3-0.6-0.4c-1.5,0.6-3,1.4-4.5,2c-1.7,0.7-2.1,0.4-2.6-1.3C71.1,0,71-1.1,70.6-2     c-1.1-2.6-0.1-4.8,1.4-6.8c0.4-0.6,1.1-1,1.8-1.3c3.3-1.7,6.2-3.8,8.6-6.7c0.8-1,1.3-1.9,0.3-3.2c-0.4-0.6-0.3-1.7-0.1-2.6     c0.5-2.5,1.3-5,1.9-7.5c0.5-2,0.1-4.2,1.4-6.1c0.3-0.5,0.1-1.7-0.2-2.4c-1-2.3-0.9-4.4,0.8-6.3C86.8-45.3,87-45.9,87.3-46.6z      M95.7-18.4c-0.2,0-0.3,0-0.5,0c-1.6,2.7-3.1,5.3-4.7,8.1c2.2,0.9,4.3,1.2,6.9,0.6C96.8-12.7,96.3-15.5,95.7-18.4z M85.6-63.5     c-0.1-2.4-0.3-4.5-0.4-6.8c-2.3,0.4-4.4,0.7-6.9,1.1C80.9-67.2,83.1-65.5,85.6-63.5z" />
        <path d="M58.8-16.5c-3.7,0.1-8.2-1.7-12.2-5c-1.2-1-2.6-1.9-3.9-2.7c-0.9-0.6-1.5-1.3-1.7-2.4c-0.4-1.7-0.8-3.3-1.4-5     c-2.5-7.6-0.5-16,5.9-21.4c3.7-3.1,8.1-3.9,12.7-3.5c4.2,0.4,8,2,11.4,4.5c0.9,0.7,2,1,3.1,1.4c1.4,0.5,2.3,1.3,2.5,2.8     c0.2,2.4,1.2,4.5,1.9,6.8c1.9,6.3,1,12.2-2.9,17.6C70.7-18.5,66-16.5,58.8-16.5z M71.9-33.9c0-4.1-1.4-7.3-3.7-10     c-2.5-3-5.8-5-9.7-5.5c-1.6-0.2-3.6-0.8-4.8,0.8c-1.3,1.6-3.2,0.3-4.7,1.5c-2.8,2.3-4.1,5.1-3.9,8.5c0.3,5.8,3.2,10.1,8.2,13     c2.2,1.3,4.7,2.1,7.3,2c1.3,0,2.8,0,3.4-1.3c0.8-1.9,2.2-2.1,3.9-2c1,0,1.7-0.4,2.3-1.1C71.5-29.9,71.9-32,71.9-33.9z" />
        <path d="M57.9-46.6c0.4,0.2,0.8,0.4,1.1,0.6c2.8,2.4,5.5,4.9,8.3,7.3c0.8,0.7,0.5,1.5,0,2.2c-1.6,2-3.2,4-4.8,5.9     c-0.8,0.9-1.5,1.9-2.3,2.8c-0.9,1-1.3,1-2.2,0.3c-2.5-2.2-5-4.3-7.4-6.6c-1.4-1.3-1.5-1.8-0.3-3.2c2.1-2.8,4.4-5.6,6.6-8.4     C57-46.1,57.5-46.3,57.9-46.6z M67.3-37.6c-3.2-2.9-6.2-5.5-9.3-8.3c-3,3.3-5.7,6.5-8.1,10.3c3.6-0.3,6.9-1.2,10.3-1.2     c-0.2,2.6-0.3,5.1-0.5,7.5c0.1,0,0.2,0.1,0.4,0.1C62.5-31.9,64.8-34.7,67.3-37.6z" />
      </g>
    </g>
  </g>
</svg>